<?xml version="1.0" encoding="UTF-8" standalone="no"?>
<svg width="325px" height="283px" viewBox="0 0 325 283" version="1.1" xmlns="http://www.w3.org/2000/svg"
     xmlns:xlink="http://www.w3.org/1999/xlink">
  <!-- Generator: Sketch 3.7.2 (28276) - http://www.bohemiancoding.com/sketch -->
  <title>Group</title>
  <desc>Created with Sketch.</desc>
  <defs></defs>
  <g id="Page-1" stroke="none" stroke-width="1" fill="none" fill-rule="evenodd">
    <g id="Tablet_v2" transform="translate(-222.000000, -266.000000)">
      <g id="Group" transform="translate(222.000000, 266.000000)">
        <path
          d="M157.843594,281.304513 C157.537748,281.383909 157.231374,281.461063 156.923946,281.534392 C156.35736,281.669576 155.788136,281.793286 155.21667,281.905785 C153.527989,282.238008 151.820054,282.470789 150.104468,282.605314 C149.44965,282.656618 132.625625,276.712605 132.254232,276.293996 C132.153074,276.287666 132.051653,276.282127 131.950364,276.276719 C131.59361,276.258651 131.236724,276.242165 130.87997,276.223041 C130.755073,276.215919 130.630176,276.208534 130.505411,276.200752 C130.232009,276.182816 129.958872,276.162637 129.686129,276.136523 C129.175199,276.087857 128.66572,276.020727 128.161648,275.923262 C127.726685,275.839118 118.038139,260.503306 117.826461,259.977868 C117.486852,259.134979 117.182721,258.277978 116.904835,257.4128 C116.757517,256.954097 116.618377,256.492888 116.48372,256.030229 L116.482533,256.026008 C116.433076,255.936853 116.384014,255.847565 116.335347,255.758146 C116.281406,255.65844 116.227991,255.558469 116.174841,255.458235 C116.016313,255.156478 115.862005,254.852347 115.713632,254.545314 C115.433241,253.965143 115.172368,253.375609 114.931015,252.778029 C114.211176,250.995709 107.130167,225.816252 107.07029,224.970725 C107.021097,224.273834 106.989839,223.57457 107.003028,222.875833 C107.010018,222.508528 107.033098,222.142014 107.062113,221.775896 C107.101943,221.274462 110.183613,208.014022 110.79636,206.366095 C111.254535,205.133743 111.748584,203.914317 112.288001,202.715333 C112.806053,201.563564 123.388924,188.547907 123.702156,188.409293 C124.099795,188.233224 126.000022,187.736143 126.546034,187.700665 C127.210348,187.657274 136.663212,187.986068 138.029033,187.168237 C138.803209,186.704655 144.273747,180.303655 145.111889,179.968398 C145.320534,179.884914 145.531025,179.805913 145.7431,179.731529 C146.040768,179.627338 146.341339,179.530929 146.642305,179.43663 C147.385751,179.203718 148.13632,178.993226 148.892559,178.805419 C151.497458,178.158645 154.169487,177.781581 156.851936,177.686226 C157.56518,177.660772 168.434774,176.99593 168.721232,177.000019 C169.499629,177.011229 170.278025,177.01268 171.056422,177.018483 C171.284191,177.020593 171.512091,177.022835 171.739992,177.025869 C172.353002,177.035233 172.966277,177.048158 173.578364,177.0868 C174.329196,177.13428 175.08082,177.223567 175.806594,177.428519 C176.182867,177.53482 176.551359,177.669873 176.905607,177.835522 C177.015337,177.886827 177.138783,177.948681 177.245084,178.005393 C177.288871,178.028737 177.331866,178.053663 177.375257,178.077931 C177.396491,178.089932 177.395831,178.090724 177.41535,178.100351 C177.450828,178.117233 177.486833,178.132928 177.522838,178.148226 C177.705897,178.224853 177.893177,178.29106 178.081643,178.352915 C178.287123,178.420309 178.494449,178.482164 178.702831,178.540326 C179.232884,178.688435 179.769136,178.81386 180.308026,178.925304 C180.951767,179.05851 181.599859,179.171405 182.250589,179.264517 C182.877184,179.3542 191.772562,182.965792 192.058624,183.088447 C192.54476,183.295773 193.032346,183.499539 193.518349,183.706997 C194.442613,184.103449 195.362392,184.514277 196.244716,184.998302 C196.947014,185.383543 197.625572,185.815605 198.248738,186.319941 C198.4984,186.52186 198.739093,186.735121 198.968049,186.960252 C199.078438,187.068663 199.184871,187.180503 199.290512,187.293266 C199.481617,187.504681 199.670215,187.718338 199.861055,187.930016 C200.508488,188.646558 201.165813,189.353999 201.834348,190.051022 C202.383393,190.623543 210.568428,199.931463 210.702293,200.248124 C210.902629,200.722257 211.09281,201.200611 211.27666,201.681339 C211.539643,202.369261 211.789833,203.062327 212.033164,203.757503 C212.386225,204.766042 212.727812,205.778538 213.075203,206.789056 C213.169634,207.062458 217.977044,227.176665 217.991552,227.965349 C218.004872,228.697058 218.003949,229.429162 217.977835,230.160475 C217.958184,230.710708 217.924421,231.26094 217.8656,231.808403 C217.80414,232.380924 217.714721,232.951335 217.576635,233.510667 C217.517286,233.750965 217.449101,233.989153 217.370628,234.223912 C217.328952,234.348545 217.320247,234.370042 217.27501,234.494808 C217.275142,234.571566 217.276461,234.648324 217.278043,234.725082 C217.29598,235.410103 217.349922,236.093541 217.389884,236.777507 C217.396478,236.892776 217.402545,237.008177 217.40848,237.123578 C217.431824,237.622506 211.189088,257.487843 210.570142,258.177876 C210.399217,258.368584 210.222488,258.554149 210.039693,258.733647 C209.958187,258.813834 209.875098,258.892307 209.791482,258.970516 C209.689533,259.063892 209.586002,259.155422 209.484053,259.248797 C209.346627,259.376332 209.212234,259.507032 209.081403,259.641425 C208.624151,260.111074 208.205937,260.61752 207.801572,261.132934 C207.328889,261.735394 206.873615,262.351569 206.411352,262.962074 C206.327867,263.071936 206.244251,263.181666 206.160371,263.291264 C205.844106,263.702487 205.524148,264.110941 205.194035,264.511218 C204.744301,265.05657 204.276762,265.587415 203.784823,266.095312 C203.199905,266.699354 202.580696,267.270556 201.924822,267.797049 C201.509906,268.130195 201.08035,268.444086 200.638397,268.740172 C200.47433,268.849111 185.516769,278.768723 184.630357,278.952441 C184.280197,279.025111 183.92674,279.080503 183.571964,279.123762 C183.29487,279.157393 183.016984,279.183111 182.738834,279.206851 L182.719447,279.208434 C182.639919,279.260793 182.639919,279.260793 182.559996,279.312624 C182.476116,279.365907 182.476248,279.365907 182.391972,279.418662 C182.038251,279.636275 181.676221,279.839117 181.30496,280.025341 C180.288243,280.535216 162.699934,281.463041 162.094705,281.276025 C161.490795,281.089273 160.891105,280.889201 160.290887,280.691107 L160.131304,280.638616 C160.023157,280.673434 159.914746,280.707461 159.806467,280.741487 C159.70676,280.772481 159.606922,280.803211 159.507083,280.833808 C159.106279,280.955144 158.703892,281.071337 158.300186,281.182385 C158.14812,281.223666 157.995923,281.264287 157.843594,281.304513 L157.843594,281.304513 Z"
          id="Page-1-Copy" fill="#FFFFFF"></path>
        <path
          d="M110.8125,16 C110.070496,16 109.479002,15.8670013 109.038,15.601 C108.596998,15.3349987 108.264501,15.0620014 108.0405,14.782 C107.438497,14.0399963 107.1375,12.9760069 107.1375,11.59 L107.1375,4.912 C107.1375,3.52599307 107.438497,2.46200371 108.0405,1.72 C108.670503,0.92199601 109.594494,0.523 110.8125,0.523 C112.044506,0.523 112.975497,0.92199601 113.6055,1.72 C114.207503,2.46200371 114.5085,3.52599307 114.5085,4.912 L114.5085,5.899 L112.5135,5.899 L112.5135,4.912 C112.5135,4.3519972 112.4645,3.91100161 112.3665,3.589 C112.2685,3.26699839 112.139001,3.0255008 111.978,2.8645 C111.816999,2.7034992 111.635001,2.60200021 111.432,2.56 C111.228999,2.51799979 111.022501,2.497 110.8125,2.497 C110.602499,2.497 110.396001,2.51799979 110.193,2.56 C109.989999,2.60200021 109.808001,2.7034992 109.647,2.8645 C109.485999,3.0255008 109.3565,3.26699839 109.2585,3.589 C109.1605,3.91100161 109.1115,4.3519972 109.1115,4.912 L109.1115,11.59 C109.1115,12.2060031 109.170999,12.6784984 109.29,13.0075 C109.409001,13.3365016 109.559499,13.5744993 109.7415,13.7215 C109.923501,13.8685007 110.108999,13.9559999 110.298,13.984 C110.487001,14.0120001 110.658499,14.026 110.8125,14.026 C110.966501,14.026 111.141499,14.0120001 111.3375,13.984 C111.533501,13.9559999 111.718999,13.8685007 111.894,13.7215 C112.069001,13.5744993 112.215999,13.3365016 112.335,13.0075 C112.454001,12.6784984 112.5135,12.2060031 112.5135,11.59 L112.5135,10.414 L110.1195,10.414 L110.1195,8.419 L114.5085,8.419 L114.5085,11.59 C114.5085,12.9760069 114.207503,14.0399963 113.6055,14.782 C113.381499,15.0620014 113.049002,15.3349987 112.608,15.601 C112.166998,15.8670013 111.568504,16 110.8125,16 L110.8125,16 Z M117.8475,16 L115.8105,16 L119.3805,0.523 L120.9555,0.523 L124.5675,16 L122.5095,16 L121.5225,11.674 L118.8345,11.674 L117.8475,16 Z M120.1785,5.899 L119.2965,9.7 L121.0605,9.7 L120.1785,5.899 Z M127.0245,16 L124.9875,16 L128.5575,0.523 L130.1325,0.523 L133.7445,16 L131.6865,16 L130.6995,11.674 L128.0115,11.674 L127.0245,16 Z M129.3555,5.899 L128.4735,9.7 L130.2375,9.7 L129.3555,5.899 Z M136.1385,6.613 L136.1385,15.979 L134.1645,15.979 L134.1645,0.502 L135.8235,0.502 L139.6035,9.868 L139.6035,0.502 L141.5985,0.502 L141.5985,15.979 L139.9185,15.979 L136.1385,6.613 Z M158.3145,0.502 L158.3145,2.497 L154.9335,2.497 L154.9335,15.979 L152.9385,15.979 L152.9385,2.497 L149.5575,2.497 L149.5575,0.502 L158.3145,0.502 Z M165.2445,8.377 C165.622502,8.74100182 165.912999,9.17499748 166.116,9.679 C166.319001,10.1830025 166.4205,10.7569968 166.4205,11.401 L166.4205,15.979 L164.4255,15.979 L164.4255,11.401 C164.4255,10.0429932 163.767507,9.364 162.4515,9.364 L161.4645,9.364 L161.2125,9.364 L161.2125,15.979 L159.2385,15.979 L159.2385,0.502 L162.4515,0.502 C163.781507,0.502 164.782497,0.89399608 165.4545,1.678 C166.070503,2.39200357 166.3785,3.46999279 166.3785,4.912 C166.3785,6.34000714 166.070503,7.42499629 165.4545,8.167 C165.4265,8.19500014 165.395,8.22999979 165.36,8.272 C165.325,8.31400021 165.2865,8.34899986 165.2445,8.377 L165.2445,8.377 Z M162.4515,7.369 C162.983503,7.369 163.350999,7.30600063 163.554,7.18 C163.757001,7.05399937 163.8865,6.95600035 163.9425,6.886 C164.250502,6.49399804 164.4045,5.83600462 164.4045,4.912 C164.4045,4.39399741 164.3625,3.97750158 164.2785,3.6625 C164.1945,3.34749843 164.072001,3.10250087 163.911,2.9275 C163.749999,2.75249912 163.547001,2.63700028 163.302,2.581 C163.056999,2.52499972 162.773502,2.497 162.4515,2.497 L161.2125,2.497 L161.2125,7.369 L161.4645,7.369 L162.4515,7.369 Z M171.6705,15.979 C170.928496,15.979 170.333502,15.8460013 169.8855,15.58 C169.437498,15.3139987 169.101501,15.0410014 168.8775,14.761 C168.289497,14.0049962 167.9955,12.9410069 167.9955,11.569 L167.9955,4.912 C167.9955,3.53999314 168.289497,2.47600378 168.8775,1.72 C168.989501,1.5799993 169.125999,1.4400007 169.287,1.3 C169.448001,1.1599993 169.643999,1.03050059 169.875,0.9115 C170.106001,0.792499405 170.368499,0.694500385 170.6625,0.6175 C170.956501,0.540499615 171.292498,0.502 171.6705,0.502 C172.426504,0.502 173.024998,0.63499867 173.466,0.901 C173.907002,1.16700133 174.239499,1.4399986 174.4635,1.72 C175.051503,2.47600378 175.3455,3.53999314 175.3455,4.912 L175.3455,11.569 C175.3455,12.9410069 175.051503,14.0049962 174.4635,14.761 C174.239499,15.0410014 173.907002,15.3139987 173.466,15.58 C173.024998,15.8460013 172.426504,15.979 171.6705,15.979 L171.6705,15.979 Z M171.6705,2.497 C171.516499,2.497 171.345001,2.51099986 171.156,2.539 C170.966999,2.56700014 170.781501,2.65449927 170.5995,2.8015 C170.417499,2.94850073 170.267001,3.18649836 170.148,3.5155 C170.028999,3.84450164 169.9695,4.30999699 169.9695,4.912 L169.9695,11.569 C169.9695,12.1850031 170.028999,12.6574984 170.148,12.9865 C170.267001,13.3155016 170.417499,13.5534993 170.5995,13.7005 C170.781501,13.8475007 170.966999,13.9349999 171.156,13.963 C171.345001,13.9910001 171.516499,14.005 171.6705,14.005 C171.810501,14.005 171.978499,13.9910001 172.1745,13.963 C172.370501,13.9349999 172.559499,13.8475007 172.7415,13.7005 C172.923501,13.5534993 173.073999,13.3155016 173.193,12.9865 C173.312001,12.6574984 173.3715,12.1850031 173.3715,11.569 L173.3715,4.912 C173.3715,4.30999699 173.312001,3.84450164 173.193,3.5155 C173.073999,3.18649836 172.923501,2.94850073 172.7415,2.8015 C172.559499,2.65449927 172.370501,2.56700014 172.1745,2.539 C171.978499,2.51099986 171.810501,2.497 171.6705,2.497 L171.6705,2.497 Z M179.9655,15.979 C179.265497,15.979 178.705502,15.8565012 178.2855,15.6115 C177.865498,15.3664988 177.550501,15.1040014 177.3405,14.824 C176.780497,14.1379966 176.5005,13.1510064 176.5005,11.863 L176.5005,0.502 L178.4745,0.502 L178.4745,11.863 C178.4745,12.3950027 178.526999,12.8079985 178.632,13.102 C178.737001,13.3960015 178.866499,13.6094993 179.0205,13.7425 C179.174501,13.8755007 179.335499,13.9524999 179.5035,13.9735 C179.671501,13.9945001 179.825499,14.005 179.9655,14.005 C180.105501,14.005 180.259499,13.9945001 180.4275,13.9735 C180.595501,13.9524999 180.756499,13.8755007 180.9105,13.7425 C181.064501,13.6094993 181.193999,13.3960015 181.299,13.102 C181.404001,12.8079985 181.4565,12.3950027 181.4565,11.863 L181.4565,0.502 L183.4305,0.502 L183.4305,11.863 C183.4305,13.1510064 183.150503,14.1379966 182.5905,14.824 C182.380499,15.1040014 182.065502,15.3664988 181.6455,15.6115 C181.225498,15.8565012 180.665503,15.979 179.9655,15.979 L179.9655,15.979 Z M197.3535,0.523 L199.3905,0.523 L195.9675,16 L194.3715,16 L192.2085,6.109 L190.0245,16 L188.4285,16 L185.0055,0.523 L187.0425,0.523 L189.2265,10.393 L191.4105,0.523 L193.0065,0.523 L195.1695,10.393 L197.3535,0.523 Z M206.5305,2.497 L202.0995,2.497 L202.0995,7.264 L206.5305,7.264 L206.5305,9.238 L202.0995,9.238 L202.0995,14.026 L206.5305,14.026 L206.5305,16 L200.1255,16 L200.1255,0.523 L206.5305,0.523 L206.5305,2.497 Z M209.9115,6.613 L209.9115,15.979 L207.9375,15.979 L207.9375,0.502 L209.5965,0.502 L213.3765,9.868 L213.3765,0.502 L215.3715,0.502 L215.3715,15.979 L213.6915,15.979 L209.9115,6.613 Z"
          id="gaan-trouwen-copy" fill="#FFFFFF"></path>
        <path
          d="M97.001,103.979 C95.7689938,103.979 94.8380032,103.580004 94.208,102.782 C93.605997,102.039996 93.305,100.976007 93.305,99.59 L93.305,98.603 L95.279,98.603 L95.279,99.59 C95.279,100.500005 95.4399984,101.150998 95.762,101.543 C95.8320003,101.641 95.9579991,101.742499 96.14,101.8475 C96.3220009,101.952501 96.608998,102.005 97.001,102.005 C97.3790019,102.005 97.6799989,101.924501 97.904,101.7635 C98.1280011,101.602499 98.2994994,101.406501 98.4185,101.1755 C98.5375006,100.944499 98.6144998,100.692501 98.6495,100.4195 C98.6845002,100.146499 98.702,99.9050011 98.702,99.695 C98.702,99.3309982 98.6460006,99.0230013 98.534,98.771 C98.4219994,98.5189987 98.2750009,98.3055009 98.093,98.1305 C97.9109991,97.9554991 97.7080011,97.8085006 97.484,97.6895 C97.2599989,97.5704994 97.0360011,97.4620005 96.812,97.364 L96.434,97.196 C96.2099989,97.0979995 95.9265017,96.9615009 95.5835,96.7865 C95.2404983,96.6114991 94.9010017,96.3630016 94.565,96.041 C93.7249958,95.2289959 93.305,94.1930063 93.305,92.933 C93.305,92.2749967 93.3924991,91.6730027 93.5675,91.127 C93.7425009,90.5809973 93.9944984,90.1155019 94.3235,89.7305 C94.6525016,89.3454981 95.0444977,89.0445011 95.4995,88.8275 C95.9545023,88.6104989 96.4549973,88.502 97.001,88.502 C97.7570038,88.502 98.3554978,88.6349987 98.7965,88.901 C99.2375022,89.1670013 99.5699989,89.4399986 99.794,89.72 C100.396003,90.4900038 100.697,91.5609931 100.697,92.933 L100.697,93.92 L98.702,93.92 L98.702,92.933 C98.702,92.330997 98.6425006,91.8620017 98.5235,91.526 C98.4044994,91.1899983 98.2540009,90.9485007 98.072,90.8015 C97.8899991,90.6544993 97.701001,90.5670001 97.505,90.539 C97.308999,90.5109999 97.1410007,90.497 97.001,90.497 C96.594998,90.497 96.2800011,90.594999 96.056,90.791 C95.8319989,90.987001 95.6605006,91.2214986 95.5415,91.4945 C95.4224994,91.7675014 95.3490001,92.0404986 95.321,92.3135 C95.2929999,92.5865014 95.279,92.7929993 95.279,92.933 C95.279,93.2970018 95.3349994,93.6084987 95.447,93.8675 C95.5590006,94.1265013 95.7059991,94.3504991 95.888,94.5395 C96.0700009,94.7285009 96.2764988,94.8894993 96.5075,95.0225 C96.7385012,95.1555007 96.9799987,95.2709995 97.232,95.369 L97.568,95.516 C97.764001,95.6000004 98.0334983,95.7224992 98.3765,95.8835 C98.7195017,96.0445008 99.0589983,96.2859984 99.395,96.608 C100.263004,97.406004 100.697,98.4349937 100.697,99.695 C100.697,100.885006 100.403003,101.871996 99.815,102.656 C99.1289966,103.538004 98.191006,103.979 97.001,103.979 L97.001,103.979 Z M108.383,103.979 L101.642,103.979 L101.642,88.502 L103.616,88.502 L103.616,102.005 L108.383,102.005 L108.383,103.979 L108.383,103.979 Z M115.523,90.497 L111.092,90.497 L111.092,95.264 L115.523,95.264 L115.523,97.238 L111.092,97.238 L111.092,102.026 L115.523,102.026 L115.523,104 L109.118,104 L109.118,88.523 L115.523,88.523 L115.523,90.497 Z M123.335,90.497 L118.904,90.497 L118.904,95.264 L123.335,95.264 L123.335,97.238 L118.904,97.238 L118.904,102.026 L123.335,102.026 L123.335,104 L116.93,104 L116.93,88.523 L123.335,88.523 L123.335,90.497 Z M126.716,103.979 L124.742,103.979 L124.742,88.502 L127.955,88.502 C129.271007,88.502 130.271997,88.8869962 130.958,89.657 C131.588003,90.3990037 131.903,91.4629931 131.903,92.849 C131.903,94.2630071 131.588003,95.3339964 130.958,96.062 C130.285997,96.8460039 129.285007,97.238 127.955,97.238 L126.716,97.238 L126.716,103.979 Z M126.716,95.243 L127.955,95.243 C128.501003,95.243 128.871999,95.1800006 129.068,95.054 C129.264001,94.9279994 129.39,94.8300003 129.446,94.76 C129.754002,94.4379984 129.908,93.8010048 129.908,92.849 C129.908,92.3449975 129.866,91.9390015 129.782,91.631 C129.698,91.3229985 129.575501,91.0850008 129.4145,90.917 C129.253499,90.7489992 129.050501,90.6370003 128.8055,90.581 C128.560499,90.5249997 128.277002,90.497 127.955,90.497 L126.716,90.497 L126.716,95.243 Z M142.949,103.979 C142.206996,103.979 141.612002,103.846001 141.164,103.58 C140.715998,103.313999 140.380001,103.041001 140.156,102.761 C139.567997,102.004996 139.274,100.941007 139.274,99.569 L139.274,92.912 C139.274,91.5399931 139.567997,90.4760038 140.156,89.72 C140.268001,89.5799993 140.404499,89.4400007 140.5655,89.3 C140.726501,89.1599993 140.922499,89.0305006 141.1535,88.9115 C141.384501,88.7924994 141.646999,88.6945004 141.941,88.6175 C142.235001,88.5404996 142.570998,88.502 142.949,88.502 C143.705004,88.502 144.303498,88.6349987 144.7445,88.901 C145.185502,89.1670013 145.517999,89.4399986 145.742,89.72 C146.330003,90.4760038 146.624,91.5399931 146.624,92.912 L146.624,99.569 C146.624,100.941007 146.330003,102.004996 145.742,102.761 C145.517999,103.041001 145.185502,103.313999 144.7445,103.58 C144.303498,103.846001 143.705004,103.979 142.949,103.979 L142.949,103.979 Z M142.949,90.497 C142.794999,90.497 142.623501,90.5109999 142.4345,90.539 C142.245499,90.5670001 142.060001,90.6544993 141.878,90.8015 C141.695999,90.9485007 141.545501,91.1864984 141.4265,91.5155 C141.307499,91.8445016 141.248,92.309997 141.248,92.912 L141.248,99.569 C141.248,100.185003 141.307499,100.657498 141.4265,100.9865 C141.545501,101.315502 141.695999,101.553499 141.878,101.7005 C142.060001,101.847501 142.245499,101.935 142.4345,101.963 C142.623501,101.991 142.794999,102.005 142.949,102.005 C143.089001,102.005 143.256999,101.991 143.453,101.963 C143.649001,101.935 143.837999,101.847501 144.02,101.7005 C144.202001,101.553499 144.352499,101.315502 144.4715,100.9865 C144.590501,100.657498 144.65,100.185003 144.65,99.569 L144.65,92.912 C144.65,92.309997 144.590501,91.8445016 144.4715,91.5155 C144.352499,91.1864984 144.202001,90.9485007 144.02,90.8015 C143.837999,90.6544993 143.649001,90.5670001 143.453,90.539 C143.256999,90.5109999 143.089001,90.497 142.949,90.497 L142.949,90.497 Z M149.753,94.613 L149.753,103.979 L147.779,103.979 L147.779,88.502 L149.438,88.502 L153.218,97.868 L153.218,88.502 L155.213,88.502 L155.213,103.979 L153.533,103.979 L149.753,94.613 Z M160.4,103.979 C159.167994,103.979 158.237003,103.580004 157.607,102.782 C157.004997,102.039996 156.704,100.976007 156.704,99.59 L156.704,98.603 L158.678,98.603 L158.678,99.59 C158.678,100.500005 158.838998,101.150998 159.161,101.543 C159.231,101.641 159.356999,101.742499 159.539,101.8475 C159.721001,101.952501 160.007998,102.005 160.4,102.005 C160.778002,102.005 161.078999,101.924501 161.303,101.7635 C161.527001,101.602499 161.698499,101.406501 161.8175,101.1755 C161.936501,100.944499 162.0135,100.692501 162.0485,100.4195 C162.0835,100.146499 162.101,99.9050011 162.101,99.695 C162.101,99.3309982 162.045001,99.0230013 161.933,98.771 C161.820999,98.5189987 161.674001,98.3055009 161.492,98.1305 C161.309999,97.9554991 161.107001,97.8085006 160.883,97.6895 C160.658999,97.5704994 160.435001,97.4620005 160.211,97.364 L159.833,97.196 C159.608999,97.0979995 159.325502,96.9615009 158.9825,96.7865 C158.639498,96.6114991 158.300002,96.3630016 157.964,96.041 C157.123996,95.2289959 156.704,94.1930063 156.704,92.933 C156.704,92.2749967 156.791499,91.6730027 156.9665,91.127 C157.141501,90.5809973 157.393498,90.1155019 157.7225,89.7305 C158.051502,89.3454981 158.443498,89.0445011 158.8985,88.8275 C159.353502,88.6104989 159.853997,88.502 160.4,88.502 C161.156004,88.502 161.754498,88.6349987 162.1955,88.901 C162.636502,89.1670013 162.968999,89.4399986 163.193,89.72 C163.795003,90.4900038 164.096,91.5609931 164.096,92.933 L164.096,93.92 L162.101,93.92 L162.101,92.933 C162.101,92.330997 162.041501,91.8620017 161.9225,91.526 C161.803499,91.1899983 161.653001,90.9485007 161.471,90.8015 C161.288999,90.6544993 161.100001,90.5670001 160.904,90.539 C160.707999,90.5109999 160.540001,90.497 160.4,90.497 C159.993998,90.497 159.679001,90.594999 159.455,90.791 C159.230999,90.987001 159.059501,91.2214986 158.9405,91.4945 C158.821499,91.7675014 158.748,92.0404986 158.72,92.3135 C158.692,92.5865014 158.678,92.7929993 158.678,92.933 C158.678,93.2970018 158.733999,93.6084987 158.846,93.8675 C158.958001,94.1265013 159.104999,94.3504991 159.287,94.5395 C159.469001,94.7285009 159.675499,94.8894993 159.9065,95.0225 C160.137501,95.1555007 160.378999,95.2709995 160.631,95.369 L160.967,95.516 C161.163001,95.6000004 161.432498,95.7224992 161.7755,95.8835 C162.118502,96.0445008 162.457998,96.2859984 162.794,96.608 C163.662004,97.406004 164.096,98.4349937 164.096,99.695 C164.096,100.885006 163.802003,101.871996 163.214,102.656 C162.527997,103.538004 161.590006,103.979 160.4,103.979 L160.4,103.979 Z M173.483,94.613 L173.483,103.979 L171.509,103.979 L171.509,88.502 L173.168,88.502 L176.948,97.868 L176.948,88.502 L178.943,88.502 L178.943,103.979 L177.263,103.979 L173.483,94.613 Z M182.471,104 L180.434,104 L184.004,88.523 L185.579,88.523 L189.191,104 L187.133,104 L186.146,99.674 L183.458,99.674 L182.471,104 Z M184.802,93.899 L183.92,97.7 L185.684,97.7 L184.802,93.899 Z M191.648,104 L189.611,104 L193.181,88.523 L194.756,88.523 L198.368,104 L196.31,104 L195.323,99.674 L192.635,99.674 L191.648,104 Z M193.979,93.899 L193.097,97.7 L194.861,97.7 L193.979,93.899 Z M204.794,96.377 C205.172002,96.7410018 205.462499,97.1749975 205.6655,97.679 C205.868501,98.1830025 205.97,98.7569968 205.97,99.401 L205.97,103.979 L203.975,103.979 L203.975,99.401 C203.975,98.0429932 203.317007,97.364 202.001,97.364 L201.014,97.364 L200.762,97.364 L200.762,103.979 L198.788,103.979 L198.788,88.502 L202.001,88.502 C203.331007,88.502 204.331997,88.8939961 205.004,89.678 C205.620003,90.3920036 205.928,91.4699928 205.928,92.912 C205.928,94.3400071 205.620003,95.4249963 205.004,96.167 C204.976,96.1950001 204.9445,96.2299998 204.9095,96.272 C204.8745,96.3140002 204.836,96.3489999 204.794,96.377 L204.794,96.377 Z M202.001,95.369 C202.533003,95.369 202.900499,95.3060006 203.1035,95.18 C203.306501,95.0539994 203.436,94.9560004 203.492,94.886 C203.800002,94.493998 203.954,93.8360046 203.954,92.912 C203.954,92.3939974 203.912,91.9775016 203.828,91.6625 C203.744,91.3474984 203.621501,91.1025009 203.4605,90.9275 C203.299499,90.7524991 203.096501,90.6370003 202.8515,90.581 C202.606499,90.5249997 202.323002,90.497 202.001,90.497 L200.762,90.497 L200.762,95.369 L201.014,95.369 L202.001,95.369 Z M217.478,104 C216.777997,104 216.218002,103.874001 215.798,103.622 C215.377998,103.369999 215.063001,103.118001 214.853,102.866 C214.292997,102.165997 214.013,101.172006 214.013,99.884 L214.013,98.876 L215.987,98.876 L215.987,99.884 C215.987,100.416003 216.039499,100.828999 216.1445,101.123 C216.249501,101.417001 216.378999,101.630499 216.533,101.7635 C216.687001,101.896501 216.847999,101.9735 217.016,101.9945 C217.184001,102.0155 217.337999,102.026 217.478,102.026 C217.828002,102.026 218.079999,101.9805 218.234,101.8895 C218.388001,101.7985 218.5,101.704 218.57,101.606 C218.836001,101.269998 218.969,100.696004 218.969,99.884 L218.969,88.523 L220.943,88.523 L220.943,99.884 C220.943,101.172006 220.663003,102.165997 220.103,102.866 C219.906999,103.118001 219.599002,103.369999 219.179,103.622 C218.758998,103.874001 218.192004,104 217.478,104 L217.478,104 Z M224.555,104 L222.518,104 L226.088,88.523 L227.663,88.523 L231.275,104 L229.217,104 L228.23,99.674 L225.542,99.674 L224.555,104 Z M226.886,93.899 L226.004,97.7 L227.768,97.7 L226.886,93.899 Z M121.256,124.979 C120.513996,124.979 119.919002,124.846001 119.471,124.58 C119.022998,124.313999 118.687001,124.041001 118.463,123.761 C117.874997,123.004996 117.581,121.941007 117.581,120.569 L117.581,113.912 C117.581,112.539993 117.874997,111.476004 118.463,110.72 C118.575001,110.579999 118.711499,110.440001 118.8725,110.3 C119.033501,110.159999 119.229499,110.030501 119.4605,109.9115 C119.691501,109.792499 119.953999,109.6945 120.248,109.6175 C120.542001,109.5405 120.877998,109.502 121.256,109.502 C122.012004,109.502 122.610498,109.634999 123.0515,109.901 C123.492502,110.167001 123.824999,110.439999 124.049,110.72 C124.637003,111.476004 124.931,112.539993 124.931,113.912 L124.931,120.569 C124.931,121.941007 124.637003,123.004996 124.049,123.761 C123.824999,124.041001 123.492502,124.313999 123.0515,124.58 C122.610498,124.846001 122.012004,124.979 121.256,124.979 L121.256,124.979 Z M121.256,111.497 C121.101999,111.497 120.930501,111.511 120.7415,111.539 C120.552499,111.567 120.367001,111.654499 120.185,111.8015 C120.002999,111.948501 119.852501,112.186498 119.7335,112.5155 C119.614499,112.844502 119.555,113.309997 119.555,113.912 L119.555,120.569 C119.555,121.185003 119.614499,121.657498 119.7335,121.9865 C119.852501,122.315502 120.002999,122.553499 120.185,122.7005 C120.367001,122.847501 120.552499,122.935 120.7415,122.963 C120.930501,122.991 121.101999,123.005 121.256,123.005 C121.396001,123.005 121.563999,122.991 121.76,122.963 C121.956001,122.935 122.144999,122.847501 122.327,122.7005 C122.509001,122.553499 122.659499,122.315502 122.7785,121.9865 C122.897501,121.657498 122.957,121.185003 122.957,120.569 L122.957,113.912 C122.957,113.309997 122.897501,112.844502 122.7785,112.5155 C122.659499,112.186498 122.509001,111.948501 122.327,111.8015 C122.144999,111.654499 121.956001,111.567 121.76,111.539 C121.563999,111.511 121.396001,111.497 121.256,111.497 L121.256,111.497 Z M132.491,111.497 L128.06,111.497 L128.06,116.264 L132.491,116.264 L132.491,118.238 L128.06,118.238 L128.06,125 L126.086,125 L126.086,109.523 L132.491,109.523 L132.491,111.497 Z M142.34,115.613 L142.34,124.979 L140.366,124.979 L140.366,109.502 L142.025,109.502 L145.805,118.868 L145.805,109.502 L147.8,109.502 L147.8,124.979 L146.12,124.979 L142.34,115.613 Z M151.328,125 L149.291,125 L152.861,109.523 L154.436,109.523 L158.048,125 L155.99,125 L155.003,120.674 L152.315,120.674 L151.328,125 Z M153.659,114.899 L152.777,118.7 L154.541,118.7 L153.659,114.899 Z M160.505,125 L158.468,125 L162.038,109.523 L163.613,109.523 L167.225,125 L165.167,125 L164.18,120.674 L161.492,120.674 L160.505,125 Z M162.836,114.899 L161.954,118.7 L163.718,118.7 L162.836,114.899 Z M173.651,117.377 C174.029002,117.741002 174.319499,118.174997 174.5225,118.679 C174.725501,119.183003 174.827,119.756997 174.827,120.401 L174.827,124.979 L172.832,124.979 L172.832,120.401 C172.832,119.042993 172.174007,118.364 170.858,118.364 L169.871,118.364 L169.619,118.364 L169.619,124.979 L167.645,124.979 L167.645,109.502 L170.858,109.502 C172.188007,109.502 173.188997,109.893996 173.861,110.678 C174.477003,111.392004 174.785,112.469993 174.785,113.912 C174.785,115.340007 174.477003,116.424996 173.861,117.167 C173.833,117.195 173.8015,117.23 173.7665,117.272 C173.7315,117.314 173.693,117.349 173.651,117.377 L173.651,117.377 Z M170.858,116.369 C171.390003,116.369 171.757499,116.306001 171.9605,116.18 C172.163501,116.053999 172.293,115.956 172.349,115.886 C172.657002,115.493998 172.811,114.836005 172.811,113.912 C172.811,113.393997 172.769,112.977502 172.685,112.6625 C172.601,112.347498 172.478501,112.102501 172.3175,111.9275 C172.156499,111.752499 171.953501,111.637 171.7085,111.581 C171.463499,111.525 171.180002,111.497 170.858,111.497 L169.619,111.497 L169.619,116.369 L169.871,116.369 L170.858,116.369 Z M184.844,115.613 L184.844,124.979 L182.87,124.979 L182.87,109.502 L184.529,109.502 L188.309,118.868 L188.309,109.502 L190.304,109.502 L190.304,124.979 L188.624,124.979 L184.844,115.613 Z M198.2,111.497 L193.769,111.497 L193.769,116.264 L198.2,116.264 L198.2,118.238 L193.769,118.238 L193.769,123.026 L198.2,123.026 L198.2,125 L191.795,125 L191.795,109.523 L198.2,109.523 L198.2,111.497 Z M206.012,111.497 L201.581,111.497 L201.581,116.264 L206.012,116.264 L206.012,118.238 L201.581,118.238 L201.581,123.026 L206.012,123.026 L206.012,125 L199.607,125 L199.607,109.523 L206.012,109.523 L206.012,111.497 Z"
          id="Sleep-ons-naar-ja-of-Copy" fill="#FFCE61"></path>
        <path
          d="M52.065,61.085 C52.2050007,61.2250007 52.2983331,61.3416662 52.345,61.435 C53.3483384,62.6483394 53.85,64.421655 53.85,66.755 C53.85,69.1116784 53.3483384,70.8733275 52.345,72.04 C51.2949948,73.3466732 49.6850108,74 47.515,74 L45.835,74 L42.545,74 L42.545,70.71 L42.545,48.205 L47.515,48.205 C49.7083443,48.205 51.3183282,48.8583268 52.345,50.165 C53.3483384,51.3316725 53.85,53.0933215 53.85,55.45 C53.85,57.783345 53.3483384,59.5566606 52.345,60.77 C52.2983331,60.8400004 52.2050007,60.9449993 52.065,61.085 L52.065,61.085 Z M45.835,59.44 L47.515,59.44 C48.2616704,59.44 48.7983317,59.3525009 49.125,59.1775 C49.4516683,59.0024991 49.6733327,58.8333341 49.79,58.67 C50.2800024,58.0866638 50.525,57.0133411 50.525,55.45 C50.525,54.5399954 50.4491674,53.8225026 50.2975,53.2975 C50.1458326,52.7724974 49.9358347,52.3758347 49.6675,52.1075 C49.3991653,51.8391653 49.0783352,51.6700004 48.705,51.6 C48.3316648,51.5299996 47.9350021,51.495 47.515,51.495 L45.835,51.495 L45.835,59.44 Z M47.515,70.71 C47.9350021,70.71 48.3316648,70.6750004 48.705,70.605 C49.0783352,70.5349996 49.3991653,70.3658347 49.6675,70.0975 C49.9358347,69.8291653 50.1458326,69.4325026 50.2975,68.9075 C50.4491674,68.3824974 50.525,67.6650045 50.525,66.755 C50.525,65.821662 50.4433341,65.0866694 50.28,64.55 C50.1166659,64.0133307 49.9008347,63.6108347 49.6325,63.3425 C49.3641653,63.0741653 49.0491685,62.9050004 48.6875,62.835 C48.3258315,62.7649996 47.9350021,62.73 47.515,62.73 L45.835,62.73 L45.835,70.71 L47.515,70.71 Z M60.045,74 L56.755,74 L56.755,48.205 L60.045,48.205 L60.045,74 L60.045,74 Z M66.065,58.355 L66.065,73.965 L62.775,73.965 L62.775,48.17 L65.54,48.17 L71.84,63.78 L71.84,48.17 L75.165,48.17 L75.165,73.965 L72.365,73.965 L66.065,58.355 Z M80.94,58.355 L80.94,73.965 L77.65,73.965 L77.65,48.17 L80.415,48.17 L86.715,63.78 L86.715,48.17 L90.04,48.17 L90.04,73.965 L87.24,73.965 L80.94,58.355 Z M103.2,51.495 L95.815,51.495 L95.815,59.44 L103.2,59.44 L103.2,62.73 L95.815,62.73 L95.815,70.71 L103.2,70.71 L103.2,74 L92.525,74 L92.525,48.205 L103.2,48.205 L103.2,51.495 Z M108.835,58.355 L108.835,73.965 L105.545,73.965 L105.545,48.17 L108.31,48.17 L114.61,63.78 L114.61,48.17 L117.935,48.17 L117.935,73.965 L115.135,73.965 L108.835,58.355 Z M136.975,74 C135.808328,74 134.875003,73.7900021 134.175,73.37 C133.474996,72.9499979 132.950002,72.5300021 132.6,72.11 C131.666662,70.9433275 131.2,69.2866774 131.2,67.14 L131.2,65.46 L134.49,65.46 L134.49,67.14 C134.49,68.0266711 134.577499,68.7149976 134.7525,69.205 C134.927501,69.6950025 135.143332,70.0508322 135.4,70.2725 C135.656668,70.4941678 135.924999,70.6224998 136.205,70.6575 C136.485001,70.6925002 136.741666,70.71 136.975,70.71 C137.558336,70.71 137.978332,70.6341674 138.235,70.4825 C138.491668,70.3308326 138.678333,70.1733342 138.795,70.01 C139.238336,69.4499972 139.46,68.4933401 139.46,67.14 L139.46,48.205 L142.75,48.205 L142.75,67.14 C142.75,69.2866774 142.283338,70.9433275 141.35,72.11 C141.023332,72.5300021 140.510003,72.9499979 139.81,73.37 C139.109996,73.7900021 138.165006,74 136.975,74 L136.975,74 Z M151.5,73.965 C150.263327,73.965 149.27167,73.7433355 148.525,73.3 C147.77833,72.8566644 147.218335,72.401669 146.845,71.935 C145.864995,70.6749937 145.375,68.9016781 145.375,66.615 L145.375,55.52 C145.375,53.2333219 145.864995,51.4600063 146.845,50.2 C147.031668,49.9666655 147.259165,49.7333345 147.5275,49.5 C147.795835,49.2666655 148.122498,49.0508343 148.5075,48.8525 C148.892502,48.6541657 149.329998,48.490834 149.82,48.3625 C150.310002,48.234166 150.869997,48.17 151.5,48.17 C152.760006,48.17 153.757496,48.3916645 154.4925,48.835 C155.227504,49.2783356 155.781665,49.733331 156.155,50.2 C157.135005,51.4600063 157.625,53.2333219 157.625,55.52 L157.625,66.615 C157.625,68.9016781 157.135005,70.6749937 156.155,71.935 C155.781665,72.401669 155.227504,72.8566644 154.4925,73.3 C153.757496,73.7433355 152.760006,73.965 151.5,73.965 L151.5,73.965 Z M151.5,51.495 C151.243332,51.495 150.957502,51.5183331 150.6425,51.565 C150.327498,51.6116669 150.018335,51.7574988 149.715,52.0025 C149.411665,52.2475012 149.160834,52.6441639 148.9625,53.1925 C148.764166,53.7408361 148.665,54.5166617 148.665,55.52 L148.665,66.615 C148.665,67.6416718 148.764166,68.4291639 148.9625,68.9775 C149.160834,69.5258361 149.411665,69.9224988 149.715,70.1675 C150.018335,70.4125012 150.327498,70.5583331 150.6425,70.605 C150.957502,70.6516669 151.243332,70.675 151.5,70.675 C151.733335,70.675 152.013332,70.6516669 152.34,70.605 C152.666668,70.5583331 152.981665,70.4125012 153.285,70.1675 C153.588335,69.9224988 153.839166,69.5258361 154.0375,68.9775 C154.235834,68.4291639 154.335,67.6416718 154.335,66.615 L154.335,55.52 C154.335,54.5166617 154.235834,53.7408361 154.0375,53.1925 C153.839166,52.6441639 153.588335,52.2475012 153.285,52.0025 C152.981665,51.7574988 152.666668,51.6116669 152.34,51.565 C152.013332,51.5183331 151.733335,51.495 151.5,51.495 L151.5,51.495 Z M170.225,51.495 L162.84,51.495 L162.84,59.44 L170.225,59.44 L170.225,62.73 L162.84,62.73 L162.84,70.71 L170.225,70.71 L170.225,74 L159.55,74 L159.55,48.205 L170.225,48.205 L170.225,51.495 Z M188.495,74 L183.35,74 L183.35,48.205 L188.495,48.205 C190.711678,48.205 192.379994,48.8933265 193.5,50.27 C194.526672,51.5066728 195.04,53.3033216 195.04,55.66 L195.04,66.51 C195.04,68.8666784 194.526672,70.6749937 193.5,71.935 C192.379994,73.3116736 190.711678,74 188.495,74 L188.495,74 Z M186.64,70.71 L188.495,70.71 C188.915002,70.71 189.317498,70.6691671 189.7025,70.5875 C190.087502,70.5058329 190.425832,70.3250014 190.7175,70.045 C191.009168,69.7649986 191.248332,69.3450028 191.435,68.785 C191.621668,68.2249972 191.715,67.4666714 191.715,66.51 L191.715,55.66 C191.715,54.7033285 191.621668,53.9450028 191.435,53.385 C191.248332,52.8249972 191.009168,52.4050014 190.7175,52.125 C190.425832,51.8449986 190.087502,51.6700004 189.7025,51.6 C189.317498,51.5299996 188.915002,51.495 188.495,51.495 L186.64,51.495 L186.64,70.71 Z M207.745,51.495 L200.36,51.495 L200.36,59.44 L207.745,59.44 L207.745,62.73 L200.36,62.73 L200.36,70.71 L207.745,70.71 L207.745,74 L197.07,74 L197.07,48.205 L207.745,48.205 L207.745,51.495 Z M220.1,61.295 C220.730003,61.9016697 221.214165,62.6249958 221.5525,63.465 C221.890835,64.3050042 222.06,65.2616613 222.06,66.335 L222.06,73.965 L218.735,73.965 L218.735,66.335 C218.735,64.0716554 217.638344,62.94 215.445,62.94 L213.8,62.94 L213.38,62.94 L213.38,73.965 L210.09,73.965 L210.09,48.17 L215.445,48.17 C217.661678,48.17 219.329994,48.8233268 220.45,50.13 C221.476672,51.3200059 221.99,53.1166546 221.99,55.52 C221.99,57.9000119 221.476672,59.7083272 220.45,60.945 C220.403333,60.9916669 220.350834,61.0499997 220.2925,61.12 C220.234166,61.1900003 220.17,61.2483331 220.1,61.295 L220.1,61.295 Z M215.445,59.615 C216.331671,59.615 216.944165,59.510001 217.2825,59.3 C217.620835,59.0899989 217.836666,58.9266672 217.93,58.81 C218.443336,58.1566634 218.7,57.0600077 218.7,55.52 C218.7,54.6566623 218.630001,53.9625026 218.49,53.4375 C218.349999,52.9124974 218.145835,52.5041681 217.8775,52.2125 C217.609165,51.9208319 217.270835,51.7283338 216.8625,51.635 C216.454165,51.5416662 215.981669,51.495 215.445,51.495 L213.38,51.495 L213.38,59.615 L213.8,59.615 L215.445,59.615 Z M244.985,61.085 C245.125001,61.2250007 245.218333,61.3416662 245.265,61.435 C246.268338,62.6483394 246.77,64.421655 246.77,66.755 C246.77,69.1116784 246.268338,70.8733275 245.265,72.04 C244.214995,73.3466732 242.605011,74 240.435,74 L238.755,74 L235.465,74 L235.465,70.71 L235.465,48.205 L240.435,48.205 C242.628344,48.205 244.238328,48.8583268 245.265,50.165 C246.268338,51.3316725 246.77,53.0933215 246.77,55.45 C246.77,57.783345 246.268338,59.5566606 245.265,60.77 C245.218333,60.8400004 245.125001,60.9449993 244.985,61.085 L244.985,61.085 Z M238.755,59.44 L240.435,59.44 C241.18167,59.44 241.718332,59.3525009 242.045,59.1775 C242.371668,59.0024991 242.593333,58.8333341 242.71,58.67 C243.200002,58.0866638 243.445,57.0133411 243.445,55.45 C243.445,54.5399954 243.369167,53.8225026 243.2175,53.2975 C243.065833,52.7724974 242.855835,52.3758347 242.5875,52.1075 C242.319165,51.8391653 241.998335,51.6700004 241.625,51.6 C241.251665,51.5299996 240.855002,51.495 240.435,51.495 L238.755,51.495 L238.755,59.44 Z M240.435,70.71 C240.855002,70.71 241.251665,70.6750004 241.625,70.605 C241.998335,70.5349996 242.319165,70.3658347 242.5875,70.0975 C242.855835,69.8291653 243.065833,69.4325026 243.2175,68.9075 C243.369167,68.3824974 243.445,67.6650045 243.445,66.755 C243.445,65.821662 243.363334,65.0866694 243.2,64.55 C243.036666,64.0133307 242.820835,63.6108347 242.5525,63.3425 C242.284165,63.0741653 241.969168,62.9050004 241.6075,62.835 C241.245832,62.7649996 240.855002,62.73 240.435,62.73 L238.755,62.73 L238.755,70.71 L240.435,70.71 Z M252.965,74 L249.675,74 L249.675,48.205 L252.965,48.205 L252.965,74 L252.965,74 Z M266.37,51.495 L258.985,51.495 L258.985,59.44 L266.37,59.44 L266.37,62.73 L258.985,62.73 L258.985,70.71 L266.37,70.71 L266.37,74 L255.695,74 L255.695,48.205 L266.37,48.205 L266.37,51.495 Z M279.67,55.345 L279.635,55.345 C279.611667,56.278338 279.454168,57.1358294 279.1625,57.9175 C278.870832,58.6991706 278.532502,59.3991636 278.1475,60.0175 C277.762498,60.6358364 277.360002,61.178331 276.94,61.645 C276.519998,62.111669 276.158335,62.4966652 275.855,62.8 L275.435,63.22 C275.178332,63.5466683 275.026667,63.9666641 274.98,64.48 C274.933333,64.9933359 274.91,65.6933289 274.91,66.58 L274.91,68.33 L271.585,68.33 L271.585,66.58 C271.585,66.0666641 271.590833,65.5591692 271.6025,65.0575 C271.614167,64.5558308 271.660833,64.0775023 271.7425,63.6225 C271.824167,63.1674977 271.958332,62.7300021 272.145,62.31 C272.331668,61.8899979 272.588332,61.4816687 272.915,61.085 C273.008334,60.9916662 273.101666,60.8925005 273.195,60.7875 C273.288334,60.6824995 273.393333,60.5716673 273.51,60.455 C273.743335,60.2216655 274.023332,59.9300017 274.35,59.58 C274.676668,59.2299982 274.985832,58.8333356 275.2775,58.39 C275.569168,57.9466645 275.814166,57.4566693 276.0125,56.92 C276.210834,56.3833307 276.321667,55.8000032 276.345,55.17 C276.345,54.8199983 276.304167,54.4291688 276.2225,53.9975 C276.140833,53.5658312 276.018334,53.1633352 275.855,52.79 C275.691666,52.4166648 275.475835,52.1075012 275.2075,51.8625 C274.939165,51.6174988 274.595002,51.495 274.175,51.495 C274.011666,51.495 273.807501,51.5124998 273.5625,51.5475 C273.317499,51.5825002 273.078335,51.7224988 272.845,51.9675 C272.611666,52.2125012 272.413334,52.5974974 272.25,53.1225 C272.086666,53.6475026 272.005,54.3883285 272.005,55.345 L272.005,56.99 L268.715,56.99 L268.715,55.345 C268.715,53.221656 269.134996,51.5416728 269.975,50.305 C270.955005,48.904993 272.354991,48.205 274.175,48.205 C275.061671,48.205 275.872496,48.4091646 276.6075,48.8175 C277.342504,49.2258354 277.954998,49.8266627 278.445,50.62 C279.19167,51.810006 279.588333,53.2799912 279.635,55.03 L279.67,55.03 L279.67,55.345 Z M271.585,70.29 L274.875,70.29 L274.875,74 L271.585,74 L271.585,70.29 Z"
          id="Binnen-joe-dEr-bie?" fill="#FFFFFF"></path>
        <path
          d="M323.594874,33.4731875 L161.826159,33.4815937 L151.983826,33.4843958 L43.6186954,33.49 L29.8492373,33.136937 L1.40104376,33.4731875 L0.861641913,33.3667082 C0.41330791,33.0654837 0.407703735,33.0598796 0.103677238,32.6087435 L0,32.0721437 L0.103677238,31.535544 L0.407703735,31.0816058 L0.861641913,30.7775793 L1.40104376,30.6711 L16.4272381,30.5253914 L22.3410438,30 L27.8681615,30.6963187 L212.66163,30.7061261 L237.102839,30.3348495 L241.831362,30.6907146 L323.594874,30.6711 C323.775609,30.7061261 324.588214,31.0844079 324.889439,31.535544 L324.131474,33.3667082 L323.594874,33.4731875 Z"
          id="Fill-1-Copy" fill="#FFCE61"></path>
        <path
          d="M107.182297,113.117296 C106.646968,115.551028 106.053902,124.042376 106.432787,127.334571 C106.811672,130.626765 109.604953,152.32157 111.250198,155.023252 C112.895442,157.724933 113.120156,159.033391 114.526465,160.947153 C115.932774,162.860915 118.140656,165.942618 119.926986,167.293743 C121.713316,168.644867 122.824028,171.081899 126.664069,173.53099 C130.50411,175.980081 124.08891,175.502667 124.08891,175.502667 L117.713646,175.088855 L114.203269,174.911679 L114.520599,177.024896 L116.279053,177.489683 L122.636294,177.953011 L129.3133,178 L132.755055,177.436195 L133.297654,175.945418 L132.809403,171.951736 L132.284576,165.00496 L132.016052,162.212778 L131.194909,160.617142 L129.953808,161.427135 L130.04495,164.610375 L130.370323,170.468173 L130.353011,173.121271 L124.231814,167.98438 L118.128138,160.680909 C118.128138,160.680909 114.683478,153.29381 114.332469,150.887954 C113.98146,148.482098 110.468529,134.060613 110.468529,134.060613 C110.468529,134.060613 109.158269,117.341259 110.28468,114.246471 C111.411091,111.151682 107.717626,110.683563 107.182297,113.117296"
          id="Page-1-Copy-2" fill="#FFCE61"></path>
      </g>
    </g>
  </g>
</svg>
