<?xml version="1.0" encoding="UTF-8" standalone="no"?>
<!DOCTYPE svg PUBLIC "-//W3C//DTD SVG 1.1//EN" "http://www.w3.org/Graphics/SVG/1.1/DTD/svg11.dtd">
<svg width="564px" height="274px" version="1.1" xmlns="http://www.w3.org/2000/svg" xmlns:xlink="http://www.w3.org/1999/xlink" xml:space="preserve" style="fill-rule:evenodd;clip-rule:evenodd;stroke-linejoin:round;stroke-miterlimit:1.41421;">
    <clipPath id="_clip1">
        <rect id="bush" x="0" y="0" width="564" height="274"/>
    </clipPath>
    <g clip-path="url(#_clip1)">
        <g>
            <path d="M29.556,220.021c11.678,16.033 -2.064,-49.471 13.419,-50.502c15.483,-1.031 13.419,-3.092 20.644,-12.368c7.226,-9.276 6.194,-8.245 11.355,-19.582c5.161,-11.337 -7.226,-34.012 18.58,-35.042c25.805,-1.031 43.64,3.092 42.464,15.46c-1.175,12.367 0.613,42.256 14.686,38.134c14.073,-4.123 23.5,0 24.98,-10.307c1.48,-10.306 -8.705,-11.337 0,-25.766c8.705,-14.429 9.183,-26.797 29.588,-12.368c20.406,14.429 24.214,-14.429 24.214,-14.429c0,0 1.353,-4.123 8.579,-14.429c7.225,-10.307 -8.258,-5.633 11.354,-14.669c19.612,-9.036 4.676,-14.439 17.821,-29.774c13.146,-15.335 -9.485,-38.009 27.636,-33.887c37.121,4.123 34.496,18.552 43.384,28.859c8.887,10.306 38.734,16.371 36.88,27.252c-1.855,10.882 -31.177,9.851 0,25.311c31.176,15.46 23.951,10.306 36.337,26.797c12.387,16.49 23.742,24.735 19.613,34.011c-4.129,9.276 1.032,14.429 18.58,20.613c17.547,6.184 19.612,10.307 25.805,19.582c6.193,9.276 -0.926,-3.092 17.601,2.062c18.527,5.153 -8.311,-44.318 14.398,-29.889c22.709,14.429 31.999,11.337 34.063,37.103c2.065,25.767 7.226,24.736 -3.097,38.134c-10.322,13.399 19.613,13.399 25.806,26.797c6.193,13.399 -47.376,12.368 -71.17,15.46c-23.794,3.092 -168.227,0 -198.2,1.031c-29.974,1.03 -178.613,-7.215 -211.644,-6.184c-33.031,1.03 -43.354,-1.031 -61.934,-4.123c-18.58,-3.092 -25.805,-8.245 -16.515,-17.521c9.29,-9.276 16.515,-37.103 24.773,-25.766Z" style="fill:#53cb5d;"/>
            <path d="M413.283,200.843c14.351,-12.93 21.952,10.47 11.63,19.276c-10.322,8.806 -17.067,-14.378 -11.63,-19.276ZM514.716,182.738c20.646,2.128 30.967,28.666 17.548,33.819c-13.419,5.154 -44.28,6.541 -35.043,-8.582c9.237,-15.123 13.447,-25.655 17.495,-25.237ZM86.345,163.994c6.279,-6.269 21.677,-10.306 27.87,-1.03c6.193,9.275 13.419,6.183 13.419,20.613c0,14.429 5.161,20.613 -5.161,23.704c-10.322,3.092 -23.741,-5.153 -23.741,-5.153c0,0 -6.194,1.031 -15.484,-12.368c-9.29,-13.398 -1.032,-21.643 3.097,-25.766ZM258.726,191.822c10.759,13.397 30.579,-25.627 56.337,-11.908c27.814,14.814 61.814,-12.141 51.626,-43.095c-3.052,-9.274 -3.709,-17.143 -23.321,-37.756c-19.612,-20.613 -14.451,-10.306 -30.954,-18.551c-16.503,-8.246 -12.399,-5.154 -24.567,11.337c-12.168,16.49 -31.981,8.043 -42.13,9.924c-23.161,4.292 -17.704,27.108 -34.219,18.863c-16.516,-8.245 -25.028,-3.021 -26.06,16.183c-1.032,19.205 6.193,9.654 17.548,20.681c11.354,11.027 15.483,0.31 30.646,10.617c15.162,10.306 8.63,3.205 25.094,23.705ZM379.286,136.819c-14.961,-14.517 -15.694,-35.694 0,-30.541c15.693,5.153 38.402,11.612 33.24,30.541c-5.161,18.93 -27.257,5.806 -33.24,0Z" style="fill:#45b44e;"/>
        </g>
    </g>
</svg>
