<?xml version="1.0" encoding="UTF-8" standalone="no"?>
<!DOCTYPE svg PUBLIC "-//W3C//DTD SVG 1.1//EN" "http://www.w3.org/Graphics/SVG/1.1/DTD/svg11.dtd">
<svg width="500px" height="1166px" version="1.1" xmlns="http://www.w3.org/2000/svg" xmlns:xlink="http://www.w3.org/1999/xlink" xml:space="preserve" style="fill-rule:evenodd;clip-rule:evenodd;stroke-linejoin:round;stroke-miterlimit:1.41421;">
    <clipPath id="_clip1">
        <rect id="trump" x="0" y="0" width="500" height="1166"/>
    </clipPath>
    <g clip-path="url(#_clip1)">
        <path d="M344.074,131.489c-7.12,1.276 -42.427,-10.047 -41.548,-16.023c1.218,-8.28 40.732,-48.692 43.501,-27.444c4.781,36.678 27.559,38.179 -1.953,43.467Z" style="fill:#fcb777;"/>
        <path d="M359.48,1094.39c12.599,9.683 23.732,21.494 42.727,26.784c24.044,6.696 16.862,29.38 -63.61,17.383c-3.928,-0.585 -9.945,-4.715 -14.107,-3.639c-14.993,3.877 -26.797,0.575 -28.034,-0.352c-3.351,-2.511 -5.864,-32.643 -0.837,-41.85c5.026,-9.207 52.97,-6.696 63.861,1.674Z" style="fill:#191312;"/>
        <path d="M174.089,1098.27c-3.23,12.467 -24.926,21.734 -28.089,31.784c-2.688,8.543 5,23.906 64.293,19.626c3.771,-0.272 5.295,-5.153 9.255,-3.977c14.265,4.236 14.735,-3.763 15.911,-4.776c3.189,-2.744 4.384,-31.284 -0.398,-41.346c-4.783,-10.062 -57.245,-15.691 -60.972,-1.311Z" style="fill:#191312;"/>
        <path d="M422.576,551.371c-85.624,27.202 -202.57,28.428 -275.162,13.761l7.076,146.651c6.102,66.842 -7.225,201.205 4.114,232.983c16.455,46.119 12.065,118.505 10.731,159.335c-0.3,9.191 71.753,12.272 71.753,12.272c0,0 6.056,-15.8 4.836,-68.97c-1.138,-49.563 27.835,-248.647 43.213,-290.593c15.378,41.946 -2.086,187.377 -3.224,236.941c-0.458,19.996 -3.023,69.928 -1.263,81.466c2.919,19.142 8.289,29.062 8.289,29.062c0,0 72.174,-6.439 73.395,-15.554c1.22,-9.114 -8.629,-65.687 2.521,-97.531c22.658,-64.711 52.249,-231.525 58.351,-298.367l-4.63,-141.456Z" style="fill:#191312;"/>
        <path d="M165.974,554.239c3.368,12.353 114.248,32.251 194.339,25.048c23.649,-2.127 44.613,-6.617 59.332,-14.361c2.36,-1.242 -26.287,-396.943 -61.887,-398.702c-24.134,-1.192 -129.968,-12.455 -157.539,40.215c-58.032,110.861 -34.137,346.826 -34.245,347.8Z" style="fill:#fff5f3;"/>
        <path d="M308.898,213.462c3.323,3.098 20.821,12.834 23.7,11.949c2.879,-0.885 12.625,-25.448 17.276,-30.537c4.652,-5.09 11.324,-46.762 -8.167,-44.328c-19.492,2.434 -43.883,32.157 -43.44,46.541c0.443,14.383 7.309,13.277 10.631,16.375Z" style="fill:#d3d3d3;"/>
        <path d="M291.51,213.462c-3.323,3.098 -20.821,12.834 -23.7,11.949c-2.879,-0.885 -14.814,-28.182 -19.466,-33.271c-4.651,-5.09 -15.7,-32.217 3.791,-29.783c19.492,2.434 50.449,20.346 50.006,34.73c-0.443,14.383 -7.309,13.277 -10.631,16.375Z" style="fill:#d3d3d3;"/>
        <path d="M286.323,223.948c-2.452,-3.672 -6.216,-13.182 -7.99,-16.018c-2.215,-3.541 7.53,-15.269 17.497,-17.039c9.968,-1.771 37.432,-0.222 23.036,18.809c-3.152,4.166 -11.518,13.498 -13.954,15.711c-0.081,0.074 -0.174,0.142 -0.276,0.206c2.64,7.13 8.478,22.008 9.455,25.719c0.361,1.368 2.936,31.154 6.404,72.2c3.971,46.992 29.142,108.742 33.475,159.507c4.259,49.905 7.735,89.194 8.547,93.41c1.318,6.849 -40.23,65.555 -48.992,54.064c-7.023,-9.209 -37.608,-45.381 -36.971,-48.645c27.532,-141.157 -10.033,-155.066 -3.351,-250.851c3.111,-44.598 5.539,-77.46 5.989,-78.507c1.085,-2.531 4.67,-20.318 7.131,-28.566Z" style="fill:#ffb800;"/>
        <path d="M342.943,137.988c7.322,-0.271 13.485,15.158 18.661,15.938c18.382,2.774 89.468,36.483 92.675,41.203c3.799,5.592 27.986,41.313 32.114,61.773c11.352,56.26 12.258,138.356 13.424,154.269c3.058,41.71 -33.298,26.936 -32.553,46.79c0.748,19.907 7.751,140.056 7.751,155.816c0,22.219 -56.829,30.296 -89.476,-17.913c-16.249,-23.994 -28.157,-68.292 -33.373,-119.223c-0.183,-1.79 -15.775,-6.26 -18.15,-16.733c-5.129,-22.62 -3.294,-46.45 -4.221,-63.315c-0.074,-1.361 19.854,0.307 19.786,-0.996c-0.942,-17.951 -1.297,-30.28 -1.423,-32.685c-0.518,-9.818 2.831,-149.184 4.324,-164.316c3.621,-36.687 -17.873,-60.3 -9.539,-60.608Z" style="fill:#191312;"/>
        <path d="M251.301,141.988c-1.818,0.227 -7.984,11.158 -13.161,11.938c-7.397,1.116 -87.6,39.438 -107.711,64.352c-29.866,37 -85.045,120.564 -51.211,194.908c14.737,32.384 39.189,4.923 38.44,44.775c-0.374,19.918 -2.942,140.056 -2.942,155.816c0,22.219 56.829,30.296 89.476,-17.913c32.553,-48.07 36.864,-223.135 37.381,-232.952c0.517,-9.818 7.183,-149.184 5.689,-164.316c-3.62,-36.687 12.315,-57.642 4.039,-56.608Z" style="fill:#191312;"/>
        <path d="M290.604,200.406c0,0 -14.618,19.03 -21.927,21.686c-7.31,2.655 -3.323,-10.179 -6.645,-19.695c-3.323,-9.515 -21.219,-27.666 -15.017,-45.368c6.202,-17.703 12.802,21.691 19.447,27.444c6.644,5.754 23.921,13.941 24.142,15.933Z" style="fill:#fff5f3;"/>
        <path d="M309.784,200.406c0,0 14.619,19.03 21.928,21.686c7.309,2.655 3.322,-10.179 6.645,-19.695c3.322,-9.515 15.527,-39.948 7.67,-56.981c-13.7,-29.703 -12.465,27.303 -19.11,33.057c-6.645,5.753 -16.911,19.941 -17.133,21.933Z" style="fill:#fff5f3;"/>
        <g>
            <path d="M221.071,102.579c1.336,7.055 -0.03,15.319 4.316,19.228c4.347,3.909 6.068,22.662 16.095,24.723c4.066,0.836 0.319,12.838 10.407,24.773c2.163,2.56 6.516,12.694 15.59,16.589c14.45,6.204 23.442,14.071 33.846,12.361c18.364,-3.016 24.376,-12.935 28.846,-16.706c4.471,-3.772 14.004,-10.457 11.834,-29.935c-1.465,-13.154 3.952,-7.538 -3.64,-30.753c-0.55,-1.683 3.585,0.317 5.327,-11.804c1.155,-8.033 -0.716,-14.27 -0.274,-19.082c0.441,-4.813 -0.641,-13.581 -6.711,-14.686c-6.07,-1.106 -4.023,-0.737 -7.04,-7.148c-3.017,-6.412 -2.879,-48.551 -61.071,-38.014c-58.191,10.536 -48.224,66.757 -47.525,70.454Z" style="fill:#fe7f49;"/>
            <path d="M233.477,94.788c-14.113,14.934 8.006,46.642 9.129,52.29c2.112,10.62 15.743,26.853 25.627,28.884c4.008,0.823 11.747,13.975 28.888,10.147c18.046,-4.031 21.84,-13.779 24.685,-18.852c1.635,-2.916 17.786,-21.218 12.495,-44.705c-7.717,-34.254 -4.34,-66.747 -32.959,-51.071c-36.671,20.086 -59.129,14.063 -67.865,23.307Z" style="fill:#ff8c5a;"/>
            <path d="M253.651,119.736c1.848,-0.518 3.768,0.56 4.286,2.406c0.519,1.845 -0.56,3.764 -2.408,4.281c-1.847,0.518 -3.767,-0.56 -4.286,-2.406c-0.518,-1.845 0.561,-3.764 2.408,-4.281Z" style="fill:#3f2d0c;"/>
            <path d="M296.946,108.641c1.847,-0.518 3.767,0.56 4.286,2.406c0.518,1.845 -0.561,3.764 -2.408,4.281c-1.847,0.518 -3.768,-0.56 -4.286,-2.406c-0.518,-1.845 0.561,-3.764 2.408,-4.281Z" style="fill:#3f2d0c;"/>
            <path d="M298.173,69.633c-44.739,42.502 -53.615,12.067 -71.207,17.64c-3.798,1.204 -1.412,5.916 -0.625,13.91c0.994,10.099 -0.214,0.282 9.54,22.471c1.792,4.077 -1.453,5.915 -4.576,1.341c-1.579,-2.312 -4.792,-7.986 -8.771,-7.112c-4.599,1.009 -6.436,-11.704 -6.679,-17.636c-0.338,-8.221 2.549,-10.807 2.252,-17.613c-0.243,-5.553 -5.071,-9.794 -7.194,-11.164c-7.199,-4.645 -9.721,-9.813 -2.259,-10.376c7.927,-0.599 -0.618,-10.543 25.447,-28.68c10.41,-7.244 57.603,-29.766 81.019,-12.916c11.484,8.264 34.82,36.219 33.984,66.157c-0.198,7.11 -14.451,6.063 -12.716,10.464c1.735,4.402 3.393,11.971 -0.077,11.5c-3.47,-0.47 -12.757,-9.508 -13.257,-15.72c-0.499,-6.211 -11.099,-22.071 -9.28,-26.548c2.754,-6.776 -9.466,-1.547 -15.601,4.282Z" style="fill:#fcb777;"/>
        </g>
        <path d="M218.949,1156.84c-2.641,0.139 -2.403,-7.02 -2.635,-11.407c-0.782,-14.775 -5.263,-16.451 -7.24,-21.716c-1.976,-5.264 -6.378,-15.793 -0.228,-18.645c6.15,-2.851 13.618,18.426 18.669,22.813c5.052,4.387 41.67,12.196 46.282,11.757c4.612,-0.438 10.437,2.896 8.627,10.178c-1.59,6.401 2.258,13.284 -11.394,15.925c-4.029,0.78 -27.121,-0.272 -32.392,-2.684c-5.272,-2.413 -5.955,-10.665 -9.146,-18.286c-3.927,-9.379 -6.774,-8.423 -6.809,-3.509c-0.026,3.617 0.439,15.354 -3.734,15.574Z" style="fill:#797979;"/>
        <path d="M148.837,1156c2.643,0.076 2.965,-3.089 3.197,-9.721c0.518,-14.788 4.349,-17.154 6.326,-22.418c1.977,-5.265 6.378,-15.934 0.228,-18.786c-6.149,-2.851 -13.617,18.426 -18.669,22.813c-5.051,4.387 -32.884,12.196 -37.496,11.757c-4.613,-0.438 -12.405,6.406 -10.595,13.688c1.59,6.401 -2.821,9.634 12.519,9.608c4.103,-0.007 27.876,0.228 33.235,-1.983c4.147,-1.711 4.324,-8.448 5.632,-12.109c1.792,-5.018 2.697,-3.65 2.732,1.264c0.026,3.618 0.123,5.808 2.891,5.887Z" style="fill:#797979;"/>
        <path d="M256.343,1110.48c1.647,4.113 15.923,25.226 18.394,27.145c2.471,1.919 0.824,5.21 -8.511,5.21c-9.334,0 -47.496,-3.565 -49.967,-26.049c-2.471,-22.483 38.436,-10.419 40.084,-6.306Z" style="fill:#efb69a;"/>
        <path d="M119.877,1110.48c-1.647,4.113 -15.923,25.226 -18.394,27.145c-2.471,1.919 -0.824,5.21 8.511,5.21c9.334,0 38.711,-3.565 41.182,-26.049c2.471,-22.483 -29.651,-10.419 -31.299,-6.306Z" style="fill:#efb69a;"/>
        <path d="M295.092,695.361c0,0 -9.546,181.36 -11.217,204.259c-8.388,114.906 -27.797,155.238 -25.206,178.147c0.294,2.601 5.674,45.333 5.674,45.333l-61.132,0.366c0,0 -3.295,-40.946 -4.759,-48.258c-1.464,-7.312 -8.053,-136.836 -9.518,-146.341c-1.464,-9.505 -3.92,-56.517 -4.973,-68.26c-6.547,-73.038 -10.703,-67.988 -11.056,-12.771c-0.297,46.512 5.333,46.954 0.94,101.975c-0.757,9.475 11.537,87.742 2.238,122.838c-9.299,35.097 -6.93,53.376 -6.93,53.376l-60.603,-3.656c0,0 -8.1,-119.547 -7.46,-159.397c0.376,-23.395 -31.963,-137.461 -35.624,-161.59c-3.661,-24.129 -12.446,-99.441 -10.982,-113.333c1.464,-13.892 240.608,7.312 240.608,7.312Z" style="fill:#0054a8;"/>
        <g>
            <path d="M148.47,214.392c-0.741,-1.765 6.481,-30.158 7.755,-35.239c1.273,-5.08 37.747,-39.932 60.685,-37.422c22.939,2.509 23.013,1.448 25.653,3.872c2.639,2.424 5.762,15.343 18.699,29.214c12.936,13.872 36.553,42.042 35.387,51.96c-1.166,9.918 -10.018,25.661 -11.522,28.813c-0.114,0.239 -2.319,3.133 -5.619,-1.463c-0.916,-1.277 -14.847,39.909 -34.548,47.355c-43.316,16.37 -85.84,-7.848 -88.696,-9.167c-10.778,-4.975 -11.362,-17.736 -10.922,-27.176c0.439,-9.441 -9.197,-13.43 -9.189,-22.919c0.01,-11.885 4.691,-21.086 12.317,-27.828Z" style="fill:#bb9758;"/>
            <path d="M227.518,289.687c-4.311,8.646 -12.395,22.737 -8.727,28.102c3.668,5.365 -42.971,48.321 -43.729,48.191c-11.168,-1.927 -17.15,-5.049 -25.887,-8.362c-0.573,-0.217 -13.536,-47.161 3.153,-61.223c9.828,-8.279 7.506,-21.935 8.249,-26.681c0.213,-1.366 -3.526,-15.172 -5.019,-29.98c-0.229,-2.273 -3.321,-5.308 -3.427,-7.546c-0.125,-2.634 2.122,-5.243 2.102,-7.685c-0.097,-11.584 -0.19,-20.129 7.489,-17.542c9.367,3.157 86.93,22.34 102.4,40.358c2.673,3.113 -1.407,9.964 -8.065,15.146c-1.905,1.483 -4.7,4.747 -6.667,6.455c-2.272,1.971 -4.378,1.237 -6.626,3.155c-8.972,7.657 -15.164,17.449 -15.246,17.612Z" style="fill:#e7a788;"/>
            <path d="M158.399,245.676c1.742,-0.208 2.336,-7.542 1.984,-9.037c-2.119,-9.022 -7.016,-1.625 -7.55,1.309c-0.534,2.934 0.118,7.335 1.372,7.785c1.254,0.45 4.038,-0.039 4.194,-0.057Z" style="fill:#d0ccc4;"/>
            <path d="M239.308,276.148c-1.212,-1.268 3.004,-7.302 4.228,-8.232c7.384,-5.611 6.447,3.206 4.989,5.809c-1.458,2.602 -4.766,5.583 -6.019,5.133c-1.254,-0.45 -3.09,-2.597 -3.198,-2.71Z" style="fill:#d0ccc4;"/>
            <path d="M165.204,216.368c-3.925,13.321 -5.795,24.96 -7.473,30.43c-1.679,5.471 -5.193,22.063 1.945,36.847c4.729,9.794 6.72,3.857 11.949,10.65c5.23,6.793 20.172,14.758 27.703,11.532c7.531,-3.226 10.616,3.087 19.756,-2.598c9.14,-5.685 17.562,-7.432 24.936,-27.056c3.4,-9.046 9.868,-16.027 12.172,-22.43c2.304,-6.403 3.218,-29.451 2.889,-39.401c-0.329,-9.95 -9.977,-27.149 -15.983,-30.172c-6.007,-3.023 -13.379,-1.042 -17.026,-1.772c-3.646,-0.73 -16.948,-8.829 -30.675,-0.453c-13.728,8.377 -16.75,21.607 -18.277,24.24c-1.526,2.633 -10.606,5.737 -11.916,10.183Z" style="fill:#efb69a;"/>
            <path d="M191.452,221.884c1.769,0.634 2.689,2.584 2.054,4.351c-0.636,1.767 -2.588,2.686 -4.358,2.052c-1.769,-0.635 -2.689,-2.585 -2.053,-4.352c0.635,-1.767 2.588,-2.686 4.357,-2.051Z" style="fill:#3f2d0c;"/>
            <path d="M232.741,236.7c1.769,0.635 2.689,2.585 2.053,4.352c-0.635,1.767 -2.588,2.686 -4.357,2.051c-1.769,-0.635 -2.69,-2.585 -2.054,-4.352c0.636,-1.767 2.588,-2.686 4.358,-2.051Z" style="fill:#3f2d0c;"/>
            <path d="M277.584,240.926c7.429,-24.091 -9.95,-26.37 -19.63,-43.949c-8.637,-15.685 -9.153,-27.916 -4.958,-28.895c7.725,-1.802 9.515,2.047 11.839,4.793c11.68,13.8 28.335,6.465 29.085,43.196c0.037,1.801 -7.237,-4.117 -5.512,2.286c3.403,12.634 -0.026,24.46 -4.247,32.333c3.603,5.607 11.265,14.853 -14.23,42.04c-4.3,4.585 -9.79,6.055 -6.024,-0.162c14.054,-23.197 -17.753,-28.469 -1.669,-78.164c0.611,-1.888 9.605,18.029 15.346,26.522ZM140.394,235.178c6.437,-26.748 18.172,-19.653 33.147,-63.327c15.763,-45.975 79.448,-21.404 78.014,-5.011c-0.654,7.47 -7.267,1.367 -17.944,10.709c-7.053,6.173 -4.102,-4.701 -14.661,-4.163c-25.566,1.3 -34.297,33.365 -34.823,24.181c-0.579,-10.104 5.777,-15.74 0.331,-16.421c-7.324,-0.916 -17.7,11.607 -18.211,27.595c0.946,-0.463 16.586,-7.701 14.967,-3.029c-4.393,12.673 -22.96,6.28 -37.459,33.995c-4.27,8.161 -5.695,5.171 -3.361,-4.529Z" style="fill:#debe87;"/>
        </g>
        <path d="M76.148,435.66c1.896,11.566 4.693,57.164 -0.432,76.175c-5.125,19.011 -21.232,97.978 -24.16,110.408c-2.929,12.43 0,80.43 0,80.43l252.322,0c0,0 -0.732,-62.882 -2.929,-73.849c-2.196,-10.968 -9.72,-95.785 -15.577,-108.946c-5.857,-13.161 -10.249,-42.408 -7.877,-78.861c2.372,-36.452 6.522,-86.532 -0.75,-95.004c-17.615,-20.522 -48.465,-36.258 -49.134,-38.021c-4.02,-10.59 -4.402,-6.828 -6.032,-5.271c-5.251,5.017 -15.296,6.528 -30.227,7.889c-8.312,0.757 -3.518,21.324 -6.331,21.904c-0.721,0.149 -11.818,-3.413 -12.493,-3.722c-2.551,-1.17 1.581,-18.422 -6.668,-22.429c-12.703,-6.169 -5.699,-16.015 -6.492,-23.198c-0.265,-2.406 -4.699,-3.059 -13.201,10.461c-1.451,2.307 -57.87,3.195 -71.586,16.533c-2.72,2.646 -88.826,97.556 -72.531,148.723c7.349,23.076 73.866,-24.639 74.098,-23.222Z" style="fill:#0062c5;"/>
        <path d="M270.434,650.296c-0.297,7.128 -1.373,17 -3.295,20.838c-1.922,3.839 -10.158,21.661 -9.883,27.145c0.274,5.484 -1.922,17.274 -2.197,20.016c-0.274,2.742 -1.373,12.065 -0.823,13.436c0.549,1.371 9.609,3.29 12.08,-10.968c2.471,-14.258 2.196,1.371 1.647,3.839c-0.549,2.467 -0.824,9.322 -2.196,11.242c-1.373,1.919 -6.864,7.403 -6.864,9.87c0,2.468 1.647,4.662 4.118,4.388c2.471,-0.275 -1.897,2.753 0.802,4.909c2.699,2.156 6.927,-1.348 8.187,-2.067c1.259,-0.718 5.667,-5.121 6.747,-5.57c1.079,-0.449 5.757,-1.797 7.557,-3.774c1.799,-1.976 5.667,-10.602 7.017,-12.309c1.349,-1.707 5.308,-13.746 7.017,-17.25c1.709,-3.505 3.149,-16.443 2.249,-20.665c-0.9,-4.223 -3.778,-16.712 -3.329,-19.587c0.45,-2.875 1.89,-15.723 2.34,-19.766c0.449,-4.044 4.017,-45.483 4.456,-50.528c0.439,-5.045 -34.702,-4.826 -36.24,6.581c-1.537,11.406 0.78,36.13 0.61,40.22Z" style="fill:#efb69a;"/>
        <path d="M270.434,650.296c-0.297,7.128 -1.373,17 -3.295,20.838c-1.922,3.839 33.351,-4.067 33.801,-8.111c0.45,-4.043 4.685,-54.483 5.124,-59.528c0.439,-5.045 -34.702,-4.826 -36.24,6.581c-1.537,11.406 0.78,36.13 0.61,40.22Z" style="fill:#e7a788;"/>
        <path d="M122.916,296.224c-2.288,-2.388 -10.013,-6.769 -13.602,-4.014c-3.589,2.755 -7.729,1.935 -10.235,1.185c-2.505,-0.751 -7.775,-2.635 -11.725,4.013c-0.769,1.295 -5.81,-2.617 -8.86,3.571c-0.641,1.299 -2.665,-0.865 -6.699,6.976c-1.188,2.309 -6.461,-2.112 -7.962,4.527c-1.5,6.639 -0.238,9.08 0.912,10.254c1.151,1.174 6.139,1.079 6.677,-0.709c0.537,-1.788 0.188,-0.48 1.536,1.605c1.348,2.084 5.692,9.124 7.482,9.662c1.791,0.537 5.572,-0.229 5.998,-3.284c0.248,-1.78 -1.084,-4.137 -2.344,-6.22c-0.902,-1.49 5.383,8.97 9.323,10.843c1.918,0.912 6.193,-0.897 6.229,-3.106c0.037,-2.208 1.539,-1.201 3.892,-1.97c2.826,-0.923 6.801,-2.447 2.226,-11.97c-3.911,-8.14 -3.277,-10.516 -2.926,-9.37c0.374,1.22 2.224,4.096 6.83,1.018c4.606,-3.078 5.326,-6.739 7.928,-8.826c2.603,-2.088 6.857,-2.581 5.32,-4.185Z" style="fill:#fda37c;"/>
        <path d="M309.027,662.066c2.748,-9.984 6.589,-101.451 6.04,-111.322c-0.549,-9.871 -34.334,-191.828 -36.53,-198.957c-2.197,-7.129 -6.589,-8.774 -6.589,-8.774c0,0 -34.12,80.796 -33.571,125.764c0.15,12.301 13.909,54.995 15.745,74.417c4.875,51.574 9.046,114.879 9.331,118.872c0.102,1.443 45.027,1.988 45.574,0Z" style="fill:#0062c5;"/>
        <path d="M82.922,347.998c6.498,-11.307 52.967,-61.502 56.974,-64.607c4.007,-3.105 19.709,-11.812 24.265,-12.393c4.555,-0.581 11.493,0.582 13.771,-0.286c2.279,-0.868 9.074,0.277 11.175,-1.48c2.102,-1.757 7.513,-3.385 7.615,0.382c0.102,3.767 -3.386,5.06 -2.123,5.364c1.263,0.303 12.115,1.382 16.435,3.804c4.321,2.421 4.885,7.113 1.592,7.998c-3.292,0.884 2.277,0.286 5.62,2.44c3.342,2.154 1.043,5.474 -2.089,6.235c-3.132,0.76 1.509,2.934 -2.426,5.47c-3.935,2.537 -22.016,1.901 -24.062,2.076c-2.047,0.176 19.42,6.211 17.374,8.637c-4.522,5.363 -14.912,1.097 -19.183,1.714c-4.271,0.617 -14.784,2.666 -20.746,4.081c-4.097,0.972 -16.334,2.885 -21.643,5.651c-9.87,5.141 -30.153,46.975 -33.889,46.793c-3.737,-0.182 -31.239,-17.391 -28.66,-21.879Z" style="fill:#e7a788;"/>
        <path d="M119.321,353.618c-3.736,-0.182 -32.137,-11.782 -28.237,-16.537c15.391,-18.762 45.615,-51.213 48.812,-53.69c4.007,-3.105 19.709,-11.812 24.265,-12.393c4.555,-0.581 11.493,0.582 13.771,-0.286c1.118,-0.426 4.558,9.685 7.267,20.168c2.812,10.879 -16.53,20.527 -22.492,21.942c-4.098,0.972 -14.377,4.007 -19.686,6.773c-9.87,5.141 -19.963,34.205 -23.7,34.023Z" style="fill:#efb69a;"/>
        <path d="M85.163,340.678c-27.69,27.488 -43.839,52.347 -43.839,52.347c0,0 -48.603,58.33 -37.672,69.041c31.612,30.977 83.452,-3.845 99.87,-32.564c8.399,-14.692 17.102,-54.95 20.351,-62.814c0.553,-1.337 -37.246,-27.463 -38.71,-26.01Z" style="fill:#0062c5;"/>
        <path d="M348.329,412.586c-2.863,-6.855 -6.011,-16.682 -15.221,-16.391c-2.001,0.063 -5.726,0.623 -10.444,0.269c-13.067,-0.979 -26.05,27.093 -22.054,34.918c5.104,9.997 11.945,15.956 14.775,16.312c2.83,0.356 -1.276,10.645 2.552,10.257c3.829,-0.389 30.375,-1.368 32.927,-1.628c2.553,-0.259 1.164,-34.884 -2.535,-43.737Z" style="fill:#fff5f3;"/>
        <path d="M317.076,439.077c5.366,0.879 8.024,-42.82 2.645,-43.392c-3.802,-0.405 -7.269,-1.323 -8.708,-3.267c-3.474,-4.695 -5.845,-12.997 -9.937,-14.356c-1.561,-0.518 -11.434,-13.247 -18.194,-13.119c-1.271,0.025 1.405,12.717 0.097,12.753c-9.981,0.277 -20.397,0.858 -21.03,0.995c-1.157,0.251 -12.833,0.338 -16.857,3.061c-4.024,2.724 -4.254,8.17 -0.919,7.88c14.428,-1.255 33.203,6.037 19.587,3.809c-3.927,-0.643 -17.833,-1.715 -24.786,1.489c-6.84,3.152 -2.113,9.064 0.683,10.485c2.796,1.422 -1.506,5.578 1.931,9.497c3.436,3.919 8.925,4.626 10.767,5.121c1.842,0.494 -1.804,0.281 -0.7,4.313c1.104,4.031 3.328,4.858 7.16,6.229c3.833,1.371 14.962,-0.347 24.135,6.158c4.854,3.443 19.806,4.38 23.858,2.239c1.804,-0.953 5.96,-0.601 10.268,0.105Z" style="fill:#fda37c;"/>
        <path d="M322.059,440.009c3.5,0.716 4.47,-43.859 -0.326,-44.157c-4.542,-0.282 -9.03,-1.15 -10.72,-3.434c-3.474,-4.695 -5.845,-12.997 -9.937,-14.356c-1.561,-0.518 -11.434,-13.247 -18.194,-13.119c-1.271,0.025 1.405,12.717 0.097,12.753c-4.952,0.137 28.355,-5.934 20.899,45.609c-2.006,13.864 -25.55,10.151 -20.928,13.428c4.854,3.443 19.806,4.38 23.858,2.239c2.509,-1.325 9.562,-0.128 15.251,1.037Z" style="fill:#f49871;"/>
    </g>
</svg>
