<?xml version="1.0" encoding="UTF-8" standalone="no"?>
<!DOCTYPE svg PUBLIC "-//W3C//DTD SVG 1.1//EN" "http://www.w3.org/Graphics/SVG/1.1/DTD/svg11.dtd">
<svg width="830px" height="400px" version="1.1" xmlns="http://www.w3.org/2000/svg" xmlns:xlink="http://www.w3.org/1999/xlink" xml:space="preserve" style="fill-rule:evenodd;clip-rule:evenodd;stroke-linejoin:round;stroke-miterlimit:1.41421;">
    <clipPath id="_clip1">
        <rect id="eagle" x="0" y="0" width="830" height="400"/>
    </clipPath>
    <g clip-path="url(#_clip1)">
        <path d="M697.357,1.694c37.712,-2.106 81.572,-3.48 99.323,3.641c17.75,7.12 2.28,8.761 -25.374,11.254c-27.655,2.494 12.042,25.238 29.599,29.584c17.557,4.347 53.027,42.282 4.76,32.13c-91.829,-19.314 -26.831,9.053 -12.919,17c13.912,7.947 32.634,50.2 -16.264,27.417c-48.897,-22.782 -34.362,1.665 -21.995,11.393c12.366,9.728 3.22,30.623 -61.302,7.262c-64.521,-23.361 -26.674,8.558 -60.049,0.858c-33.375,-7.7 -32.791,24.598 -56.274,15.09c-23.482,-9.507 -42.117,18.56 -57.239,25.194c-15.121,6.634 -13.123,19.318 -22.384,22.197c-9.261,2.878 -19.093,-34.347 -21.117,-55.393c-2.025,-21.045 68.347,-97.339 115.411,-116.802c47.063,-19.464 66.461,-28.627 105.824,-30.825Z" style="fill:#433727;"/>
        <path d="M433.844,398.123c6.807,-0.476 11.963,-10.873 6.041,-18.264c-5.922,-7.391 -3.249,3.573 -2.52,7.185c0.729,3.613 -1.03,8.038 -4.794,8.779c-3.765,0.742 -1.734,2.511 1.273,2.3Z" style="fill:#000616;"/>
        <path d="M423.115,385.652c6.807,-0.476 11.963,-10.873 6.041,-18.264c-5.922,-7.391 -3.249,3.573 -2.52,7.185c0.729,3.613 -1.03,8.038 -4.794,8.779c-3.765,0.741 -1.734,2.511 1.273,2.3Z" style="fill:#000616;"/>
        <path d="M402.67,384.535c-6.807,0.476 -15.988,-10.351 -11.149,-18.495c4.838,-8.145 3.713,3.085 3.493,6.764c-0.221,3.68 4.009,9.597 7.84,9.806c3.831,0.21 2.822,1.714 -0.184,1.925Z" style="fill:#000616;"/>
        <path d="M311.352,392.892c3.483,-2.06 3.567,-7.764 1.557,-9.216c-2.009,-1.452 -5.857,-0.758 -4.457,4.109c0.736,2.56 -2.249,-0.321 -2.377,2.396c-0.129,2.717 3.75,3.614 5.277,2.711Z" style="fill:#000616;"/>
        <path d="M294.213,399.853c3.483,-2.06 3.567,-7.763 1.557,-9.216c-2.009,-1.452 -5.857,-0.758 -4.457,4.109c0.736,2.56 1.373,6.01 2.9,5.107Z" style="fill:#000616;"/>
        <path d="M287.702,386.953c-2.906,-1.21 -3.587,-5.595 -2.195,-6.932c1.391,-1.337 4.431,-1.219 3.878,2.683c-0.29,2.052 -0.409,4.78 -1.683,4.249Z" style="fill:#000616;"/>
        <path d="M308.002,342.574c0.482,-3.117 -7.39,-1.075 -10.058,-0.57c-1.479,0.28 0.295,6.511 -3.23,12.97c-3.525,6.46 -10.634,20.817 -11.273,25.322c-0.64,4.505 1.071,8.527 4.107,4.173c3.036,-4.354 7.495,-15.658 8.029,-10.28c0.534,5.379 -5.659,12.344 -5.518,16.636c0.14,4.291 2.36,8.755 5.778,5.33c3.419,-3.425 6.355,-9.206 7.079,-17.063c0.724,-7.856 3.705,-6.154 3.065,-1.648c-0.639,4.505 0.789,9.025 3.671,9.301c2.881,0.276 5.317,-3.558 5.718,-6.932c0.401,-3.373 -3.534,-9.629 -4.01,-16.446c-0.475,-6.816 -3.906,-17.25 -3.358,-20.793Z" style="fill:#e5c14a;"/>
        <path d="M465.038,205.853c-1.006,-14.426 1.852,-21.317 10.997,-25.86c9.145,-4.543 16.009,-17.847 17.257,-31.874c1.248,-14.026 38.884,-25.024 58.252,-66.524c19.368,-41.5 44.899,-26.56 73.042,-38.009c28.142,-11.448 70.466,-35.04 44.485,-40.47c-25.981,-5.429 -100.687,8.721 -117.881,25.536c-17.194,16.815 -108.153,53.291 -116.536,76.737c-8.382,23.447 6.777,17.368 -13.74,34.415c-20.517,17.048 -22.217,16.61 -43.844,9.76c-21.627,-6.849 -34.734,52.612 -48.786,58.613c-14.052,6.002 -53.546,15.776 -72.262,18.759c-18.715,2.982 -64.069,8.807 -55.065,18.213c9.005,9.406 -11.101,16.389 7.203,23.471c18.304,7.082 37.198,-9.295 29.664,2.384c-7.533,11.678 -25.811,12.958 -19.061,21.964c6.751,9.006 -0.694,13.987 11.917,19.238c12.611,5.25 17.449,-0.461 26.877,-8.927c9.427,-8.466 7.277,0.605 8.888,7.741c1.611,7.135 24.365,7.708 32.917,2.648c8.552,-5.059 27.825,-9.514 36.842,-7.915c9.016,1.599 29.79,-27.733 38.985,-39.528c9.195,-11.795 16.473,-11.189 28.465,-14.816c11.991,-3.627 43.16,-27.554 46.843,-30.599c3.684,-3.046 15.547,-0.531 14.541,-14.957Z" style="fill:#9f835e;"/>
        <path d="M418.262,237.423c4.362,22.126 0.449,42.343 -9.982,60.358c-10.432,18.014 1.69,32.219 3.604,35.71c1.913,3.49 -9.629,11.786 -14.839,2.711c-5.385,-9.38 -8.328,-11.683 -12.217,-3.605c-1.457,3.026 -4.979,-3.555 -3.795,-14.51c1.184,-10.955 -4.567,-1.632 -7.4,1.633c-2.833,3.265 -6.756,-5.102 -2.501,-19.897c4.255,-14.794 -3.512,-18.432 -13.546,-14.663c-10.033,3.769 45.172,-126.382 60.676,-47.737Z" style="fill:#433727;"/>
        <path d="M411.645,334.065c3.992,6.494 10.575,9.116 12.886,12.619c2.312,3.502 1.226,3.896 7.163,9.216c5.937,5.319 7.38,14.617 7.374,19.078c-0.007,4.461 3.298,8.53 -2.966,9.925c-6.263,1.394 -5.936,-5.32 -6.327,-8.638c-0.39,-3.318 -8.882,0.653 -9.124,-5.414c-0.424,-10.644 -10.677,-9.448 -11.928,-11.432c-1.252,-1.983 -1.866,0.609 -3.625,5.033c-1.758,4.424 -5.394,9.299 -10.042,4.208c-4.649,-5.091 -3.796,-8.815 0.617,-11.673c4.412,-2.857 11.691,-3.367 9.644,-9.914c-2.047,-6.548 -5.653,-7.333 -3.548,-7.558c6.88,-0.733 8.856,-7.11 9.876,-5.45Z" style="fill:#e5c14a;"/>
        <path d="M193.938,38.558c-4.74,-0.999 -9.238,-1.615 -13.413,-1.801c-18.438,-0.822 -24.975,8.996 -58.001,6.29c-33.026,-2.706 -77.204,18.228 -71.833,23.428c5.372,5.2 21.279,1.856 0.62,8.878c-20.66,7.021 -54.351,50.639 -51.091,65.465c3.261,14.826 14.812,-11.073 25.696,-14.623c15.749,-5.136 -15.417,18.364 -22.975,45.655c-7.558,27.292 65.189,1.013 74.501,-9.118c9.312,-10.13 21.559,-26.041 16.318,-13.408c-5.241,12.633 18.036,27.173 31.534,21.21c13.499,-5.963 26.97,-20.287 21.059,-9.28c-5.911,11.007 -5.485,17.111 14.094,18.528c19.578,1.417 20.391,13.069 37.459,26.371c17.069,13.301 23.239,13.985 28.956,0.203c3.166,-7.632 9.893,-11.55 22.31,-15.078c-3.416,6.751 -10.951,6.731 -5.295,11.657c8.888,7.741 23.146,-3.293 32.523,-4.507c9.377,-1.214 9.94,1.104 27.847,11.432c14.69,8.473 41.117,-23.172 46.296,-31.92c7.692,-12.992 -21.544,-45.964 -34.939,-62.973c-13.771,-17.486 -35.523,-35.227 -58.758,-49.388c-12.838,-13.389 -26.588,-24.01 -41.079,-26.271c-15.896,-2.479 -21.914,-2.501 -21.829,-0.75Z" style="fill:#433727;"/>
        <path d="M569.207,42.259c-17.194,16.815 -70.111,61.407 -67.707,79.917c1.814,13.964 29.748,3.586 49.116,-37.914c19.368,-41.5 52.55,-28.583 80.693,-40.031c28.143,-11.449 74.272,-43.559 27.501,-37.375c-25.399,3.359 -80.649,26.647 -89.603,35.403Z" style="fill:#665847;"/>
        <path d="M273.314,258.909c12.322,-8.219 -18.603,2.188 -37.441,-5.207c-17.424,-6.84 -49.859,14.829 -20.836,16.421c15.76,0.864 51.86,-6.933 58.277,-11.214Z" style="fill:#665847;"/>
        <path d="M465.115,206.962c-1.006,-14.426 1.853,-21.316 10.997,-25.859c9.145,-4.543 -8.352,-40.158 -13.629,-40.411c-11.419,-0.547 2.455,34.418 -11.577,46.078c-20.517,17.048 -54.913,-21.246 -76.54,-28.096c-21.627,-6.849 -35.527,-22.603 -58.509,-48.872c-22.982,-26.269 -20.657,1.627 -16.796,6.566c57.443,73.479 2.513,76.85 7.025,96.973c1.547,6.899 -19.269,1.72 -17.327,8.011c5.403,17.495 17.79,19.767 26.063,26.228c7.415,5.79 18.911,11.519 32.699,13.806c20.056,3.326 51.325,-7.39 56.21,-8.867c11.991,-3.628 43.16,-27.554 46.844,-30.6c3.683,-3.045 15.546,-0.53 14.54,-14.957Z" style="fill:#665847;"/>
        <path d="M464.694,196.744c-3.194,-18.135 -8.451,-9.445 -12.504,-14.365c-4.054,-4.92 -6.586,3.992 -9.09,2.681c-2.503,-1.312 -12.31,-3.599 -18.247,-0.953c-5.938,2.646 -7.033,3.509 -8.29,6.156c-3.121,6.567 -5.943,3.095 -11.057,1.857c-12.615,-3.053 -1.733,10.945 -7.249,17.638c-1.918,2.327 -8.883,-0.276 -8.513,5.613c0.324,5.168 5.629,6.23 13.012,9.384c4.533,1.936 -3.385,8.781 7.633,9.987c7.051,0.771 21.893,5.344 28.227,11.033c6.334,5.69 23.586,10.987 28.18,15.684c4.595,4.696 23.083,3.774 23.141,-8.682c0.059,-12.457 -2.879,-22.659 -11.398,-30.426c-8.519,-7.767 -13.231,-22.119 -13.845,-25.607Z" style="fill:#eee3e1;"/>
        <path d="M470.222,237.43c-1.987,0.139 -3.487,1.868 -3.349,3.858c0.139,1.991 1.865,3.494 3.852,3.355c1.987,-0.139 3.487,-1.868 3.349,-3.859c-0.139,-1.99 -1.865,-3.493 -3.852,-3.354Z" style="fill:#000616;"/>
        <path d="M489.821,250.438c2.444,8.947 9.986,23.209 -4.312,31.944c-7.473,4.565 -8.646,1.72 -7.062,0.494c1.585,-1.226 1.459,-3.029 -0.406,-5.826c-1.865,-2.797 -3.523,-4.632 -4.754,-8.309c-1.23,-3.678 -6.566,-6.371 -8.125,-8.771c-1.559,-2.4 1.565,-1.503 -1.324,-7.016c-2.89,-5.513 -1.512,-7.7 4.069,-3.491c5.581,4.209 9.662,6.851 11.494,5.189c1.832,-1.661 9.485,-7.633 10.42,-4.214Z" style="fill:#e5c14a;"/>
        <path d="M348.348,260.438c-2.026,13.529 -25.594,51.971 -33.219,58.36c-7.625,6.388 -0.533,12.303 -6.837,21.665c-6.304,9.363 -11.438,3.589 -14.491,-4.282c-3.054,-7.871 -2.918,-5.929 -6.242,-5.696c-3.323,0.232 -1.398,-4.084 -0.555,-11.949c0.843,-7.865 -2.763,-3.709 -5.778,-11.025c-3.015,-7.316 -6.12,-19.923 4.781,-35.182c10.902,-15.26 31.793,-30.94 42.723,-25.851c10.929,5.089 20.757,6.353 19.618,13.96Z" style="fill:#433727;"/>
    </g>
</svg>
