<?xml version="1.0" encoding="UTF-8" standalone="no"?>
<!DOCTYPE svg PUBLIC "-//W3C//DTD SVG 1.1//EN" "http://www.w3.org/Graphics/SVG/1.1/DTD/svg11.dtd">
<svg width="114px" height="98px" version="1.1" xmlns="http://www.w3.org/2000/svg" xmlns:xlink="http://www.w3.org/1999/xlink" xml:space="preserve" style="fill-rule:evenodd;clip-rule:evenodd;stroke-linejoin:round;stroke-miterlimit:1.41421;">
    <clipPath id="_clip1">
        <rect id="fighterjet" x="0" y="0" width="114" height="98"/>
    </clipPath>
    <g clip-path="url(#_clip1)">
        <path d="M53.713,33.556c-0.507,0.448 -0.819,0.705 -0.897,0.731c-0.897,0.302 -15.526,2.93 -15.526,2.93c0,0 -8.767,7.488 -9.423,7.478c-11.914,-0.168 -27.697,7.955 -27.857,8.163c-0.161,0.208 1.699,2.308 5.225,3.538c3.526,1.231 18.392,0.444 19.119,1.005c0.727,0.562 3.155,7.079 4.49,7.281c1.336,0.203 13.352,0.53 14.079,1.092c0.207,0.16 1.432,2.715 3.097,6.311c-5.237,0.961 -9.336,4.099 -9.336,4.099c0,0 2.854,3.581 9.971,2.836c0.571,-0.06 1.409,-0.16 2.413,-0.286c3.855,8.458 8.18,18.052 8.682,18.718c0.902,1.194 4.432,0.272 5.706,-0.733c1.274,-1.006 4.223,-3.536 5.997,-6.477c1.774,-2.941 12.973,-22.808 13.37,-21.175c0.396,1.633 3.31,9.023 4.325,9.641c1.015,0.618 6.055,0.531 6.857,-0.507c0.803,-1.039 4.383,-7.392 5.699,-9.526c1.316,-2.133 -1.215,-8.731 -2.292,-10.557c-1.076,-1.826 -2.228,-2.052 -3.7,-1.863c-1.473,0.189 1.373,-2.421 1.438,-3.365c0.066,-0.944 -1.699,-2.308 -0.987,-2.586c0.713,-0.279 2.922,-0.563 4.243,-1.2c1.321,-0.638 1.972,-2.125 1.085,-2.478c-0.888,-0.354 -5.677,2.413 -3.993,0.232c1.684,-2.181 2.057,-4.38 1.315,-5.782c-0.741,-1.401 3.714,-0.945 4.771,-1.455c1.057,-0.51 9.172,-10.158 11.088,-11.995c1.916,-1.836 1.394,-9.534 0.686,-11.407c-0.708,-1.874 -5.862,-1.211 -7.032,-0.126c-1.17,1.086 -11.937,12.666 -11.536,12.147c0.401,-0.52 -1.376,-8.523 -0.103,-13.177c1.273,-4.654 -0.117,-14.017 -1.235,-14.715c-1.119,-0.698 -4.352,-0.377 -6.107,1.252c-1.204,1.117 -16.589,15.948 -26.418,25.244c-5.997,1.162 -10.421,4.388 -10.421,4.388c0,0 1.008,1.213 3.207,2.324Z" style="fill:#2d365a;"/>
        <path d="M75.334,80.802c-1.903,0.245 -5.173,-0.458 -5.428,-0.986c-0.255,-0.529 3.887,-0.313 5.362,-0.502c0.245,-0.032 0.68,1.409 0.066,1.488ZM94.749,16.879c-1.903,0.245 -5.173,-0.458 -5.428,-0.986c-0.255,-0.529 3.887,-0.313 5.362,-0.502c0.245,-0.032 0.68,1.409 0.066,1.488ZM73.348,29.42c0,0 -3.724,-0.143 -8.278,0.128c-9.036,0.537 -14.564,1.684 -14.564,1.684c0,0 6.259,-4.564 13.978,-4.79c2.014,-0.058 4.931,-0.123 7.96,-0.183c6.377,-0.126 3.695,0.823 0.904,3.161ZM44.66,62.86c-0.521,-0.651 -11.96,-1.113 -13.982,-0.105c-2.022,1.008 -2.024,2.084 -2.024,2.084c0,0 12.626,0.964 13.841,0.825c1.214,-0.14 2.344,-2.581 2.165,-2.804ZM56.295,43.772c0,0 -1.791,-3.263 -2.323,-4.005c-0.532,-0.743 -12.785,-4.922 -14.797,0.841c-0.365,1.044 -0.43,1.988 -0.43,1.988l2.687,2.96c0,0 3.53,-2.137 7.498,-1.836c3.967,0.301 7.365,0.052 7.365,0.052ZM32.48,52.569c1.366,-0.005 -3.853,-7.176 -4.316,-7.865c-0.463,-0.689 -11.644,0.123 -14.517,2.052c-0.459,0.309 -12.424,4.285 -13.644,6.109c-0.045,0.068 9.659,-2.666 15.898,-2.158c6.24,0.508 15.581,1.865 16.579,1.862Z" style="fill:#697190;"/>
    </g>
</svg>
