<?xml version="1.0" encoding="UTF-8" standalone="no"?>
<!DOCTYPE svg PUBLIC "-//W3C//DTD SVG 1.1//EN" "http://www.w3.org/Graphics/SVG/1.1/DTD/svg11.dtd">
<svg width="380px" height="1210px" version="1.1" xmlns="http://www.w3.org/2000/svg" xmlns:xlink="http://www.w3.org/1999/xlink" xml:space="preserve" style="fill-rule:evenodd;clip-rule:evenodd;stroke-linejoin:round;stroke-miterlimit:1.41421;">
    <clipPath id="_clip1">
        <rect id="flagtrump" x="0" y="0" width="380" height="1210"/>
    </clipPath>
    <g clip-path="url(#_clip1)">
        <rect x="0" y="0" width="380" height="1210" style="fill:#4474be;"/>
        <path d="M381,353.221l0,95.362c-13.469,0.018 -27.002,0.916 -40.204,3.671c-5.136,1.072 -10.207,2.435 -15.2,4.046c-3.61,1.165 -7.172,2.465 -10.721,3.803c-6.721,2.582 -13.388,5.3 -20.097,7.912c-5.951,2.276 -11.932,4.467 -18,6.413c-7.673,2.46 -15.462,4.556 -23.341,6.248c-22.178,4.765 -44.936,6.306 -67.585,6.019c-19.288,-0.244 -38.6,-1.953 -57.475,-6.03c-10.367,-2.24 -20.559,-5.199 -30.557,-8.734c-9.623,-3.402 -19.034,-7.352 -28.537,-11.068c-1.972,-0.761 -3.948,-1.509 -5.931,-2.24c-3.187,-1.144 -6.384,-2.248 -9.626,-3.225c-4.79,-1.445 -9.651,-2.643 -14.565,-3.584c-12.9,-2.471 -26.048,-3.191 -39.161,-3.232c0,0 0.299,-95.361 0.299,-95.361c10.89,0.035 21.773,0.443 32.615,1.49c13.564,1.311 27.029,3.607 40.208,7.085c8.652,2.284 17.156,5.079 25.537,8.209c7.744,2.891 15.377,6.066 23.073,9.08c1.977,0.762 3.957,1.511 5.944,2.244c3.182,1.143 6.376,2.244 9.613,3.22c4.419,1.333 8.899,2.459 13.425,3.362c13.831,2.758 28.002,3.536 42.081,3.448c14.346,-0.089 28.77,-1.165 42.777,-4.4c4.74,-1.094 9.417,-2.437 14.032,-3.975c9.765,-3.254 19.247,-7.306 28.833,-11.039c1.708,-0.656 3.419,-1.306 5.131,-1.952c5.224,-1.923 10.474,-3.765 15.792,-5.41c7.82,-2.418 15.76,-4.445 23.785,-6.055c19.032,-3.818 38.462,-5.28 57.855,-5.307Z" style="fill:#f54f4f;"/>
        <path d="M381,448.582l0,95.362c-13.468,0.018 -27.001,0.914 -40.201,3.67c-4.805,1.003 -9.554,2.259 -14.235,3.738c-3.941,1.246 -7.824,2.655 -11.691,4.113c-6.72,2.581 -13.387,5.299 -20.095,7.911c-5.952,2.276 -11.934,4.468 -18.003,6.414c-7.674,2.459 -15.462,4.556 -23.341,6.248c-22.178,4.763 -44.934,6.305 -67.582,6.018c-19.288,-0.244 -38.597,-1.953 -57.472,-6.029c-10.368,-2.239 -20.562,-5.2 -30.56,-8.735c-9.623,-3.402 -19.034,-7.352 -28.537,-11.069c-1.972,-0.76 -3.948,-1.508 -5.931,-2.239c-3.186,-1.144 -6.382,-2.247 -9.623,-3.224c-4.791,-1.445 -9.653,-2.644 -14.568,-3.585c-12.9,-2.471 -26.047,-3.191 -39.161,-3.232c0,0 0.299,-95.361 0.299,-95.361c10.891,0.035 21.775,0.442 32.618,1.49c13.563,1.312 27.03,3.607 40.209,7.086c8.651,2.284 17.153,5.079 25.533,8.208c7.744,2.891 15.377,6.066 23.073,9.08c1.977,0.762 3.957,1.511 5.944,2.244c3.183,1.144 6.378,2.244 9.616,3.221c4.419,1.333 8.899,2.458 13.425,3.361c13.83,2.759 28.001,3.536 42.078,3.448c14.346,-0.089 28.77,-1.165 42.777,-4.4c5.048,-1.165 10.037,-2.601 14.938,-4.28c9.438,-3.234 18.634,-7.115 27.927,-10.734c1.708,-0.656 3.419,-1.306 5.131,-1.952c5.225,-1.924 10.476,-3.766 15.795,-5.411c7.821,-2.417 15.76,-4.445 23.785,-6.054c19.032,-3.817 38.46,-5.28 57.852,-5.307Z" style="fill:#fff;"/>
        <path d="M381,543.943l0,95.361c-13.469,0.019 -27.002,0.916 -40.204,3.672c-5.136,1.072 -10.207,2.435 -15.2,4.046c-3.61,1.165 -7.172,2.465 -10.721,3.803c-6.721,2.581 -13.388,5.3 -20.097,7.912c-5.951,2.276 -11.932,4.467 -18,6.412c-7.673,2.461 -15.462,4.557 -23.341,6.249c-22.178,4.765 -44.936,6.306 -67.585,6.019c-19.289,-0.244 -38.599,-1.953 -57.475,-6.03c-10.366,-2.24 -20.558,-5.199 -30.555,-8.733c-9.624,-3.402 -19.036,-7.353 -28.539,-11.07c-1.972,-0.76 -3.948,-1.508 -5.931,-2.239c-3.187,-1.144 -6.384,-2.248 -9.626,-3.225c-4.79,-1.445 -9.651,-2.644 -14.565,-3.585c-12.9,-2.47 -26.048,-3.19 -39.161,-3.231c0,0 0.299,-95.361 0.299,-95.361c10.891,0.034 21.775,0.442 32.618,1.49c13.563,1.312 27.027,3.607 40.205,7.085c8.652,2.283 17.156,5.079 25.537,8.208c7.744,2.892 15.377,6.067 23.073,9.081c1.977,0.762 3.957,1.511 5.944,2.244c3.182,1.143 6.376,2.244 9.613,3.22c4.419,1.333 8.899,2.459 13.425,3.362c13.831,2.758 28.002,3.536 42.081,3.448c14.346,-0.09 28.77,-1.165 42.777,-4.4c4.74,-1.094 9.417,-2.437 14.032,-3.975c9.765,-3.254 19.247,-7.306 28.833,-11.039c1.708,-0.656 3.419,-1.306 5.131,-1.952c5.224,-1.924 10.474,-3.765 15.792,-5.41c7.82,-2.418 15.76,-4.445 23.785,-6.055c19.032,-3.818 38.462,-5.28 57.855,-5.307Z" style="fill:#f54f4f;"/>
        <path d="M381,639.304l0,95.361c-13.468,0.019 -27.001,0.915 -40.201,3.671c-4.805,1.003 -9.555,2.259 -14.235,3.738c-3.941,1.246 -7.824,2.655 -11.691,4.113c-6.72,2.581 -13.387,5.299 -20.095,7.911c-5.952,2.276 -11.934,4.468 -18.003,6.414c-7.674,2.459 -15.462,4.556 -23.341,6.248c-22.178,4.763 -44.934,6.305 -67.582,6.018c-19.288,-0.244 -38.597,-1.953 -57.472,-6.03c-10.368,-2.239 -20.562,-5.199 -30.56,-8.734c-9.623,-3.402 -19.034,-7.353 -28.537,-11.069c-1.972,-0.76 -3.948,-1.508 -5.931,-2.239c-3.186,-1.144 -6.382,-2.247 -9.623,-3.224c-4.791,-1.445 -9.653,-2.644 -14.568,-3.586c-12.9,-2.47 -26.048,-3.19 -39.161,-3.231c0,0 0.299,-95.361 0.299,-95.361c10.891,0.034 21.775,0.442 32.618,1.49c13.564,1.312 27.03,3.607 40.209,7.086c8.65,2.284 17.151,5.078 25.531,8.207c7.745,2.891 15.379,6.067 23.075,9.081c1.977,0.761 3.957,1.511 5.944,2.244c3.183,1.144 6.378,2.244 9.616,3.221c4.419,1.333 8.899,2.458 13.425,3.361c13.83,2.759 28.001,3.536 42.078,3.448c14.346,-0.089 28.77,-1.165 42.777,-4.4c4.74,-1.094 9.417,-2.437 14.032,-3.975c9.765,-3.254 19.247,-7.306 28.833,-11.039c1.709,-0.656 3.42,-1.307 5.133,-1.953c5.224,-1.923 10.474,-3.766 15.793,-5.41c7.821,-2.418 15.76,-4.445 23.785,-6.055c19.032,-3.816 38.46,-5.279 57.852,-5.306Z" style="fill:#fff;"/>
        <path d="M381,734.664l0,95.363c-13.467,0.019 -26.999,0.913 -40.198,3.67c-4.806,1.004 -9.556,2.258 -14.238,3.738c-3.941,1.246 -7.826,2.656 -11.693,4.113c-6.72,2.581 -13.386,5.298 -20.093,7.911c-5.951,2.275 -11.932,4.467 -18,6.412c-7.674,2.461 -15.464,4.558 -23.344,6.25c-22.178,4.763 -44.934,6.305 -67.581,6.018c-19.289,-0.244 -38.598,-1.953 -57.473,-6.029c-10.368,-2.24 -20.563,-5.2 -30.562,-8.736c-9.622,-3.402 -19.033,-7.351 -28.535,-11.068c-1.973,-0.761 -3.949,-1.508 -5.933,-2.24c-3.184,-1.143 -6.378,-2.246 -9.617,-3.222c-4.791,-1.445 -9.654,-2.645 -14.569,-3.586c-12.902,-2.47 -26.049,-3.191 -39.164,-3.232c0,0 0.299,-95.361 0.299,-95.361c10.891,0.035 21.775,0.442 32.618,1.49c13.563,1.312 27.03,3.607 40.209,7.086c8.651,2.284 17.153,5.079 25.533,8.208c7.744,2.891 15.377,6.066 23.073,9.08c1.976,0.761 3.956,1.51 5.943,2.243c3.183,1.144 6.378,2.245 9.617,3.222c4.418,1.333 8.897,2.458 13.422,3.361c12.574,2.507 25.431,3.368 38.234,3.448c14.885,0.094 29.879,-0.786 44.462,-3.917c4.81,-1.033 9.564,-2.319 14.249,-3.822c4.312,-1.383 8.558,-2.955 12.787,-4.572c6.008,-2.34 11.983,-4.763 17.991,-7.103c5.908,-2.268 11.846,-4.453 17.869,-6.397c7.624,-2.461 15.363,-4.562 23.193,-6.259c20.189,-4.375 40.865,-6.045 61.501,-6.069Z" style="fill:#f54f4f;"/>
        <path d="M0,925.387l0.299,-95.361c10.891,0.034 21.775,0.442 32.618,1.49c13.563,1.311 27.03,3.607 40.209,7.086c8.651,2.283 17.153,5.078 25.533,8.207c7.744,2.892 15.377,6.068 23.073,9.081c1.976,0.761 3.956,1.51 5.943,2.243c3.183,1.144 6.378,2.245 9.617,3.222c4.42,1.333 8.901,2.458 13.428,3.362c13.827,2.759 27.998,3.536 42.072,3.447c14.346,-0.09 28.771,-1.164 42.777,-4.399c4.742,-1.095 9.421,-2.439 14.038,-3.977c9.765,-3.253 19.245,-7.306 28.83,-11.038c1.708,-0.656 3.419,-1.307 5.131,-1.952c5.224,-1.924 10.474,-3.765 15.792,-5.41c7.819,-2.418 15.757,-4.444 23.782,-6.054c19.033,-3.82 38.464,-5.28 57.858,-5.308l0,95.362c-13.469,0.019 -27.002,0.915 -40.204,3.671c-4.805,1.003 -9.552,2.258 -14.232,3.737c-3.94,1.245 -7.823,2.655 -11.689,4.112c-6.721,2.582 -13.388,5.3 -20.097,7.912c-5.951,2.276 -11.932,4.467 -18,6.412c-7.674,2.461 -15.464,4.558 -23.344,6.25c-22.178,4.763 -44.934,6.304 -67.581,6.018c-19.289,-0.244 -38.598,-1.953 -57.473,-6.03c-10.367,-2.239 -20.56,-5.199 -30.558,-8.734c-9.624,-3.402 -19.036,-7.353 -28.539,-11.069c-1.972,-0.76 -3.947,-1.508 -5.93,-2.239c-3.187,-1.143 -6.385,-2.248 -9.627,-3.225c-4.791,-1.445 -9.653,-2.644 -14.568,-3.585c-12.899,-2.472 -26.046,-3.19 -39.158,-3.231l0,0Z" style="fill:#fff;"/>
        <path d="M381,925.387l0,95.361c-13.843,0.019 -27.755,0.97 -41.303,3.905c-4.76,1.032 -9.462,2.316 -14.097,3.812c-4.306,1.39 -8.545,2.966 -12.768,4.588c-6.029,2.348 -12.025,4.78 -18.054,7.128c-5.954,2.276 -11.936,4.469 -18.007,6.415c-7.672,2.458 -15.459,4.555 -23.337,6.247c-22.178,4.763 -44.934,6.305 -67.582,6.018c-19.288,-0.244 -38.597,-1.954 -57.472,-6.03c-10.367,-2.239 -20.56,-5.199 -30.559,-8.733c-9.623,-3.402 -19.035,-7.354 -28.538,-11.07c-1.972,-0.76 -3.947,-1.508 -5.93,-2.239c-3.187,-1.144 -6.385,-2.248 -9.627,-3.226c-4.789,-1.444 -9.649,-2.643 -14.562,-3.583c-12.902,-2.47 -26.049,-3.191 -39.164,-3.232c0,0 0.299,-95.361 0.299,-95.361c10.891,0.034 21.775,0.442 32.618,1.49c13.564,1.312 27.03,3.607 40.209,7.086c8.649,2.283 17.15,5.078 25.53,8.206c7.745,2.891 15.379,6.067 23.076,9.082c1.978,0.762 3.958,1.511 5.946,2.244c3.182,1.144 6.377,2.244 9.614,3.221c4.42,1.333 8.901,2.458 13.428,3.362c13.829,2.76 28,3.534 42.077,3.447c14.347,-0.089 28.771,-1.167 42.778,-4.401c4.738,-1.093 9.413,-2.436 14.025,-3.973c9.767,-3.256 19.249,-7.308 28.837,-11.04c1.71,-0.657 3.421,-1.308 5.135,-1.954c5.222,-1.922 10.471,-3.764 15.788,-5.408c7.821,-2.418 15.762,-4.446 23.788,-6.056c19.031,-3.816 38.46,-5.28 57.852,-5.306Z" style="fill:#f54f4f;"/>
        <path d="M0,1116.11l0.299,-95.361c10.891,0.035 21.775,0.442 32.618,1.49c13.562,1.311 27.024,3.607 40.202,7.084c8.653,2.283 17.158,5.079 25.54,8.209c7.744,2.891 15.377,6.067 23.073,9.081c1.976,0.761 3.956,1.51 5.943,2.243c3.183,1.144 6.378,2.245 9.617,3.222c4.418,1.333 8.897,2.458 13.422,3.361c13.832,2.758 28.004,3.535 42.083,3.448c14.344,-0.089 28.768,-1.164 42.772,-4.399c5.05,-1.166 10.04,-2.602 14.943,-4.282c9.437,-3.233 18.633,-7.114 27.925,-10.733c1.709,-0.656 3.419,-1.307 5.131,-1.952c5.224,-1.923 10.474,-3.765 15.792,-5.41c7.821,-2.419 15.762,-4.446 23.788,-6.056c19.032,-3.817 38.46,-5.278 57.852,-5.306l0,95.361c-13.844,0.021 -27.754,0.97 -41.303,3.905c-4.76,1.032 -9.462,2.316 -14.097,3.812c-4.306,1.389 -8.545,2.967 -12.768,4.588c-6.029,2.348 -12.025,4.78 -18.054,7.128c-5.951,2.275 -11.932,4.467 -18,6.412c-8.267,2.651 -16.667,4.877 -25.169,6.635c-21.601,4.466 -43.731,5.912 -65.757,5.633c-19.288,-0.244 -38.597,-1.954 -57.472,-6.03c-10.368,-2.239 -20.563,-5.199 -30.562,-8.735c-9.622,-3.402 -19.033,-7.351 -28.535,-11.068c-1.972,-0.76 -3.947,-1.508 -5.93,-2.239c-3.187,-1.144 -6.385,-2.248 -9.627,-3.226c-4.789,-1.444 -9.649,-2.643 -14.562,-3.583c-12.902,-2.47 -26.049,-3.191 -39.164,-3.232l0,0Z" style="fill:#fff;"/>
        <path d="M0.008,1209l0.291,-92.891c10.891,0.034 21.775,0.442 32.618,1.49c13.563,1.311 27.03,3.607 40.209,7.086c8.651,2.283 17.153,5.078 25.533,8.207c7.744,2.892 15.377,6.068 23.073,9.081c1.976,0.761 3.956,1.51 5.943,2.243c3.183,1.144 6.378,2.245 9.617,3.222c4.418,1.332 8.897,2.458 13.422,3.36c13.83,2.759 28.001,3.538 42.078,3.449c14.346,-0.09 28.771,-1.164 42.777,-4.399c4.742,-1.095 9.421,-2.439 14.038,-3.977c9.765,-3.253 19.245,-7.305 28.83,-11.038c1.708,-0.656 3.419,-1.307 5.131,-1.952c5.224,-1.924 10.474,-3.765 15.792,-5.41c7.819,-2.418 15.757,-4.444 23.782,-6.054c19.033,-3.82 38.464,-5.28 57.858,-5.308l0,92.891l-380.992,0Z" style="fill:#f54f4f;"/>
        <g id="star">
            <path id="pt" d="M216.161,191.571l-79.265,57.589l30.276,-93.181l48.989,35.592Z" style="fill:#fff;fill-rule:nonzero;"/>
            <path id="pt1" d="M182.311,202.569l-79.265,-57.589l97.977,0l-18.712,57.589Z" style="fill:#fff;fill-rule:nonzero;"/>
            <path id="pt2" d="M161.39,173.775l30.277,-93.182l30.276,93.182l-60.553,0Z" style="fill:#fff;fill-rule:nonzero;"/>
            <path id="pt3" d="M182.311,144.98l97.977,0l-79.265,57.589l-18.712,-57.589Z" style="fill:#fff;fill-rule:nonzero;"/>
            <path id="pt4" d="M216.161,155.979l30.276,93.181l-79.265,-57.589l48.989,-35.592Z" style="fill:#fff;fill-rule:nonzero;"/>
        </g>
    </g>
</svg>
