<?xml version="1.0" encoding="UTF-8" standalone="no"?>
<!DOCTYPE svg PUBLIC "-//W3C//DTD SVG 1.1//EN" "http://www.w3.org/Graphics/SVG/1.1/DTD/svg11.dtd">
<svg width="1520px" height="1520px" version="1.1" xmlns="http://www.w3.org/2000/svg" xmlns:xlink="http://www.w3.org/1999/xlink" xml:space="preserve" style="fill-rule:evenodd;clip-rule:evenodd;stroke-linejoin:round;stroke-miterlimit:1.41421;">
    <clipPath id="_clip1">
        <rect id="flaghillary" x="0" y="0" width="1520" height="1520"/>
    </clipPath>
    <g clip-path="url(#_clip1)">
        <g>
            <path d="M714.926,9.837c17.457,-6.506 35.937,-9.837 54.567,-9.837c18.629,0 37.109,3.331 54.566,9.837l133.144,49.618l140.115,23.602c18.371,3.094 36.041,9.449 52.175,18.764c16.133,9.315 30.471,21.44 42.337,35.802l90.497,109.542l109.543,90.498c14.362,11.865 26.487,26.203 35.802,42.337c9.315,16.134 15.669,33.803 18.764,52.174l23.602,140.116l49.618,133.144c6.505,17.457 9.837,35.936 9.837,54.566c0,18.63 -3.332,37.109 -9.837,54.566l-49.618,133.144l-23.602,140.116c-3.095,18.371 -9.449,36.04 -18.764,52.174c-9.315,16.134 -21.44,30.472 -35.802,42.337l-109.543,90.498l-90.497,109.542c-11.866,14.362 -26.204,26.487 -42.337,35.802c-16.134,9.315 -33.804,15.67 -52.175,18.764l-140.115,23.602l-133.144,49.618c-17.457,6.506 -35.937,9.837 -54.566,9.837c-18.63,0 -37.11,-3.331 -54.567,-9.837l-133.144,-49.618l-140.115,-23.602c-18.371,-3.094 -36.041,-9.449 -52.174,-18.764c-16.134,-9.315 -30.472,-21.44 -42.338,-35.802l-90.497,-109.542l-109.542,-90.498c-14.363,-11.865 -26.488,-26.203 -35.803,-42.337c-9.315,-16.134 -15.669,-33.803 -18.764,-52.174l-23.601,-140.116l-49.618,-133.144c-6.506,-17.457 -9.837,-35.936 -9.837,-54.566c0,-18.63 3.331,-37.109 9.837,-54.566l49.618,-133.144l23.601,-140.116c3.095,-18.371 9.449,-36.04 18.764,-52.174c9.315,-16.134 21.44,-30.472 35.803,-42.337l109.542,-90.498l90.497,-109.542c11.866,-14.362 26.204,-26.487 42.338,-35.802c16.133,-9.315 33.803,-15.67 52.174,-18.764l140.115,-23.602l133.144,-49.618Z" style="fill:#f54f4f;"/>
            <path d="M725.955,161.455c13.928,-5.191 28.673,-7.849 43.538,-7.849c14.864,0 29.609,2.658 43.537,7.849l106.234,39.589l111.796,18.832c14.658,2.469 28.757,7.539 41.63,14.971c12.873,7.433 24.313,17.107 33.78,28.566l72.207,87.403l87.402,72.207c11.46,9.467 21.134,20.907 28.566,33.78c7.432,12.873 12.503,26.971 14.972,41.629l18.831,111.796l39.59,106.234c5.191,13.929 7.849,28.674 7.849,43.538c0,14.864 -2.658,29.609 -7.849,43.538l-39.59,106.234l-18.831,111.796c-2.469,14.658 -7.54,28.756 -14.972,41.629c-7.432,12.873 -17.106,24.313 -28.566,33.78l-87.402,72.207l-72.207,87.403c-9.467,11.459 -20.907,21.133 -33.78,28.566c-12.873,7.432 -26.972,12.502 -41.63,14.971l-111.796,18.832l-106.234,39.589c-13.928,5.191 -28.673,7.849 -43.537,7.849c-14.865,0 -29.61,-2.658 -43.538,-7.849l-106.234,-39.589l-111.796,-18.832c-14.658,-2.469 -28.757,-7.539 -41.63,-14.971c-12.872,-7.433 -24.313,-17.107 -33.78,-28.566l-72.206,-87.403l-87.403,-72.207c-11.46,-9.467 -21.134,-20.907 -28.566,-33.78c-7.432,-12.873 -12.503,-26.971 -14.972,-41.629l-18.831,-111.796l-39.59,-106.234c-5.19,-13.929 -7.849,-28.674 -7.849,-43.538c0,-14.864 2.659,-29.609 7.849,-43.538l39.59,-106.234l18.831,-111.796c2.469,-14.658 7.54,-28.756 14.972,-41.629c7.432,-12.873 17.106,-24.313 28.566,-33.78l87.403,-72.207l72.206,-87.403c9.467,-11.459 20.908,-21.133 33.78,-28.566c12.873,-7.432 26.972,-12.502 41.63,-14.971l111.796,-18.832l106.234,-39.589Z" style="fill:#fff;"/>
            <path d="M735.004,285.859c11.034,-4.112 22.714,-6.217 34.489,-6.217c11.774,0 23.455,2.105 34.488,6.217l84.154,31.361l88.56,14.918c11.611,1.955 22.779,5.972 32.977,11.859c10.197,5.888 19.26,13.551 26.759,22.629l57.199,69.237l69.236,57.198c9.078,7.5 16.742,16.562 22.629,26.76c5.888,10.197 9.904,21.365 11.86,32.977l14.917,88.559l31.362,84.154c4.111,11.034 6.217,22.714 6.217,34.489c0,11.775 -2.106,23.455 -6.217,34.489l-31.362,84.154l-14.917,88.559c-1.956,11.612 -5.972,22.78 -11.86,32.977c-5.887,10.198 -13.551,19.26 -22.629,26.76l-69.236,57.198l-57.199,69.237c-7.499,9.078 -16.562,16.741 -26.759,22.629c-10.198,5.887 -21.366,9.904 -32.977,11.859l-88.56,14.918l-84.154,31.361c-11.033,4.112 -22.714,6.217 -34.488,6.217c-11.775,0 -23.455,-2.105 -34.489,-6.217l-84.154,-31.361l-88.56,-14.918c-11.611,-1.955 -22.779,-5.972 -32.977,-11.859c-10.197,-5.888 -19.26,-13.551 -26.759,-22.629l-57.199,-69.237l-69.236,-57.198c-9.078,-7.5 -16.742,-16.562 -22.629,-26.76c-5.888,-10.197 -9.904,-21.365 -11.86,-32.977l-14.917,-88.559l-31.361,-84.154c-4.112,-11.034 -6.218,-22.714 -6.218,-34.489c0,-11.775 2.106,-23.455 6.218,-34.489l31.361,-84.154l14.917,-88.559c1.956,-11.612 5.972,-22.78 11.86,-32.977c5.887,-10.198 13.551,-19.26 22.629,-26.76l69.236,-57.198l57.199,-69.237c7.499,-9.078 16.562,-16.741 26.759,-22.629c10.198,-5.887 21.366,-9.904 32.977,-11.859l88.56,-14.918l84.154,-31.361Z" style="fill:#4474be;"/>
            <path d="M746.315,441.364c7.415,-2.763 15.264,-4.178 23.178,-4.178c7.913,0 15.762,1.415 23.177,4.178l56.554,21.076l59.514,10.025c7.803,1.314 15.309,4.013 22.162,7.97c6.852,3.956 12.943,9.107 17.983,15.207l38.439,46.529l46.528,38.439c6.101,5.04 11.251,11.13 15.208,17.983c3.956,6.853 6.655,14.358 7.97,22.161l10.025,59.515l21.075,56.554c2.763,7.415 4.178,15.264 4.178,23.177c0,7.913 -1.415,15.762 -4.178,23.177l-21.075,56.554l-10.025,59.515c-1.315,7.803 -4.014,15.308 -7.97,22.161c-3.957,6.853 -9.107,12.943 -15.208,17.983l-46.528,38.439l-38.439,46.529c-5.04,6.1 -11.131,11.251 -17.983,15.207c-6.853,3.957 -14.359,6.656 -22.162,7.97l-59.514,10.025l-56.554,21.076c-7.415,2.763 -15.264,4.178 -23.177,4.178c-7.914,0 -15.763,-1.415 -23.178,-4.178l-56.553,-21.076l-59.515,-10.025c-7.803,-1.314 -15.309,-4.013 -22.161,-7.97c-6.853,-3.956 -12.944,-9.107 -17.983,-15.207l-38.44,-46.529l-46.528,-38.439c-6.101,-5.04 -11.251,-11.13 -15.208,-17.983c-3.956,-6.853 -6.655,-14.358 -7.97,-22.161l-10.025,-59.515l-21.075,-56.554c-2.763,-7.415 -4.178,-15.264 -4.178,-23.177c0,-7.913 1.415,-15.762 4.178,-23.177l21.075,-56.554l10.025,-59.515c1.315,-7.803 4.014,-15.308 7.97,-22.161c3.957,-6.853 9.107,-12.943 15.208,-17.983l46.528,-38.439l38.44,-46.529c5.039,-6.1 11.13,-11.251 17.983,-15.207c6.852,-3.957 14.358,-6.656 22.161,-7.97l59.515,-10.025l56.553,-21.076Z" style="fill:#fff;"/>
            <path d="M755.647,569.656c4.43,-1.65 9.118,-2.496 13.846,-2.496c4.727,0 9.416,0.846 13.845,2.496l33.784,12.59l35.552,5.989c4.661,0.785 9.145,2.397 13.238,4.761c4.094,2.363 7.732,5.44 10.743,9.084l22.962,27.795l27.795,22.963c3.645,3.01 6.721,6.648 9.085,10.742c2.363,4.094 3.976,8.577 4.761,13.239l5.988,35.552l12.59,33.784c1.651,4.429 2.496,9.118 2.496,13.845c0,4.727 -0.845,9.416 -2.496,13.845l-12.59,33.784l-5.988,35.552c-0.785,4.662 -2.398,9.145 -4.761,13.239c-2.364,4.094 -5.44,7.732 -9.085,10.742l-27.795,22.963l-22.962,27.795c-3.011,3.644 -6.649,6.721 -10.743,9.084c-4.093,2.364 -8.577,3.976 -13.238,4.761l-35.552,5.989l-33.784,12.59c-4.429,1.65 -9.118,2.496 -13.845,2.496c-4.728,0 -9.416,-0.846 -13.846,-2.496l-33.783,-12.59l-35.553,-5.989c-4.661,-0.785 -9.145,-2.397 -13.238,-4.761c-4.094,-2.363 -7.732,-5.44 -10.743,-9.084l-22.962,-27.795l-27.795,-22.963c-3.645,-3.01 -6.721,-6.648 -9.085,-10.742c-2.363,-4.094 -3.976,-8.577 -4.761,-13.239l-5.988,-35.552l-12.59,-33.784c-1.651,-4.429 -2.496,-9.118 -2.496,-13.845c0,-4.727 0.845,-9.416 2.496,-13.845l12.59,-33.784l5.988,-35.552c0.785,-4.662 2.398,-9.145 4.761,-13.239c2.364,-4.094 5.44,-7.732 9.085,-10.742l27.795,-22.963l22.962,-27.795c3.011,-3.644 6.649,-6.721 10.743,-9.084c4.093,-2.364 8.577,-3.976 13.238,-4.761l35.553,-5.989l33.783,-12.59Z" style="fill:#f54f4f;"/>
            <path d="M778.377,1147.29l28.753,0l-23.261,16.9l8.884,27.345l-23.26,-16.901l-23.261,16.901l8.884,-27.345l-23.26,-16.9l28.752,0l8.885,-27.345l8.884,27.345ZM582.906,1099.68l24.9,14.376l-28.594,3.005l-5.978,28.124l-11.695,-26.266l-28.594,3.005l21.367,-19.239l-11.695,-26.266l24.9,14.376l21.367,-19.239l-5.978,28.124ZM971.468,1090.79l24.9,-14.376l-11.695,26.266l21.367,19.239l-28.594,-3.005l-11.695,26.266l-5.978,-28.124l-28.594,-3.005l24.9,-14.376l-5.978,-28.124l21.367,19.239ZM1127.82,949.011l28.124,5.978l-26.266,11.694l3.005,28.595l-19.239,-21.367l-26.266,11.694l14.376,-24.9l-19.239,-21.367l28.124,5.978l14.376,-24.9l3.005,28.595ZM428.546,945.316l28.124,-5.978l-19.239,21.367l14.376,24.9l-26.266,-11.694l-19.239,21.367l3.005,-28.595l-26.266,-11.694l28.124,-5.978l3.005,-28.595l14.376,24.9ZM380.931,749.845l27.345,8.885l-27.345,8.885l0,28.752l-16.9,-23.261l-27.345,8.885l16.9,-23.261l-16.9,-23.261l27.345,8.885l16.9,-23.261l0,28.752ZM1174.95,744.354l27.345,-8.885l-16.9,23.261l16.9,23.261l-27.345,-8.885l-16.9,23.261l0,-28.752l-27.345,-8.885l27.345,-8.885l0,-28.752l16.9,23.261ZM425.541,543.549l26.266,-11.694l-14.376,24.9l19.239,21.367l-28.124,-5.978l-14.376,24.9l-3.005,-28.594l-28.124,-5.978l26.266,-11.695l-3.005,-28.595l19.239,21.367ZM1129.68,550.777l26.266,11.695l-28.124,5.978l-3.005,28.594l-14.376,-24.9l-28.124,5.978l19.239,-21.367l-14.376,-24.9l26.266,11.694l19.239,-21.367l-3.005,28.595ZM579.212,400.402l28.594,3.006l-24.9,14.376l5.978,28.124l-21.367,-19.239l-24.9,14.376l11.695,-26.267l-21.367,-19.239l28.594,3.006l11.695,-26.267l5.978,28.124ZM977.446,398.545l28.594,-3.006l-21.367,19.239l11.695,26.267l-24.9,-14.376l-21.367,19.239l5.978,-28.124l-24.9,-14.376l28.594,-3.006l5.978,-28.124l11.695,26.267ZM783.869,353.269l23.261,16.9l-28.753,0l-8.884,27.345l-8.885,-27.345l-28.752,0l23.26,-16.9l-8.884,-27.345l23.261,16.9l23.26,-16.9l-8.884,27.345Z" style="fill:#fff;"/>
        </g>
    </g>
</svg>
