<?xml version="1.0" encoding="UTF-8" standalone="no"?>
<!DOCTYPE svg PUBLIC "-//W3C//DTD SVG 1.1//EN" "http://www.w3.org/Graphics/SVG/1.1/DTD/svg11.dtd">
<svg width="160px" height="306px" version="1.1" xmlns="http://www.w3.org/2000/svg" xmlns:xlink="http://www.w3.org/1999/xlink" xml:space="preserve" style="fill-rule:evenodd;clip-rule:evenodd;stroke-linejoin:round;stroke-miterlimit:1.41421;">
    <clipPath id="_clip1">
        <rect id="goldenfence" x="0" y="0" width="160" height="306"/>
    </clipPath>
    <g clip-path="url(#_clip1)">
        <path d="M3.751,304.091c-7.289,-12.208 -1.667,-248.124 -1.907,-277.627c-0.241,-29.503 13.644,-25.945 24.123,-26.303c3.97,-0.135 103.695,-0.25 122.067,0.028c17.485,0.265 11.087,25.479 9.589,184.593c-0.575,61.088 2.857,114.242 -9.589,115.518c-8.305,0.851 -140.913,9.434 -144.283,3.791Z" style="fill:#f6d06d;"/>
        <path d="M141.199,30.242c-7.687,0.997 -53.188,2.044 -90.38,1.421c-4.503,-0.076 -15.468,-9.619 -25.424,-17.269c-7.743,-5.949 -15.938,-9.912 -13.165,-12.812c1.735,-1.814 38.934,-1.402 74.309,-1.268c27.29,0.104 53.494,-0.417 61.495,-0.296c8.969,0.136 5.666,6.678 2.35,14.286c-3.148,7.224 -6.013,15.526 -9.185,15.938Z" style="fill:#fee196;"/>
        <path d="M3.751,304.091c-2.729,-4.572 8.071,-4.818 19.781,-8.847c7.51,-2.584 15.426,-8.564 24.386,-10.002c23.083,-3.705 53.69,-10.843 75.649,-11.608c5.754,-0.2 10.915,6.654 15.191,6.274c2.039,-0.182 3.371,5.575 5.785,10.693c2.414,5.118 5.91,9.596 3.491,9.699c-8.362,0.356 -140.913,9.434 -144.283,3.791Z" style="fill:#e2b642;"/>
        <path d="M47.339,284.86c-3.631,-0.075 -1.537,-11.034 -1.885,-24.552c-1.446,-56.286 1.378,-189.795 1.028,-209.925c-0.352,-20.23 -1.156,-18.954 5.911,-19.494c7.067,-0.541 76.191,-0.207 86.828,-0.626c5.426,-0.214 3.282,0.693 2.718,27.047c-0.564,26.354 4.108,198.945 2.099,210.427c-2.01,11.481 -2.427,12.025 -7.588,12.122c-20.99,0.396 -82.774,5.131 -89.111,5.001Z" style="fill:#ecbe4a;"/>
    </g>
</svg>
