<?xml version="1.0" encoding="UTF-8" standalone="no"?>
<svg width="50px" height="43px" viewBox="0 0 50 43" version="1.1" xmlns="http://www.w3.org/2000/svg" xmlns:xlink="http://www.w3.org/1999/xlink">
    <!-- Generator: Sketch 39.1 (31720) - http://www.bohemiancoding.com/sketch -->
    <title>Combined Shape</title>
    <desc>Created with Sketch.</desc>
    <defs></defs>
    <g id="Symbols" stroke="none" stroke-width="1" fill="none" fill-rule="evenodd">
        <g id="desktop-header" transform="translate(-989.000000, -19.000000)" fill="#FFFFFF">
            <g id="icon-globe" transform="translate(989.000000, 15.000000)">
                <path d="M-9.75510204,17.7402178 L-11.2244898,11.7199487 L-1.60003204,11.268358 L0.310172041,8.483986 L12.1387114,4.87191645 L24.4080031,4.08163265 L25.5102041,9.46232321 L19.7060263,15.1063542 L14.0489155,8.7849371 L14.8570788,13.1498767 L13.1672829,14.05273 L8.83258898,13.9775742 L9.27340531,16.8372004 L14.1223849,15.7083877 L16.2529971,19.1700473 L7.28973184,26.2815513 L10.6693237,30.0818711 L15.7387114,29.7056002 L21.3958543,35.2744098 L13.387691,46.9387755 L11.7713645,46.4119962 L12.1387114,37.381527 L8.46524204,29.5550919 L2.44078429,26.2815513 L-3.14288918,16.0846586 L-9.75510204,17.7402178 Z M25.5102041,25.9369393 L30.2345013,23.0649517 L36.9435912,24.6233963 L37.9217781,23.421187 L36.5634902,22.1613366 L39.5345432,21.2042879 L37.3207858,20.0508518 L35.3408373,23.0472159 L33.9961128,20.8237793 L33.5814572,22.1892671 L31.6564086,20.4823992 L28.0401203,23.0055953 L27.4352527,21.2987273 L29.2866708,20.6308225 L29.3606242,18.8868649 L26.9844277,18.6887298 L26.9857194,17.321203 L28.6582285,18.2936895 L28.0401203,16.3866152 L28.8574828,16.2113618 L30.3149135,18.6749749 L31.6564086,17.1428749 L34.3962362,17.1428749 L35.8029652,15.2134044 L34.3219598,13.8034154 L33.5814572,16.5492141 L30.7676762,15.6586743 L33.1374139,11.6511805 L38.6170691,11.5770659 L38.6170691,14.1744413 L44.6150439,8.97949636 L44.4668142,11.1317313 L54.7598982,8.16326531 L58.2402285,10.3896148 L64.386433,9.79605106 L76.5306122,12.5418497 L74.6052407,14.4712879 L70.0882713,15.510251 L68.2368531,17.5881448 L65.2748424,15.9555209 L63.9420668,19.2950128 L65.200889,21.6697856 L62.7571979,24.341405 L63.0533344,20.5566108 L60.4617365,23.7477118 L59.1289609,23.5250768 L59.1289609,25.176278 L55.8704908,27.9035642 L55.6486306,32.7272891 L58.0919988,30.3525163 L64.5343398,33.172559 L57.944092,33.2467706 L57.2035893,34.5825803 L52.6866199,31.7625376 L51.7239341,25.9369393 L48.465464,30.3525163 L46.5404154,25.9369393 L41.7269866,25.176278 L43.9484946,27.3840826 L41.8012629,28.9424949 L38.8389293,25.176278 L37.8022901,25.6104145 L41.2826204,31.2430561 L39.3575718,34.656792 L41.9491697,35.9926017 L36.3955611,40.8163265 L34.2480065,40.6679032 L31.0638127,31.0204211 L26.9912094,31.0204211 L25.5102041,25.9369393 Z M25.5771929,13.2653061 L24.4897959,12.3988844 L27.5510204,12.244898 L25.5771929,13.2653061 Z M57.1428571,38.7377295 L62.5660511,35.7142857 L67.3469388,40.3250375 L64.7780247,43.877551 L57.9992656,41.8367265 L57.1428571,38.7377295 Z M69.3877551,43.8095238 L71.2156068,40.8163265 L72.4489796,43.9455782 L70.4324587,44.8979592 L69.3877551,43.8095238 Z" id="Combined-Shape"></path>
            </g>
        </g>
    </g>
</svg>