<?xml version="1.0" encoding="UTF-8" standalone="no"?>
<svg width="29px" height="24px" viewBox="0 0 29 24" version="1.1" xmlns="http://www.w3.org/2000/svg" xmlns:xlink="http://www.w3.org/1999/xlink">
    <!-- Generator: Sketch 39.1 (31720) - http://www.bohemiancoding.com/sketch -->
    <title>icon twitter</title>
    <desc>Created with Sketch.</desc>
    <defs></defs>
    <g id="Symbols" stroke="none" stroke-width="1" fill="none" fill-rule="evenodd">
        <g id="desktop-header" transform="translate(-1324.000000, -27.000000)" fill="#FFFFFF">
            <path d="M1338.081,33.3840011 L1338.144,34.4220011 L1337.096,34.2950011 C1333.283,33.8080011 1329.951,32.1560011 1327.122,29.3800011 L1325.739,28.0030011 L1325.383,29.0200011 C1324.629,31.2870011 1325.111,33.6810011 1326.682,35.2910011 C1327.52,36.1810011 1327.331,36.3080011 1325.886,35.7780011 C1325.383,35.6090011 1324.943,35.4820011 1324.901,35.5450011 C1324.755,35.6940011 1325.257,37.6210011 1325.655,38.3840011 C1326.2,39.4440011 1327.31,40.4810011 1328.526,41.0960011 L1329.553,41.5830011 L1328.338,41.6040011 C1327.165,41.6040011 1327.123,41.6250011 1327.249,42.0710011 C1327.668,43.4480011 1329.323,44.9100011 1331.167,45.5460011 L1332.466,45.9900011 L1331.335,46.6680011 C1329.659,47.6440011 1327.689,48.1940011 1325.719,48.2350011 C1324.775,48.2560011 1324,48.3410011 1324,48.4050011 C1324,48.6160011 1326.557,49.8020011 1328.044,50.2690011 C1332.507,51.6460011 1337.809,51.0520011 1341.79,48.7010011 C1344.619,47.0270011 1347.447,43.7010011 1348.768,40.4800011 C1349.481,38.7650011 1350.193,35.6290011 1350.193,34.1260011 C1350.193,33.1510011 1350.256,33.0240011 1351.429,31.8590011 C1352.121,31.1810011 1352.77,30.4400011 1352.896,30.2280011 C1353.106,29.8250011 1353.084,29.8250011 1352.016,30.1850011 C1350.235,30.8210011 1349.983,30.7360011 1350.864,29.7830011 C1351.513,29.1050011 1352.289,27.8760011 1352.289,27.5160011 C1352.289,27.4530011 1351.975,27.5580011 1351.618,27.7490011 C1351.241,27.9610011 1350.403,28.2790011 1349.774,28.4690011 L1348.643,28.8300011 L1347.616,28.1300011 C1347.05,27.7490011 1346.255,27.3250011 1345.835,27.1980011 C1344.766,26.9020011 1343.131,26.9440011 1342.167,27.2830011 C1339.548,28.2360011 1337.893,30.6940011 1338.081,33.3840011 Z" id="icon-twitter"></path>
        </g>
    </g>
</svg>