<?xml version="1.0" encoding="UTF-8" standalone="no"?>
<!DOCTYPE svg PUBLIC "-//W3C//DTD SVG 1.1//EN" "http://www.w3.org/Graphics/SVG/1.1/DTD/svg11.dtd">
<svg width="256px" height="26px" version="1.1" xmlns="http://www.w3.org/2000/svg" xmlns:xlink="http://www.w3.org/1999/xlink" xml:space="preserve" style="fill-rule:evenodd;clip-rule:evenodd;stroke-linejoin:round;stroke-miterlimit:1.41421;">
    <clipPath id="_clip1">
        <rect id="jettrailred" x="0" y="0" width="256" height="26"/>
    </clipPath>
    <g clip-path="url(#_clip1)">
        <path d="M3.045,24.748c-7.233,1.171 0.69,1.249 0.69,1.249l249.207,0c0,0 4.78,0.197 2.388,-2.692c-3.646,-4.404 -11.339,-12.589 -17.864,-10.813c-8.861,2.411 -15.196,10.704 -30.89,-5.547c-15.694,-16.251 -28.719,0.207 -30.89,7.019c-2.17,6.813 -9.644,3.565 -16.939,-1.472c-7.296,-5.037 -50.356,-16.657 -52.812,-1.536c-2.455,15.121 -14.057,8.086 -20.925,10.027c-6.869,1.942 -23.595,-2.371 -30.89,-6.016c-7.296,-3.645 -13.203,1.21 -32.883,6.016c-7.601,1.857 -13.641,3.027 -18.192,3.765Z" style="fill:#e88787;"/>
    </g>
</svg>
