<?xml version="1.0" encoding="UTF-8" standalone="no"?>
<!DOCTYPE svg PUBLIC "-//W3C//DTD SVG 1.1//EN" "http://www.w3.org/Graphics/SVG/1.1/DTD/svg11.dtd">
<svg width="5376px" height="1197px" version="1.1" xmlns="http://www.w3.org/2000/svg" xmlns:xlink="http://www.w3.org/1999/xlink" xml:space="preserve" style="fill-rule:evenodd;clip-rule:evenodd;stroke-linejoin:round;stroke-miterlimit:1.41421;">
    <clipPath id="_clip1">
        <rect id="trump-sprite" x="0" y="0" width="5376" height="1197"/>
    </clipPath>
    <g clip-path="url(#_clip1)">
        <g>
            <path d="M497.914,175.588c-0.71,7.198 -98.311,7.209 -102.448,7.331c-4.781,0.142 -6.114,-19.047 -5.236,-25.022c1.216,-8.279 107.389,-30.682 107.255,-9.268c-0.074,11.843 0.949,21.676 0.429,26.959Z" style="fill:#fcb777;"/>
            <path d="M351.385,1149.39c-12.582,9.682 -23.699,21.492 -42.667,26.781c-24.011,6.696 -16.839,29.377 63.521,17.382c3.923,-0.585 9.931,-4.714 14.087,-3.638c14.973,3.875 26.76,0.574 27.995,-0.353c3.347,-2.511 5.857,-32.64 0.837,-41.846c-5.02,-9.206 -52.897,-6.695 -63.773,1.674Z" style="fill:#191312;"/>
            <path d="M518.519,1142.28c3.225,12.465 24.891,21.732 28.05,31.781c2.685,8.541 -4.993,23.903 -64.203,19.624c-3.766,-0.273 -5.289,-5.153 -9.243,-3.977c-14.245,4.236 -14.714,-3.762 -15.889,-4.775c-3.184,-2.744 -4.378,-31.281 0.398,-41.342c4.776,-10.061 57.166,-15.69 60.887,-1.311Z" style="fill:#191312;"/>
            <path d="M300.377,582.431c85.505,27.199 202.288,28.426 274.78,13.76l-7.067,146.637c-6.092,66.835 -22.785,208.185 -34.107,239.959c-16.433,46.115 -12.049,124.494 -10.717,165.32c0.3,9.19 -71.653,12.271 -71.653,12.271c0,0 -6.048,-15.798 -4.829,-68.963c1.136,-49.559 2.203,-261.623 -13.154,-303.565c-15.356,41.942 -9.916,211.359 -8.78,260.918c0.458,19.994 3.019,69.921 1.262,81.458c-2.916,19.14 -8.278,29.059 -8.278,29.059c0,0 -72.074,-6.438 -73.293,-15.552c-1.219,-9.114 8.617,-65.681 -2.518,-97.522c-22.627,-64.704 -40.177,-255.502 -46.269,-322.338l4.623,-141.442Z" style="fill:#191312;"/>
            <path d="M314.287,585.299c3.364,12.351 114.09,32.247 194.069,25.045c23.617,-2.126 44.552,-6.616 59.251,-14.359c2.356,-1.242 -26.251,-396.904 -61.802,-398.663c-24.1,-1.192 -129.787,-12.454 -157.32,40.211c-57.951,110.85 -34.089,346.792 -34.198,347.766Z" style="fill:#fff5f3;"/>
            <path d="M457.014,244.555c3.317,3.098 20.791,12.833 23.666,11.948c2.876,-0.885 12.608,-25.445 17.253,-30.534c4.645,-5.089 11.308,-46.757 -8.157,-44.324c-19.464,2.434 -43.822,32.154 -43.379,46.537c0.442,14.382 7.299,13.275 10.617,16.373Z" style="fill:#d3d3d3;"/>
            <path d="M439.649,244.555c-3.318,3.098 -20.791,12.833 -23.667,11.948c-2.875,-0.885 -14.794,-28.179 -19.438,-33.268c-4.645,-5.089 -15.679,-32.214 3.785,-29.78c19.464,2.434 50.379,20.344 49.937,34.727c-0.443,14.382 -7.299,13.275 -10.617,16.373Z" style="fill:#d3d3d3;"/>
            <path d="M493.26,172.776c1.816,0.227 11.217,11.469 16.386,12.25c18.357,2.773 63.908,3.004 69.55,2.198c7.231,-1.034 21.44,10.216 30.22,12.283c8.78,2.067 82.692,-18.017 88.373,-19.05c5.682,-1.033 3.099,-12.917 17.561,-15.5c14.461,-2.583 85.264,-73.217 85.264,-73.217c0,0 37.809,37.616 45.098,54.867c6.374,15.084 -27.818,30.805 -59.022,66.4c-6.541,7.462 -34.663,14.25 -50.12,39.417c-13.254,21.578 -6.748,15.566 -49.616,29.516c-42.868,13.95 -57.518,42.692 -57.286,64.447c0.05,4.706 -8.252,59.788 -7.508,79.641c0.746,19.904 30.739,203.045 30.739,218.803c0,22.217 -56.749,30.293 -89.351,-17.911c-32.508,-48.065 -56.813,-223.113 -57.33,-232.93c-0.516,-9.816 -7.172,-149.169 -5.681,-164.3c3.615,-36.683 -15.541,-57.948 -7.277,-56.914Z" style="fill:#191312;"/>
            <path d="M399.497,173.088c-1.816,0.227 -7.974,11.157 -13.143,11.938c-18.357,2.773 -44.163,-6.557 -49.805,-7.363c-7.231,-1.034 -19.075,-1.189 -29.921,7.077c-10.846,8.267 -23.567,12.952 -32.348,15.019c-8.78,2.067 -53.388,-7.269 -59.069,-8.302c-5.682,-1.033 -3.099,-12.917 -17.561,-15.5c-14.461,-2.583 -22.209,-26.867 -38.736,-29.967c-16.528,-3.1 -63.528,-54.25 -63.528,-54.25c0,0 -57.846,40.817 -50.098,57.867c7.747,17.05 72.824,66.65 79.022,74.4c6.197,7.75 10.329,23.25 35.12,28.417c24.792,5.166 7.748,17.566 50.616,31.516c42.868,13.95 67.89,23.196 67.659,44.95c-0.05,4.707 -5.307,77.285 -6.051,97.138c-0.746,19.904 -28.553,203.045 -28.553,218.803c0,22.217 56.749,30.293 89.351,-17.911c32.508,-48.065 56.813,-223.113 57.33,-232.93c0.516,-9.816 7.172,-149.169 5.681,-164.3c-3.615,-36.683 12.297,-57.635 4.034,-56.602Z" style="fill:#191312;"/>
            <path d="M800.915,116.395c-3.506,-6.547 -7.245,-17.514 -1.208,-24.46c6.038,-6.945 12.075,-17.514 17.508,-18.722c5.434,-1.208 25.847,5.852 30.375,16.118c4.528,10.267 4.83,19.326 3.321,21.742c-1.509,2.416 9.056,5.738 6.339,8.455c-2.717,2.718 -21.225,21.648 -23.036,23.46c-1.811,1.812 -28.771,-18.138 -33.299,-26.593Z" style="fill:#fff5f3;"/>
            <path d="M95.085,116.395c3.506,-6.547 7.245,-17.514 1.208,-24.46c-6.038,-6.945 -12.075,-17.514 -17.508,-18.722c-5.434,-1.208 -23.847,7.852 -28.375,18.118c-4.528,10.267 -4.83,19.326 -3.321,21.742c1.509,2.416 -9.056,5.738 -6.339,8.455c2.717,2.718 20.225,22.648 22.036,24.46c1.811,1.812 27.771,-21.138 32.299,-29.593Z" style="fill:#fff5f3;"/>
            <path d="M847.359,109.865c-4.978,-3.244 -31.385,-22.603 -30.747,-31.55c0.639,-8.946 7.263,-10.952 8.221,-13.828c0.959,-2.876 2.97,-13.355 6.792,-18.68c5.124,-7.14 -0.027,-8.333 7.191,-17.206c5.46,-6.712 3.806,-18.088 5.256,-22.912c0.849,-2.827 2.358,-5.651 5.447,-5.689c2.431,-0.03 5.65,2.112 8.023,5.282c7.696,10.283 2.896,17.404 1.056,19.858c-1.84,2.454 -2.312,6.785 -2.066,7.276c0.245,0.491 10.17,-0.509 12.132,0.227c1.963,0.736 10.436,-0.877 14.729,0.84c4.292,1.718 6.377,6.503 6.5,8.221c0.123,1.718 0.245,4.38 2.208,6.466c1.962,2.086 4.906,5.031 3.557,7.853c-1.349,2.822 -3.067,6.38 -2.208,8.22c0.859,1.841 2.698,4.295 1.472,7.362c-1.227,3.068 -1.663,10.883 -3.134,12.356c-1.472,1.472 -10.446,7.622 -12.086,8.524c-11.278,6.205 -18.452,3.195 -25.599,10.179c-1.256,1.228 -6.246,7.526 -6.744,7.201Z" style="fill:#fda37c;"/>
            <path d="M50.641,111.865c4.978,-3.244 29.385,-24.603 28.747,-33.55c-0.639,-8.946 -9.263,-13.952 -10.221,-16.828c-0.959,-2.876 0,-13.207 -4.792,-17.68c-4.791,-4.473 -0.267,-10.05 -9.191,-17.206c-5.46,-4.379 -6.806,-15.088 -8.256,-19.912c-1.45,-4.824 -8.073,-12.063 -13.47,-0.407c-5.396,11.656 1.104,18.404 2.944,20.858c1.84,2.454 3.312,4.785 3.066,5.276c-0.245,0.491 -4.17,0.491 -6.132,1.227c-1.963,0.736 -16.436,0.123 -20.729,1.84c-4.292,1.718 -6.377,6.503 -6.5,8.221c-0.123,1.718 -0.245,6.38 -2.208,8.466c-1.962,2.086 -4.906,5.031 -3.557,7.853c1.349,2.822 3.067,6.38 2.208,8.22c-0.859,1.841 -2.698,4.295 -1.472,7.362c1.227,3.068 0.491,5.89 0,7.485c-0.49,1.595 3.663,5.398 5.134,6.871c1.472,1.472 8.446,5.622 10.086,6.524c11.278,6.205 20.452,1.195 27.599,8.179c1.256,1.228 6.246,7.526 6.744,7.201Z" style="fill:#fda37c;"/>
            <path d="M434.47,255.04c-2.449,-3.671 -6.208,-13.181 -7.98,-16.017c-2.212,-3.54 7.52,-15.267 17.474,-17.037c9.953,-1.77 37.38,-0.221 23.003,18.808c-3.148,4.166 -11.502,13.497 -13.935,15.709c-0.081,0.074 -0.173,0.142 -0.275,0.206c2.637,7.13 8.466,22.006 9.442,25.716c1.178,4.476 26.004,312.837 28.359,325.086c1.316,6.848 -40.174,65.548 -48.925,54.059c-7.013,-9.208 -37.023,-45.317 -36.919,-48.641c0.235,-7.538 21.221,-326.028 22.634,-329.326c1.084,-2.53 4.664,-20.316 7.122,-28.563Z" style="fill:#ffb800;"/>
            <path d="M438.745,231.501c0,0 -14.598,19.028 -21.897,21.683c-7.299,2.655 -3.318,-10.178 -6.636,-19.692c-3.318,-9.514 -21.189,-27.663 -14.996,-45.364c6.193,-17.702 12.784,21.689 19.42,27.442c6.635,5.752 23.888,13.939 24.109,15.931Z" style="fill:#fff5f3;"/>
            <path d="M457.898,231.501c0,0 14.599,19.028 21.898,21.683c7.299,2.655 3.317,-10.178 6.635,-19.692c3.318,-9.514 15.893,-29.823 9.7,-47.524c-6.193,-17.701 -7.488,23.849 -14.124,29.602c-6.635,5.752 -23.887,13.939 -24.109,15.931Z" style="fill:#fff5f3;"/>
            <path d="M381.811,122.639c0,7.18 -2.875,15.046 0.663,19.692c3.539,4.647 1.744,23.392 11.2,27.276c3.835,1.576 -2.07,12.673 5.61,26.27c1.648,2.917 4.037,13.681 12.216,19.191c13.028,8.776 20.39,18.173 30.915,18.424c18.58,0.442 26.321,-8.187 31.409,-11.063c5.087,-2.877 15.683,-7.676 17.172,-27.216c1.005,-13.195 4.906,-4.707 1.769,-28.925c-0.227,-1.755 7.078,0.644 11.039,-10.942c2.625,-7.678 1.649,-15.227 2.976,-19.874c1.327,-4.646 2.875,-13.275 -2.875,-15.488c-5.751,-2.213 -7.742,-2.213 -9.511,-9.072c-1.77,-6.859 6.193,-48.235 -52.863,-48.678c-59.057,-0.442 -59.72,56.644 -59.72,60.405Z" style="fill:#fe7f49;"/>
            <path d="M402.605,116.956c-16.863,12.23 -7.698,46.697 -7.644,52.538c0.101,10.982 10.611,29.727 20.067,33.612c3.835,1.575 9.061,16.14 26.845,15.55c18.723,-0.621 24.337,-9.623 28.125,-14.144c2.177,-2.599 23.669,-17.43 22.827,-41.836c-1.226,-35.595 8.258,-67.346 -23.185,-57.108c-40.289,13.12 -56.597,3.819 -67.035,11.388Z" style="fill:#ff8c5a;"/>
            <path d="M412.822,133.748c1.909,-0.165 3.593,1.25 3.758,3.16c0.166,1.909 -1.249,3.594 -3.158,3.759c-1.908,0.166 -3.592,-1.249 -3.758,-3.159c-0.166,-1.909 1.249,-3.594 3.158,-3.76Z" style="fill:#3f2d0c;"/>
            <path d="M457.365,130.879c1.908,-0.166 3.592,1.25 3.758,3.159c0.166,1.909 -1.249,3.594 -3.158,3.76c-1.909,0.166 -3.593,-1.25 -3.758,-3.159c-0.166,-1.909 1.249,-3.594 3.158,-3.76Z" style="fill:#3f2d0c;"/>
            <path d="M477.986,98.38c-33.524,30.128 -64.445,-1.166 -82.743,1.046c-3.95,0.478 -1.447,10.835 -2.16,18.835c-0.901,10.106 -6.104,4.221 -0.655,27.832c1.001,4.337 -2.524,5.541 -4.739,0.468c-1.12,-2.564 -3.218,-8.735 -7.286,-8.615c-4.7,0.139 -4.14,-12.692 -3.277,-18.566c1.196,-8.14 4.508,-10.145 5.481,-16.886c0.793,-5.502 0.349,-12.955 -1.48,-14.694c-6.201,-5.899 -7.716,-11.445 -0.29,-10.614c7.889,0.883 18.581,-13.661 26.792,-21.067c9.409,-8.485 56.422,-17.419 76.268,3.48c9.733,10.249 24.371,9.032 12.085,21.141c-1.079,1.063 10.901,0.562 4.264,20.541c-2.244,6.755 9.62,0.939 8.565,27.131c-0.286,7.106 -13.532,4.626 -12.648,9.273c0.885,4.646 1.106,12.391 -2.212,11.284c-3.317,-1.106 -6.635,-11.948 -5.972,-18.143c0.664,-6.196 -6.791,-23.745 -4.174,-27.805c3.961,-6.147 0.47,-10.293 -5.819,-4.641Z" style="fill:#fcb777;"/>
        </g>
        <g>
            <path d="M1393.91,175.588c-0.71,7.198 -98.311,7.209 -102.448,7.331c-4.781,0.142 -6.114,-19.047 -5.236,-25.022c1.216,-8.279 107.389,-30.682 107.255,-9.268c-0.074,11.843 0.949,21.676 0.429,26.959Z" style="fill:#fcb777;"/>
            <path d="M1247.38,1149.39c-12.582,9.682 -23.699,21.492 -42.667,26.781c-24.011,6.696 -16.839,29.377 63.521,17.382c3.923,-0.585 9.931,-4.714 14.087,-3.638c14.973,3.875 26.76,0.574 27.995,-0.353c3.347,-2.511 5.857,-32.64 0.837,-41.846c-5.02,-9.206 -52.897,-6.695 -63.773,1.674Z" style="fill:#191312;"/>
            <path d="M1414.52,1142.28c3.225,12.465 24.891,21.732 28.05,31.781c2.685,8.541 -4.993,23.903 -64.203,19.624c-3.766,-0.273 -5.289,-5.153 -9.243,-3.977c-14.245,4.236 -14.714,-3.762 -15.889,-4.775c-3.184,-2.744 -4.378,-31.281 0.398,-41.342c4.776,-10.061 57.166,-15.69 60.887,-1.311Z" style="fill:#191312;"/>
            <path d="M1196.38,582.431c85.505,27.199 202.288,28.426 274.78,13.76l-7.067,146.637c-6.092,66.835 -22.785,208.185 -34.107,239.959c-16.433,46.115 -12.049,124.494 -10.717,165.32c0.3,9.19 -71.653,12.271 -71.653,12.271c0,0 -6.048,-15.798 -4.829,-68.963c1.136,-49.559 2.203,-261.623 -13.154,-303.565c-15.356,41.942 -9.916,211.359 -8.78,260.918c0.458,19.994 3.019,69.921 1.262,81.458c-2.916,19.14 -8.278,29.059 -8.278,29.059c0,0 -72.074,-6.438 -73.293,-15.552c-1.219,-9.114 8.617,-65.681 -2.518,-97.522c-22.627,-64.704 -40.177,-255.502 -46.269,-322.338l4.623,-141.442Z" style="fill:#191312;"/>
            <path d="M1210.29,585.299c3.364,12.351 114.09,32.247 194.069,25.045c23.617,-2.126 44.552,-6.616 59.251,-14.359c2.356,-1.242 -26.251,-396.904 -61.802,-398.663c-24.1,-1.192 -129.787,-12.454 -157.32,40.211c-57.951,110.85 -34.089,346.792 -34.198,347.766Z" style="fill:#fff5f3;"/>
            <path d="M1353.01,244.555c3.317,3.098 20.791,12.833 23.666,11.948c2.876,-0.885 12.608,-25.445 17.253,-30.534c4.645,-5.089 11.308,-46.757 -8.157,-44.324c-19.464,2.434 -43.822,32.154 -43.379,46.537c0.442,14.382 7.299,13.275 10.617,16.373Z" style="fill:#d3d3d3;"/>
            <path d="M1335.65,244.555c-3.318,3.098 -20.791,12.833 -23.667,11.948c-2.875,-0.885 -14.794,-28.179 -19.438,-33.268c-4.645,-5.089 -15.679,-32.214 3.785,-29.78c19.464,2.434 50.379,20.344 49.937,34.727c-0.443,14.382 -7.299,13.275 -10.617,16.373Z" style="fill:#d3d3d3;"/>
            <path d="M1389.26,172.776c1.816,0.227 11.217,11.469 16.386,12.25c18.357,2.773 63.908,3.004 69.55,2.198c7.231,-1.034 21.44,10.216 30.22,12.283c8.78,2.067 82.692,-18.017 88.373,-19.05c5.682,-1.033 3.099,-12.917 17.561,-15.5c14.461,-2.583 85.264,-73.217 85.264,-73.217c0,0 37.809,37.616 45.098,54.867c6.374,15.084 -27.818,30.805 -59.022,66.4c-6.541,7.462 -34.663,14.25 -50.12,39.417c-13.254,21.578 -6.748,15.566 -49.616,29.516c-42.868,13.95 -57.518,42.692 -57.286,64.447c0.05,4.706 -8.252,59.788 -7.508,79.641c0.746,19.904 30.739,203.045 30.739,218.803c0,22.217 -56.749,30.293 -89.351,-17.911c-32.508,-48.065 -56.813,-223.113 -57.33,-232.93c-0.516,-9.816 -7.172,-149.169 -5.681,-164.3c3.615,-36.683 -15.541,-57.948 -7.277,-56.914Z" style="fill:#191312;"/>
            <path d="M1696.91,116.395c-3.506,-6.547 -7.245,-17.514 -1.208,-24.46c6.038,-6.945 12.075,-17.514 17.508,-18.722c5.434,-1.208 25.847,5.852 30.375,16.118c4.528,10.267 4.83,19.326 3.321,21.742c-1.509,2.416 9.056,5.738 6.339,8.455c-2.717,2.718 -21.225,21.648 -23.036,23.46c-1.811,1.812 -28.771,-18.138 -33.299,-26.593Z" style="fill:#fff5f3;"/>
            <path d="M1743.36,109.865c-4.978,-3.244 -31.385,-22.603 -30.747,-31.55c0.639,-8.946 7.263,-10.952 8.221,-13.828c0.959,-2.876 2.97,-13.355 6.792,-18.68c5.124,-7.14 -0.027,-8.333 7.191,-17.206c5.46,-6.712 3.806,-18.088 5.256,-22.912c0.849,-2.827 2.358,-5.651 5.447,-5.689c2.431,-0.03 5.65,2.112 8.023,5.282c7.696,10.283 2.896,17.404 1.056,19.858c-1.84,2.454 -2.312,6.785 -2.066,7.276c0.245,0.491 10.17,-0.509 12.132,0.227c1.963,0.736 10.436,-0.877 14.729,0.84c4.292,1.718 6.377,6.503 6.5,8.221c0.123,1.718 0.245,4.38 2.208,6.466c1.962,2.086 4.906,5.031 3.557,7.853c-1.349,2.822 -3.067,6.38 -2.208,8.22c0.859,1.841 2.698,4.295 1.472,7.362c-1.227,3.068 -1.663,10.883 -3.134,12.356c-1.472,1.472 -10.446,7.622 -12.086,8.524c-11.278,6.205 -18.452,3.195 -25.599,10.179c-1.256,1.228 -6.246,7.526 -6.744,7.201Z" style="fill:#fda37c;"/>
            <path d="M1295.5,173.088c-1.816,0.227 -7.974,11.157 -13.143,11.938c-18.357,2.773 -44.163,-6.557 -49.805,-7.363c-7.231,-1.034 -19.075,-1.189 -29.921,7.077c-10.846,8.267 -23.567,12.952 -32.348,15.019c-8.78,2.067 -53.388,-7.269 -59.069,-8.302c-5.682,-1.033 -3.099,-12.917 -17.561,-15.5c-14.461,-2.583 -22.209,-26.867 -38.736,-29.967c-16.528,-3.1 -63.528,-54.25 -63.528,-54.25c0,0 -57.846,40.817 -50.098,57.867c7.747,17.05 72.824,66.65 79.022,74.4c6.197,7.75 10.329,23.25 35.12,28.417c24.792,5.166 7.748,17.566 50.616,31.516c42.868,13.95 67.89,23.196 67.659,44.95c-0.05,4.707 -5.307,77.285 -6.051,97.138c-0.746,19.904 -28.553,203.045 -28.553,218.803c0,22.217 56.749,30.293 89.351,-17.911c32.508,-48.065 56.813,-223.113 57.33,-232.93c0.516,-9.816 7.172,-149.169 5.681,-164.3c-3.615,-36.683 12.297,-57.635 4.034,-56.602Z" style="fill:#191312;"/>
            <path d="M991.085,116.395c3.506,-6.547 7.245,-17.514 1.208,-24.46c-6.038,-6.945 -12.075,-17.514 -17.508,-18.722c-5.434,-1.208 -23.847,7.852 -28.375,18.118c-4.528,10.267 -4.83,19.326 -3.321,21.742c1.509,2.416 -9.056,5.738 -6.339,8.455c2.717,2.718 20.225,22.648 22.036,24.46c1.811,1.812 27.771,-21.138 32.299,-29.593Z" style="fill:#fff5f3;"/>
            <path d="M946.641,111.865c4.978,-3.244 29.385,-24.603 28.747,-33.55c-0.639,-8.946 -9.263,-13.952 -10.221,-16.828c-0.959,-2.876 0,-13.207 -4.792,-17.68c-4.791,-4.473 -0.267,-10.05 -9.191,-17.206c-5.46,-4.379 -6.806,-15.088 -8.256,-19.912c-1.45,-4.824 -8.073,-12.063 -13.47,-0.407c-5.396,11.656 1.104,18.404 2.944,20.858c1.84,2.454 3.312,4.785 3.066,5.276c-0.245,0.491 -4.17,0.491 -6.132,1.227c-1.963,0.736 -16.436,0.123 -20.729,1.84c-4.292,1.718 -6.377,6.503 -6.5,8.221c-0.123,1.718 -0.245,6.38 -2.208,8.466c-1.962,2.086 -4.906,5.031 -3.557,7.853c1.349,2.822 3.067,6.38 2.208,8.22c-0.859,1.841 -2.698,4.295 -1.472,7.362c1.227,3.068 0.491,5.89 0,7.485c-0.49,1.595 3.663,5.398 5.134,6.871c1.472,1.472 8.446,5.622 10.086,6.524c11.278,6.205 20.452,1.195 27.599,8.179c1.256,1.228 6.246,7.526 6.744,7.201Z" style="fill:#fda37c;"/>
            <path d="M1330.47,255.04c-2.449,-3.671 -6.208,-13.181 -7.98,-16.017c-2.212,-3.54 7.52,-15.267 17.474,-17.037c9.953,-1.77 37.38,-0.221 23.003,18.808c-3.148,4.166 -11.502,13.497 -13.935,15.709c-0.081,0.074 -0.173,0.142 -0.275,0.206c2.637,7.13 8.466,22.006 9.442,25.716c1.178,4.476 26.004,312.837 28.359,325.086c1.316,6.848 -40.174,65.548 -48.925,54.059c-7.013,-9.208 -37.023,-45.317 -36.919,-48.641c0.235,-7.538 21.221,-326.028 22.634,-329.326c1.084,-2.53 4.664,-20.316 7.122,-28.563Z" style="fill:#ffb800;"/>
            <path d="M1334.75,231.501c0,0 -14.598,19.028 -21.897,21.683c-7.299,2.655 -3.318,-10.178 -6.636,-19.692c-3.318,-9.514 -21.189,-27.663 -14.996,-45.364c6.193,-17.702 12.784,21.689 19.42,27.442c6.635,5.752 23.888,13.939 24.109,15.931Z" style="fill:#fff5f3;"/>
            <path d="M1353.9,231.501c0,0 14.599,19.028 21.898,21.683c7.299,2.655 3.317,-10.178 6.635,-19.692c3.318,-9.514 15.893,-29.823 9.7,-47.524c-6.193,-17.701 -7.488,23.849 -14.124,29.602c-6.635,5.752 -23.887,13.939 -24.109,15.931Z" style="fill:#fff5f3;"/>
            <path d="M1277.81,122.639c0,7.18 -2.875,16.046 0.663,20.692c3.539,4.647 1.744,23.392 11.2,27.276c3.835,1.576 -2.07,11.673 5.61,25.27c1.648,2.917 4.037,13.681 12.216,19.191c13.028,8.776 20.39,18.173 30.915,18.424c18.58,0.442 26.321,-8.187 31.409,-11.063c5.087,-2.877 15.683,-7.676 17.172,-27.216c1.005,-13.195 4.906,-3.707 1.769,-27.925c-0.227,-1.755 7.078,0.644 11.039,-10.942c2.625,-7.678 1.649,-15.227 2.976,-19.874c1.327,-4.646 2.875,-14.275 -2.875,-16.488c-5.751,-2.213 -7.742,-2.213 -9.511,-9.072c-1.77,-6.859 6.193,-48.235 -52.863,-48.678c-59.057,-0.442 -59.72,56.644 -59.72,60.405Z" style="fill:#fe7f49;"/>
            <path d="M1298.61,108.957c-16.863,12.23 -7.698,46.697 -7.644,52.538c0.101,10.982 10.611,29.727 20.067,33.612c3.835,1.575 9.061,16.14 26.845,15.55c18.723,-0.621 24.337,-9.623 28.125,-14.145c2.177,-2.599 23.669,-17.43 22.827,-41.835c-1.226,-35.595 8.258,-67.346 -23.185,-57.108c-40.289,13.119 -56.597,3.819 -67.035,11.388Z" style="fill:#ff8c5a;"/>
            <path d="M1308.82,126.749c1.909,-0.166 3.593,1.25 3.758,3.159c0.166,1.91 -1.249,3.594 -3.158,3.76c-1.908,0.166 -3.592,-1.25 -3.758,-3.159c-0.166,-1.909 1.249,-3.594 3.158,-3.76Z" style="fill:#3f2d0c;"/>
            <path d="M1353.37,123.88c1.908,-0.166 3.592,1.25 3.758,3.159c0.166,1.909 -1.249,3.594 -3.158,3.76c-1.909,0.166 -3.593,-1.25 -3.758,-3.159c-0.166,-1.91 1.249,-3.594 3.158,-3.76Z" style="fill:#3f2d0c;"/>
            <path d="M1373.99,95.38c-28.526,17.797 -64.445,-1.166 -82.743,1.047c-3.95,0.477 -1.447,13.834 -2.16,21.834c-0.901,10.106 -6.104,4.221 -0.655,27.832c1.001,4.337 -2.524,5.541 -4.739,0.468c-1.12,-2.564 -3.218,-8.735 -7.286,-8.615c-4.7,0.139 -4.14,-12.692 -3.277,-18.566c1.196,-8.14 4.508,-11.144 5.481,-17.886c0.793,-5.501 0.349,-12.954 -1.48,-14.694c-6.201,-5.899 -7.716,-11.445 -0.29,-10.614c7.889,0.883 18.581,-13.661 26.792,-21.067c9.409,-8.485 56.422,-17.419 76.268,3.48c9.733,10.249 24.371,9.032 12.085,21.141c-1.079,1.063 10.901,0.562 4.264,20.541c-2.244,6.756 9.62,1.939 8.565,28.131c-0.286,7.106 -13.532,4.626 -12.648,9.273c0.885,4.646 1.106,12.391 -2.212,11.284c-3.317,-1.106 -6.635,-11.948 -5.972,-18.143c0.664,-6.196 -6.791,-24.745 -4.174,-28.805c3.961,-6.147 1.354,-11.116 -5.819,-6.641Z" style="fill:#fcb777;"/>
        </g>
        <g>
            <path d="M2289.91,175.588c-0.71,7.198 -98.311,7.209 -102.448,7.331c-4.781,0.142 -6.114,-19.047 -5.236,-25.022c1.216,-8.279 107.389,-30.682 107.255,-9.268c-0.074,11.843 0.949,21.676 0.429,26.959Z" style="fill:#fcb777;"/>
            <path d="M2143.39,1149.39c-12.582,9.682 -23.699,21.492 -42.667,26.781c-24.011,6.696 -16.839,29.377 63.521,17.382c3.923,-0.585 9.931,-4.714 14.087,-3.638c14.973,3.875 26.76,0.574 27.995,-0.353c3.347,-2.511 5.857,-32.64 0.837,-41.846c-5.02,-9.206 -52.897,-6.695 -63.773,1.674Z" style="fill:#191312;"/>
            <path d="M2310.52,1142.28c3.225,12.465 24.891,21.732 28.05,31.781c2.685,8.541 -4.993,23.903 -64.203,19.624c-3.766,-0.273 -5.289,-5.153 -9.243,-3.977c-14.245,4.236 -14.714,-3.762 -15.889,-4.775c-3.184,-2.744 -4.378,-31.281 0.398,-41.342c4.776,-10.061 57.166,-15.69 60.887,-1.311Z" style="fill:#191312;"/>
            <path d="M2092.38,582.431c85.505,27.199 202.288,28.426 274.78,13.76l-7.067,146.637c-6.092,66.835 -22.785,208.185 -34.107,239.959c-16.433,46.115 -12.049,124.494 -10.717,165.32c0.3,9.19 -71.653,12.271 -71.653,12.271c0,0 -6.048,-15.798 -4.829,-68.963c1.136,-49.559 2.203,-261.623 -13.154,-303.565c-15.356,41.942 -9.916,211.359 -8.78,260.918c0.458,19.994 3.019,69.921 1.262,81.458c-2.916,19.14 -8.278,29.059 -8.278,29.059c0,0 -72.074,-6.438 -73.293,-15.552c-1.219,-9.114 8.617,-65.681 -2.518,-97.522c-22.627,-64.704 -40.177,-255.502 -46.269,-322.338l4.623,-141.442Z" style="fill:#191312;"/>
            <path d="M2106.29,585.299c3.364,12.351 114.09,32.247 194.069,25.045c23.617,-2.126 44.552,-6.616 59.251,-14.359c2.356,-1.242 -26.251,-396.904 -61.802,-398.663c-24.1,-1.192 -129.787,-12.454 -157.32,40.211c-57.951,110.85 -34.089,346.792 -34.198,347.766Z" style="fill:#fff5f3;"/>
            <path d="M2249.01,244.555c3.317,3.098 20.791,12.833 23.666,11.948c2.876,-0.885 12.608,-25.445 17.253,-30.534c4.645,-5.089 11.308,-46.757 -8.157,-44.324c-19.464,2.434 -43.822,32.154 -43.379,46.537c0.442,14.382 7.299,13.275 10.617,16.373Z" style="fill:#d3d3d3;"/>
            <path d="M2231.65,244.555c-3.318,3.098 -20.791,12.833 -23.667,11.948c-2.875,-0.885 -14.794,-28.179 -19.438,-33.268c-4.645,-5.089 -15.679,-32.214 3.785,-29.78c19.464,2.434 50.379,20.344 49.937,34.727c-0.443,14.382 -7.299,13.275 -10.617,16.373Z" style="fill:#d3d3d3;"/>
            <path d="M2285.26,173.417c1.816,0.227 11.217,11.469 16.386,12.25c18.357,2.773 63.908,3.005 69.55,2.198c7.231,-1.033 21.44,10.217 30.22,12.284c8.78,2.066 82.692,-18.017 88.373,-19.05c5.682,-1.034 3.099,-12.917 17.561,-15.5c14.461,-2.584 85.264,-73.217 85.264,-73.217c0,0 37.809,37.616 45.098,54.867c6.374,15.084 -27.818,30.805 -59.022,66.4c-6.541,7.461 -34.663,14.25 -50.12,39.416c-13.254,21.579 -6.748,15.567 -49.616,29.517c-42.868,13.95 -57.518,42.692 -57.286,64.446c0.05,4.706 -8.252,59.789 -7.508,79.641c0.746,19.905 30.739,203.046 30.739,218.804c0,22.217 -56.749,30.292 -89.351,-17.911c-32.508,-48.066 -56.813,-223.113 -57.33,-232.93c-0.516,-9.817 -7.172,-149.169 -5.681,-164.3c3.615,-36.683 -15.541,-57.948 -7.277,-56.915Z" style="fill:#191312;"/>
            <path d="M2592.91,117.037c-3.506,-6.548 -7.245,-17.515 -1.208,-24.46c6.038,-6.945 12.075,-17.514 17.508,-18.722c5.434,-1.208 25.847,5.851 30.375,16.118c4.528,10.267 4.83,19.326 3.321,21.742c-1.509,2.416 9.056,5.737 6.339,8.455c-2.717,2.718 -21.225,21.648 -23.036,23.46c-1.811,1.811 -28.771,-18.138 -33.299,-26.593Z" style="fill:#fff5f3;"/>
            <path d="M2639.36,110.507c-4.978,-3.244 -31.385,-22.603 -30.747,-31.55c0.639,-8.947 7.263,-10.953 8.221,-13.828c0.959,-2.876 2.97,-13.355 6.792,-18.68c5.124,-7.14 -0.027,-8.333 7.191,-17.206c5.46,-6.712 3.806,-18.089 5.256,-22.913c0.849,-2.826 2.358,-5.65 5.447,-5.688c2.431,-0.03 5.65,2.111 8.023,5.281c7.696,10.284 2.896,17.405 1.056,19.859c-1.84,2.454 -2.312,6.785 -2.066,7.276c0.245,0.491 10.17,-0.509 12.132,0.227c1.963,0.736 10.436,-0.878 14.729,0.84c4.292,1.718 6.377,6.503 6.5,8.221c0.123,1.718 0.245,4.38 2.208,6.466c1.962,2.086 4.906,5.03 3.557,7.852c-1.349,2.822 -3.067,6.381 -2.208,8.221c0.859,1.841 2.698,4.295 1.472,7.362c-1.227,3.067 -1.663,10.883 -3.134,12.355c-1.472,1.473 -10.446,7.622 -12.086,8.525c-11.278,6.205 -18.452,3.194 -25.599,10.179c-1.256,1.227 -6.246,7.525 -6.744,7.201Z" style="fill:#fda37c;"/>
            <path d="M2191.5,173.088c-1.816,0.227 -7.974,11.157 -13.143,11.938c-18.357,2.773 -44.163,-6.557 -49.805,-7.363c-7.231,-1.034 -19.075,-1.189 -29.921,7.077c-10.846,8.267 -23.567,12.952 -32.348,15.019c-8.78,2.067 -53.388,-7.269 -59.069,-8.302c-5.682,-1.033 -3.099,-12.917 -17.561,-15.5c-14.461,-2.583 -22.209,-26.867 -38.736,-29.967c-16.528,-3.1 -63.528,-54.25 -63.528,-54.25c0,0 -57.846,40.817 -50.098,57.867c7.747,17.05 72.824,66.65 79.022,74.4c6.197,7.75 10.329,23.25 35.12,28.417c24.792,5.166 7.748,17.566 50.616,31.516c42.868,13.95 67.89,23.196 67.659,44.95c-0.05,4.707 -5.307,77.285 -6.051,97.138c-0.746,19.904 -28.553,203.045 -28.553,218.803c0,22.217 56.749,30.293 89.351,-17.911c32.508,-48.065 56.813,-223.113 57.33,-232.93c0.516,-9.816 7.172,-149.169 5.681,-164.3c-3.615,-36.683 12.297,-57.635 4.034,-56.602Z" style="fill:#191312;"/>
            <path d="M1887.09,116.395c3.506,-6.547 7.245,-17.514 1.208,-24.46c-6.038,-6.945 -12.075,-17.514 -17.508,-18.722c-5.434,-1.208 -23.847,7.852 -28.375,18.118c-4.528,10.267 -4.83,19.326 -3.321,21.742c1.509,2.416 -9.056,5.738 -6.339,8.455c2.717,2.718 20.225,22.648 22.036,24.46c1.811,1.812 27.771,-21.138 32.299,-29.593Z" style="fill:#fff5f3;"/>
            <path d="M1842.64,111.865c4.978,-3.244 29.385,-24.603 28.747,-33.55c-0.639,-8.946 -9.263,-13.952 -10.221,-16.828c-0.959,-2.876 0,-13.207 -4.792,-17.68c-4.791,-4.473 -0.267,-10.05 -9.191,-17.206c-5.46,-4.379 -6.806,-15.088 -8.256,-19.912c-1.45,-4.824 -8.073,-12.063 -13.47,-0.407c-5.396,11.656 1.104,18.404 2.944,20.858c1.84,2.454 3.312,4.785 3.066,5.276c-0.245,0.491 -4.17,0.491 -6.132,1.227c-1.963,0.736 -16.436,0.123 -20.729,1.84c-4.292,1.718 -6.377,6.503 -6.5,8.221c-0.123,1.718 -0.245,6.38 -2.208,8.466c-1.962,2.086 -4.906,5.031 -3.557,7.853c1.349,2.822 3.067,6.38 2.208,8.22c-0.859,1.841 -2.698,4.295 -1.472,7.362c1.227,3.068 0.491,5.89 0,7.485c-0.49,1.595 3.663,5.398 5.134,6.871c1.472,1.472 8.446,5.622 10.086,6.524c11.278,6.205 20.452,1.195 27.599,8.179c1.256,1.228 6.246,7.526 6.744,7.201Z" style="fill:#fda37c;"/>
            <path d="M2226.47,255.04c-2.449,-3.671 -6.208,-13.181 -7.98,-16.017c-2.212,-3.54 7.52,-15.267 17.474,-17.037c9.953,-1.77 37.38,-0.221 23.003,18.808c-3.148,4.166 -11.502,13.497 -13.935,15.709c-0.081,0.074 -0.173,0.142 -0.275,0.206c2.637,7.13 8.466,22.006 9.442,25.716c1.178,4.476 26.004,312.837 28.359,325.086c1.316,6.848 -40.174,65.548 -48.925,54.059c-7.013,-9.208 -37.023,-45.317 -36.919,-48.641c0.235,-7.538 21.221,-326.028 22.634,-329.326c1.084,-2.53 4.664,-20.316 7.122,-28.563Z" style="fill:#ffb800;"/>
            <path d="M2230.74,231.501c0,0 -14.598,19.028 -21.897,21.683c-7.299,2.655 -3.318,-10.178 -6.636,-19.692c-3.318,-9.514 -21.189,-27.663 -14.996,-45.364c6.193,-17.702 12.784,21.689 19.42,27.442c6.635,5.752 23.888,13.939 24.109,15.931Z" style="fill:#fff5f3;"/>
            <path d="M2249.9,231.501c0,0 14.599,19.028 21.898,21.683c7.299,2.655 3.317,-10.178 6.635,-19.692c3.318,-9.514 15.893,-29.823 9.7,-47.524c-6.193,-17.701 -7.488,23.849 -14.124,29.602c-6.635,5.752 -23.887,13.939 -24.109,15.931Z" style="fill:#fff5f3;"/>
            <path d="M2173.81,122.639c0,7.18 -2.875,16.046 0.663,20.692c3.539,4.647 1.744,23.392 11.2,27.276c3.835,1.576 -2.07,11.673 5.61,25.27c1.648,2.917 4.037,13.681 12.216,19.191c13.028,8.776 20.39,18.173 30.915,18.424c18.58,0.442 26.321,-8.187 31.409,-11.063c5.087,-2.877 15.683,-7.676 17.172,-27.216c1.005,-13.195 4.906,-3.707 1.769,-27.925c-0.227,-1.755 7.078,0.644 11.039,-10.942c2.625,-7.678 1.649,-15.227 2.976,-19.874c1.327,-4.646 2.875,-14.275 -2.875,-16.488c-5.751,-2.213 -7.742,-2.213 -9.511,-9.072c-1.77,-6.859 6.193,-48.235 -52.863,-48.678c-59.057,-0.442 -59.72,56.644 -59.72,60.405Z" style="fill:#fe7f49;"/>
            <path d="M2194.61,102.958c-16.863,12.229 -7.698,46.696 -7.644,52.538c0.101,10.982 10.611,29.727 20.067,33.611c3.835,1.576 9.061,16.141 26.845,15.551c18.723,-0.621 24.337,-9.623 28.125,-14.145c2.177,-2.599 23.669,-17.43 22.827,-41.835c-1.226,-35.596 8.258,-67.346 -23.185,-57.108c-40.289,13.119 -56.597,3.818 -67.035,11.388Z" style="fill:#ff8c5a;"/>
            <path d="M2204.82,118.75c1.909,-0.166 3.593,1.25 3.758,3.159c0.166,1.909 -1.249,3.594 -3.158,3.76c-1.908,0.166 -3.592,-1.25 -3.758,-3.159c-0.166,-1.909 1.249,-3.594 3.158,-3.76Z" style="fill:#3f2d0c;"/>
            <path d="M2249.37,115.881c1.908,-0.166 3.592,1.249 3.758,3.159c0.166,1.909 -1.249,3.594 -3.158,3.76c-1.909,0.165 -3.593,-1.25 -3.758,-3.159c-0.166,-1.91 1.249,-3.595 3.158,-3.76Z" style="fill:#3f2d0c;"/>
            <path d="M2269.99,84.382c-28.526,9.797 -64.445,5.833 -82.743,8.045c-3.95,0.478 -1.447,16.834 -2.16,24.834c-0.901,10.107 -6.104,4.221 -0.655,27.832c1.001,4.338 -2.524,5.541 -4.739,0.468c-1.12,-2.564 -3.218,-6.735 -7.286,-6.615c-4.7,0.139 -4.14,-12.692 -3.277,-18.566c1.196,-8.14 4.508,-9.145 5.481,-15.886c0.793,-5.502 0.349,-16.954 -1.48,-18.694c-6.201,-5.899 -7.543,-10.817 -0.29,-12.614c9.889,-2.45 18.581,-10.661 26.792,-18.067c9.409,-8.485 56.422,-17.419 76.268,3.48c9.733,10.249 24.371,9.032 12.085,21.141c-1.079,1.063 10.901,0.562 4.264,20.541c-2.244,6.756 9.62,2.939 8.565,29.131c-0.286,7.105 -13.532,2.627 -12.648,7.273c0.885,4.647 1.106,12.391 -2.212,11.284c-3.317,-1.106 -6.635,-11.948 -5.972,-18.143c0.664,-6.195 -6.791,-27.744 -4.174,-31.805c3.961,-6.146 2.177,-16.386 -5.819,-13.639Z" style="fill:#fcb777;"/>
            <path d="M2240.03,165.125c1.234,-2.688 0.13,-3.158 -2.544,-4.461c-5.941,-2.895 -13.176,-1.161 -13.041,2.016c0.134,3.178 -1.909,2.079 -0.668,3.085c1.807,1.465 6.355,2.879 10.62,2.004c1.578,-0.323 5.099,-1.479 5.633,-2.644Z" style="fill:#3f2d0c;"/>
            <clipPath id="_clip2">
                <path d="M2240.03,165.125c1.234,-2.688 0.13,-3.158 -2.544,-4.461c-5.941,-2.895 -13.176,-1.161 -13.041,2.016c0.134,3.178 -1.909,2.079 -0.668,3.085c1.807,1.465 6.355,2.879 10.62,2.004c1.578,-0.323 5.099,-1.479 5.633,-2.644Z"/>
            </clipPath>
            <g clip-path="url(#_clip2)">
                <path d="M2238.07,167.578c2.394,0.35 -1.077,5.694 -7.551,5.507c-6.474,-0.188 -6.236,-5.218 -2.28,-5.789c3.956,-0.571 8.213,0.045 9.831,0.282ZM2224.88,158.47c2.158,0.332 10.031,0.899 13.947,-0.052c3.917,-0.95 2.523,-6.881 -6.702,-5.645c-9.224,1.237 -9.403,5.366 -7.245,5.697Z" style="fill:#eddbd9;"/>
            </g>
        </g>
        <g>
            <path d="M3185.91,175.588c-0.71,7.198 -98.311,7.209 -102.448,7.331c-4.781,0.142 -6.114,-19.047 -5.236,-25.022c1.216,-8.279 107.389,-30.682 107.255,-9.268c-0.074,11.843 0.949,21.676 0.429,26.959Z" style="fill:#fcb777;"/>
            <path d="M3039.39,1149.39c-12.582,9.682 -23.699,21.492 -42.667,26.781c-24.011,6.696 -16.839,29.377 63.521,17.382c3.923,-0.585 9.931,-4.714 14.087,-3.638c14.973,3.875 26.76,0.574 27.995,-0.353c3.347,-2.511 5.857,-32.64 0.837,-41.846c-5.02,-9.206 -52.897,-6.695 -63.773,1.674Z" style="fill:#191312;"/>
            <path d="M3206.52,1142.28c3.225,12.465 24.891,21.732 28.05,31.781c2.685,8.541 -4.993,23.903 -64.203,19.624c-3.766,-0.273 -5.289,-5.153 -9.243,-3.977c-14.245,4.236 -14.714,-3.762 -15.889,-4.775c-3.184,-2.744 -4.378,-31.281 0.398,-41.342c4.776,-10.061 57.166,-15.69 60.887,-1.311Z" style="fill:#191312;"/>
            <path d="M2988.38,582.431c85.505,27.199 202.288,28.426 274.78,13.76l-7.067,146.637c-6.092,66.835 -22.785,208.185 -34.107,239.959c-16.433,46.115 -12.049,124.494 -10.717,165.32c0.3,9.19 -71.653,12.271 -71.653,12.271c0,0 -6.048,-15.798 -4.829,-68.963c1.136,-49.559 2.203,-261.623 -13.154,-303.565c-15.356,41.942 -9.916,211.359 -8.78,260.918c0.458,19.994 3.019,69.921 1.262,81.458c-2.916,19.14 -8.278,29.059 -8.278,29.059c0,0 -72.074,-6.438 -73.293,-15.552c-1.219,-9.114 8.617,-65.681 -2.518,-97.522c-22.627,-64.704 -40.177,-255.502 -46.269,-322.338l4.623,-141.442Z" style="fill:#191312;"/>
            <path d="M3002.29,585.299c3.364,12.351 114.09,32.247 194.069,25.045c23.617,-2.126 44.552,-6.616 59.251,-14.359c2.356,-1.242 -26.251,-396.904 -61.802,-398.663c-24.1,-1.192 -129.787,-12.454 -157.32,40.211c-57.951,110.85 -34.089,346.792 -34.198,347.766Z" style="fill:#fff5f3;"/>
            <path d="M3145.01,244.555c3.317,3.098 20.791,12.833 23.666,11.948c2.876,-0.885 12.608,-25.445 17.253,-30.534c4.645,-5.089 11.308,-46.757 -8.157,-44.324c-19.464,2.434 -43.822,32.154 -43.379,46.537c0.442,14.382 7.299,13.275 10.617,16.373Z" style="fill:#d3d3d3;"/>
            <path d="M3127.65,244.555c-3.318,3.098 -20.791,12.833 -23.667,11.948c-2.875,-0.885 -14.794,-28.179 -19.438,-33.268c-4.645,-5.089 -15.679,-32.214 3.785,-29.78c19.464,2.434 50.379,20.344 49.937,34.727c-0.443,14.382 -7.299,13.275 -10.617,16.373Z" style="fill:#d3d3d3;"/>
            <path d="M3181.26,172.776c1.816,0.227 11.217,11.469 16.386,12.25c18.357,2.773 52.908,0.004 58.55,-0.802c7.231,-1.034 10.33,-7.75 21.176,0.516c10.846,8.267 8.264,21.7 17.044,23.767c8.78,2.067 68.692,-16.017 74.373,-17.05c5.682,-1.033 3.099,-12.917 17.561,-15.5c14.461,-2.583 22.209,-26.867 38.736,-29.967c16.528,-3.1 63.528,-54.25 63.528,-54.25c0,0 57.846,40.817 50.098,57.867c-7.747,17.05 -72.824,66.65 -79.022,74.4c-6.197,7.75 -10.329,23.25 -35.12,28.417c-24.792,5.166 -7.748,17.566 -50.616,31.516c-42.868,13.95 -63.518,40.692 -63.286,62.447c0.05,4.706 -1.252,59.788 -0.508,79.641c0.746,19.904 30.739,203.045 30.739,218.803c0,22.217 -56.749,30.293 -89.351,-17.911c-32.508,-48.065 -56.813,-223.113 -57.33,-232.93c-0.516,-9.816 -7.172,-149.169 -5.681,-164.3c3.615,-36.683 -15.541,-57.948 -7.277,-56.914Z" style="fill:#191312;"/>
            <path d="M3087.5,173.088c-1.816,0.227 -7.974,11.157 -13.143,11.938c-18.357,2.773 -44.163,-6.557 -49.805,-7.363c-7.231,-1.034 -19.075,-1.189 -29.921,7.077c-10.846,8.267 -23.567,12.952 -32.348,15.019c-8.78,2.067 -53.388,-7.269 -59.069,-8.302c-5.682,-1.033 -3.099,-12.917 -17.561,-15.5c-14.461,-2.583 -22.209,-26.867 -38.736,-29.967c-16.528,-3.1 -63.528,-54.25 -63.528,-54.25c0,0 -57.846,40.817 -50.098,57.867c7.747,17.05 72.824,66.65 79.022,74.4c6.197,7.75 10.329,23.25 35.12,28.417c24.792,5.166 7.748,17.566 50.616,31.516c42.868,13.95 67.89,23.196 67.659,44.95c-0.05,4.707 -5.307,77.285 -6.051,97.138c-0.746,19.904 -28.553,203.045 -28.553,218.803c0,22.217 56.749,30.293 89.351,-17.911c32.508,-48.065 56.813,-223.113 57.33,-232.93c0.516,-9.816 7.172,-149.169 5.681,-164.3c-3.615,-36.683 12.297,-57.635 4.034,-56.602Z" style="fill:#191312;"/>
            <path d="M3488.91,116.395c-3.506,-6.547 -7.245,-17.514 -1.208,-24.46c6.038,-6.945 12.075,-17.514 17.508,-18.722c5.434,-1.208 23.847,7.852 28.375,18.118c4.528,10.267 4.83,19.326 3.321,21.742c-1.509,2.416 9.056,5.738 6.339,8.455c-2.717,2.718 -20.225,22.648 -22.036,24.46c-1.811,1.812 -27.771,-21.138 -32.299,-29.593Z" style="fill:#fff5f3;"/>
            <path d="M2783.09,116.395c3.506,-6.547 7.245,-17.514 1.208,-24.46c-6.038,-6.945 -12.075,-17.514 -17.508,-18.722c-5.434,-1.208 -23.847,7.852 -28.375,18.118c-4.528,10.267 -4.83,19.326 -3.321,21.742c1.509,2.416 -9.056,5.738 -6.339,8.455c2.717,2.718 20.225,22.648 22.036,24.46c1.811,1.812 27.771,-21.138 32.299,-29.593Z" style="fill:#fff5f3;"/>
            <path d="M3533.36,111.865c-4.978,-3.244 -29.385,-24.603 -28.747,-33.55c0.639,-8.946 9.263,-13.952 10.221,-16.828c0.959,-2.876 0,-13.207 4.792,-17.68c4.791,-4.473 0.267,-10.05 9.191,-17.206c5.46,-4.379 6.806,-15.088 8.256,-19.912c1.45,-4.824 8.073,-12.063 13.47,-0.407c5.396,11.656 -1.104,18.404 -2.944,20.858c-1.84,2.454 -3.312,4.785 -3.066,5.276c0.245,0.491 4.17,0.491 6.132,1.227c1.963,0.736 16.436,0.123 20.729,1.84c4.292,1.718 6.377,6.503 6.5,8.221c0.123,1.718 0.245,6.38 2.208,8.466c1.962,2.086 4.906,5.031 3.557,7.853c-1.349,2.822 -3.067,6.38 -2.208,8.22c0.859,1.841 2.698,4.295 1.472,7.362c-1.227,3.068 -0.491,5.89 0,7.485c0.49,1.595 -3.663,5.398 -5.134,6.871c-1.472,1.472 -8.446,5.622 -10.086,6.524c-11.278,6.205 -20.452,1.195 -27.599,8.179c-1.256,1.228 -6.246,7.526 -6.744,7.201Z" style="fill:#fda37c;"/>
            <path d="M2738.64,111.865c4.978,-3.244 29.385,-24.603 28.747,-33.55c-0.639,-8.946 -9.263,-13.952 -10.221,-16.828c-0.959,-2.876 0,-13.207 -4.792,-17.68c-4.791,-4.473 -0.267,-10.05 -9.191,-17.206c-5.46,-4.379 -6.806,-15.088 -8.256,-19.912c-1.45,-4.824 -8.073,-12.063 -13.47,-0.407c-5.396,11.656 1.104,18.404 2.944,20.858c1.84,2.454 3.312,4.785 3.066,5.276c-0.245,0.491 -4.17,0.491 -6.132,1.227c-1.963,0.736 -16.436,0.123 -20.729,1.84c-4.292,1.718 -6.377,6.503 -6.5,8.221c-0.123,1.718 -0.245,6.38 -2.208,8.466c-1.962,2.086 -4.906,5.031 -3.557,7.853c1.349,2.822 3.067,6.38 2.208,8.22c-0.859,1.841 -2.698,4.295 -1.472,7.362c1.227,3.068 0.491,5.89 0,7.485c-0.49,1.595 3.663,5.398 5.134,6.871c1.472,1.472 8.446,5.622 10.086,6.524c11.278,6.205 20.452,1.195 27.599,8.179c1.256,1.228 6.246,7.526 6.744,7.201Z" style="fill:#fda37c;"/>
            <path d="M3122.47,255.04c-2.449,-3.671 -6.208,-13.181 -7.98,-16.017c-2.212,-3.54 7.52,-15.267 17.474,-17.037c9.953,-1.77 37.38,-0.221 23.003,18.808c-3.148,4.166 -11.502,13.497 -13.935,15.709c-0.081,0.074 -0.173,0.142 -0.275,0.206c2.637,7.13 8.466,22.006 9.442,25.716c1.178,4.476 26.004,312.837 28.359,325.086c1.316,6.848 -40.174,65.548 -48.925,54.059c-7.013,-9.208 -37.023,-45.317 -36.919,-48.641c0.235,-7.538 21.221,-326.028 22.634,-329.326c1.084,-2.53 4.664,-20.316 7.122,-28.563Z" style="fill:#ffb800;"/>
            <path d="M3126.74,231.501c0,0 -14.598,19.028 -21.897,21.683c-7.299,2.655 -3.318,-10.178 -6.636,-19.692c-3.318,-9.514 -21.189,-27.663 -14.996,-45.364c6.193,-17.702 12.784,21.689 19.42,27.442c6.635,5.752 23.888,13.939 24.109,15.931Z" style="fill:#fff5f3;"/>
            <path d="M3145.9,231.501c0,0 14.599,19.028 21.898,21.683c7.299,2.655 3.317,-10.178 6.635,-19.692c3.318,-9.514 15.893,-29.823 9.7,-47.524c-6.193,-17.701 -7.488,23.849 -14.124,29.602c-6.635,5.752 -23.887,13.939 -24.109,15.931Z" style="fill:#fff5f3;"/>
            <path d="M3069.81,122.639c0,7.18 -2.875,16.046 0.663,20.692c3.539,4.647 1.744,23.392 11.2,27.276c3.835,1.576 -2.07,11.673 5.61,25.27c1.648,2.917 4.037,13.681 12.216,19.191c13.028,8.776 20.39,18.173 30.915,18.424c18.58,0.442 26.321,-8.187 31.409,-11.063c5.087,-2.877 15.683,-7.676 17.172,-27.216c1.005,-13.195 4.906,-3.707 1.769,-27.925c-0.227,-1.755 7.078,0.644 11.039,-10.942c2.625,-7.678 1.649,-15.227 2.976,-19.874c1.327,-4.646 2.875,-14.275 -2.875,-16.488c-5.751,-2.213 -7.742,-2.213 -9.511,-9.072c-1.77,-6.859 6.193,-48.235 -52.863,-48.678c-59.057,-0.442 -59.72,56.644 -59.72,60.405Z" style="fill:#fe7f49;"/>
            <path d="M3090.61,95.959c-16.863,12.229 -7.698,48.696 -7.644,54.537c0.101,10.983 10.611,29.727 20.067,33.612c3.835,1.575 9.061,16.14 26.845,15.55c18.723,-0.621 24.337,-9.623 28.125,-14.144c2.177,-2.599 23.669,-17.43 22.827,-41.836c-1.226,-35.595 8.258,-71.346 -23.185,-61.107c-40.289,13.119 -56.597,5.818 -67.035,13.388Z" style="fill:#ff8c5a;"/>
            <path d="M3101.82,111.751c1.909,-0.166 3.593,1.249 3.759,3.159c0.166,1.909 -1.249,3.594 -3.158,3.76c-1.909,0.166 -3.593,-1.25 -3.759,-3.159c-0.165,-1.91 1.25,-3.594 3.158,-3.76Z" style="fill:#3f2d0c;"/>
            <path d="M3146.36,108.881c1.909,-0.165 3.593,1.25 3.759,3.159c0.165,1.91 -1.25,3.595 -3.158,3.76c-1.909,0.166 -3.593,-1.249 -3.759,-3.159c-0.166,-1.909 1.249,-3.594 3.158,-3.76Z" style="fill:#3f2d0c;"/>
            <path d="M3165.99,80.382c-33.857,-1.535 -62.446,3.167 -82.743,6.046c-3.939,0.559 -1.447,22.833 -2.16,30.833c-0.901,10.107 -6.104,4.221 -0.655,27.832c1.001,4.338 -2.524,5.541 -4.739,0.468c-1.12,-2.564 -3.218,-4.735 -7.286,-4.615c-4.7,0.139 -4.14,-13.692 -3.277,-19.566c1.196,-8.14 4.508,-9.145 5.481,-15.887c0.793,-5.501 0.349,-16.953 -1.48,-18.693c-6.201,-5.899 -7.279,-13.387 -0.418,-16.347c7.223,-3.117 14.044,-8.261 26.92,-16.334c10.734,-6.729 57.755,-13.753 76.268,4.48c10.071,9.918 24.371,11.032 12.085,23.14c-1.079,1.064 10.901,2.563 4.264,22.541c-2.244,6.756 9.62,0.939 8.565,27.132c-0.286,7.105 -13.532,-1.373 -12.648,3.273c0.885,4.647 1.106,12.391 -2.212,11.285c-3.317,-1.107 -6.635,-11.949 -5.972,-18.144c0.664,-6.195 -6.791,-33.744 -4.174,-37.804c3.961,-6.146 2.626,-9.257 -5.819,-9.64Z" style="fill:#fcb777;"/>
            <path d="M3135.03,158.126c1.234,-2.689 -1.169,-1.823 -2.544,-4.461c-1.658,-3.181 -4.814,-5.277 -8.426,-4.746c-3.613,0.53 -4.751,3.584 -4.616,6.762c0.135,3.178 -1.909,2.079 -0.667,3.085c1.807,1.464 1.684,4.914 6.367,4.913c4.683,-0.002 5.81,-0.606 7.077,-2.481c0.902,-1.335 2.274,-1.907 2.809,-3.072Z" style="fill:#3f2d0c;"/>
            <clipPath id="_clip3">
                <path d="M3135.03,158.126c1.234,-2.689 -1.169,-1.823 -2.544,-4.461c-1.658,-3.181 -4.814,-5.277 -8.426,-4.746c-3.613,0.53 -4.751,3.584 -4.616,6.762c0.135,3.178 -1.909,2.079 -0.667,3.085c1.807,1.464 1.684,4.914 6.367,4.913c4.683,-0.002 5.81,-0.606 7.077,-2.481c0.902,-1.335 2.274,-1.907 2.809,-3.072Z"/>
            </clipPath>
            <g clip-path="url(#_clip3)">
                <path d="M3133.07,160.578c2.393,0.35 -1.078,5.695 -7.552,5.507c-6.474,-0.187 -6.236,-5.218 -2.279,-5.788c3.956,-0.571 8.212,0.045 9.831,0.281ZM3119.88,151.471c2.158,0.332 10.03,0.899 13.947,-0.052c3.916,-0.95 2.522,-6.882 -6.702,-5.645c-9.225,1.237 -9.403,5.366 -7.245,5.697Z" style="fill:#eddbd9;"/>
            </g>
        </g>
        <g>
            <path d="M4081.91,175.588c-0.71,7.198 -98.311,7.209 -102.448,7.331c-4.781,0.142 -8.3,-10.299 -7.422,-16.274c1.216,-8.279 111.761,-28.495 111.627,-7.081c-0.074,11.843 -1.237,10.741 -1.757,16.024Z" style="fill:#fcb777;"/>
            <path d="M3935.39,1149.39c-12.582,9.682 -23.699,21.492 -42.667,26.781c-24.011,6.696 -16.839,29.377 63.521,17.382c3.923,-0.585 9.931,-4.714 14.087,-3.638c14.973,3.875 26.76,0.574 27.995,-0.353c3.347,-2.511 5.857,-32.64 0.837,-41.846c-5.02,-9.206 -52.897,-6.695 -63.773,1.674Z" style="fill:#191312;"/>
            <path d="M4102.52,1142.28c3.225,12.465 24.891,21.732 28.05,31.781c2.685,8.541 -4.993,23.903 -64.203,19.624c-3.766,-0.273 -5.289,-5.153 -9.243,-3.977c-14.245,4.236 -14.714,-3.762 -15.889,-4.775c-3.184,-2.744 -4.378,-31.281 0.398,-41.342c4.776,-10.061 57.166,-15.69 60.887,-1.311Z" style="fill:#191312;"/>
            <path d="M3884.38,582.431c85.505,27.199 202.288,28.426 274.78,13.76l-7.067,146.637c-6.092,66.835 -22.785,208.185 -34.107,239.959c-16.433,46.115 -12.049,124.494 -10.717,165.32c0.3,9.19 -71.653,12.271 -71.653,12.271c0,0 -6.048,-15.798 -4.829,-68.963c1.136,-49.559 2.203,-261.623 -13.154,-303.565c-15.356,41.942 -9.916,211.359 -8.78,260.918c0.458,19.994 3.019,69.921 1.262,81.458c-2.916,19.14 -8.278,29.059 -8.278,29.059c0,0 -72.074,-6.438 -73.293,-15.552c-1.219,-9.114 8.617,-65.681 -2.518,-97.522c-22.627,-64.704 -40.177,-255.502 -46.269,-322.338l4.623,-141.442Z" style="fill:#191312;"/>
            <path d="M3898.29,585.299c3.364,12.351 114.09,32.247 194.069,25.045c23.617,-2.126 44.552,-6.616 59.251,-14.359c2.356,-1.242 -26.251,-396.904 -61.802,-398.663c-24.1,-1.192 -129.787,-12.454 -157.32,40.211c-57.951,110.85 -34.089,346.792 -34.198,347.766Z" style="fill:#fff5f3;"/>
            <path d="M4041.01,244.555c3.317,3.098 20.791,12.833 23.666,11.948c2.876,-0.885 12.608,-25.445 17.253,-30.534c4.645,-5.089 11.308,-46.757 -8.157,-44.324c-19.464,2.434 -43.822,32.154 -43.379,46.537c0.442,14.382 7.299,13.275 10.617,16.373Z" style="fill:#d3d3d3;"/>
            <path d="M4023.65,244.555c-3.318,3.098 -20.791,12.833 -23.667,11.948c-2.875,-0.885 -14.794,-28.179 -19.438,-33.268c-4.645,-5.089 -15.679,-32.214 3.785,-29.78c19.464,2.434 50.379,20.344 49.937,34.727c-0.443,14.382 -7.299,13.275 -10.617,16.373Z" style="fill:#d3d3d3;"/>
            <path d="M4077.26,172.776c1.816,0.227 11.217,11.469 16.386,12.25c18.357,2.773 63.908,3.004 69.55,2.198c7.231,-1.034 21.44,10.216 30.22,12.283c8.78,2.067 82.692,-18.017 88.373,-19.05c5.682,-1.033 3.099,-12.917 17.561,-15.5c14.461,-2.583 85.264,-73.217 85.264,-73.217c0,0 37.809,37.616 45.098,54.867c6.374,15.084 -27.818,30.805 -59.022,66.4c-6.541,7.462 -34.663,14.25 -50.12,39.417c-13.254,21.578 -6.748,15.566 -49.616,29.516c-42.868,13.95 -57.518,42.692 -57.286,64.447c0.05,4.706 -8.252,59.788 -7.508,79.641c0.746,19.904 30.739,203.045 30.739,218.803c0,22.217 -56.749,30.293 -89.351,-17.911c-32.508,-48.065 -56.813,-223.113 -57.33,-232.93c-0.516,-9.816 -7.172,-149.169 -5.681,-164.3c3.615,-36.683 -15.541,-57.948 -7.277,-56.914Z" style="fill:#191312;"/>
            <path d="M4384.91,116.395c-3.506,-6.547 -7.245,-17.514 -1.208,-24.46c6.038,-6.945 12.075,-17.514 17.508,-18.722c5.434,-1.208 25.847,5.852 30.375,16.118c4.528,10.267 4.83,19.326 3.321,21.742c-1.509,2.416 9.056,5.738 6.339,8.455c-2.717,2.718 -21.225,21.648 -23.036,23.46c-1.811,1.812 -28.771,-18.138 -33.299,-26.593Z" style="fill:#fff5f3;"/>
            <path d="M4431.36,109.865c-4.978,-3.244 -31.385,-22.603 -30.747,-31.55c0.639,-8.946 7.263,-10.952 8.221,-13.828c0.959,-2.876 2.97,-13.355 6.792,-18.68c5.124,-7.14 -0.027,-8.333 7.191,-17.206c5.46,-6.712 3.806,-18.088 5.256,-22.912c0.849,-2.827 2.358,-5.651 5.447,-5.689c2.431,-0.03 5.65,2.112 8.023,5.282c7.696,10.283 2.896,17.404 1.056,19.858c-1.84,2.454 -2.312,6.785 -2.066,7.276c0.245,0.491 10.17,-0.509 12.132,0.227c1.963,0.736 10.436,-0.877 14.729,0.84c4.292,1.718 6.377,6.503 6.5,8.221c0.123,1.718 0.245,4.38 2.208,6.466c1.962,2.086 4.906,5.031 3.557,7.853c-1.349,2.822 -3.067,6.38 -2.208,8.22c0.859,1.841 2.698,4.295 1.472,7.362c-1.227,3.068 -1.663,10.883 -3.134,12.356c-1.472,1.472 -10.446,7.622 -12.086,8.524c-11.278,6.205 -18.452,3.195 -25.599,10.179c-1.256,1.228 -6.246,7.526 -6.744,7.201Z" style="fill:#fda37c;"/>
            <path d="M3983.5,173.088c-1.816,0.227 -7.974,11.157 -13.143,11.938c-18.357,2.773 -44.163,-6.557 -49.805,-7.363c-7.231,-1.034 -19.075,-1.189 -29.921,7.077c-10.846,8.267 -23.567,12.952 -32.348,15.019c-8.78,2.067 -53.388,-7.269 -59.069,-8.302c-5.682,-1.033 -3.099,-12.917 -17.561,-15.5c-14.461,-2.583 -22.209,-26.867 -38.736,-29.967c-16.528,-3.1 -63.528,-54.25 -63.528,-54.25c0,0 -57.846,40.817 -50.098,57.867c7.747,17.05 72.824,66.65 79.022,74.4c6.197,7.75 10.329,23.25 35.12,28.417c24.792,5.166 7.748,17.566 50.616,31.516c42.868,13.95 67.89,23.196 67.659,44.95c-0.05,4.707 -5.307,77.285 -6.051,97.138c-0.746,19.904 -28.553,203.045 -28.553,218.803c0,22.217 56.749,30.293 89.351,-17.911c32.508,-48.065 56.813,-223.113 57.33,-232.93c0.516,-9.816 7.172,-149.169 5.681,-164.3c-3.615,-36.683 12.297,-57.635 4.034,-56.602Z" style="fill:#191312;"/>
            <path d="M3679.09,116.395c3.506,-6.547 7.245,-17.514 1.208,-24.46c-6.038,-6.945 -12.075,-17.514 -17.508,-18.722c-5.434,-1.208 -23.847,7.852 -28.375,18.118c-4.528,10.267 -4.83,19.326 -3.321,21.742c1.509,2.416 -9.056,5.738 -6.339,8.455c2.717,2.718 20.225,22.648 22.036,24.46c1.811,1.812 27.771,-21.138 32.299,-29.593Z" style="fill:#fff5f3;"/>
            <path d="M3634.64,111.865c4.978,-3.244 29.385,-24.603 28.747,-33.55c-0.639,-8.946 -9.263,-13.952 -10.221,-16.828c-0.959,-2.876 0,-13.207 -4.792,-17.68c-4.791,-4.473 -0.267,-10.05 -9.191,-17.206c-5.46,-4.379 -6.806,-15.088 -8.256,-19.912c-1.45,-4.824 -8.073,-12.063 -13.47,-0.407c-5.396,11.656 1.104,18.404 2.944,20.858c1.84,2.454 3.312,4.785 3.066,5.276c-0.245,0.491 -4.17,0.491 -6.132,1.227c-1.963,0.736 -16.436,0.123 -20.729,1.84c-4.292,1.718 -6.377,6.503 -6.5,8.221c-0.123,1.718 -0.245,6.38 -2.208,8.466c-1.962,2.086 -4.906,5.031 -3.557,7.853c1.349,2.822 3.067,6.38 2.208,8.22c-0.859,1.841 -2.698,4.295 -1.472,7.362c1.227,3.068 0.491,5.89 0,7.485c-0.49,1.595 3.663,5.398 5.134,6.871c1.472,1.472 8.446,5.622 10.086,6.524c11.278,6.205 20.452,1.195 27.599,8.179c1.256,1.228 6.246,7.526 6.744,7.201Z" style="fill:#fda37c;"/>
            <path d="M4018.47,255.04c-2.449,-3.671 -6.208,-13.181 -7.98,-16.017c-2.212,-3.54 7.52,-15.267 17.474,-17.037c9.953,-1.77 37.38,-0.221 23.003,18.808c-3.148,4.166 -11.502,13.497 -13.935,15.709c-0.081,0.074 -0.173,0.142 -0.275,0.206c2.637,7.13 8.466,22.006 9.442,25.716c1.178,4.476 26.004,312.837 28.359,325.086c1.316,6.848 -40.174,65.548 -48.925,54.059c-7.013,-9.208 -37.023,-45.317 -36.919,-48.641c0.235,-7.538 21.221,-326.028 22.634,-329.326c1.084,-2.53 4.664,-20.316 7.122,-28.563Z" style="fill:#ffb800;"/>
            <path d="M4022.74,231.501c0,0 -14.598,19.028 -21.897,21.683c-7.299,2.655 -3.318,-10.178 -6.636,-19.692c-3.318,-9.514 -21.189,-27.663 -14.996,-45.364c6.193,-17.702 12.784,21.689 19.42,27.442c6.635,5.752 23.888,13.939 24.109,15.931Z" style="fill:#fff5f3;"/>
            <path d="M4041.9,231.501c0,0 14.599,19.028 21.898,21.683c7.299,2.655 3.317,-10.178 6.635,-19.692c3.318,-9.514 15.893,-29.823 9.7,-47.524c-6.193,-17.701 -7.488,23.849 -14.124,29.602c-6.635,5.752 -23.887,13.939 -24.109,15.931Z" style="fill:#fff5f3;"/>
            <path d="M3968,127.013c-3.748,0.931 -5.061,15.046 -1.523,19.692c3.539,4.647 1.744,23.392 11.2,27.276c3.835,1.576 -2.07,8.299 5.61,21.896c1.648,2.917 4.037,13.681 12.216,19.191c13.028,8.776 20.39,18.173 30.915,18.424c18.58,0.442 26.321,-8.187 31.409,-11.063c5.087,-2.877 15.683,-7.676 17.172,-27.216c1.005,-13.195 3.969,-5.332 1.769,-24.551c-0.201,-1.758 7.078,0.644 11.039,-10.942c2.625,-7.678 1.649,-15.227 2.976,-19.874c1.327,-4.646 2.875,-13.275 -2.875,-15.488c-5.751,-2.213 -7.742,-6.587 -9.511,-13.446c-1.77,-6.859 5.152,-52.609 -52.03,-50.865c-42.688,1.302 -56.959,19.759 -56.989,47.371c-0.008,6.991 -0.368,19.344 -1.378,19.595Z" style="fill:#fe7f49;"/>
            <path d="M3988.64,84.338c-16.864,12.23 -9.737,55.445 -9.683,61.286c0.101,10.982 10.611,29.727 20.067,33.612c3.835,1.575 9.061,16.14 26.845,15.55c18.723,-0.621 24.337,-9.623 28.125,-14.144c2.177,-2.599 23.669,-17.43 22.827,-41.836c-1.226,-35.595 8.258,-73.907 -23.185,-63.669c-40.289,13.119 -54.559,1.632 -64.996,9.201Z" style="fill:#ff8c5a;"/>
            <path d="M3999.01,103.317c1.909,-0.165 3.593,1.25 3.759,3.159c0.165,1.91 -1.25,3.595 -3.158,3.76c-1.909,0.166 -3.593,-1.249 -3.759,-3.159c-0.166,-1.909 1.249,-3.594 3.158,-3.76Z" style="fill:#3f2d0c;"/>
            <path d="M4043.55,99.448c1.908,-0.166 3.593,1.25 3.758,3.159c0.166,1.91 -1.249,3.594 -3.158,3.76c-1.908,0.166 -3.592,-1.25 -3.758,-3.159c-0.166,-1.909 1.249,-3.594 3.158,-3.76Z" style="fill:#3f2d0c;"/>
            <path d="M4061.99,76.51c-31.67,-9.437 -51.328,-5.54 -82.743,5.42c-3.756,1.311 -1.447,37.079 -2.16,45.079c-0.901,10.107 -6.104,2.034 -0.655,25.645c1.001,4.338 -2.524,5.541 -4.739,0.468c-1.12,-2.564 -3.218,-8.735 -7.286,-8.615c-4.7,0.139 -4.14,-9.505 -3.277,-15.379c1.196,-8.14 4.508,-17.893 5.481,-24.634c0.793,-5.502 0.981,-24.883 -1.48,-25.442c-21.14,-4.806 1.32,-27.662 65.154,-28.142c14.223,-0.107 28.847,3.319 37.616,13.063c4.632,5.146 20.362,-0.081 12.085,14.58c-0.745,1.319 10.901,6.936 4.264,26.914c-2.244,6.756 9.62,1.127 8.565,27.319c-0.286,7.106 -13.532,4.626 -12.648,9.273c0.885,4.646 1.106,12.391 -2.212,11.284c-3.317,-1.106 -6.635,-11.948 -5.972,-18.143c0.664,-6.196 -6.791,-47.802 -4.174,-51.863c3.961,-6.146 2.283,-4.413 -5.819,-6.827Z" style="fill:#fcb777;"/>
            <path d="M4029.03,149.753c1.234,-3.397 -1.741,-3.747 -2.545,-8.164c-0.804,-4.417 -4.814,-6.669 -8.426,-5.998c-3.613,0.67 -3.751,4.529 -3.616,8.545c0.135,4.015 -1.908,5.154 -0.667,6.425c1.808,1.851 0.686,7.473 5.369,7.472c4.683,-0.002 6.809,-2.389 7.076,-4.397c0.267,-2.008 2.274,-2.41 2.809,-3.883Z" style="fill:#3f2d0c;"/>
            <clipPath id="_clip4">
                <path d="M4029.03,149.753c1.234,-3.397 -1.741,-3.747 -2.545,-8.164c-0.804,-4.417 -4.814,-6.669 -8.426,-5.998c-3.613,0.67 -3.751,4.529 -3.616,8.545c0.135,4.015 -1.908,5.154 -0.667,6.425c1.808,1.851 0.686,7.473 5.369,7.472c4.683,-0.002 6.809,-2.389 7.076,-4.397c0.267,-2.008 2.274,-2.41 2.809,-3.883Z"/>
            </clipPath>
            <g clip-path="url(#_clip4)">
                <path d="M4027.07,152.852c2.394,0.443 -1.077,7.197 -7.551,6.959c-6.474,-0.238 -6.236,-6.595 -2.28,-7.315c3.956,-0.721 8.212,0.057 9.831,0.356ZM4013.88,141.343c2.159,0.419 10.031,1.136 13.947,-0.065c3.917,-1.2 2.522,-8.695 -6.702,-7.133c-9.225,1.562 -9.403,6.779 -7.245,7.198Z" style="fill:#eddbd9;"/>
            </g>
        </g>
        <g>
            <path d="M4831.39,1149.39c-12.582,9.682 -23.699,21.492 -42.667,26.781c-24.011,6.696 -16.839,29.377 63.521,17.382c3.923,-0.585 9.931,-4.714 14.087,-3.638c14.973,3.875 26.76,0.574 27.995,-0.353c3.347,-2.511 5.857,-32.64 0.837,-41.846c-5.02,-9.206 -52.897,-6.695 -63.773,1.674Z" style="fill:#191312;"/>
            <path d="M4998.52,1142.28c3.225,12.465 24.891,21.732 28.05,31.781c2.685,8.541 -4.993,23.903 -64.203,19.624c-3.766,-0.273 -5.289,-5.153 -9.243,-3.977c-14.245,4.236 -14.714,-3.762 -15.889,-4.775c-3.184,-2.744 -4.378,-31.281 0.398,-41.342c4.776,-10.061 57.166,-15.69 60.887,-1.311Z" style="fill:#191312;"/>
            <path d="M4780.38,582.431c85.505,27.199 202.288,28.426 274.78,13.76l-7.067,146.637c-6.092,66.835 -22.785,208.185 -34.107,239.959c-16.433,46.115 -12.049,124.494 -10.717,165.32c0.3,9.19 -71.653,12.271 -71.653,12.271c0,0 -6.048,-15.798 -4.829,-68.963c1.136,-49.559 2.203,-261.623 -13.154,-303.565c-15.356,41.942 -9.916,211.359 -8.78,260.918c0.458,19.994 3.019,69.921 1.262,81.458c-2.916,19.14 -8.278,29.059 -8.278,29.059c0,0 -72.074,-6.438 -73.293,-15.552c-1.219,-9.114 8.617,-65.681 -2.518,-97.522c-22.627,-64.704 -40.177,-255.502 -46.269,-322.338l4.623,-141.442Z" style="fill:#191312;"/>
            <path d="M4794.29,585.299c3.364,12.351 114.09,32.247 194.069,25.045c23.617,-2.126 44.552,-6.616 59.251,-14.359c2.356,-1.242 -26.251,-396.904 -61.802,-398.663c-24.1,-1.192 -129.787,-12.454 -157.32,40.211c-57.951,110.85 -34.089,346.792 -34.198,347.766Z" style="fill:#fff5f3;"/>
            <path d="M4937.01,244.555c3.317,3.098 20.791,12.833 23.666,11.948c2.876,-0.885 12.608,-25.445 17.253,-30.534c4.645,-5.089 11.308,-46.757 -8.157,-44.324c-19.464,2.434 -43.822,32.154 -43.379,46.537c0.442,14.382 7.299,13.275 10.617,16.373Z" style="fill:#d3d3d3;"/>
            <path d="M4919.65,244.555c-3.318,3.098 -20.791,12.833 -23.667,11.948c-2.875,-0.885 -14.794,-28.179 -19.438,-33.268c-4.645,-5.089 -15.679,-32.214 3.785,-29.78c19.464,2.434 50.379,20.344 49.937,34.727c-0.443,14.382 -7.299,13.275 -10.617,16.373Z" style="fill:#d3d3d3;"/>
            <path d="M4977.91,177.587c-0.71,7.199 -98.311,7.21 -102.448,7.332c-4.781,0.142 -8.3,-10.299 -7.422,-16.274c1.216,-8.279 111.761,-28.495 111.627,-7.082c-0.074,11.844 -1.237,10.742 -1.757,16.024Z" style="fill:#fcb777;"/>
            <path d="M4972.68,172.776c1.816,0.227 11.218,11.469 16.387,12.25c18.356,2.773 63.908,3.004 69.55,2.198c7.23,-1.034 21.439,10.216 30.219,12.283c8.781,2.067 82.693,-18.017 88.374,-19.05c5.681,-1.033 3.099,-12.917 17.56,-15.5c14.462,-2.583 85.264,-73.217 85.264,-73.217c0,0 37.809,37.616 45.099,54.867c6.374,15.084 -27.818,30.805 -59.022,66.4c-6.541,7.462 -34.663,14.25 -50.121,39.417c-13.254,21.578 -6.747,15.566 -49.615,29.516c-42.868,13.95 -57.518,42.692 -57.287,64.447c0.05,4.706 -8.252,59.788 -7.508,79.641c0.746,19.904 30.74,203.045 30.74,218.803c0,22.217 -56.75,30.293 -89.352,-17.911c-32.508,-48.065 -56.813,-223.113 -57.329,-232.93c-0.517,-9.816 -7.173,-149.169 -5.682,-164.3c3.616,-36.683 -15.54,-57.948 -7.277,-56.914Z" style="fill:#191312;"/>
            <path d="M5280.33,116.395c-3.506,-6.547 -7.244,-17.514 -1.207,-24.46c6.037,-6.945 12.074,-17.514 17.508,-18.722c5.433,-1.208 25.847,5.852 30.375,16.118c4.528,10.267 4.83,19.326 3.32,21.742c-1.509,2.416 9.056,5.738 6.339,8.455c-2.716,2.718 -21.224,21.648 -23.036,23.46c-1.811,1.812 -28.771,-18.138 -33.299,-26.593Z" style="fill:#fff5f3;"/>
            <path d="M5326.78,109.865c-4.979,-3.244 -31.386,-22.603 -30.747,-31.55c0.639,-8.946 7.263,-10.952 8.221,-13.828c0.958,-2.876 2.969,-13.355 6.791,-18.68c5.124,-7.14 -0.027,-8.333 7.191,-17.206c5.461,-6.712 3.807,-18.088 5.256,-22.912c0.85,-2.827 2.358,-5.651 5.448,-5.689c2.431,-0.03 5.649,2.112 8.022,5.282c7.697,10.283 2.896,17.404 1.056,19.858c-1.839,2.454 -2.311,6.785 -2.066,7.276c0.245,0.491 10.17,-0.509 12.133,0.227c1.962,0.736 10.435,-0.877 14.728,0.84c4.293,1.718 6.378,6.503 6.501,8.221c0.122,1.718 0.245,4.38 2.207,6.466c1.963,2.086 4.906,5.031 3.557,7.853c-1.349,2.822 -3.066,6.38 -2.208,8.22c0.859,1.841 2.699,4.295 1.472,7.362c-1.226,3.068 -1.662,10.883 -3.134,12.356c-1.472,1.472 -10.446,7.622 -12.086,8.524c-11.277,6.205 -18.452,3.195 -25.598,10.179c-1.256,1.228 -6.246,7.526 -6.744,7.201Z" style="fill:#fda37c;"/>
            <path d="M4879.5,173.088c-1.816,0.227 -7.974,11.157 -13.143,11.938c-18.357,2.773 -44.163,-6.557 -49.805,-7.363c-7.231,-1.034 -19.075,-1.189 -29.921,7.077c-10.846,8.267 -23.567,12.952 -32.348,15.019c-8.78,2.067 -53.388,-7.269 -59.069,-8.302c-5.682,-1.033 -3.099,-12.917 -17.561,-15.5c-14.461,-2.583 -22.209,-26.867 -38.736,-29.967c-16.528,-3.1 -63.528,-54.25 -63.528,-54.25c0,0 -57.846,40.817 -50.098,57.867c7.747,17.05 72.824,66.65 79.022,74.4c6.197,7.75 10.329,23.25 35.12,28.417c24.792,5.166 7.748,17.566 50.616,31.516c42.868,13.95 67.89,23.196 67.659,44.95c-0.05,4.707 -5.307,77.285 -6.051,97.138c-0.746,19.904 -28.553,203.045 -28.553,218.803c0,22.217 56.749,30.293 89.351,-17.911c32.508,-48.065 56.813,-223.113 57.33,-232.93c0.516,-9.816 7.172,-149.169 5.681,-164.3c-3.615,-36.683 12.297,-57.635 4.034,-56.602Z" style="fill:#191312;"/>
            <path d="M4575.09,116.395c3.506,-6.547 7.245,-17.514 1.208,-24.46c-6.038,-6.945 -12.075,-17.514 -17.508,-18.722c-5.434,-1.208 -23.847,7.852 -28.375,18.118c-4.528,10.267 -4.83,19.326 -3.321,21.742c1.509,2.416 -9.056,5.738 -6.339,8.455c2.717,2.718 20.225,22.648 22.036,24.46c1.811,1.812 27.771,-21.138 32.299,-29.593Z" style="fill:#fff5f3;"/>
            <path d="M4530.64,111.865c4.978,-3.244 29.385,-24.603 28.747,-33.55c-0.639,-8.946 -9.263,-13.952 -10.221,-16.828c-0.959,-2.876 0,-13.207 -4.792,-17.68c-4.791,-4.473 -0.267,-10.05 -9.191,-17.206c-5.46,-4.379 -6.806,-15.088 -8.256,-19.912c-1.45,-4.824 -8.073,-12.063 -13.47,-0.407c-5.396,11.656 1.104,18.404 2.944,20.858c1.84,2.454 3.312,4.785 3.066,5.276c-0.245,0.491 -4.17,0.491 -6.132,1.227c-1.963,0.736 -16.436,0.123 -20.729,1.84c-4.292,1.718 -6.377,6.503 -6.5,8.221c-0.123,1.718 -0.245,6.38 -2.208,8.466c-1.962,2.086 -4.906,5.031 -3.557,7.853c1.349,2.822 3.067,6.38 2.208,8.22c-0.859,1.841 -2.698,4.295 -1.472,7.362c1.227,3.068 0.491,5.89 0,7.485c-0.49,1.595 3.663,5.398 5.134,6.871c1.472,1.472 8.446,5.622 10.086,6.524c11.278,6.205 20.452,1.195 27.599,8.179c1.256,1.228 6.246,7.526 6.744,7.201Z" style="fill:#fda37c;"/>
            <path d="M4914.47,255.04c-2.449,-3.671 -6.208,-13.181 -7.98,-16.017c-2.212,-3.54 7.52,-15.267 17.474,-17.037c9.953,-1.77 37.38,-0.221 23.003,18.808c-3.148,4.166 -11.502,13.497 -13.935,15.709c-0.081,0.074 -0.173,0.142 -0.275,0.206c2.637,7.13 8.466,22.006 9.442,25.716c1.178,4.476 26.004,312.837 28.359,325.086c1.316,6.848 -40.174,65.548 -48.925,54.059c-7.013,-9.208 -37.023,-45.317 -36.919,-48.641c0.235,-7.538 21.221,-326.028 22.634,-329.326c1.084,-2.53 4.664,-20.316 7.122,-28.563Z" style="fill:#ffb800;"/>
            <path d="M4918.74,231.501c0,0 -14.598,19.028 -21.897,21.683c-7.299,2.655 -3.318,-10.178 -6.636,-19.692c-3.318,-9.514 -21.189,-27.663 -14.996,-45.364c6.193,-17.702 12.784,21.689 19.42,27.442c6.635,5.752 23.888,13.939 24.109,15.931Z" style="fill:#fff5f3;"/>
            <path d="M4937.9,231.501c0,0 14.599,19.028 21.898,21.683c7.299,2.655 3.317,-10.178 6.635,-19.692c3.318,-9.514 15.893,-29.823 9.7,-47.524c-6.193,-17.701 -7.488,23.849 -14.124,29.602c-6.635,5.752 -23.887,13.939 -24.109,15.931Z" style="fill:#fff5f3;"/>
            <path d="M4864,129.013c-3.748,0.931 -5.061,15.046 -1.523,19.692c3.539,4.647 1.744,23.392 11.2,27.276c3.835,1.575 -2.07,6.299 5.61,19.896c1.648,2.917 4.037,13.681 12.216,19.191c13.028,8.776 20.39,18.173 30.915,18.424c18.58,0.442 26.321,-8.187 31.409,-11.063c5.087,-2.877 15.683,-7.676 17.172,-27.216c1.005,-13.195 3.969,-3.332 1.769,-22.551c-0.201,-1.759 7.078,0.644 11.039,-10.942c2.625,-7.678 1.649,-15.227 2.976,-19.874c1.327,-4.646 2.875,-13.276 -2.875,-15.488c-5.751,-2.213 -7.742,-8.587 -9.511,-15.446c-1.77,-6.859 5.152,-52.609 -52.03,-50.865c-42.688,1.302 -56.959,19.759 -56.989,47.371c-0.008,6.991 -0.368,21.344 -1.378,21.595Z" style="fill:#fe7f49;"/>
            <path d="M4884.64,84.338c-16.864,12.23 -9.737,52.445 -9.683,58.286c0.101,10.983 10.611,29.728 20.067,33.612c3.835,1.575 9.061,16.14 26.845,15.55c18.723,-0.621 24.337,-9.622 28.125,-14.144c2.177,-2.599 23.669,-17.43 22.827,-41.836c-1.226,-35.595 8.258,-70.907 -23.185,-60.669c-40.289,13.119 -54.559,1.632 -64.996,9.201Z" style="fill:#ff8c5a;"/>
            <path d="M4895.01,100.318c1.909,-0.166 3.593,1.249 3.759,3.159c0.165,1.909 -1.25,3.594 -3.158,3.76c-1.909,0.165 -3.593,-1.25 -3.759,-3.159c-0.166,-1.91 1.249,-3.595 3.158,-3.76Z" style="fill:#3f2d0c;"/>
            <path d="M4939.55,96.448c1.908,-0.165 3.593,1.25 3.758,3.159c0.166,1.91 -1.249,3.595 -3.158,3.76c-1.908,0.166 -3.592,-1.249 -3.758,-3.159c-0.166,-1.909 1.249,-3.594 3.158,-3.76Z" style="fill:#3f2d0c;"/>
            <path d="M4957.99,73.51c-31.67,-9.436 -68.32,-6.54 -82.743,10.42c-2.578,3.032 -1.447,33.079 -2.16,41.079c-0.901,10.107 -6.104,3.034 -0.655,26.645c1.001,4.338 -2.524,5.541 -4.739,0.468c-1.12,-2.564 -3.218,-8.735 -7.286,-8.615c-4.7,0.139 -4.14,-9.505 -3.277,-15.379c1.196,-8.14 4.508,-11.893 5.481,-18.635c0.793,-5.501 0.981,-23.882 -1.48,-24.442c-21.14,-4.806 -1.679,-38.66 62.155,-39.141c14.223,-0.107 31.846,11.319 40.615,21.063c4.632,5.146 20.362,-0.081 12.085,14.579c-0.745,1.319 10.901,7.936 4.264,27.915c-2.244,6.756 9.62,-3.873 8.565,22.319c-0.286,7.106 -13.532,4.627 -12.648,9.273c0.885,4.647 1.106,12.391 -2.212,11.284c-3.317,-1.106 -6.635,-11.948 -5.972,-18.143c0.664,-6.195 -6.791,-49.802 -4.174,-53.862c3.961,-6.147 2.283,-4.413 -5.819,-6.828Z" style="fill:#fcb777;"/>
            <path d="M4926.48,144.318c1.465,-4.036 -2.068,-4.452 -3.023,-9.699c-0.956,-5.247 -5.719,-7.922 -10.011,-7.126c-4.291,0.796 -4.455,5.381 -4.295,10.152c0.161,4.77 -2.267,6.123 -0.792,7.633c2.147,2.198 0.814,8.878 6.378,8.876c5.563,-0.002 8.089,-2.838 8.406,-5.224c0.317,-2.385 2.702,-2.863 3.337,-4.612Z" style="fill:#3f2d0c;"/>
            <clipPath id="_clip5">
                <path d="M4926.48,144.318c1.465,-4.036 -2.068,-4.452 -3.023,-9.699c-0.956,-5.247 -5.719,-7.922 -10.011,-7.126c-4.291,0.796 -4.455,5.381 -4.295,10.152c0.161,4.77 -2.267,6.123 -0.792,7.633c2.147,2.198 0.814,8.878 6.378,8.876c5.563,-0.002 8.089,-2.838 8.406,-5.224c0.317,-2.385 2.702,-2.863 3.337,-4.612Z"/>
            </clipPath>
            <g clip-path="url(#_clip5)">
                <path d="M4924.15,147.999c2.844,0.526 -1.279,8.55 -8.97,8.267c-7.691,-0.282 -7.409,-7.834 -2.709,-8.69c4.7,-0.857 9.756,0.068 11.679,0.423ZM4908.48,134.327c2.564,0.497 11.916,1.349 16.568,-0.077c4.653,-1.426 2.997,-10.331 -7.962,-8.475c-10.958,1.856 -11.17,8.054 -8.606,8.552Z" style="fill:#eddbd9;"/>
            </g>
        </g>
    </g>
</svg>
