<?xml version="1.0" encoding="UTF-8" standalone="no"?>
<!DOCTYPE svg PUBLIC "-//W3C//DTD SVG 1.1//EN" "http://www.w3.org/Graphics/SVG/1.1/DTD/svg11.dtd">
<svg width="2256px" height="1037px" version="1.1" xmlns="http://www.w3.org/2000/svg" xmlns:xlink="http://www.w3.org/1999/xlink" xml:space="preserve" style="fill-rule:evenodd;clip-rule:evenodd;stroke-linejoin:round;stroke-miterlimit:1.41421;">
    <clipPath id="_clip1">
        <rect id="hillary-sprite" x="0" y="0" width="2256" height="1037"/>
    </clipPath>
    <g clip-path="url(#_clip1)">
        <g>
            <path d="M48.664,95.672c-0.321,-6.739 -0.574,-10.601 3.011,-14.182c3.584,-3.581 14.194,-18.049 15.341,-22.489c1.147,-4.441 0.86,-11.46 2.007,-13.609c1.147,-2.149 0.86,-9.024 2.868,-10.887c2.007,-1.862 4.301,-7.019 0.573,-7.592c-3.728,-0.573 -5.448,2.722 -5.592,1.433c-0.143,-1.289 0.144,-12.176 -1.72,-16.76c-1.864,-4.584 -6.452,-5.73 -7.742,-2.578c-1.291,3.151 0,-2.292 -1.721,-5.873c-1.72,-3.582 -5.305,-1.719 -6.452,1.289c-1.147,3.008 -2.724,-1.862 -5.735,1.719c-3.011,3.581 -3.728,9.597 -4.158,11.603c-0.43,2.005 -0.143,-2.006 -3.154,-1.003c-3.011,1.003 -5.161,7.305 -6.308,11.46c-1.147,4.154 -6.452,16.33 -8.603,22.059c-2.151,5.73 -3.728,19.625 -2.294,24.209c1.434,4.584 -1.004,24.209 -1.29,27.36c-0.287,3.152 -2.868,27.217 -3.155,30.941c-0.286,3.725 34.124,8.882 34.554,3.725c0.43,-5.157 -0.287,-37.817 -0.43,-40.825Z" style="fill:#efb69a;"/>
            <path d="M48.664,95.672c-0.321,-6.739 -0.513,-10.541 3.011,-14.182c7.289,-7.53 1.672,-4.494 -5.12,-4.407c-7.598,0.098 -8.733,-13.83 -4.022,-22.142c3.664,-6.466 12.763,-7.243 12.878,-10.149c1.147,-29.149 -21.685,1.245 -16.769,7.401c4.704,5.89 -4.994,19.553 -5.734,28.638c-0.256,3.154 -4.068,48.217 -4.355,51.941c-0.287,3.725 20.111,8.882 20.541,3.725c0.43,-5.157 -0.287,-37.817 -0.43,-40.825Z" style="fill:#e7a788;"/>
            <path d="M266.168,1027.84c-2.64,0.138 -2.402,-7.02 -2.634,-11.406c-0.782,-14.774 -5.26,-16.45 -7.236,-21.714c-1.976,-5.263 -6.375,-15.791 -0.228,-18.643c6.147,-2.851 13.611,18.424 18.66,22.811c5.049,4.386 41.649,12.195 46.259,11.756c4.61,-0.439 10.432,2.895 8.623,10.177c-1.59,6.4 2.257,13.283 -11.389,15.924c-4.026,0.779 -27.108,-0.272 -32.376,-2.685c-5.269,-2.413 -5.952,-10.664 -9.141,-18.284c-3.926,-9.378 -6.771,-8.422 -6.806,-3.509c-0.026,3.617 0.439,15.353 -3.732,15.573Z" style="fill:#797979;"/>
            <path d="M124.024,1027c2.643,0.076 2.965,-3.088 3.197,-9.72c0.517,-14.786 4.347,-17.152 6.322,-22.416c1.976,-5.264 6.375,-15.932 0.229,-18.784c-6.147,-2.851 -13.611,18.424 -18.66,22.811c-5.05,4.386 -32.868,12.195 -37.479,11.756c-4.61,-0.439 -12.399,6.404 -10.59,13.686c1.59,6.401 -2.818,9.633 12.513,9.607c4.102,-0.007 27.863,0.228 33.22,-1.983c4.144,-1.71 4.322,-8.446 5.629,-12.107c1.791,-5.018 2.695,-3.65 2.73,1.264c0.026,3.617 0.123,5.807 2.889,5.886Z" style="fill:#797979;"/>
            <path d="M303.543,981.48c1.647,4.113 15.916,25.223 18.386,27.143c2.469,1.919 0.823,5.209 -8.507,5.209c-9.33,0 -47.473,-3.564 -49.943,-26.046c-2.47,-22.481 38.418,-10.418 40.064,-6.306Z" style="fill:#efb69a;"/>
            <path d="M95.079,981.48c-1.646,4.113 -15.915,25.223 -18.385,27.143c-2.47,1.919 -0.823,5.209 8.507,5.209c9.33,0 38.692,-3.564 41.161,-26.046c2.47,-22.481 -29.636,-10.418 -31.283,-6.306Z" style="fill:#efb69a;"/>
            <path d="M342.274,566.407c0,0 -22.633,161.325 -21.221,184.239c6.769,109.849 -17.774,175.223 -15.184,198.13c0.294,2.6 5.671,45.329 5.671,45.329l-61.103,0.365c0,0 -3.293,-40.942 -4.756,-48.253c-1.464,-7.311 -8.05,-156.822 -9.513,-166.327c-1.464,-9.504 -12.44,-36.555 -10.977,-48.253c1.464,-11.698 -11.146,-123.557 -11.146,-123.557c0,0 -13.564,25.575 -13.917,80.787c-0.296,46.508 -24.697,76.949 -29.087,131.965c-0.757,9.475 -8.487,87.733 -17.781,122.826c-9.295,35.093 -8.929,53.371 -8.929,53.371l-60.574,-3.655c0,0 13.924,-119.536 14.564,-159.382c0.376,-23.392 -1.921,-137.448 -5.579,-161.575c-3.659,-24.126 -12.44,-99.43 -10.977,-113.321c1.464,-13.891 260.509,7.311 260.509,7.311Z" style="fill:#0054a8;"/>
            <path d="M147.785,96.529c-1.294,-1.41 -2.05,-2.565 -2.023,-3.297c0.174,-4.69 -2.086,-27.27 -2.608,-32.48c-0.521,-5.211 21.992,-50.323 44.418,-55.708c22.426,-5.384 20.253,-5.731 23.556,-4.342c3.303,1.39 3.771,-1.482 7.997,0.521c1.956,0.927 3.797,3.453 5.337,6.647c3.354,0.213 4.836,2.358 5.703,1.864c8.513,-4.86 15.124,-4.994 31.987,3.691c16.864,8.684 26.947,34.995 29.207,44.721c2.26,9.727 -0.739,27.53 -1.087,31.004c-0.026,0.263 -1.121,3.732 -5.78,0.521c-1.295,-0.892 -0.46,42.568 -16.472,56.227c-35.204,30.031 -83.4,21.602 -86.532,21.326c-11.822,-1.043 -16.69,-12.853 -19.471,-21.885c-2.782,-9.032 -13.196,-9.532 -16.4,-18.464c-4.013,-11.187 -2.723,-21.426 2.168,-30.346Z" style="fill:#bb9758;"/>
            <path d="M247.622,140.689c-1.129,9.592 -3.964,25.581 1.302,29.391c5.266,3.81 -24.067,59.981 -24.825,60.114c-11.156,1.958 -17.84,1.04 -27.18,0.873c-0.611,-0.011 -28.693,-39.808 -17.752,-58.675c6.442,-11.11 -0.364,-23.176 -1.272,-27.893c-0.261,-1.358 -5.624,-14.1 -12.04,-27.531c-0.985,-2.061 -4.92,-3.873 -5.777,-5.943c-1.009,-2.437 0.221,-5.65 -0.624,-7.941c-4.012,-10.868 -6.991,-18.878 1.107,-19.036c9.879,-0.193 86.504,-7.318 107.154,4.412c3.568,2.027 2.048,9.851 -2.461,16.976c-1.29,2.039 -2.814,6.054 -4.087,8.325c-1.469,2.623 -3.699,2.643 -5.164,5.207c-5.848,10.234 -8.359,21.54 -8.381,21.721Z" style="fill:#e7a788;"/>
            <path d="M165.828,123.291c1.569,-0.784 -0.355,-7.885 -1.192,-9.174c-5.046,-7.773 -7.149,0.84 -6.659,3.782c0.491,2.941 2.594,6.863 3.926,6.863c1.331,0 3.785,-1.401 3.925,-1.471Z" style="fill:#d0ccc4;"/>
            <path d="M256.014,123.291c-1.569,-0.784 0.355,-7.885 1.191,-9.174c5.047,-7.773 7.15,0.84 6.659,3.782c-0.49,2.941 -2.593,6.863 -3.925,6.863c-1.332,0 -3.785,-1.401 -3.925,-1.471Z" style="fill:#d0ccc4;"/>
            <path d="M161.826,86.151c0.816,13.86 2.996,25.444 3.268,31.158c0.272,5.715 2.582,22.515 14.3,34.016c7.762,7.619 7.626,1.361 14.844,5.987c7.218,4.626 23.968,7.075 29.96,1.496c5.993,-5.578 11.031,-0.68 17.705,-9.116c6.673,-8.436 14.004,-12.924 14.299,-33.879c0.136,-9.661 3.859,-18.414 3.859,-25.217c0,-6.803 -6.94,-28.8 -10.617,-38.052c-3.677,-9.253 -18.572,-22.179 -25.246,-22.995c-6.673,-0.816 -12.937,3.538 -16.614,4.082c-3.677,0.544 -18.93,-2.585 -29.008,9.932c-10.077,12.518 -8.443,25.988 -8.988,28.982c-0.545,2.993 -8.035,8.98 -7.762,13.606Z" style="fill:#efb69a;"/>
            <ellipse cx="188.382" cy="85.879" rx="3.405" ry="3.402" style="fill:#3f2d0c;"/>
            <ellipse cx="232.233" cy="85.879" rx="3.405" ry="3.402" style="fill:#3f2d0c;"/>
            <path d="M272.754,74.545c-1.165,-25.178 -18.283,-21.454 -33.337,-34.726c-13.434,-11.844 -10.523,-25.884 -6.908,-28.222c6.656,-4.304 7.613,-12.694 27.903,-1.737c12.864,6.948 19.818,30.57 19.297,35.781c-0.18,1.792 -8.201,-1.43 -4.412,4.012c7.477,10.74 8.254,23.026 6.948,31.859c5.286,4.061 15.623,10.174 0.842,44.365c-2.493,5.768 -7.159,9.005 -5.721,1.882c5.368,-26.574 -26.334,-20.794 -28.023,-72.989c-0.064,-1.983 15.137,13.722 23.411,19.775ZM141.764,115.464c-2.998,-27.343 10.442,-24.631 9.747,-70.785c-0.732,-48.584 69.106,-45.425 73.305,-29.515c1.913,7.25 -7.992,2.197 -14.872,14.593c-4.546,8.19 -5.45,-3.038 -15.201,1.033c-23.607,9.857 -20.969,42.978 -24.571,34.514c-3.964,-9.313 0.106,-16.763 -5.246,-15.564c-7.2,1.611 -12.721,16.899 -7.791,32.117c0.732,-0.756 12.995,-12.848 13.052,-7.905c0.157,13.408 -19.47,13.663 -23.73,44.638c-1.254,9.122 -3.606,6.789 -4.693,-3.126Z" style="fill:#debe87;"/>
            <path d="M103.418,306.731c1.895,11.565 4.691,57.159 -0.432,76.168c-5.122,19.009 -21.221,97.968 -24.148,110.397c-2.927,12.429 0,80.422 0,80.422l272.217,0c0,0 -0.732,-62.875 -2.927,-73.842c-2.195,-10.966 -30.734,-95.775 -36.588,-108.935c-5.854,-13.16 -10.245,-42.404 -7.874,-78.853c2.371,-36.448 33.165,-108.057 25.897,-116.528c-17.606,-20.52 -77.089,-24.721 -77.758,-26.484c-4.019,-10.589 -5.602,-18.482 -6.029,-16.27c-1.744,9.018 -7.784,11.025 -21.205,14.887c-8.016,2.307 -3.515,21.323 -6.327,21.903c-0.721,0.149 -11.812,0.587 -12.487,0.278c-2.55,-1.17 1.58,-18.42 -6.665,-22.426c-12.697,-6.169 -17.707,-7.014 -18.499,-14.196c-0.266,-2.406 -2.399,0.441 -7.895,17.459c-0.837,2.593 -57.137,-6.805 -70.846,6.533c-4.539,4.415 0.987,125.955 1.566,129.487Z" style="fill:#0062c5;"/>
            <path d="M331.335,498.982c-0.296,7.127 -1.372,16.998 -3.292,20.836c-1.921,3.839 -10.154,21.66 -9.879,27.143c0.274,5.483 -1.921,17.272 -2.196,20.014c-0.274,2.742 -1.372,12.063 -0.823,13.434c0.549,1.371 9.605,3.29 12.074,-10.967c2.47,-14.256 2.196,1.371 1.647,3.839c-0.549,2.467 -0.823,9.321 -2.196,11.24c-1.372,1.92 -6.86,7.403 -6.86,9.87c0,2.468 1.647,4.661 4.116,4.387c2.47,-0.274 -1.896,2.753 0.802,4.909c2.697,2.156 6.924,-1.348 8.182,-2.066c1.259,-0.719 5.665,-5.121 6.744,-5.57c1.079,-0.45 5.755,-1.797 7.554,-3.774c1.798,-1.976 5.665,-10.601 7.013,-12.307c1.349,-1.707 5.306,-13.746 7.014,-17.249c1.709,-3.504 3.147,-16.441 2.248,-20.663c-0.899,-4.223 -3.777,-16.71 -3.327,-19.585c0.45,-2.875 1.888,-15.722 2.338,-19.765c0.45,-4.042 4.015,-45.477 4.454,-50.522c0.44,-5.045 -34.685,-4.825 -36.222,6.58c-1.537,11.405 0.78,36.127 0.609,40.216Z" style="fill:#efb69a;"/>
            <path d="M331.335,498.982c-0.296,7.127 -1.372,16.998 -3.292,20.836c-1.921,3.839 33.334,-4.067 33.784,-8.11c0.449,-4.042 4.682,-54.477 5.121,-59.522c0.44,-5.045 -34.685,-4.825 -36.222,6.58c-1.537,11.405 0.78,36.127 0.609,40.216Z" style="fill:#e7a788;"/>
            <path d="M49.396,114.141c0.552,52.387 6.804,73.697 12.806,72.014c7.96,-2.232 37.816,-13.545 44.821,-10.967c52.138,19.192 8.781,121.547 8.781,121.547c0,0 -0.565,-12.434 -14.981,-17.572c-41.693,-14.86 -101.225,-10.411 -100.821,-43.476c0.549,-44.963 3.451,-116.049 3.842,-121.546c0.103,-1.443 45.531,-2.062 45.552,0Z" style="fill:#0062c5;"/>
            <path d="M369.91,510.751c2.747,-9.983 6.586,-101.441 6.037,-111.311c-0.549,-9.87 -37.32,-188.808 -39.515,-195.936c-2.196,-7.129 -6.586,-8.774 -6.586,-8.774c0,0 -31.1,80.788 -30.551,125.751c0.15,12.3 13.902,51.99 15.736,71.41c4.873,51.569 9.042,114.867 9.327,118.86c0.102,1.443 45.005,1.988 45.552,0Z" style="fill:#0062c5;"/>
        </g>
        <g>
            <path d="M424.664,95.672c-0.321,-6.739 -0.574,-10.601 3.011,-14.182c3.584,-3.581 14.194,-18.049 15.341,-22.489c1.147,-4.441 0.86,-11.46 2.007,-13.609c1.147,-2.149 0.86,-9.024 2.868,-10.887c2.007,-1.862 4.301,-7.019 0.573,-7.592c-3.728,-0.573 -5.448,2.722 -5.592,1.433c-0.143,-1.289 0.144,-12.176 -1.72,-16.76c-1.864,-4.584 -6.452,-5.73 -7.742,-2.578c-1.291,3.151 0,-2.292 -1.721,-5.873c-1.72,-3.582 -5.305,-1.719 -6.452,1.289c-1.147,3.008 -2.724,-1.862 -5.735,1.719c-3.011,3.581 -3.728,9.597 -4.158,11.603c-0.43,2.005 -0.143,-2.006 -3.154,-1.003c-3.011,1.003 -5.161,7.305 -6.308,11.46c-1.147,4.154 -6.452,16.33 -8.603,22.059c-2.151,5.73 -3.728,19.625 -2.294,24.209c1.434,4.584 -1.004,24.209 -1.29,27.36c-0.287,3.152 -2.868,27.217 -3.155,30.941c-0.286,3.725 34.124,8.882 34.554,3.725c0.43,-5.157 -0.287,-37.817 -0.43,-40.825Z" style="fill:#efb69a;"/>
            <path d="M424.664,95.672c-0.321,-6.739 -0.513,-10.541 3.011,-14.182c7.289,-7.53 1.672,-4.494 -5.12,-4.407c-7.598,0.098 -8.733,-13.83 -4.022,-22.142c3.664,-6.466 12.763,-7.243 12.878,-10.149c1.147,-29.149 -21.685,1.245 -16.769,7.401c4.704,5.89 -4.994,19.553 -5.734,28.638c-0.256,3.154 -4.068,48.217 -4.355,51.941c-0.287,3.725 20.111,8.882 20.541,3.725c0.43,-5.157 -0.287,-37.817 -0.43,-40.825Z" style="fill:#e7a788;"/>
            <path d="M642.168,1027.84c-2.64,0.138 -2.402,-7.02 -2.634,-11.406c-0.782,-14.774 -5.26,-16.45 -7.236,-21.714c-1.976,-5.263 -6.375,-15.791 -0.228,-18.643c6.147,-2.851 13.611,18.424 18.66,22.811c5.049,4.386 41.649,12.195 46.259,11.756c4.61,-0.439 10.432,2.895 8.623,10.177c-1.59,6.4 2.257,13.283 -11.389,15.924c-4.026,0.779 -27.108,-0.272 -32.376,-2.685c-5.269,-2.413 -5.952,-10.664 -9.141,-18.284c-3.926,-9.378 -6.771,-8.422 -6.806,-3.509c-0.026,3.617 0.439,15.353 -3.732,15.573Z" style="fill:#797979;"/>
            <path d="M500.024,1027c2.643,0.076 2.965,-3.088 3.197,-9.72c0.517,-14.786 4.347,-17.152 6.322,-22.416c1.976,-5.264 6.375,-15.932 0.229,-18.784c-6.147,-2.851 -13.611,18.424 -18.66,22.811c-5.05,4.386 -32.868,12.195 -37.479,11.756c-4.61,-0.439 -12.399,6.404 -10.59,13.686c1.59,6.401 -2.818,9.633 12.513,9.607c4.102,-0.007 27.863,0.228 33.22,-1.983c4.144,-1.71 4.322,-8.446 5.629,-12.107c1.791,-5.018 2.695,-3.65 2.73,1.264c0.026,3.617 0.123,5.807 2.889,5.886Z" style="fill:#797979;"/>
            <path d="M679.543,981.48c1.647,4.113 15.916,25.223 18.386,27.143c2.469,1.919 0.823,5.209 -8.507,5.209c-9.33,0 -47.473,-3.564 -49.943,-26.046c-2.47,-22.481 38.418,-10.418 40.064,-6.306Z" style="fill:#efb69a;"/>
            <path d="M471.079,981.48c-1.646,4.113 -15.915,25.223 -18.385,27.143c-2.47,1.919 -0.823,5.209 8.507,5.209c9.33,0 38.692,-3.564 41.161,-26.046c2.47,-22.481 -29.636,-10.418 -31.283,-6.306Z" style="fill:#efb69a;"/>
            <path d="M718.274,566.407c0,0 -22.633,161.325 -21.221,184.239c6.769,109.849 -17.774,175.223 -15.184,198.13c0.294,2.6 5.671,45.329 5.671,45.329l-61.103,0.365c0,0 -3.293,-40.942 -4.756,-48.253c-1.464,-7.311 -8.05,-156.822 -9.513,-166.327c-1.464,-9.504 -12.44,-36.555 -10.977,-48.253c1.464,-11.698 -11.146,-123.557 -11.146,-123.557c0,0 -13.564,25.575 -13.917,80.787c-0.296,46.508 -24.697,76.949 -29.087,131.965c-0.757,9.475 -8.487,87.733 -17.781,122.826c-9.295,35.093 -8.929,53.371 -8.929,53.371l-60.574,-3.655c0,0 13.924,-119.536 14.564,-159.382c0.376,-23.392 -1.921,-137.448 -5.579,-161.575c-3.659,-24.126 -12.44,-99.43 -10.977,-113.321c1.464,-13.891 260.509,7.311 260.509,7.311Z" style="fill:#0054a8;"/>
            <path d="M524.351,99.124c-1.723,-0.718 -2.721,-1.437 -2.695,-2.119c0.173,-4.69 -2.087,-27.269 -2.608,-32.48c-0.522,-5.211 19.99,-51.323 42.416,-56.707c22.426,-5.385 33.082,-7.325 37.308,-5.322c1.956,0.927 2.546,4.453 4.086,7.647c3.353,0.213 6.338,1.609 7.204,1.114c8.513,-4.86 11.121,-7.743 27.984,0.941c16.863,8.685 26.946,42.995 29.206,52.721c2.26,9.727 -0.739,29.53 -1.086,33.004c-0.027,0.263 -1.121,3.732 -5.781,0.521c-1.157,-0.797 -3.352,0.008 -6.172,1.434c8.016,18.135 6.432,34.521 -10.299,48.794c-35.205,30.03 -83.4,21.601 -86.533,21.325c-11.822,-1.042 -16.689,-12.853 -19.471,-21.885c-2.781,-9.032 -13.196,-9.532 -16.399,-18.464c-4.191,-11.683 -2.599,-21.332 2.84,-30.524Z" style="fill:#bb9758;"/>
            <path d="M623.516,136.109c-1.13,9.592 -3.964,30.161 1.301,33.971c5.266,3.81 -24.067,59.981 -24.824,60.114c-11.157,1.958 -17.84,1.04 -27.18,0.873c-0.612,-0.011 -30.888,-39.808 -19.948,-58.675c6.442,-11.11 1.832,-27.756 0.924,-32.473c-0.261,-1.358 -5.625,-6.327 -12.041,-19.757c-0.985,-2.062 -4.92,-3.874 -5.777,-5.944c-1.009,-2.436 0.222,-5.65 -0.624,-7.941c-0.934,-2.531 2.724,-19.1 3.941,-19.159c14.814,-0.721 65.95,-7.101 92.949,-1.348c3.71,0.79 13.939,11.661 11.988,16.771c-0.764,2 -1.809,4.085 -3.077,6.088c-1.291,2.039 -2.814,6.054 -4.087,8.325c-1.47,2.623 -3.699,2.643 -5.165,5.207c-5.847,10.235 -8.359,13.767 -8.38,13.948Z" style="fill:#e7a788;"/>
            <path d="M541.721,124.484c1.569,-0.783 -0.355,-7.885 -1.191,-9.174c-5.047,-7.773 -7.15,0.841 -6.659,3.782c0.491,2.941 2.593,6.863 3.925,6.863c1.332,0 3.785,-1.401 3.925,-1.471Z" style="fill:#d0ccc4;"/>
            <path d="M631.907,124.484c-1.568,-0.783 0.355,-7.885 1.192,-9.174c5.047,-7.773 7.149,0.841 6.659,3.782c-0.491,2.941 -2.594,6.863 -3.925,6.863c-1.332,0 -3.785,-1.401 -3.926,-1.471Z" style="fill:#d0ccc4;"/>
            <path d="M539.721,89.571c0.816,13.86 0.994,16.67 1.267,22.385c0.272,5.715 2.582,23.514 14.299,35.016c7.763,7.619 7.626,1.36 14.844,5.986c7.218,4.627 23.969,7.076 29.961,1.497c5.992,-5.578 11.031,-0.68 17.704,-9.116c6.673,-8.436 14.004,-13.924 14.3,-34.88c0.136,-9.66 3.858,-9.64 3.858,-16.443c0,-6.803 -7.672,-33.8 -11.349,-43.052c-3.677,-9.253 -17.84,-22.179 -24.513,-22.995c-6.673,-0.816 -12.938,3.538 -16.615,4.082c-3.677,0.544 -18.929,-2.585 -29.007,9.932c-10.078,12.518 -10.445,20.988 -10.99,23.982c-0.545,2.993 -4.031,18.98 -3.759,23.606Z" style="fill:#efb69a;"/>
            <ellipse cx="564.275" cy="78.332" rx="3.405" ry="3.402" style="fill:#3f2d0c;"/>
            <ellipse cx="608.127" cy="78.332" rx="3.405" ry="3.402" style="fill:#3f2d0c;"/>
            <path d="M648.648,67.965c-1.166,-25.178 -18.534,-23.438 -33.588,-36.711c-13.433,-11.843 -10.272,-17.899 -6.657,-20.237c6.656,-4.304 7.261,-12.481 27.551,-1.523c12.865,6.947 20.17,30.356 19.648,35.567c-0.179,1.792 -8.2,-1.43 -4.411,4.012c7.476,10.74 8.254,20.026 6.947,28.859c5.287,4.061 15.624,10.174 0.843,44.365c-2.494,5.768 -7.16,9.005 -5.721,1.882c5.368,-26.574 -26.335,-23.794 -28.024,-75.988c-0.064,-1.984 15.137,13.721 23.412,19.774ZM517.657,112.884c-2.998,-27.343 10.442,-12.631 9.747,-58.785c-0.731,-48.584 69.107,-57.425 73.306,-41.515c1.913,7.25 -7.992,2.197 -14.873,14.593c-0.595,1.073 -1.128,1.761 -1.627,2.156c-3.307,2.62 -5.1,-6.661 -13.573,-3.123c-23.608,9.857 -23.972,42.978 -27.575,34.514c-3.964,-9.313 4.111,-17.763 -1.242,-16.564c-7.199,1.611 -13.722,14.899 -8.792,30.117c0.733,-0.756 11.994,-12.848 12.052,-7.905c0.138,11.818 -13.837,16.086 -20.369,37.505c-0.879,2.884 -1.855,8.458 -2.36,12.133c-1.254,9.122 -3.607,6.789 -4.694,-3.126Z" style="fill:#debe87;"/>
            <path d="M571.772,121.721c1.092,-1.314 4.249,-1.409 6.941,-2.425c2.095,-0.79 2.31,-2.231 3.461,-2.153c2.63,0.179 4.393,0.147 6.353,-0.037c0.99,-0.093 2.462,1.686 5.232,2.733c2.242,0.848 4.594,0.29 5.948,1.228c0.267,0.185 0.495,0.428 0.676,0.752c1.162,2.079 -6.861,5.054 -9.834,5.679c-2.973,0.625 -6.95,0.663 -9.277,0.135c-4.95,-1.124 -10.715,-4.45 -9.5,-5.912Z" style="fill:#751b20;"/>
            <path d="M479.418,306.731c1.895,11.565 4.691,57.159 -0.432,76.168c-5.122,19.009 -21.221,97.968 -24.148,110.397c-2.927,12.429 0,80.422 0,80.422l272.217,0c0,0 -0.732,-62.875 -2.927,-73.842c-2.195,-10.966 -30.734,-95.775 -36.588,-108.935c-5.854,-13.16 -10.245,-42.404 -7.874,-78.853c2.371,-36.448 33.165,-108.057 25.897,-116.528c-17.606,-20.52 -77.089,-24.721 -77.758,-26.484c-4.019,-10.589 -5.602,-18.482 -6.029,-16.27c-1.744,9.018 -7.784,11.025 -21.205,14.887c-8.016,2.307 -3.515,21.323 -6.327,21.903c-0.721,0.149 -11.812,0.587 -12.487,0.278c-2.55,-1.17 1.58,-18.42 -6.665,-22.426c-12.697,-6.169 -17.707,-7.014 -18.499,-14.196c-0.266,-2.406 -2.399,0.441 -7.895,17.459c-0.837,2.593 -57.137,-6.805 -70.846,6.533c-4.539,4.415 0.987,125.955 1.566,129.487Z" style="fill:#0062c5;"/>
            <path d="M707.335,498.982c-0.296,7.127 -1.372,16.998 -3.292,20.836c-1.921,3.839 -10.154,21.66 -9.879,27.143c0.274,5.483 -1.921,17.272 -2.196,20.014c-0.274,2.742 -1.372,12.063 -0.823,13.434c0.549,1.371 9.605,3.29 12.074,-10.967c2.47,-14.256 2.196,1.371 1.647,3.839c-0.549,2.467 -0.823,9.321 -2.196,11.24c-1.372,1.92 -6.86,7.403 -6.86,9.87c0,2.468 1.647,4.661 4.116,4.387c2.47,-0.274 -1.896,2.753 0.802,4.909c2.697,2.156 6.924,-1.348 8.182,-2.066c1.259,-0.719 5.665,-5.121 6.744,-5.57c1.079,-0.45 5.755,-1.797 7.554,-3.774c1.798,-1.976 5.665,-10.601 7.013,-12.307c1.349,-1.707 5.306,-13.746 7.014,-17.249c1.709,-3.504 3.147,-16.441 2.248,-20.663c-0.899,-4.223 -3.777,-16.71 -3.327,-19.585c0.45,-2.875 1.888,-15.722 2.338,-19.765c0.45,-4.042 4.015,-45.477 4.454,-50.522c0.44,-5.045 -34.685,-4.825 -36.222,6.58c-1.537,11.405 0.78,36.127 0.609,40.216Z" style="fill:#efb69a;"/>
            <path d="M707.335,498.982c-0.296,7.127 -1.372,16.998 -3.292,20.836c-1.921,3.839 33.334,-4.067 33.784,-8.11c0.449,-4.042 4.682,-54.477 5.121,-59.522c0.44,-5.045 -34.685,-4.825 -36.222,6.58c-1.537,11.405 0.78,36.127 0.609,40.216Z" style="fill:#e7a788;"/>
            <path d="M425.396,114.141c0.552,52.387 6.804,73.697 12.806,72.014c7.96,-2.232 37.816,-13.545 44.821,-10.967c52.138,19.192 8.781,121.547 8.781,121.547c0,0 -0.565,-12.434 -14.981,-17.572c-41.693,-14.86 -101.225,-10.411 -100.821,-43.476c0.549,-44.963 3.451,-116.049 3.842,-121.546c0.103,-1.443 45.531,-2.062 45.552,0Z" style="fill:#0062c5;"/>
            <path d="M745.91,510.751c2.747,-9.983 6.586,-101.441 6.037,-111.311c-0.549,-9.87 -37.32,-188.808 -39.515,-195.936c-2.196,-7.129 -6.586,-8.774 -6.586,-8.774c0,0 -31.1,80.788 -30.551,125.751c0.15,12.3 13.902,51.99 15.736,71.41c4.873,51.569 9.042,114.867 9.327,118.86c0.102,1.443 45.005,1.988 45.552,0Z" style="fill:#0062c5;"/>
        </g>
        <g>
            <path d="M800.664,95.672c-0.321,-6.739 -0.574,-10.601 3.011,-14.182c3.584,-3.581 14.194,-18.049 15.341,-22.489c1.147,-4.441 0.86,-11.46 2.007,-13.609c1.147,-2.149 0.86,-9.024 2.868,-10.887c2.007,-1.862 4.301,-7.019 0.573,-7.592c-3.728,-0.573 -5.448,2.722 -5.592,1.433c-0.143,-1.289 0.144,-12.176 -1.72,-16.76c-1.864,-4.584 -6.452,-5.73 -7.742,-2.578c-1.291,3.151 0,-2.292 -1.721,-5.873c-1.72,-3.582 -5.305,-1.719 -6.452,1.289c-1.147,3.008 -2.724,-1.862 -5.735,1.719c-3.011,3.581 -3.728,9.597 -4.158,11.603c-0.43,2.005 -0.143,-2.006 -3.154,-1.003c-3.011,1.003 -5.161,7.305 -6.308,11.46c-1.147,4.154 -6.452,16.33 -8.603,22.059c-2.151,5.73 -3.728,19.625 -2.294,24.209c1.434,4.584 -1.004,24.209 -1.29,27.36c-0.287,3.152 -2.868,27.217 -3.155,30.941c-0.286,3.725 34.124,8.882 34.554,3.725c0.43,-5.157 -0.287,-37.817 -0.43,-40.825Z" style="fill:#efb69a;"/>
            <path d="M800.664,95.672c-0.321,-6.739 -0.513,-10.541 3.011,-14.182c7.289,-7.53 1.672,-4.494 -5.12,-4.407c-7.598,0.098 -8.733,-13.83 -4.022,-22.142c3.664,-6.466 12.763,-7.243 12.878,-10.149c1.147,-29.149 -21.685,1.245 -16.769,7.401c4.704,5.89 -4.994,19.553 -5.734,28.638c-0.256,3.154 -4.068,48.217 -4.355,51.941c-0.287,3.725 20.111,8.882 20.541,3.725c0.43,-5.157 -0.287,-37.817 -0.43,-40.825Z" style="fill:#e7a788;"/>
            <path d="M1018.17,1027.84c-2.64,0.138 -2.402,-7.02 -2.634,-11.406c-0.782,-14.774 -5.26,-16.45 -7.236,-21.714c-1.976,-5.263 -6.375,-15.791 -0.228,-18.643c6.147,-2.851 13.611,18.424 18.66,22.811c5.049,4.386 41.649,12.195 46.259,11.756c4.61,-0.439 10.432,2.895 8.623,10.177c-1.59,6.4 2.257,13.283 -11.389,15.924c-4.026,0.779 -27.108,-0.272 -32.376,-2.685c-5.269,-2.413 -5.952,-10.664 -9.141,-18.284c-3.926,-9.378 -6.771,-8.422 -6.806,-3.509c-0.026,3.617 0.439,15.353 -3.732,15.573Z" style="fill:#797979;"/>
            <path d="M876.024,1027c2.643,0.076 2.965,-3.088 3.197,-9.72c0.517,-14.786 4.347,-17.152 6.322,-22.416c1.976,-5.264 6.375,-15.932 0.229,-18.784c-6.147,-2.851 -13.611,18.424 -18.66,22.811c-5.05,4.386 -32.868,12.195 -37.479,11.756c-4.61,-0.439 -12.399,6.404 -10.59,13.686c1.59,6.401 -2.818,9.633 12.513,9.607c4.102,-0.007 27.863,0.228 33.22,-1.983c4.144,-1.71 4.322,-8.446 5.629,-12.107c1.791,-5.018 2.695,-3.65 2.73,1.264c0.026,3.617 0.123,5.807 2.889,5.886Z" style="fill:#797979;"/>
            <path d="M1055.54,981.48c1.647,4.113 15.916,25.223 18.386,27.143c2.469,1.919 0.823,5.209 -8.507,5.209c-9.33,0 -47.473,-3.564 -49.943,-26.046c-2.47,-22.481 38.418,-10.418 40.064,-6.306Z" style="fill:#efb69a;"/>
            <path d="M847.079,981.48c-1.646,4.113 -15.915,25.223 -18.385,27.143c-2.47,1.919 -0.823,5.209 8.507,5.209c9.33,0 38.692,-3.564 41.161,-26.046c2.47,-22.481 -29.636,-10.418 -31.283,-6.306Z" style="fill:#efb69a;"/>
            <path d="M1094.27,566.407c0,0 -22.633,161.325 -21.221,184.239c6.769,109.849 -17.774,175.223 -15.184,198.13c0.294,2.6 5.671,45.329 5.671,45.329l-61.103,0.365c0,0 -3.293,-40.942 -4.756,-48.253c-1.464,-7.311 -8.05,-156.822 -9.513,-166.327c-1.464,-9.504 -12.44,-36.555 -10.977,-48.253c1.464,-11.698 -11.146,-123.557 -11.146,-123.557c0,0 -13.564,25.575 -13.917,80.787c-0.296,46.508 -24.697,76.949 -29.087,131.965c-0.757,9.475 -8.487,87.733 -17.781,122.826c-9.295,35.093 -8.929,53.371 -8.929,53.371l-60.574,-3.655c0,0 13.924,-119.536 14.564,-159.382c0.376,-23.392 -1.921,-137.448 -5.579,-161.575c-3.659,-24.126 -12.44,-99.43 -10.977,-113.321c1.464,-13.891 260.509,7.311 260.509,7.311Z" style="fill:#0054a8;"/>
            <path d="M900.351,99.124c-1.723,-0.718 -2.721,-1.437 -2.695,-2.119c0.173,-4.69 -2.087,-27.269 -2.608,-32.48c-0.522,-5.211 19.99,-51.323 42.416,-56.707c22.426,-5.385 31.08,-7.325 35.306,-5.322c1.956,0.927 4.548,3.453 6.088,6.647c3.353,0.213 6.338,1.609 7.204,1.114c8.513,-4.86 11.121,-6.743 27.984,1.941c16.863,8.685 26.946,42.995 29.206,52.721c2.26,9.727 -0.739,29.53 -1.086,33.004c-0.027,0.263 -1.121,3.732 -5.781,0.521c-1.157,-0.797 -3.352,0.008 -6.172,1.434c8.016,18.135 6.432,34.521 -10.299,48.794c-35.205,30.03 -83.4,21.601 -86.533,21.325c-11.822,-1.042 -16.689,-12.853 -19.471,-21.885c-2.781,-9.032 -13.196,-9.532 -16.399,-18.464c-4.191,-11.683 -2.599,-21.332 2.84,-30.524Z" style="fill:#bb9758;"/>
            <path d="M999.516,135.109c-1.13,9.592 -3.964,31.161 1.301,34.971c5.266,3.81 -24.067,59.981 -24.824,60.114c-11.157,1.958 -17.84,1.04 -27.18,0.873c-0.612,-0.011 -30.888,-39.808 -19.948,-58.675c6.442,-11.11 1.832,-28.756 0.924,-33.473c-0.261,-1.358 -5.625,-4.327 -12.041,-17.757c-0.985,-2.062 -4.92,-3.874 -5.777,-5.944c-1.009,-2.436 0.222,-5.65 -0.624,-7.941c-0.934,-2.531 2.724,-19.1 3.941,-19.159c14.814,-0.721 65.95,-7.101 92.949,-1.348c3.71,0.79 13.939,11.661 11.988,16.771c-0.764,2 -1.809,4.085 -3.077,6.088c-1.291,2.039 -2.814,6.054 -4.087,8.325c-1.47,2.623 -3.699,1.643 -5.165,4.207c-5.847,10.235 -8.359,12.767 -8.38,12.948Z" style="fill:#e7a788;"/>
            <path d="M917.721,125.484c1.569,-0.783 -0.355,-7.885 -1.191,-9.174c-5.047,-7.773 -7.15,0.841 -6.659,3.782c0.491,2.941 2.593,6.863 3.925,6.863c1.332,0 3.785,-1.401 3.925,-1.471Z" style="fill:#d0ccc4;"/>
            <path d="M1007.91,125.484c-1.568,-0.783 0.355,-7.885 1.192,-9.174c5.047,-7.773 7.149,0.841 6.659,3.782c-0.491,2.941 -2.594,6.863 -3.925,6.863c-1.332,0 -3.785,-1.401 -3.926,-1.471Z" style="fill:#d0ccc4;"/>
            <path d="M915.721,85.571c0.816,13.86 0.994,16.67 1.267,22.385c0.272,5.715 2.582,23.514 14.299,35.016c7.763,7.619 7.626,1.36 14.844,5.986c7.218,4.627 23.969,7.076 29.961,1.497c5.992,-5.578 11.031,-0.68 17.704,-9.116c6.673,-8.436 14.004,-13.924 14.3,-34.88c0.136,-9.66 3.858,-9.64 3.858,-16.443c0,-6.803 -7.672,-31.8 -11.349,-41.052c-3.677,-9.253 -17.84,-21.179 -24.513,-21.995c-6.673,-0.816 -12.938,3.538 -16.615,4.082c-3.677,0.544 -18.929,-2.585 -29.007,9.932c-10.078,12.518 -10.445,17.988 -10.99,20.982c-0.545,2.993 -4.031,18.98 -3.759,23.606Z" style="fill:#efb69a;"/>
            <ellipse cx="940.275" cy="73.332" rx="3.405" ry="3.402" style="fill:#3f2d0c;"/>
            <ellipse cx="984.127" cy="73.332" rx="3.405" ry="3.402" style="fill:#3f2d0c;"/>
            <path d="M1024.65,64.965c-1.166,-25.178 -18.534,-23.438 -33.588,-36.711c-13.433,-11.843 -10.272,-17.899 -6.657,-20.237c6.656,-4.304 14.768,-7.231 27.551,-0.523c12.947,6.793 20.17,29.356 19.648,34.567c-0.179,1.792 -8.2,-1.43 -4.411,4.012c7.476,10.74 8.254,20.026 6.947,28.859c5.287,4.061 15.624,10.174 0.843,44.365c-2.494,5.768 -7.16,9.005 -5.721,1.882c5.368,-26.574 -26.335,-23.794 -28.024,-75.988c-0.064,-1.984 15.137,13.721 23.412,19.774ZM893.657,109.884c-2.998,-27.343 10.442,-14.631 9.747,-60.785c-0.731,-48.584 69.107,-52.925 73.306,-38.515c2.097,7.199 -7.992,2.197 -14.873,14.593c-4.546,8.19 -5.45,-6.038 -15.2,-1.967c-23.608,9.857 -23.972,40.978 -27.575,32.514c-3.964,-9.313 4.111,-17.763 -1.242,-16.564c-7.199,1.611 -13.722,14.899 -8.792,30.117c0.733,-0.756 11.994,-12.848 12.052,-7.905c0.138,11.818 -13.837,18.086 -20.369,39.505c-0.879,2.884 -1.855,8.458 -2.36,12.133c-1.254,9.122 -3.607,6.789 -4.694,-3.126Z" style="fill:#debe87;"/>
            <path d="M942.169,114.199c-0.338,-2.525 12.875,-7.871 14.476,-7.762c3.661,0.248 6.115,0.204 8.842,-0.052c1.379,-0.13 16.585,5.571 16.501,7.95c-0.174,4.971 -9.548,9.818 -13.686,10.688c-4.138,0.87 -11.067,0.923 -14.305,0.188c-6.888,-1.564 -11.478,-8.39 -11.828,-11.012Z" style="fill:#751b20;"/>
            <clipPath id="_clip2">
                <path d="M942.169,114.199c-0.338,-2.525 12.875,-7.871 14.476,-7.762c3.661,0.248 6.115,0.204 8.842,-0.052c1.379,-0.13 16.585,5.571 16.501,7.95c-0.174,4.971 -9.548,9.818 -13.686,10.688c-4.138,0.87 -11.067,0.923 -14.305,0.188c-6.888,-1.564 -11.478,-8.39 -11.828,-11.012Z"/>
            </clipPath>
            <g clip-path="url(#_clip2)">
                <path d="M953.6,110.919c-2.905,-0.537 -6.67,4.378 -4.464,3.951c1.362,-0.264 9.534,-1.51 11.19,-1.51c3.77,0 7.942,0.818 12.574,1.323c0.698,0.077 -4.039,-4.524 -7.008,-3.957c-3.784,0.723 -7.472,1.084 -12.292,0.193Z" style="fill:#fff;"/>
                <path d="M951.764,127.558c3.736,1.358 13.981,1.329 16.39,0.602c4.628,-1.396 1.326,-1.806 -1.205,-1.806c-2.531,0 -9.786,0.554 -11.593,0.072c-1.808,-0.481 -4.917,0.651 -3.592,1.132Z" style="fill:#fff;"/>
            </g>
            <path d="M855.418,306.731c1.895,11.565 4.691,57.159 -0.432,76.168c-5.122,19.009 -21.221,97.968 -24.148,110.397c-2.927,12.429 0,80.422 0,80.422l272.217,0c0,0 -0.732,-62.875 -2.927,-73.842c-2.195,-10.966 -30.734,-95.775 -36.588,-108.935c-5.854,-13.16 -10.245,-42.404 -7.874,-78.853c2.371,-36.448 33.165,-108.057 25.897,-116.528c-17.606,-20.52 -77.089,-24.721 -77.758,-26.484c-4.019,-10.589 -5.602,-18.482 -6.029,-16.27c-1.744,9.018 -7.784,11.025 -21.205,14.887c-8.016,2.307 -3.515,21.323 -6.327,21.903c-0.721,0.149 -11.812,0.587 -12.487,0.278c-2.55,-1.17 1.58,-18.42 -6.665,-22.426c-12.697,-6.169 -17.707,-7.014 -18.499,-14.196c-0.266,-2.406 -2.399,0.441 -7.895,17.459c-0.837,2.593 -57.137,-6.805 -70.846,6.533c-4.539,4.415 0.987,125.955 1.566,129.487Z" style="fill:#0062c5;"/>
            <path d="M1083.34,498.982c-0.296,7.127 -1.372,16.998 -3.292,20.836c-1.921,3.839 -10.154,21.66 -9.879,27.143c0.274,5.483 -1.921,17.272 -2.196,20.014c-0.274,2.742 -1.372,12.063 -0.823,13.434c0.549,1.371 9.605,3.29 12.074,-10.967c2.47,-14.256 2.196,1.371 1.647,3.839c-0.549,2.467 -0.823,9.321 -2.196,11.24c-1.372,1.92 -6.86,7.403 -6.86,9.87c0,2.468 1.647,4.661 4.116,4.387c2.47,-0.274 -1.896,2.753 0.802,4.909c2.697,2.156 6.924,-1.348 8.182,-2.066c1.259,-0.719 5.665,-5.121 6.744,-5.57c1.079,-0.45 5.755,-1.797 7.554,-3.774c1.798,-1.976 5.665,-10.601 7.013,-12.307c1.349,-1.707 5.306,-13.746 7.014,-17.249c1.709,-3.504 3.147,-16.441 2.248,-20.663c-0.899,-4.223 -3.777,-16.71 -3.327,-19.585c0.45,-2.875 1.888,-15.722 2.338,-19.765c0.45,-4.042 4.015,-45.477 4.454,-50.522c0.44,-5.045 -34.685,-4.825 -36.222,6.58c-1.537,11.405 0.78,36.127 0.609,40.216Z" style="fill:#efb69a;"/>
            <path d="M1083.34,498.982c-0.296,7.127 -1.372,16.998 -3.292,20.836c-1.921,3.839 33.334,-4.067 33.784,-8.11c0.449,-4.042 4.682,-54.477 5.121,-59.522c0.44,-5.045 -34.685,-4.825 -36.222,6.58c-1.537,11.405 0.78,36.127 0.609,40.216Z" style="fill:#e7a788;"/>
            <path d="M801.396,114.141c0.552,52.387 6.804,73.697 12.806,72.014c7.96,-2.232 37.816,-13.545 44.821,-10.967c52.138,19.192 8.781,121.547 8.781,121.547c0,0 -0.565,-12.434 -14.981,-17.572c-41.693,-14.86 -101.225,-10.411 -100.821,-43.476c0.549,-44.963 3.451,-116.049 3.842,-121.546c0.103,-1.443 45.531,-2.062 45.552,0Z" style="fill:#0062c5;"/>
            <path d="M1121.91,510.751c2.747,-9.983 6.586,-101.441 6.037,-111.311c-0.549,-9.87 -37.32,-188.808 -39.515,-195.936c-2.196,-7.129 -6.586,-8.774 -6.586,-8.774c0,0 -31.1,80.788 -30.551,125.751c0.15,12.3 13.902,51.99 15.736,71.41c4.873,51.569 9.042,114.867 9.327,118.86c0.102,1.443 45.005,1.988 45.552,0Z" style="fill:#0062c5;"/>
        </g>
        <g>
            <path d="M1176.66,95.672c-0.321,-6.739 -0.574,-10.601 3.011,-14.182c3.584,-3.581 14.194,-18.049 15.341,-22.489c1.147,-4.441 0.86,-11.46 2.007,-13.609c1.147,-2.149 0.86,-9.024 2.868,-10.887c2.007,-1.862 4.301,-7.019 0.573,-7.592c-3.728,-0.573 -5.448,2.722 -5.592,1.433c-0.143,-1.289 0.144,-12.176 -1.72,-16.76c-1.864,-4.584 -6.452,-5.73 -7.742,-2.578c-1.291,3.151 0,-2.292 -1.721,-5.873c-1.72,-3.582 -5.305,-1.719 -6.452,1.289c-1.147,3.008 -2.724,-1.862 -5.735,1.719c-3.011,3.581 -3.728,9.597 -4.158,11.603c-0.43,2.005 -0.143,-2.006 -3.154,-1.003c-3.011,1.003 -5.161,7.305 -6.308,11.46c-1.147,4.154 -6.452,16.33 -8.603,22.059c-2.151,5.73 -3.728,19.625 -2.294,24.209c1.434,4.584 -1.004,24.209 -1.29,27.36c-0.287,3.152 -2.868,27.217 -3.155,30.941c-0.286,3.725 34.124,8.882 34.554,3.725c0.43,-5.157 -0.287,-37.817 -0.43,-40.825Z" style="fill:#efb69a;"/>
            <path d="M1176.66,95.672c-0.321,-6.739 -0.513,-10.541 3.011,-14.182c7.289,-7.53 1.672,-4.494 -5.12,-4.407c-7.598,0.098 -8.733,-13.83 -4.022,-22.142c3.664,-6.466 12.763,-7.243 12.878,-10.149c1.147,-29.149 -21.685,1.245 -16.769,7.401c4.704,5.89 -4.994,19.553 -5.734,28.638c-0.256,3.154 -4.068,48.217 -4.355,51.941c-0.287,3.725 20.111,8.882 20.541,3.725c0.43,-5.157 -0.287,-37.817 -0.43,-40.825Z" style="fill:#e7a788;"/>
            <path d="M1394.17,1027.84c-2.64,0.138 -2.402,-7.02 -2.634,-11.406c-0.782,-14.774 -5.26,-16.45 -7.236,-21.714c-1.976,-5.263 -6.375,-15.791 -0.228,-18.643c6.147,-2.851 13.611,18.424 18.66,22.811c5.049,4.386 41.649,12.195 46.259,11.756c4.61,-0.439 10.432,2.895 8.623,10.177c-1.59,6.4 2.257,13.283 -11.389,15.924c-4.026,0.779 -27.108,-0.272 -32.376,-2.685c-5.269,-2.413 -5.952,-10.664 -9.141,-18.284c-3.926,-9.378 -6.771,-8.422 -6.806,-3.509c-0.026,3.617 0.439,15.353 -3.732,15.573Z" style="fill:#797979;"/>
            <path d="M1252.02,1027c2.643,0.076 2.965,-3.088 3.197,-9.72c0.517,-14.786 4.347,-17.152 6.322,-22.416c1.976,-5.264 6.375,-15.932 0.229,-18.784c-6.147,-2.851 -13.611,18.424 -18.66,22.811c-5.05,4.386 -32.868,12.195 -37.479,11.756c-4.61,-0.439 -12.399,6.404 -10.59,13.686c1.59,6.401 -2.818,9.633 12.513,9.607c4.102,-0.007 27.863,0.228 33.22,-1.983c4.144,-1.71 4.322,-8.446 5.629,-12.107c1.791,-5.018 2.695,-3.65 2.73,1.264c0.026,3.617 0.123,5.807 2.889,5.886Z" style="fill:#797979;"/>
            <path d="M1431.54,981.48c1.647,4.113 15.916,25.223 18.386,27.143c2.469,1.919 0.823,5.209 -8.507,5.209c-9.33,0 -47.473,-3.564 -49.943,-26.046c-2.47,-22.481 38.418,-10.418 40.064,-6.306Z" style="fill:#efb69a;"/>
            <path d="M1223.08,981.48c-1.646,4.113 -15.915,25.223 -18.385,27.143c-2.47,1.919 -0.823,5.209 8.507,5.209c9.33,0 38.692,-3.564 41.161,-26.046c2.47,-22.481 -29.636,-10.418 -31.283,-6.306Z" style="fill:#efb69a;"/>
            <path d="M1470.27,566.407c0,0 -22.633,161.325 -21.221,184.239c6.769,109.849 -17.774,175.223 -15.184,198.13c0.294,2.6 5.671,45.329 5.671,45.329l-61.103,0.365c0,0 -3.293,-40.942 -4.756,-48.253c-1.464,-7.311 -8.05,-156.822 -9.513,-166.327c-1.464,-9.504 -12.44,-36.555 -10.977,-48.253c1.464,-11.698 -11.146,-123.557 -11.146,-123.557c0,0 -13.564,25.575 -13.917,80.787c-0.296,46.508 -24.697,76.949 -29.087,131.965c-0.757,9.475 -8.487,87.733 -17.781,122.826c-9.295,35.093 -8.929,53.371 -8.929,53.371l-60.574,-3.655c0,0 13.924,-119.536 14.564,-159.382c0.376,-23.392 -1.921,-137.448 -5.579,-161.575c-3.659,-24.126 -12.44,-99.43 -10.977,-113.321c1.464,-13.891 260.509,7.311 260.509,7.311Z" style="fill:#0054a8;"/>
            <path d="M1276.35,99.124c-1.723,-0.718 -2.721,-1.437 -2.695,-2.119c0.173,-4.69 -2.087,-27.269 -2.608,-32.48c-0.522,-5.211 19.99,-51.323 42.416,-56.707c22.426,-5.385 32.081,-4.325 36.307,-2.322c1.956,0.927 3.547,1.453 5.087,4.647c3.353,0.213 6.338,1.609 7.204,1.114c8.513,-4.86 11.121,-7.743 27.984,0.941c16.863,8.685 26.946,42.995 29.206,52.721c2.26,9.727 -0.739,29.53 -1.086,33.004c-0.027,0.263 -1.121,3.732 -5.781,0.521c-1.157,-0.797 -3.352,0.008 -6.172,1.434c8.016,18.135 6.432,37.521 -10.299,51.794c-35.205,30.03 -83.4,21.601 -86.533,21.325c-11.822,-1.042 -16.689,-12.853 -19.471,-21.885c-2.781,-9.032 -13.196,-9.532 -16.399,-18.464c-4.191,-11.683 -2.599,-24.332 2.84,-33.524Z" style="fill:#bb9758;"/>
            <path d="M1375.52,134.109c-1.13,9.592 -3.964,32.161 1.301,35.971c5.266,3.81 -24.067,59.981 -24.824,60.114c-11.157,1.958 -17.84,1.04 -27.18,0.873c-0.612,-0.011 -30.888,-39.808 -19.948,-58.675c6.442,-11.11 1.832,-29.756 0.924,-34.473c-0.261,-1.358 -5.625,-3.327 -12.041,-16.757c-0.985,-2.062 -4.92,-3.874 -5.777,-5.944c-1.009,-2.436 0.222,-5.65 -0.624,-7.941c-0.934,-2.531 2.724,-22.1 3.941,-22.159c14.814,-0.721 65.95,-7.101 92.949,-1.348c3.71,0.79 13.939,14.661 11.988,19.771c-0.764,2 -1.809,4.085 -3.077,6.088c-1.291,2.039 -2.814,6.054 -4.087,8.325c-1.47,2.623 -3.699,2.643 -5.165,5.207c-5.847,10.235 -8.359,10.767 -8.38,10.948Z" style="fill:#e7a788;"/>
            <path d="M1293.72,124.484c1.569,-0.783 -0.355,-7.885 -1.191,-9.174c-5.047,-7.773 -7.15,0.841 -6.659,3.782c0.491,2.941 2.593,6.863 3.925,6.863c1.332,0 3.785,-1.401 3.925,-1.471Z" style="fill:#d0ccc4;"/>
            <path d="M1383.91,124.484c-1.568,-0.783 0.355,-7.885 1.192,-9.174c5.047,-7.773 7.149,0.841 6.659,3.782c-0.491,2.941 -2.594,6.863 -3.925,6.863c-1.332,0 -3.785,-1.401 -3.926,-1.471Z" style="fill:#d0ccc4;"/>
            <path d="M1291.72,79.571c0.816,13.86 0.994,16.67 1.267,22.385c0.272,5.715 2.582,23.514 14.299,35.016c7.763,7.619 7.626,1.36 14.844,5.986c7.218,4.627 23.969,7.076 29.961,1.497c5.992,-5.578 11.031,-0.68 17.704,-9.116c6.673,-8.436 14.004,-13.924 14.3,-34.88c0.136,-9.66 3.858,-9.64 3.858,-16.443c0,-6.803 -7.672,-23.8 -11.349,-33.052c-3.677,-9.253 -17.84,-22.179 -24.513,-22.995c-6.673,-0.816 -12.938,3.538 -16.615,4.082c-3.677,0.544 -18.929,-2.585 -29.007,9.932c-10.078,12.518 -10.445,18.988 -10.99,21.982c-0.545,2.993 -4.031,10.98 -3.759,15.606Z" style="fill:#efb69a;"/>
            <ellipse cx="1316.28" cy="68.332" rx="3.405" ry="3.402" style="fill:#3f2d0c;"/>
            <ellipse cx="1360.13" cy="68.332" rx="3.405" ry="3.402" style="fill:#3f2d0c;"/>
            <path d="M1400.65,63.965c-1.166,-25.178 -18.534,-23.438 -33.588,-36.711c-13.433,-11.843 -10.272,-16.899 -6.657,-19.237c6.656,-4.304 8.012,-7.981 28.302,2.977c12.864,6.947 19.419,24.856 18.897,30.067c-0.179,1.792 -8.2,-1.43 -4.411,4.012c7.476,10.74 8.254,20.026 6.947,28.859c5.287,4.061 15.624,10.174 0.843,44.365c-2.494,5.768 -7.16,9.005 -5.721,1.882c5.368,-26.574 -26.335,-23.794 -28.024,-75.988c-0.064,-1.984 15.137,13.721 23.412,19.774ZM1269.66,108.884c-2.998,-27.343 10.442,-16.631 9.747,-62.785c-0.731,-48.584 69.107,-50.425 73.306,-34.515c1.913,7.25 -7.992,0.197 -14.873,12.593c-4.546,8.19 -6.451,-4.788 -15.2,-0.967c-23.444,10.239 -24.973,37.978 -28.575,29.514c-3.965,-9.313 4.11,-17.763 -1.243,-16.564c-7.199,1.611 -12.721,14.899 -7.791,30.117c0.733,-0.756 11.994,-12.848 12.052,-7.905c0.138,11.818 -12.836,22.086 -19.368,43.505c-0.879,2.884 -2.856,6.458 -3.361,10.133c-1.254,9.122 -3.607,6.789 -4.694,-3.126Z" style="fill:#debe87;"/>
            <path d="M1315.57,107.957c-0.381,-2.855 13.557,-9.9 15.368,-9.777c4.138,0.281 7.385,1.939 10.998,0.942c3.941,-1.089 18.952,6.098 18.657,8.989c-0.57,5.595 -10.796,11.1 -15.474,12.084c-4.679,0.984 -12.513,1.044 -16.174,0.212c-7.789,-1.768 -12.978,-9.485 -13.375,-12.45Z" style="fill:#751b20;"/>
            <clipPath id="_clip3">
                <path d="M1315.57,107.957c-0.381,-2.855 13.557,-9.9 15.368,-9.777c4.138,0.281 7.385,1.939 10.998,0.942c3.941,-1.089 18.952,6.098 18.657,8.989c-0.57,5.595 -10.796,11.1 -15.474,12.084c-4.679,0.984 -12.513,1.044 -16.174,0.212c-7.789,-1.768 -12.978,-9.485 -13.375,-12.45Z"/>
            </clipPath>
            <g clip-path="url(#_clip3)">
                <path d="M1328.63,103.323c-3.23,-0.597 -7.415,5.868 -4.963,5.393c1.515,-0.294 10.599,-1.679 12.441,-1.679c4.191,0 8.829,0.91 13.979,1.472c0.776,0.084 -4.491,-6.03 -7.791,-5.4c-4.207,0.803 -8.307,1.205 -13.666,0.214Z" style="fill:#fff;"/>
                <path d="M1329.55,116.436c2.95,1.072 11.041,1.05 12.944,0.476c3.654,-1.103 1.047,-1.427 -0.952,-1.427c-1.999,0 -7.728,0.438 -9.156,0.057c-1.427,-0.38 -3.883,0.514 -2.836,0.894Z" style="fill:#fff;"/>
            </g>
            <path d="M1231.42,306.731c1.895,11.565 4.691,57.159 -0.432,76.168c-5.122,19.009 -21.221,97.968 -24.148,110.397c-2.927,12.429 0,80.422 0,80.422l272.217,0c0,0 -0.732,-62.875 -2.927,-73.842c-2.195,-10.966 -30.734,-95.775 -36.588,-108.935c-5.854,-13.16 -10.245,-42.404 -7.874,-78.853c2.371,-36.448 33.165,-108.057 25.897,-116.528c-17.606,-20.52 -77.089,-24.721 -77.758,-26.484c-4.019,-10.589 -5.602,-18.482 -6.029,-16.27c-1.744,9.018 -7.784,11.025 -21.205,14.887c-8.016,2.307 -3.515,21.323 -6.327,21.903c-0.721,0.149 -11.812,0.587 -12.487,0.278c-2.55,-1.17 1.58,-18.42 -6.665,-22.426c-12.697,-6.169 -17.707,-7.014 -18.499,-14.196c-0.266,-2.406 -2.399,0.441 -7.895,17.459c-0.837,2.593 -57.137,-6.805 -70.846,6.533c-4.539,4.415 0.987,125.955 1.566,129.487Z" style="fill:#0062c5;"/>
            <path d="M1459.34,498.982c-0.296,7.127 -1.372,16.998 -3.292,20.836c-1.921,3.839 -10.154,21.66 -9.879,27.143c0.274,5.483 -1.921,17.272 -2.196,20.014c-0.274,2.742 -1.372,12.063 -0.823,13.434c0.549,1.371 9.605,3.29 12.074,-10.967c2.47,-14.256 2.196,1.371 1.647,3.839c-0.549,2.467 -0.823,9.321 -2.196,11.24c-1.372,1.92 -6.86,7.403 -6.86,9.87c0,2.468 1.647,4.661 4.116,4.387c2.47,-0.274 -1.896,2.753 0.802,4.909c2.697,2.156 6.924,-1.348 8.182,-2.066c1.259,-0.719 5.665,-5.121 6.744,-5.57c1.079,-0.45 5.755,-1.797 7.554,-3.774c1.798,-1.976 5.665,-10.601 7.013,-12.307c1.349,-1.707 5.306,-13.746 7.014,-17.249c1.709,-3.504 3.147,-16.441 2.248,-20.663c-0.899,-4.223 -3.777,-16.71 -3.327,-19.585c0.45,-2.875 1.888,-15.722 2.338,-19.765c0.45,-4.042 4.015,-45.477 4.454,-50.522c0.44,-5.045 -34.685,-4.825 -36.222,6.58c-1.537,11.405 0.78,36.127 0.609,40.216Z" style="fill:#efb69a;"/>
            <path d="M1459.34,498.982c-0.296,7.127 -1.372,16.998 -3.292,20.836c-1.921,3.839 33.334,-4.067 33.784,-8.11c0.449,-4.042 4.682,-54.477 5.121,-59.522c0.44,-5.045 -34.685,-4.825 -36.222,6.58c-1.537,11.405 0.78,36.127 0.609,40.216Z" style="fill:#e7a788;"/>
            <path d="M1177.4,114.141c0.552,52.387 6.804,73.697 12.806,72.014c7.96,-2.232 37.816,-13.545 44.821,-10.967c52.138,19.192 8.781,121.547 8.781,121.547c0,0 -0.565,-12.434 -14.981,-17.572c-41.693,-14.86 -101.225,-10.411 -100.821,-43.476c0.549,-44.963 3.451,-116.049 3.842,-121.546c0.103,-1.443 45.531,-2.062 45.552,0Z" style="fill:#0062c5;"/>
            <path d="M1497.91,510.751c2.747,-9.983 6.586,-101.441 6.037,-111.311c-0.549,-9.87 -37.32,-188.808 -39.515,-195.936c-2.196,-7.129 -6.586,-8.774 -6.586,-8.774c0,0 -31.1,80.788 -30.551,125.751c0.15,12.3 13.902,51.99 15.736,71.41c4.873,51.569 9.042,114.867 9.327,118.86c0.102,1.443 45.005,1.988 45.552,0Z" style="fill:#0062c5;"/>
        </g>
        <g>
            <path d="M1552.66,95.672c-0.321,-6.739 -0.574,-10.601 3.011,-14.182c3.584,-3.581 14.194,-18.049 15.341,-22.489c1.147,-4.441 0.86,-11.46 2.007,-13.609c1.147,-2.149 0.86,-9.024 2.868,-10.887c2.007,-1.862 4.301,-7.019 0.573,-7.592c-3.728,-0.573 -5.448,2.722 -5.592,1.433c-0.143,-1.289 0.144,-12.176 -1.72,-16.76c-1.864,-4.584 -6.452,-5.73 -7.742,-2.578c-1.291,3.151 0,-2.292 -1.721,-5.873c-1.72,-3.582 -5.305,-1.719 -6.452,1.289c-1.147,3.008 -2.724,-1.862 -5.735,1.719c-3.011,3.581 -3.728,9.597 -4.158,11.603c-0.43,2.005 -0.143,-2.006 -3.154,-1.003c-3.011,1.003 -5.161,7.305 -6.308,11.46c-1.147,4.154 -6.452,16.33 -8.603,22.059c-2.151,5.73 -3.728,19.625 -2.294,24.209c1.434,4.584 -1.004,24.209 -1.29,27.36c-0.287,3.152 -2.868,27.217 -3.155,30.941c-0.286,3.725 34.124,8.882 34.554,3.725c0.43,-5.157 -0.287,-37.817 -0.43,-40.825Z" style="fill:#efb69a;"/>
            <path d="M1552.66,95.672c-0.321,-6.739 -0.513,-10.541 3.011,-14.182c7.289,-7.53 1.672,-4.494 -5.12,-4.407c-7.598,0.098 -8.733,-13.83 -4.022,-22.142c3.664,-6.466 12.763,-7.243 12.878,-10.149c1.147,-29.149 -21.685,1.245 -16.769,7.401c4.704,5.89 -4.994,19.553 -5.734,28.638c-0.256,3.154 -4.068,48.217 -4.355,51.941c-0.287,3.725 20.111,8.882 20.541,3.725c0.43,-5.157 -0.287,-37.817 -0.43,-40.825Z" style="fill:#e7a788;"/>
            <path d="M1770.17,1027.84c-2.64,0.138 -2.402,-7.02 -2.634,-11.406c-0.782,-14.774 -5.26,-16.45 -7.236,-21.714c-1.976,-5.263 -6.375,-15.791 -0.228,-18.643c6.147,-2.851 13.611,18.424 18.66,22.811c5.049,4.386 41.649,12.195 46.259,11.756c4.61,-0.439 10.432,2.895 8.623,10.177c-1.59,6.4 2.257,13.283 -11.389,15.924c-4.026,0.779 -27.108,-0.272 -32.376,-2.685c-5.269,-2.413 -5.952,-10.664 -9.141,-18.284c-3.926,-9.378 -6.771,-8.422 -6.806,-3.509c-0.026,3.617 0.439,15.353 -3.732,15.573Z" style="fill:#797979;"/>
            <path d="M1628.02,1027c2.643,0.076 2.965,-3.088 3.197,-9.72c0.517,-14.786 4.347,-17.152 6.322,-22.416c1.976,-5.264 6.375,-15.932 0.229,-18.784c-6.147,-2.851 -13.611,18.424 -18.66,22.811c-5.05,4.386 -32.868,12.195 -37.479,11.756c-4.61,-0.439 -12.399,6.404 -10.59,13.686c1.59,6.401 -2.818,9.633 12.513,9.607c4.102,-0.007 27.863,0.228 33.22,-1.983c4.144,-1.71 4.322,-8.446 5.629,-12.107c1.791,-5.018 2.695,-3.65 2.73,1.264c0.026,3.617 0.123,5.807 2.889,5.886Z" style="fill:#797979;"/>
            <path d="M1807.54,981.48c1.647,4.113 15.916,25.223 18.386,27.143c2.469,1.919 0.823,5.209 -8.507,5.209c-9.33,0 -47.473,-3.564 -49.943,-26.046c-2.47,-22.481 38.418,-10.418 40.064,-6.306Z" style="fill:#efb69a;"/>
            <path d="M1599.08,981.48c-1.646,4.113 -15.915,25.223 -18.385,27.143c-2.47,1.919 -0.823,5.209 8.507,5.209c9.33,0 38.692,-3.564 41.161,-26.046c2.47,-22.481 -29.636,-10.418 -31.283,-6.306Z" style="fill:#efb69a;"/>
            <path d="M1846.27,566.407c0,0 -22.633,161.325 -21.221,184.239c6.769,109.849 -17.774,175.223 -15.184,198.13c0.294,2.6 5.671,45.329 5.671,45.329l-61.103,0.365c0,0 -3.293,-40.942 -4.756,-48.253c-1.464,-7.311 -8.05,-156.822 -9.513,-166.327c-1.464,-9.504 -12.44,-36.555 -10.977,-48.253c1.464,-11.698 -11.146,-123.557 -11.146,-123.557c0,0 -13.564,25.575 -13.917,80.787c-0.296,46.508 -24.697,76.949 -29.087,131.965c-0.757,9.475 -8.487,87.733 -17.781,122.826c-9.295,35.093 -8.929,53.371 -8.929,53.371l-60.574,-3.655c0,0 13.924,-119.536 14.564,-159.382c0.376,-23.392 -1.921,-137.448 -5.579,-161.575c-3.659,-24.126 -12.44,-99.43 -10.977,-113.321c1.464,-13.891 260.509,7.311 260.509,7.311Z" style="fill:#0054a8;"/>
            <path d="M1649.41,112.187c0.808,-2.19 0.222,-9.5 0.248,-10.182c0.173,-4.69 -2.087,-27.269 -2.608,-32.48c-0.522,-5.211 21.991,-51.13 44.418,-56.514c22.426,-5.385 35.35,-9.368 39.643,0.576c3.353,0.213 5.336,0.358 6.202,-0.136c8.513,-4.861 11.872,-0.744 28.735,7.94c16.863,8.685 26.946,35.802 29.206,45.528c2.26,9.727 -0.739,27.53 -1.086,31.004c-0.027,0.263 -1.121,3.732 -5.781,0.521c-1.157,-0.797 -3.352,0.008 -6.172,1.434c8.016,18.135 6.432,40.521 -10.299,54.794c-35.205,30.03 -83.4,21.601 -86.533,21.325c-11.822,-1.042 -16.689,-12.853 -19.471,-21.885c-2.781,-9.032 -13.196,-9.532 -16.399,-18.464c-3.256,-9.078 -2.921,-15.831 -0.103,-23.461Z" style="fill:#bb9758;"/>
            <path d="M1751.52,134.109c-1.13,9.592 -3.964,32.161 1.301,35.971c5.266,3.81 -24.067,59.981 -24.824,60.114c-11.157,1.958 -17.84,1.04 -27.18,0.873c-0.612,-0.011 -30.888,-39.808 -19.948,-58.675c6.442,-11.11 1.832,-29.756 0.924,-34.473c-0.261,-1.358 -5.625,-5.327 -12.041,-18.757c-0.985,-2.062 -4.92,-0.874 -5.777,-2.944c-1.009,-2.436 0.222,-5.65 -0.624,-7.941c-0.934,-2.531 2.724,-22.1 3.941,-22.159c14.814,-0.721 65.95,-7.101 92.949,-1.348c3.71,0.79 13.939,14.661 11.988,19.771c-0.764,2 -1.809,4.085 -3.077,6.088c-1.291,2.039 -2.814,6.054 -4.087,8.325c-1.47,2.623 -3.699,-0.357 -5.165,2.207c-5.847,10.235 -8.359,12.767 -8.38,12.948Z" style="fill:#e7a788;"/>
            <path d="M1669.72,125.484c1.569,-0.783 -0.355,-7.885 -1.191,-9.174c-5.047,-7.773 -7.15,0.841 -6.659,3.782c0.491,2.941 2.593,6.863 3.925,6.863c1.332,0 3.785,-1.401 3.925,-1.471Z" style="fill:#d0ccc4;"/>
            <path d="M1759.91,125.484c-1.568,-0.783 0.355,-7.885 1.192,-9.174c5.047,-7.773 7.149,0.841 6.659,3.782c-0.491,2.941 -2.594,6.863 -3.925,6.863c-1.332,0 -3.785,-1.401 -3.926,-1.471Z" style="fill:#d0ccc4;"/>
            <path d="M1667.91,79.571c0.817,13.86 0.801,16.67 1.074,22.385c0.272,5.715 2.582,20.321 14.299,31.822c7.763,7.62 7.626,1.361 14.844,5.987c7.218,4.626 23.969,7.075 29.961,1.497c5.992,-5.579 11.031,-0.681 17.704,-9.116c6.673,-8.436 14.004,-10.731 14.3,-31.687c0.136,-9.66 3.858,-9.64 3.858,-16.443c0,-6.803 -7.672,-24.414 -11.349,-33.666c-3.677,-9.252 -17.84,-22.178 -24.513,-22.994c-6.673,-0.817 -12.938,3.537 -16.615,4.082c-3.677,0.544 -18.929,-2.586 -29.007,9.932c-10.078,12.518 -10.639,19.408 -11.184,22.401c-0.544,2.994 -3.644,11.174 -3.372,15.8Z" style="fill:#efb69a;"/>
            <ellipse cx="1692.28" cy="66.139" rx="3.405" ry="3.402" style="fill:#3f2d0c;"/>
            <ellipse cx="1736.13" cy="66.139" rx="3.405" ry="3.402" style="fill:#3f2d0c;"/>
            <path d="M1776.65,65.772c-1.166,-25.178 -13.553,-27.122 -30.411,-38.017c-7.579,-4.897 -16.376,-10.164 -12.761,-12.502c6.656,-4.305 11.637,-11.598 31.927,-0.64c12.865,6.947 18.721,23.623 18.199,28.834c-0.179,1.793 -8.2,-1.43 -4.411,4.013c7.476,10.739 8.254,16.446 6.947,25.279c5.287,4.06 16.482,10.173 1.701,44.365c-2.494,5.767 -8.018,9.004 -6.579,1.882c5.368,-26.574 -25.603,-26.644 -27.292,-78.838c-0.064,-1.983 14.405,19.571 22.68,25.624ZM1645.66,104.497c-2.998,-27.343 9.747,-18.045 9.747,-64.204c0,-38.349 65.989,-51.02 72.94,-25.86c1.997,7.227 -5.431,-1.459 -13.409,9.11c-5.644,7.477 -8.011,-5.963 -17.762,-1.892c-23.607,9.857 -23.896,36.764 -27.498,28.3c-3.964,-9.313 4.513,-16.686 -0.856,-15.565c-6.636,1.386 -10.529,13.827 -7.791,29.924c0.733,-0.756 12.995,-12.848 13.053,-7.905c0.138,11.818 -13.837,19.666 -20.369,41.086c-0.879,2.883 -2.856,6.457 -3.361,10.133c-1.254,9.121 -3.607,6.789 -4.694,-3.127Z" style="fill:#debe87;"/>
            <path d="M1690.52,101.677c-0.71,-6.795 12.799,-13.128 17.13,-12.751c4.331,0.376 7.261,0.486 10.462,-0.079c3.201,-0.564 19.713,5.511 19.525,13.036c-0.189,7.526 -11.298,11.863 -16.194,13.18c-4.896,1.317 -13.095,1.397 -16.926,0.284c-8.152,-2.367 -13.582,-9.7 -13.997,-13.67Z" style="fill:#751b20;"/>
            <clipPath id="_clip4">
                <path d="M1690.52,101.677c-0.71,-6.795 12.799,-13.128 17.13,-12.751c4.331,0.376 7.261,0.486 10.462,-0.079c3.201,-0.564 19.713,5.511 19.525,13.036c-0.189,7.526 -11.298,11.863 -16.194,13.18c-4.896,1.317 -13.095,1.397 -16.926,0.284c-8.152,-2.367 -13.582,-9.7 -13.997,-13.67Z"/>
            </clipPath>
            <g clip-path="url(#_clip4)">
                <path d="M1698.2,96.699c-0.974,1.752 -2.699,4.338 -1.615,5.052c1.085,0.715 4.797,-0.971 9.135,-0.971c4.339,0 16.631,-0.241 19.885,0.602c3.254,0.843 8.158,1.204 4.663,-3.131c-3.495,-4.334 -8.406,-5.072 -11.375,-4.505c-3.784,0.723 -8.473,1.484 -13.293,0.593c-2.905,-0.537 -6.797,1.276 -7.4,2.36Z" style="fill:#fff;"/>
                <path d="M1707.68,111.446c2.144,0.779 8.023,0.763 9.405,0.346c2.655,-0.802 0.761,-1.037 -0.691,-1.037c-1.453,0 -5.616,0.318 -6.653,0.042c-1.037,-0.277 -2.821,0.373 -2.061,0.649Z" style="fill:#fff;"/>
            </g>
            <path d="M1607.42,306.731c1.895,11.565 4.691,57.159 -0.432,76.168c-5.122,19.009 -21.221,97.968 -24.148,110.397c-2.927,12.429 0,80.422 0,80.422l272.217,0c0,0 -0.732,-62.875 -2.927,-73.842c-2.195,-10.966 -30.734,-95.775 -36.588,-108.935c-5.854,-13.16 -10.245,-42.404 -7.874,-78.853c2.371,-36.448 33.165,-108.057 25.897,-116.528c-17.606,-20.52 -77.089,-24.721 -77.758,-26.484c-4.019,-10.589 -5.602,-18.482 -6.029,-16.27c-1.744,9.018 -7.784,11.025 -21.205,14.887c-8.016,2.307 -3.515,21.323 -6.327,21.903c-0.721,0.149 -11.812,0.587 -12.487,0.278c-2.55,-1.17 1.58,-18.42 -6.665,-22.426c-12.697,-6.169 -17.707,-7.014 -18.499,-14.196c-0.266,-2.406 -2.399,0.441 -7.895,17.459c-0.837,2.593 -57.137,-6.805 -70.846,6.533c-4.539,4.415 0.987,125.955 1.566,129.487Z" style="fill:#0062c5;"/>
            <path d="M1835.34,498.982c-0.296,7.127 -1.372,16.998 -3.292,20.836c-1.921,3.839 -10.154,21.66 -9.879,27.143c0.274,5.483 -1.921,17.272 -2.196,20.014c-0.274,2.742 -1.372,12.063 -0.823,13.434c0.549,1.371 9.605,3.29 12.074,-10.967c2.47,-14.256 2.196,1.371 1.647,3.839c-0.549,2.467 -0.823,9.321 -2.196,11.24c-1.372,1.92 -6.86,7.403 -6.86,9.87c0,2.468 1.647,4.661 4.116,4.387c2.47,-0.274 -1.896,2.753 0.802,4.909c2.697,2.156 6.924,-1.348 8.182,-2.066c1.259,-0.719 5.665,-5.121 6.744,-5.57c1.079,-0.45 5.755,-1.797 7.554,-3.774c1.798,-1.976 5.665,-10.601 7.013,-12.307c1.349,-1.707 5.306,-13.746 7.014,-17.249c1.709,-3.504 3.147,-16.441 2.248,-20.663c-0.899,-4.223 -3.777,-16.71 -3.327,-19.585c0.45,-2.875 1.888,-15.722 2.338,-19.765c0.45,-4.042 4.015,-45.477 4.454,-50.522c0.44,-5.045 -34.685,-4.825 -36.222,6.58c-1.537,11.405 0.78,36.127 0.609,40.216Z" style="fill:#efb69a;"/>
            <path d="M1835.34,498.982c-0.296,7.127 -1.372,16.998 -3.292,20.836c-1.921,3.839 33.334,-4.067 33.784,-8.11c0.449,-4.042 4.682,-54.477 5.121,-59.522c0.44,-5.045 -34.685,-4.825 -36.222,6.58c-1.537,11.405 0.78,36.127 0.609,40.216Z" style="fill:#e7a788;"/>
            <path d="M1553.4,114.141c0.552,52.387 6.804,73.697 12.806,72.014c7.96,-2.232 37.816,-13.545 44.821,-10.967c52.138,19.192 8.781,121.547 8.781,121.547c0,0 -0.565,-12.434 -14.981,-17.572c-41.693,-14.86 -101.225,-10.411 -100.821,-43.476c0.549,-44.963 3.451,-116.049 3.842,-121.546c0.103,-1.443 45.531,-2.062 45.552,0Z" style="fill:#0062c5;"/>
            <path d="M1873.91,510.751c2.747,-9.983 6.586,-101.441 6.037,-111.311c-0.549,-9.87 -37.32,-188.808 -39.515,-195.936c-2.196,-7.129 -6.586,-8.774 -6.586,-8.774c0,0 -31.1,80.788 -30.551,125.751c0.15,12.3 13.902,51.99 15.736,71.41c4.873,51.569 9.042,114.867 9.327,118.86c0.102,1.443 45.005,1.988 45.552,0Z" style="fill:#0062c5;"/>
        </g>
        <g>
            <path d="M1928.66,95.672c-0.321,-6.739 -0.574,-10.601 3.011,-14.182c3.584,-3.581 14.194,-18.049 15.341,-22.489c1.147,-4.441 0.86,-11.46 2.007,-13.609c1.147,-2.149 0.86,-9.024 2.868,-10.887c2.007,-1.862 4.301,-7.019 0.573,-7.592c-3.728,-0.573 -5.448,2.722 -5.592,1.433c-0.143,-1.289 0.144,-12.176 -1.72,-16.76c-1.864,-4.584 -6.452,-5.73 -7.742,-2.578c-1.291,3.151 0,-2.292 -1.721,-5.873c-1.72,-3.582 -5.305,-1.719 -6.452,1.289c-1.147,3.008 -2.724,-1.862 -5.735,1.719c-3.011,3.581 -3.728,9.597 -4.158,11.603c-0.43,2.005 -0.143,-2.006 -3.154,-1.003c-3.011,1.003 -5.161,7.305 -6.308,11.46c-1.147,4.154 -6.452,16.33 -8.603,22.059c-2.151,5.73 -3.728,19.625 -2.294,24.209c1.434,4.584 -1.004,24.209 -1.29,27.36c-0.287,3.152 -2.868,27.217 -3.155,30.941c-0.286,3.725 34.124,8.882 34.554,3.725c0.43,-5.157 -0.287,-37.817 -0.43,-40.825Z" style="fill:#efb69a;"/>
            <path d="M1928.66,95.672c-0.321,-6.739 -0.513,-10.541 3.011,-14.182c7.289,-7.53 1.672,-4.494 -5.12,-4.407c-7.598,0.098 -8.733,-13.83 -4.022,-22.142c3.664,-6.466 12.763,-7.243 12.878,-10.149c1.147,-29.149 -21.685,1.245 -16.769,7.401c4.704,5.89 -4.994,19.553 -5.734,28.638c-0.256,3.154 -4.068,48.217 -4.355,51.941c-0.287,3.725 20.111,8.882 20.541,3.725c0.43,-5.157 -0.287,-37.817 -0.43,-40.825Z" style="fill:#e7a788;"/>
            <path d="M2146.17,1027.84c-2.64,0.138 -2.402,-7.02 -2.634,-11.406c-0.782,-14.774 -5.26,-16.45 -7.236,-21.714c-1.976,-5.263 -6.375,-15.791 -0.228,-18.643c6.147,-2.851 13.611,18.424 18.66,22.811c5.049,4.386 41.649,12.195 46.259,11.756c4.61,-0.439 10.432,2.895 8.623,10.177c-1.59,6.4 2.257,13.283 -11.389,15.924c-4.026,0.779 -27.108,-0.272 -32.376,-2.685c-5.269,-2.413 -5.952,-10.664 -9.141,-18.284c-3.926,-9.378 -6.771,-8.422 -6.806,-3.509c-0.026,3.617 0.439,15.353 -3.732,15.573Z" style="fill:#797979;"/>
            <path d="M2004.02,1027c2.643,0.076 2.965,-3.088 3.197,-9.72c0.517,-14.786 4.347,-17.152 6.322,-22.416c1.976,-5.264 6.375,-15.932 0.229,-18.784c-6.147,-2.851 -13.611,18.424 -18.66,22.811c-5.05,4.386 -32.868,12.195 -37.479,11.756c-4.61,-0.439 -12.399,6.404 -10.59,13.686c1.59,6.401 -2.818,9.633 12.513,9.607c4.102,-0.007 27.863,0.228 33.22,-1.983c4.144,-1.71 4.322,-8.446 5.629,-12.107c1.791,-5.018 2.695,-3.65 2.73,1.264c0.026,3.617 0.123,5.807 2.889,5.886Z" style="fill:#797979;"/>
            <path d="M2183.54,981.48c1.647,4.113 15.916,25.223 18.386,27.143c2.469,1.919 0.823,5.209 -8.507,5.209c-9.33,0 -47.473,-3.564 -49.943,-26.046c-2.47,-22.481 38.418,-10.418 40.064,-6.306Z" style="fill:#efb69a;"/>
            <path d="M1975.08,981.48c-1.646,4.113 -15.915,25.223 -18.385,27.143c-2.47,1.919 -0.823,5.209 8.507,5.209c9.33,0 38.692,-3.564 41.161,-26.046c2.47,-22.481 -29.636,-10.418 -31.283,-6.306Z" style="fill:#efb69a;"/>
            <path d="M2222.27,566.407c0,0 -22.633,161.325 -21.221,184.239c6.769,109.849 -17.774,175.223 -15.184,198.13c0.294,2.6 5.671,45.329 5.671,45.329l-61.103,0.365c0,0 -3.293,-40.942 -4.756,-48.253c-1.464,-7.311 -8.05,-156.822 -9.513,-166.327c-1.464,-9.504 -12.44,-36.555 -10.977,-48.253c1.464,-11.698 -11.146,-123.557 -11.146,-123.557c0,0 -13.564,25.575 -13.917,80.787c-0.296,46.508 -24.697,76.949 -29.087,131.965c-0.757,9.475 -8.487,87.733 -17.781,122.826c-9.295,35.093 -8.929,53.371 -8.929,53.371l-60.574,-3.655c0,0 13.924,-119.536 14.564,-159.382c0.376,-23.392 -1.921,-137.448 -5.579,-161.575c-3.659,-24.126 -12.44,-99.43 -10.977,-113.321c1.464,-13.891 260.509,7.311 260.509,7.311Z" style="fill:#0054a8;"/>
            <path d="M2025.41,116.187c0.808,-2.19 0.222,-9.5 0.248,-10.182c0.173,-4.69 -2.087,-27.269 -2.608,-32.48c-0.522,-5.211 21.991,-49.13 44.418,-54.514c22.426,-5.385 35.35,-9.368 39.643,0.576c3.353,0.213 5.336,0.358 6.202,-0.136c8.513,-4.861 11.872,-0.744 28.735,7.94c16.863,8.685 26.946,33.802 29.206,43.528c2.26,9.727 -0.739,27.53 -1.086,31.004c-0.027,0.263 -1.121,3.732 -5.781,0.521c-1.157,-0.797 -3.352,0.008 -6.172,1.434c8.016,18.135 6.432,40.521 -10.299,54.794c-35.205,30.03 -83.4,21.601 -86.533,21.325c-11.822,-1.042 -16.689,-12.853 -19.471,-21.885c-2.781,-9.032 -13.196,-9.532 -16.399,-18.464c-3.256,-9.078 -2.921,-15.831 -0.103,-23.461Z" style="fill:#bb9758;"/>
            <path d="M2127.52,129.109c-1.13,9.592 -3.964,37.161 1.301,40.971c5.266,3.81 -24.067,59.981 -24.824,60.114c-11.157,1.958 -17.84,1.04 -27.18,0.873c-0.612,-0.011 -30.888,-39.808 -19.948,-58.675c6.442,-11.11 1.832,-33.756 0.924,-38.473c-0.261,-1.358 -3.122,-7.327 -12.041,-12.757c-1.952,-1.189 -4.92,-2.874 -5.777,-4.944c-1.009,-2.436 0.222,-5.65 -0.624,-7.941c-0.934,-2.531 2.724,-22.1 3.941,-22.159c14.814,-0.721 65.95,-7.101 92.949,-1.348c3.71,0.79 13.939,14.661 11.988,19.771c-0.764,2 -1.809,4.085 -3.077,6.088c-1.291,2.039 -2.814,6.054 -4.087,8.325c-1.47,2.623 -2.849,0.373 -5.165,2.207c-5.347,4.235 -8.359,7.767 -8.38,7.948Z" style="fill:#e7a788;"/>
            <path d="M2046.72,127.484c1.569,-0.783 -0.355,-7.885 -1.191,-9.174c-5.047,-7.773 -7.15,0.841 -6.659,3.782c0.491,2.941 2.593,6.863 3.925,6.863c1.332,0 3.785,-1.401 3.925,-1.471Z" style="fill:#d0ccc4;"/>
            <path d="M2134.91,127.484c-1.568,-0.783 0.355,-7.885 1.192,-9.174c5.047,-7.773 7.15,0.841 6.659,3.782c-0.491,2.941 -2.594,6.863 -3.925,6.863c-1.332,0 -3.785,-1.401 -3.926,-1.471Z" style="fill:#d0ccc4;"/>
            <path d="M2043.91,79.017c0.817,12.484 0.801,15.015 1.074,20.162c0.272,5.147 2.582,18.303 14.299,28.662c7.763,6.863 7.626,1.225 14.844,5.392c7.218,4.167 23.969,6.373 29.961,1.348c5.992,-5.024 11.031,-0.613 17.704,-8.211c6.673,-7.598 14.004,-9.665 14.3,-28.539c0.136,-8.701 3.858,-8.683 3.858,-14.81c0,-6.128 -7.672,-21.989 -11.349,-30.322c-3.677,-8.334 -17.84,-19.976 -24.513,-20.711c-6.673,-0.735 -12.938,3.186 -16.615,3.676c-3.677,0.491 -18.929,-2.328 -29.007,8.946c-10.078,11.275 -10.639,17.481 -11.184,20.177c-0.544,2.696 -3.644,10.064 -3.372,14.23Z" style="fill:#efb69a;"/>
            <ellipse cx="2069.28" cy="64.139" rx="3.405" ry="3.402" style="fill:#3f2d0c;"/>
            <ellipse cx="2111.13" cy="64.139" rx="3.405" ry="3.402" style="fill:#3f2d0c;"/>
            <path d="M2152.65,68.772c-1.166,-25.178 -13.553,-27.122 -30.411,-38.017c-7.579,-4.897 -16.376,-10.164 -12.761,-12.502c6.656,-4.305 11.637,-11.598 31.927,-0.64c12.865,6.947 18.721,23.623 18.199,28.834c-0.179,1.793 -8.2,-1.43 -4.411,4.013c7.476,10.739 8.254,16.446 6.947,25.279c5.287,4.06 16.482,6.173 1.701,40.365c-2.494,5.767 -7.953,9.017 -6.579,1.882c6.369,-33.074 -25.603,-24.644 -27.292,-76.838c-0.064,-1.983 14.405,21.571 22.68,27.624ZM2022.66,108.497c-2.998,-27.343 2.643,-19.45 8.746,-65.204c4.671,-35.016 66.656,-47.687 72.94,-25.86c2.074,7.206 -5.431,-0.459 -13.409,10.11c-5.644,7.477 -8.011,-7.963 -17.762,-3.892c-23.607,9.857 -23.896,35.764 -27.498,27.3c-3.964,-9.313 4.513,-14.686 -0.856,-13.565c-6.636,1.386 -10.529,13.827 -7.791,29.924c0.733,-0.756 13.465,-12.831 13.053,-7.905c-0.863,10.318 -13.837,16.666 -20.369,38.086c-0.879,2.883 -1.855,8.457 -2.36,12.133c-1.254,9.121 -3.607,8.789 -4.694,-1.127Z" style="fill:#debe87;"/>
            <path d="M2067.72,96.625c-2.195,-6.451 12.15,-12.463 16.261,-12.105c4.112,0.357 6.893,0.461 9.932,-0.075c3.039,-0.535 20.615,4.852 18.535,12.376c-1.903,6.888 -10.586,10.164 -15.373,10.663c-3.044,0.318 -11.128,0.569 -16.068,0.27c-8.044,-0.486 -12.067,-7.542 -13.287,-11.129Z" style="fill:#751b20;"/>
            <clipPath id="_clip5">
                <path d="M2067.72,96.625c-2.195,-6.451 12.15,-12.463 16.261,-12.105c4.112,0.357 6.893,0.461 9.932,-0.075c3.039,-0.535 20.615,4.852 18.535,12.376c-1.903,6.888 -10.586,10.164 -15.373,10.663c-3.044,0.318 -11.128,0.569 -16.068,0.27c-8.044,-0.486 -12.067,-7.542 -13.287,-11.129Z"/>
            </clipPath>
            <g clip-path="url(#_clip5)">
                <path d="M2076.8,91c-1.377,1.314 -4.364,4.068 -3.335,4.746c1.03,0.678 4.554,-0.922 8.672,-0.922c4.119,0 15.789,-0.229 18.878,0.571c3.089,0.801 7.093,0.943 3.775,-3.172c-3.318,-4.114 -14.084,-3.95 -16.903,-3.412c-3.592,0.686 -7.913,-0.839 -11.087,2.189Z" style="fill:#fff;"/>
            </g>
            <path d="M1983.42,306.731c1.895,11.565 4.691,57.159 -0.432,76.168c-5.122,19.009 -21.221,97.968 -24.148,110.397c-2.927,12.429 0,80.422 0,80.422l272.217,0c0,0 -0.732,-62.875 -2.927,-73.842c-2.195,-10.966 -30.734,-95.775 -36.588,-108.935c-5.854,-13.16 -10.245,-42.404 -7.874,-78.853c2.371,-36.448 33.165,-108.057 25.897,-116.528c-17.606,-20.52 -77.089,-24.721 -77.758,-26.484c-4.019,-10.589 -5.602,-18.482 -6.029,-16.27c-1.744,9.018 -7.784,11.025 -21.205,14.887c-8.016,2.307 -3.515,21.323 -6.327,21.903c-0.721,0.149 -11.812,0.587 -12.487,0.278c-2.55,-1.17 1.58,-18.42 -6.665,-22.426c-12.697,-6.169 -17.707,-7.014 -18.499,-14.196c-0.266,-2.406 -2.399,0.441 -7.895,17.459c-0.837,2.593 -57.137,-6.805 -70.846,6.533c-4.539,4.415 0.987,125.955 1.566,129.487Z" style="fill:#0062c5;"/>
            <path d="M2211.34,498.982c-0.296,7.127 -1.372,16.998 -3.292,20.836c-1.921,3.839 -10.154,21.66 -9.879,27.143c0.274,5.483 -1.921,17.272 -2.196,20.014c-0.274,2.742 -1.372,12.063 -0.823,13.434c0.549,1.371 9.605,3.29 12.074,-10.967c2.47,-14.256 2.196,1.371 1.647,3.839c-0.549,2.467 -0.823,9.321 -2.196,11.24c-1.372,1.92 -6.86,7.403 -6.86,9.87c0,2.468 1.647,4.661 4.116,4.387c2.47,-0.274 -1.896,2.753 0.802,4.909c2.697,2.156 6.924,-1.348 8.182,-2.066c1.259,-0.719 5.665,-5.121 6.744,-5.57c1.079,-0.45 5.755,-1.797 7.554,-3.774c1.798,-1.976 5.665,-10.601 7.013,-12.307c1.349,-1.707 5.306,-13.746 7.014,-17.249c1.709,-3.504 3.147,-16.441 2.248,-20.663c-0.899,-4.223 -3.777,-16.71 -3.327,-19.585c0.45,-2.875 1.888,-15.722 2.338,-19.765c0.45,-4.042 4.015,-45.477 4.454,-50.522c0.44,-5.045 -34.685,-4.825 -36.222,6.58c-1.537,11.405 0.78,36.127 0.609,40.216Z" style="fill:#efb69a;"/>
            <path d="M2211.34,498.982c-0.296,7.127 -1.372,16.998 -3.292,20.836c-1.921,3.839 33.334,-4.067 33.784,-8.11c0.449,-4.042 4.682,-54.477 5.121,-59.522c0.44,-5.045 -34.685,-4.825 -36.222,6.58c-1.537,11.405 0.78,36.127 0.609,40.216Z" style="fill:#e7a788;"/>
            <path d="M1929.4,114.141c0.552,52.387 6.804,73.697 12.806,72.014c7.96,-2.232 37.816,-13.545 44.821,-10.967c52.138,19.192 8.781,121.547 8.781,121.547c0,0 -0.565,-12.434 -14.981,-17.572c-41.693,-14.86 -101.225,-10.411 -100.821,-43.476c0.549,-44.963 3.451,-116.049 3.842,-121.546c0.103,-1.443 45.531,-2.062 45.552,0Z" style="fill:#0062c5;"/>
            <path d="M2249.91,510.751c2.747,-9.983 6.586,-101.441 6.037,-111.311c-0.549,-9.87 -37.32,-188.808 -39.515,-195.936c-2.196,-7.129 -6.586,-8.774 -6.586,-8.774c0,0 -31.1,80.788 -30.551,125.751c0.15,12.3 13.902,51.99 15.736,71.41c4.873,51.569 9.042,114.867 9.327,118.86c0.102,1.443 45.005,1.988 45.552,0Z" style="fill:#0062c5;"/>
        </g>
    </g>
</svg>
