<?xml version="1.0" encoding="UTF-8" standalone="no"?><!DOCTYPE svg PUBLIC "-//W3C//DTD SVG 1.1//EN" "http://www.w3.org/Graphics/SVG/1.1/DTD/svg11.dtd"><svg width="2040px" height="690px" version="1.1" xmlns="http://www.w3.org/2000/svg" xmlns:xlink="http://www.w3.org/1999/xlink" xml:space="preserve" style="fill-rule:evenodd;clip-rule:evenodd;stroke-linejoin:round;stroke-miterlimit:1.41421;"><clipPath id="_clip1"><rect id="Artboard1" x="0" y="0" width="2040" height="690"/></clipPath><g clip-path="url(#_clip1)"><path d="M65.945,109.532c-8.43,-61.291 6.222,-106.407 65.33,-109.491c26.407,-1.378 63.775,32.384 71.553,78.648c7.777,46.264 74.663,49.349 107.328,120.287c32.666,70.938 34.221,209.729 24.888,279.125c-9.333,69.396 -90.847,250.704 -109.512,204.441c-18.666,-46.264 -39.815,-226.031 -63.147,-229.115c-23.332,-3.084 -34.221,269.966 -73.108,228.328c-38.887,-41.637 -105.773,-397.962 -85.552,-455.021c20.222,-57.059 66.886,-83.275 62.22,-117.202Z" style="fill:#e2e2e2;"/><path d="M405.945,109.532c-8.43,-61.291 6.222,-106.407 65.33,-109.491c26.407,-1.378 63.775,32.384 71.553,78.648c4.648,27.648 30.405,39.875 57.354,60.378c18.145,13.806 32.83,-12.636 45.974,15.909c32.666,70.938 38.221,253.729 28.888,323.125c-9.333,69.396 -90.847,250.704 -109.512,204.441c-18.666,-46.264 -39.815,-226.031 -63.147,-229.115c-23.332,-3.084 -34.221,269.966 -73.108,228.328c-38.887,-41.637 -105.773,-397.962 -85.552,-455.021c20.222,-57.059 66.886,-83.275 62.22,-117.202Z" style="fill:#e2e2e2;"/><path d="M745.945,109.532c-8.43,-61.291 6.222,-106.407 65.33,-109.491c26.407,-1.378 63.775,32.384 71.553,78.648c4.111,24.457 24.741,36.847 48.102,53.574c3.048,2.182 37.082,-44.832 50.226,-16.287c32.666,70.938 43.221,292.729 33.888,362.125c-9.333,69.396 -90.847,250.704 -109.512,204.441c-18.666,-46.264 -39.815,-226.031 -63.147,-229.115c-23.332,-3.084 -34.221,269.966 -73.108,228.328c-38.887,-41.637 -105.773,-397.962 -85.552,-455.021c20.222,-57.059 66.886,-83.275 62.22,-117.202Z" style="fill:#e2e2e2;"/><path d="M1085.94,109.532c-8.43,-61.291 6.222,-106.407 65.33,-109.491c26.407,-1.378 63.775,32.384 71.553,78.648c2.939,17.484 14.319,28.8 29.104,39.943c5.898,4.445 51.08,-72.201 64.224,-43.656c32.666,70.938 48.221,333.729 38.888,403.125c-9.333,69.396 -90.847,250.704 -109.512,204.441c-18.666,-46.264 -39.815,-226.031 -63.147,-229.115c-23.332,-3.084 -34.221,269.966 -73.108,228.328c-38.887,-41.637 -105.773,-397.962 -85.552,-455.021c20.222,-57.059 66.886,-83.275 62.22,-117.202Z" style="fill:#e2e2e2;"/><path d="M1425.94,109.532c-8.43,-61.291 6.222,-106.407 65.33,-109.491c26.407,-1.378 63.775,32.384 71.553,78.648c1.576,9.378 5.581,16.982 11.238,23.736c4.889,5.838 64.946,-95.994 78.09,-67.449c32.666,70.938 52.221,373.729 42.888,443.125c-9.333,69.396 -90.847,250.704 -109.512,204.441c-18.666,-46.264 -39.815,-226.031 -63.147,-229.115c-23.332,-3.084 -34.221,269.966 -73.108,228.328c-38.887,-41.637 -105.773,-397.962 -85.552,-455.021c20.222,-57.059 66.886,-83.275 62.22,-117.202Z" style="fill:#e2e2e2;"/><path d="M1765.94,109.532c-8.43,-61.291 6.222,-106.407 65.33,-109.491c26.407,-1.378 63.775,32.384 71.553,78.648c1.576,9.378 76.184,-102.258 89.328,-73.713c32.666,70.938 52.221,403.729 42.888,473.125c-9.333,69.396 -90.847,250.704 -109.512,204.441c-18.666,-46.264 -39.815,-226.031 -63.147,-229.115c-23.332,-3.084 -34.221,269.966 -73.108,228.328c-38.887,-41.637 -105.773,-397.962 -85.552,-455.021c20.222,-57.059 66.886,-83.275 62.22,-117.202Z" style="fill:#e2e2e2;"/><circle cx="103" cy="73" r="12" style="fill:#000;"/><circle cx="443" cy="63" r="12" style="fill:#000;"/><circle cx="781.667" cy="53" r="12" style="fill:#000;"/><circle cx="1120.33" cy="43" r="12" style="fill:#000;"/><circle cx="1460.33" cy="43" r="12" style="fill:#000;"/><circle cx="1799.45" cy="43" r="12" style="fill:#000;"/><circle cx="148" cy="70" r="12" style="fill:#000;"/><circle cx="488" cy="60" r="12" style="fill:#000;"/><circle cx="826.667" cy="50" r="12" style="fill:#000;"/><circle cx="1165.33" cy="40" r="12" style="fill:#000;"/><circle cx="1505.33" cy="40" r="12" style="fill:#000;"/><circle cx="1844.45" cy="40" r="12" style="fill:#000;"/></g></svg>