<?xml version="1.0" encoding="UTF-8" standalone="no"?>
<!DOCTYPE svg PUBLIC "-//W3C//DTD SVG 1.1//EN" "http://www.w3.org/Graphics/SVG/1.1/DTD/svg11.dtd">
<svg width="414px" height="672px" version="1.1" xmlns="http://www.w3.org/2000/svg" xmlns:xlink="http://www.w3.org/1999/xlink" xml:space="preserve" style="fill-rule:evenodd;clip-rule:evenodd;stroke-linejoin:round;stroke-miterlimit:1.41421;">
    <clipPath id="_clip1">
        <rect id="tree" x="0" y="0" width="414" height="672"/>
    </clipPath>
    <g clip-path="url(#_clip1)">
        <g>
            <path d="M192.22,669.666c-21.47,4.294 -16.46,-32.923 -16.46,-67.277c0,-34.354 -7.157,-104.494 -11.451,-153.162c-0.199,-2.249 -9.778,-10.721 -23.223,-9.672c-15.106,1.179 -28.28,-19.794 -30.376,-46.918c-0.519,-6.722 -14.728,-33.001 -11.946,-80.098c0.234,-3.951 2.753,0.079 11.681,29.279c6.083,19.898 17.826,66.052 23.341,72.295c7.224,8.177 26.733,16.815 31.146,6.806c5.673,-12.868 -4.73,-46.747 -4.408,-48.303c2.141,-10.363 -0.604,-56.814 4.393,-72.282c7.421,-22.972 23.289,-12.985 27.77,-1.268c2.058,5.382 3.885,80.19 3.485,88.287c-1.017,20.571 7.753,22.694 8.052,39.749c0.173,9.851 -4.624,18.714 -4.168,23.093c0.24,2.296 23.091,1.121 37.901,-20.478c8.528,-12.435 -4.372,-22.873 -3.276,-40.648c0.605,-9.821 -3.851,-45.931 -1.037,-50.307c3.039,-4.727 2.376,-2.482 10.129,0.657c1.952,0.79 -1.788,53.883 8.047,69.719c2.826,4.549 5.238,2.317 15.969,-6.955c7.243,-6.258 11.061,-37.242 12.052,-41.072c4.638,-17.941 11.041,-3.642 10.732,-0.878c-9.574,85.554 -88.636,121.117 -87.617,142.672c0.613,12.975 3.313,26.3 1.611,35.84c-1.333,7.465 4.092,10.757 1.657,29.307c-4.567,34.797 12.731,68.287 13.908,86.584c1.954,30.37 -6.441,10.736 -27.912,15.03Z" style="fill:#ce9c5a;"/>
            <path d="M142.75,400.636c21.358,2.256 23.384,-8.235 40.391,0.823c17.007,9.058 38.266,6.587 41.101,-2.47c2.834,-9.058 12.046,-1.647 22.676,-2.471c10.629,-0.823 17.007,-25.526 19.841,-39.524c2.835,-13.998 14.881,2.471 23.385,6.588c8.503,4.117 -7.086,37.877 1.417,38.7c8.504,0.824 7.795,12.352 20.55,5.764c12.756,-6.587 17.716,-23.879 17.716,-32.936c0,-9.058 19.133,10.704 30.471,-1.647c11.338,-12.352 14.881,-48.513 9.921,-48.959c-4.961,-0.447 33.305,4.494 42.517,-39.147c9.212,-43.642 -34.722,-63.286 -41.809,-71.167c-7.086,-7.882 8.504,-8.705 6.378,-20.233c-2.126,-11.528 4.252,-18.939 -7.086,-27.996c-11.338,-9.058 -3.543,-38.701 -19.133,-54.346c-15.59,-15.645 14.172,-31.29 -7.795,-37.877c-21.968,-6.588 -38.975,7.41 -48.187,14.821c-9.212,7.411 -38.974,-36.23 -64.485,-37.054c-25.51,-0.823 -42.517,-60.933 -66.611,-50.228c-24.093,10.704 -52.03,23.879 -48.336,40.347c3.693,16.469 14.022,17.292 0,22.233c-14.023,4.94 -39.107,3.293 -42.65,30.466c-3.543,27.173 -10.578,23.791 -20.551,32.937c-72.275,66.289 -54.124,36.749 -37.344,148.054c1.765,11.705 -5.308,56.329 19.105,60.593c19.648,3.433 17.358,37.536 28.443,53.201c26.219,37.054 5.669,48.582 29.053,51.052c23.385,2.47 41.101,0 45.353,-13.175c4.251,-13.175 -2.126,-27.173 5.669,-26.349Z" style="fill:#45b44e;"/>
            <path d="M100.941,393.365c4.734,12.12 22.376,14.681 14.731,25.386c-7.645,10.704 -13.314,13.998 -21.109,4.94c-7.795,-9.057 -22.795,-30.428 -16.298,-45.15c4.386,-9.94 16.298,-1.505 22.676,14.824ZM28.029,174.437c-12.119,-19.916 66.282,7.84 65.439,-32.249c-0.494,-23.496 -8.404,-33.867 3.786,-47.865c12.19,-13.998 27.78,-29.643 44.078,-4.117c16.299,25.526 21.968,1.647 28.345,17.292c6.378,15.645 4.252,27.173 0,34.584c-4.251,7.41 -55.164,-3.807 -52.11,28.819c1.059,11.312 13.136,24.703 34.395,18.115c21.259,-6.587 -3.516,-23.879 30.484,-12.351c34.001,11.528 28.268,1.647 39.284,23.879c11.015,22.233 28.371,11.92 31.548,37.498c7.792,62.74 -37.997,30.043 -51.19,31.67c-34.108,4.205 -43.749,18.115 -40.914,25.526c2.834,7.411 18.451,20.655 21.272,29.266c2.821,8.611 14.186,19.293 0,35.626c-14.186,16.333 -24.107,19.92 -33.319,26.507c-9.212,6.588 -18.471,13.865 -34.061,6.314c-9.169,-4.441 -17.596,-43.341 -38.944,-33.65c-13.758,6.245 -26.429,-40.594 -44.749,-52.122c-10.207,-6.423 -23.383,-36.375 -21.461,-56.498c3.383,-35.408 35.889,-47.041 18.117,-76.244ZM213.444,365.799c10.629,4.117 22.719,4.117 13.131,14.822c-9.588,10.704 -13.84,14.821 -25.178,9.057c-11.338,-5.764 -12.047,-8.234 -9.212,-18.938c2.834,-10.705 10.629,-9.058 21.259,-4.941ZM304.942,266.418c35.954,20.89 19.841,41.171 11.338,45.288c-8.504,4.117 -8.504,3.294 -18.425,-12.351c-9.92,-15.645 -4.251,-39.524 7.087,-32.937ZM221.73,105.028c11.296,-5.501 23.062,3.293 17.393,25.526c-5.669,22.232 -24.73,18.115 -28.309,4.94c-3.579,-13.175 4.152,-27.173 10.916,-30.466Z" style="fill:#398c3f;"/>
        </g>
    </g>
</svg>
