<?xml version="1.0" encoding="UTF-8" standalone="no"?><!DOCTYPE svg PUBLIC "-//W3C//DTD SVG 1.1//EN" "http://www.w3.org/Graphics/SVG/1.1/DTD/svg11.dtd"><svg width="100%" height="100%" viewBox="0 0 1000 1000" version="1.1" xmlns="http://www.w3.org/2000/svg" xmlns:xlink="http://www.w3.org/1999/xlink" xml:space="preserve" style="fill-rule:evenodd;clip-rule:evenodd;stroke-linejoin:round;stroke-miterlimit:1.41421;"><clipPath id="_clip1"><rect id="trumpexport" x="0" y="0" width="1000" height="1000"/></clipPath><g clip-path="url(#_clip1)"><path d="M-115,715.759l2088.3,369.423l7.816,1389.15l-2096.12,0l0,-1758.57Z" style="fill:#e34a47;"/><g><path d="M-94.046,372.149l200.165,-7.795c7.439,-9.955 -0.317,-27.435 8.594,-26.485l9.389,0.624c9.092,1.274 12.068,12.879 10.589,29.291l99.825,35.856l0,107.167l-2.494,5.798l2.494,106.24c-4.77,8.68 -5.909,106.939 0,118.395l-21.014,133.978l-444.806,0l0,-458.326l111.493,-41.313l0,-26.409c-0.534,-8.323 2.123,-11.882 7.971,-10.677l9.627,0c2.488,1.291 4.505,9.16 3.49,14.537l4.677,19.119Z" style="fill:#e9e9e9;"/><path d="M310.444,408.434l2.728,-17.035c0.575,-12.436 -5.216,-28.103 -14.916,-27.234l-12.03,0c-14.285,0.574 -10.028,13.951 -8.66,30.782c0.87,10.703 -16.389,17.052 -16.484,13.197l-103.237,-0.606c-0.405,7.254 -0.065,416.191 -0.008,481.535c0.005,5.665 8.688,8.762 8.688,8.762c68.569,-3.462 128.288,-0.685 187.953,-0.64c130.091,0.097 194.565,3.109 301.1,1.578c10.629,-0.19 55.197,-3.697 56.301,-7.615c1.204,-8.879 1.863,-17.188 -1.291,-21.503l-3.269,-5.619l-17.421,-2.166l-35.621,-103.733l21.976,-263.518c6.746,0.116 19.243,-41.729 13.199,-40.451l-20.937,-43.631l-358.071,-2.103Z" style="fill:#e9e9e9;"/><path d="M-135.75,878.336c-59.38,-28.446 -124.113,-53.301 -96.826,-139.862l6.64,-3.922c0,0 4.857,-6.105 4.993,-11.895c0.991,-42.253 4.801,-217.887 -0.218,-223.157c-0.679,-0.713 -4.115,-0.186 -5.254,0.403c-15.264,7.898 -21.827,-7.397 -21.348,-16.982c0.405,-8.112 -3.776,-10.575 -3.776,-10.575l-7.106,-4.145c-5.908,-2.904 -10.787,-13.78 -8.54,-19.289l3.429,-24.226c0,0 10.383,-13.392 39.875,-28.408c-4.993,-8.321 6.426,-15.363 10.832,-15.777c3.113,-0.293 10.981,-0.392 10.494,6.156c9.091,-3.635 19.384,-7.221 30.999,-10.596c0.765,-6.588 4.316,-12.762 19.572,-15.68c5.859,-1.12 12.139,0.258 19.261,6.37c17.165,-3.335 36.387,-6.139 57.87,-8.136c0.198,-6.57 2.931,-10.702 18.933,-10.735c10.574,-0.021 21.312,2.086 19.916,8.163c10.596,-0.435 21.651,-0.685 33.181,-0.725l0,-174.524l7.405,0l0,174.526c10.962,0.043 21.499,0.255 31.624,0.62c2.705,-6.093 12.443,-7.414 18.933,-7.263c14.901,0.346 19.367,2.245 19.93,9.532c21.41,1.759 40.625,4.233 57.835,7.181c5.75,-4.733 4.48,-8.966 12.551,-6.497c5.351,1.637 25.861,4.874 26.393,14.714c11.523,2.939 21.795,6.064 30.921,9.24c-0.865,-5.717 5.75,-4.184 11.862,-2.128c5.394,1.813 10.396,3.344 9.523,10.489c19.371,8.505 30.975,16.726 37.319,21.467c8.335,6.23 7.596,16.348 5.601,14.944l0,23.812l-4.911,10.359l-7.191,4.11c-3.539,2.635 -5.243,6.934 -4.267,13.662l0,15.605c-1.074,6.7 -4.174,10.316 -8.951,11.377c-2.588,5.133 -7.808,5.134 -13.185,-1.607c-1.325,-1.662 -7.311,-3.661 -8.047,3.293c-1.964,18.571 -0.103,61.058 0.568,103.271c0.872,54.933 -0.724,109.403 0.299,110.102c-0.424,6.563 0.652,11.551 5.029,13.072c6.271,-1.004 10.453,1.362 8.098,14.275l0,114.115c0.14,10.382 -52.631,18.572 -59.352,19.547l-26.985,-3.795c-11.096,-0.781 -15.298,-3.954 -13.788,-9.11l0.39,-44.29c0,-13.027 -10.966,-27.501 -23.994,-27.501c-13.027,0 -25.162,12.915 -25.163,25.942l1.092,38.133c-1.604,8.823 -3.804,16.811 -12.051,16.345l-44.126,0c-3.814,-1.869 -5.367,-7.174 -5.047,-15.327l0.551,-36.812c0,-13.028 -11.356,-28.281 -24.384,-28.281c-13.027,0 -23.603,10.576 -23.604,23.604l0,48.187c-0.805,4.817 -4.011,7.819 -10.114,8.629l-44.353,0c-11.433,0.381 -13.331,-3.236 -12.181,-8.13l-0.338,-53.363c0,-13.028 -10.187,-18.927 -23.215,-18.927c-13.027,0 -22.044,11.356 -22.045,24.383l-1.559,56.037ZM-154.894,635.554c1.367,-9.194 -3.134,-17.74 -11.491,-16.356c-11.155,1.848 -21.935,0.898 -23.386,16.761l0,83.761c-1.416,12.133 2.349,18.531 12.367,18.005l0.609,19.67c-0.904,17.18 10.903,15.085 7.357,-0.051l0,-19.76c0,0 11.482,-1.931 11.504,-18.772c0.021,-16.658 -2.09,-48.743 3.04,-83.258ZM168.474,618.738c-10.676,-0.508 -13.395,7.547 -10.224,11.895l0,81.349c-2.619,14.927 -0.994,23.958 6.236,25.203c1.637,0.282 5.342,0.165 5.787,8.982l0.662,13.294c-1.02,8.768 -0.934,8.476 3.521,8.758c5.448,0.345 5.661,-1.561 5.316,-6.654l0,-16.409c-0.712,-10.871 12.348,-10.508 12.912,-25.623c0.953,-25.543 -0.336,-49.895 0.181,-89.605c0.117,-8.975 -14.307,-10.709 -24.391,-11.19ZM-66.744,624.768c0,0 -0.67,-15.893 -5.855,-15.658c-9.452,0.428 -23.976,8.913 -33.334,2.919c-10.859,-6.956 -21.757,14.978 -16.538,24.052l0,95.332l13.569,5.4l0.678,20.554c1.408,10.606 4.683,19.502 26.868,11.073l0.389,-11.9c-0.911,-19.317 4.416,-26.701 14.223,-25.515l0,-106.257ZM34.479,609.034c-11.895,-0.188 -20.755,0.49 -34.436,0.49c-6.244,0 -14.092,4.291 -18.157,0.067c-5.59,-5.81 -16.314,3.644 -16.335,13.587c-0.118,55.876 2.148,107.067 2.148,107.067c6.294,-0.851 13.484,5.899 11.591,18.702c-2.514,16.997 1.634,19.23 13.434,21.478c11.085,2.112 29.749,0.293 31.151,-6.662l0.544,-13.174c0.302,-12.207 4.986,-17.782 11.663,-20.344c0,0 5.552,-1.405 5.708,-15.76c0.213,-19.686 1.485,-105.311 -7.311,-105.451ZM86.286,611.202c-8.275,-3.977 -19.139,15.041 -16.633,18.191l0,88.5c-2.029,10.356 0.287,16.128 7.846,16.369c5.072,0.972 7.397,4.741 5.709,12.595c-1.488,20.015 5.675,27.616 22.342,21.583c8.891,2.951 12.921,0.162 11.084,-9.557l0,-10.496c-1.721,-5.265 -0.683,-10.189 5.808,-14.437l5.289,-3.308c0,0 -0.181,-46.422 0.515,-105.232c0.107,-9.064 -3.137,-11.834 -5.598,-12.027c-10.639,-0.836 -24.033,3.743 -36.362,-2.181ZM166.529,479.055c-0.646,10.461 -6.096,12.75 -6.096,12.75c-2.171,1.532 -2.811,5.384 -2.183,11.158l0,79.017c-1.892,1.132 2.107,6.51 5.422,7.083c8.19,1.414 15.096,3.873 19.962,4.204c3.939,0.268 9.673,-1.649 9.613,-6.265c-0.598,-45.658 -0.105,-85.048 -2.377,-87.502c-4.743,-5.123 -0.66,-15.63 -14.355,-18.42c-3.163,-0.644 -6.479,-1.365 -9.986,-2.025ZM-161.34,484.76c-1.06,-2.432 -5.722,-6.221 -7.422,-5.903c-3.149,0.589 -6.139,1.191 -8.978,1.803c-2.209,0.476 -3.469,3.652 -3.469,5.355c0,6.584 -2.94,10.597 -5.374,12.79c-1.72,1.551 -3.188,11.795 -3.188,11.795l0,69.512c0,0 -2.212,17.117 8.713,13.531c4.134,-1.357 16.969,-3.905 22.058,-4.818c3.992,-0.716 4.788,-9.501 4.814,-14.075c0.251,-44.039 -0.288,-80.837 -2.727,-83.24c-1.931,-1.903 -3.366,-4.319 -4.427,-6.75ZM84.475,469.47c0.371,0.589 -5.666,1.248 -5.666,1.986c0,11.692 -8.532,21.825 -8.532,21.825l-0.534,76.261c0,0 -2.175,11.886 12.978,13.275c14.366,1.316 35.274,1.791 39.347,1.947c4.694,0.179 8.282,-2.85 8.073,-8.741c-1.533,-43.306 6.18,-82.027 -2.41,-84.513c-7.971,-2.308 -6.473,-17.742 -6.473,-17.742c0,0 -19.176,-3.356 -36.783,-4.298ZM-66.744,483.927c0,0 -6.879,-1.892 -8.69,-4.568c-2.872,-4.245 -1.973,-9.99 -8.756,-9.709c-8.023,0.332 -15.603,0.864 -22.769,1.462c-4.594,0.383 -7.365,5.349 -7.365,8.072c0,11.571 -8.147,13.869 -8.147,13.869l0,78.938c-2.059,0.852 1.593,12.869 9.802,12.637c9.784,-0.277 20.724,-2.285 30.064,-2.105c12.366,0.238 20.834,-14.582 15.861,-17.192l0,-81.404ZM36.082,485.486c-5.591,-5.712 -2.663,-18.72 -16.417,-17.82c-6.442,0.422 -13.105,-0.108 -19.954,-0.108c-6.74,0 -13.283,0.081 -19.635,0.099c-7.686,0.021 1.721,12.171 -12.377,14.711c-3.285,0.592 -2.797,38.293 -2.748,82.108c0.025,22.528 9.318,17.31 14.079,17.275c6.987,-0.051 14.205,-0.076 21.659,-0.076c8.904,0 17.509,-0.492 25.763,0.088c15.081,1.061 9.425,-20.309 9.981,-41.67c0.672,-25.83 0.947,-53.28 -0.351,-54.607ZM-206.492,438.902c0,0 60.216,-35.067 206.357,-35.067c159.673,0 209.063,28.411 209.063,28.411l-0.677,-18.944c0,0 -57.509,-31.799 -207.709,-31.799c-150.201,0 -207.71,35.693 -207.71,35.693l0.676,21.706Z" style="fill:#fff;"/><path d="M297.326,808.194l12.329,3.563c5.184,-0.823 9.565,0.64 8.324,18.105l2.672,26.419c0.643,5.839 0.817,8.577 6.323,8.691l353.499,-3.675c8.389,1.84 11.212,-2.156 9.425,-10.987l-1.337,-53.549c-2.72,-13.096 -5.655,-15.216 -8.641,-14.77c-9.289,-1.555 -2.352,-22.849 -2.56,-55.046c-0.383,-59.165 3.297,-154.026 2.243,-223.533c-0.077,-5.024 -3.825,-10.953 -9.527,-10.186c-42.613,5.729 -66.539,6.148 -137.535,2.148c-84.479,-4.759 -184.18,-4.27 -243.33,-5.035c-42.096,-0.544 -69.967,-0.955 -69.967,-0.955l0,-38.195l33.946,11.813c2.448,-12.252 156.02,1.967 277.439,-2.364c55.99,-1.997 142.059,-4.053 142.577,-3.991c11.523,2.152 27.975,-4.849 21.134,-17.797l1.266,-16.957c1.767,-9.902 -7.931,-27.132 -13.116,-24.411l-6,-1.637c-1.79,-10.207 -22.882,-10.111 -27.905,-2.728c2.061,8.907 -10.594,4.023 -31.268,6.195c-23.107,2.427 -54.745,5.312 -54.943,-3.467c-1.277,-9.407 -26.805,-12.973 -26.347,-4.676c-0.906,3.793 -8.035,12.01 -12.202,12.751l-64.647,-1.392c-5.848,0.719 -8.058,-2.089 -8.427,-6.683c-0.065,-11.091 -25.75,-7.527 -26.076,2.145c-0.325,9.638 -55.636,7.738 -77.392,4.828c-7.636,-1.021 -8.778,-6.973 -8.778,-6.973c-1.701,-7.758 -8.018,-13.534 -19.343,-11.768c-8.283,1.29 -8.567,11.098 -10.901,11.768c0.171,5.619 -3.998,7.455 -11.135,6.704l-78.163,0l0,18.084l17.019,8.401l-17.019,7.89l0,399.931l41.031,-28.661l37.332,0ZM513.704,853.653c4.571,-0.532 6.646,-1.197 6.863,-4.769c1.427,-3.17 0.245,-4.854 -2.123,-5.863l-1.741,0.25c-2.051,-0.237 -2.634,-5.328 -2.632,-10.012c0.016,-31.594 2.824,-36.285 -5.823,-36.498l-32.489,0.748c-3.199,0.055 -5.361,2.048 -6.485,5.978c1.154,11.214 -0.664,19.05 -0.265,33.656c0.111,4.066 0.504,6.453 -4.319,6.377c-2.177,-0.397 -3.692,1.086 -4.24,5.316c0.334,3.012 1.748,4.451 4.24,4.318c20.989,-0.604 36.037,2.009 49.014,0.499ZM579.678,853.653c-5.217,1.216 -6.645,-1.197 -6.863,-4.769c-1.427,-3.17 -0.244,-4.854 2.124,-5.863c0,0 4.175,-0.887 4.173,-5.571c-0.016,-31.595 0.369,-40.476 9.016,-40.689l29.496,-2.369c3.199,0.054 5.361,2.047 6.485,5.977c-1.155,11.214 0.663,22.168 0.265,36.774c-0.111,4.066 -0.504,6.453 4.318,6.377c2.177,-0.397 3.693,1.086 4.241,5.316c-0.335,3.012 -1.748,4.451 -4.241,4.318c-20.989,-0.604 -35.985,-0.472 -49.014,0.499ZM360.225,852.456c-6.118,-0.285 -10.437,0 -10.655,-3.572c-1.426,-3.17 -0.244,-4.854 2.124,-5.863c0,0 4.175,-0.887 4.173,-5.571c-0.016,-31.595 -2.624,-40.476 6.023,-40.689l32.489,0.748c3.199,0.055 5.361,2.048 6.485,5.978c-1.154,11.214 0.663,19.05 0.265,33.656c-0.111,4.066 -0.504,6.453 4.318,6.377c2.178,-0.397 3.693,1.086 4.241,5.316c-0.334,3.012 -1.748,4.451 -4.241,4.318c-20.988,-0.604 -31.794,-0.073 -45.222,-0.698ZM512.315,760.115c5.217,1.216 6.645,-1.197 6.863,-4.77c1.427,-3.169 -0.201,-9.307 -2.569,-10.316c0,0 -3.73,0.448 -3.728,-4.236c0.01,-20.869 -0.154,-51.674 0.359,-72.935c0.244,-10.097 -4.212,-9.996 -7.148,-10.068l-31.723,0.748c-3.199,0.055 -5.361,2.047 -6.485,5.978c1.155,11.214 -0.663,61.365 -0.265,75.971c0.111,4.065 0.504,6.453 -4.318,6.377c-2.177,-0.397 -3.693,4.203 -4.241,8.434c0.335,3.012 1.748,4.451 4.241,4.318c21.79,4.06 36.594,3.07 49.014,0.499ZM243.524,763.233c-5.217,1.216 -6.645,-1.197 -6.863,-4.77c-1.426,-3.169 0.201,-6.189 2.57,-7.199c0,0 4.966,-1.799 5.31,-13.412c0.618,-20.86 0.513,-38.686 0,-59.947c-0.244,-10.097 -0.847,-20.736 5.206,-20.115l33.109,-0.638c3.199,0.055 3.975,3.433 5.099,7.364c-1.154,11.214 0.317,55.612 -0.082,70.218c-0.111,4.065 -0.157,15.324 4.665,15.248c2.178,-0.398 3.693,1.085 4.241,5.316c-0.334,3.012 -1.748,4.451 -4.241,4.318c-23.102,0.237 -37.532,3.454 -49.014,3.617ZM625.452,763.233c5.217,1.216 6.645,-1.197 6.863,-4.77c1.426,-3.169 0.244,-4.853 -2.124,-5.862c0,0 -4.175,-0.888 -4.173,-5.572c0.01,-20.869 -0.154,-57.91 0.359,-79.171c0.244,-10.097 -6.44,-9.996 -9.375,-10.068l-29.496,0.748c-3.199,0.055 -5.361,2.047 -6.485,5.978c1.154,11.214 -0.663,67.6 -0.265,82.207c0.111,4.065 0.504,6.453 -4.319,6.377c-2.177,-0.398 -3.692,1.085 -4.24,5.316c0.334,3.012 1.748,4.451 4.24,4.318c20.989,-0.605 35.986,-0.472 49.015,0.499ZM355.188,759.67c-5.217,1.215 -6.218,-6.06 -3.85,-7.069c0,0 4.175,2.23 4.173,-2.454c-0.011,-20.869 -2.964,-64.146 -3.477,-85.406c-0.244,-10.098 6.439,-6.879 9.375,-6.951l33.059,0.303c3.199,0.055 2.688,10.065 3.813,13.995c-1.155,11.214 -0.673,48.04 -1.072,62.646c-0.111,4.065 -0.058,15.324 4.764,15.248c2.177,-0.398 3.693,1.085 4.241,5.316c-0.335,3.012 -1.748,4.451 -4.241,4.318c-20.989,-0.605 -33.756,-0.918 -46.785,0.054ZM584.017,644.502c-5.413,-0.435 -9.533,-0.936 -7.206,-7.263c3.902,-10.609 14.332,-20.186 28.993,-20.591c15.906,-0.44 22.547,9.299 24.984,22.825c0.287,1.595 -3.247,5.029 -3.247,5.029l-43.524,0ZM354.028,644.502c0,0 -3.535,-3.434 -3.248,-5.029c2.438,-13.526 11.573,-21.127 27.479,-20.687c14.661,0.405 22.597,7.844 26.499,18.453c2.327,6.327 -1.793,6.828 -7.207,7.263l-43.523,0ZM292.388,643.277l0.6,-3.945l-11.885,-10.474c-4.264,-6.799 -14.997,-14.602 -18.836,-10.012l-22.201,20.536c-0.37,3.094 1.742,4.347 5.553,4.34c17.411,0.515 29.476,0.582 46.769,-0.445ZM464.671,643.277l-0.6,-3.945l18.566,-14.055c4.264,-6.799 8.315,-7.903 12.154,-3.313l22.201,17.418c0.371,3.094 -1.741,4.347 -5.552,4.34c-17.411,0.515 -29.476,0.582 -46.769,-0.445ZM239.783,593.022c-5.217,1.104 -6.646,-1.087 -6.863,-4.331c-1.427,-2.878 0.201,-5.621 2.569,-6.538c0,0 4.966,-1.634 5.311,-12.18c0.618,-18.944 0.513,-9.362 0,-28.67c-0.244,-9.169 -0.848,-18.831 5.205,-18.267l33.109,-0.579c3.199,0.05 3.975,3.118 5.1,6.687c-1.155,10.184 0.316,30.683 -0.082,43.947c-0.111,3.692 -0.158,13.916 4.665,13.847c2.177,-0.361 3.692,0.986 4.24,4.828c-0.334,2.735 -1.747,4.042 -4.24,3.921c-23.102,0.216 -37.532,-2.813 -49.014,-2.665ZM399.133,595.519c5.218,1.095 6.646,-1.078 6.863,-4.295c1.427,-2.854 -0.201,-5.573 -2.569,-6.482c0,0 -4.966,-1.621 -5.31,-12.078c-0.619,-18.784 0.294,-12.37 0,-31.519c-0.202,-13.102 -2.716,-19.247 -8.77,-18.688l-29.545,0c-3.199,0.05 -3.975,3.092 -5.099,6.631c1.154,10.098 -0.317,33.542 0.081,46.694c0.111,3.661 0.158,13.799 -4.665,13.73c-2.177,-0.357 -3.692,0.978 -4.24,4.787c0.334,2.713 1.748,4.009 4.24,3.889c23.103,0.213 37.532,-2.816 49.014,-2.669ZM579.015,590.55c-5.217,1.02 -6.645,-1.005 -6.863,-4.003c-1.427,-2.66 0.201,-5.194 2.569,-6.041c0,0 4.967,-1.511 5.311,-11.257c0.618,-17.506 0.513,-11.533 0,-29.375c-0.244,-8.474 -0.848,-17.403 5.206,-16.882l31.16,-1.704c3.199,0.046 2.806,4.05 3.93,7.349c-1.155,9.411 0.317,23.366 -0.082,35.624c-0.111,3.412 6.079,14.731 10.901,14.667c2.177,-0.334 0.575,4.029 1.123,7.579c-0.335,2.528 -1.748,3.736 -4.241,3.624c-23.102,0.199 -37.532,0.282 -49.014,0.419ZM465,589.295c-5.217,1.049 -6.646,-4.15 -6.863,-7.23c-1.427,-2.732 0.201,-5.337 2.569,-6.207c0,0 4.967,-1.552 5.311,-11.564c0.618,-17.985 0.513,-5.613 0,-23.944c-0.244,-8.706 -2.184,-18.324 9.66,-20.016l23.754,-4.113c3.2,0.048 9.766,2.848 10.89,6.236c-1.154,9.669 1.654,26.571 1.255,39.164c-0.111,3.506 0.733,15.885 5.556,15.82c2.177,-0.343 0.574,4.054 1.122,7.701c-0.334,2.597 -1.747,3.838 -4.24,3.723c-23.102,0.205 -37.532,0.29 -49.014,0.43ZM235.982,429.034l12.764,-5.918c0.588,5.27 1.458,10.318 5.867,12.592c-0.147,0.743 -0.3,1.508 -0.46,2.297l-18.171,-8.971ZM254.613,435.708c2.786,-14.019 3.534,-19.734 10.014,-15.075c118.717,2.926 239.941,3.287 362.132,-0.445c23.368,-0.954 45.949,-7.623 43.262,13.073c0,0 -5.219,7.797 -10.261,7.171c-133.116,6.617 -264.912,4.45 -397.61,-3.508c-3.275,0.193 -5.709,-0.273 -7.537,-1.216Z" style="fill:#fff;"/><g><path d="M105.412,875.218c0,0 -0.458,5.845 5.807,6.322c19.193,1.463 59.564,4.762 62.564,0.181l79.228,-83.054l-23.531,-24.771c-9.042,-7.798 -37.198,-8.234 -40.989,-6.886l-8.069,-0.053l3.821,9.278l20.093,23.644l-98.924,75.339Z" style="fill:#ffb800;"/><path d="M166.786,760.443c0.389,6.289 2.803,10.816 6.601,14.137l28.697,27.551l6.3,-12.591c1.222,-5.891 -0.059,-9.832 -3.844,-11.82l-33.35,-41.808c-5.386,-4.765 -3.294,1.553 -4.797,6.098l0.393,18.433Z" style="fill:#e9e9e9;"/><path d="M215.505,764.451c0.459,6.289 4.193,6.808 8.666,10.129l33.801,27.551l7.42,-12.591c1.439,-5.891 1.866,-13.296 -2.591,-15.285l-35.446,-30.326c-6.344,-4.764 -9.651,-3.346 -11.421,1.199l-0.429,19.323Z" style="fill:#e9e9e9;"/><path d="M208.367,789.984c1.246,-6.835 -0.129,-10.808 -6.159,-5.161c-26.727,13.991 -46.319,26.189 -92.715,58.434c-3.84,1.223 -10.236,7.63 -10.734,15.343l-0.494,16.618c-2.135,9.056 4.244,5.817 11.198,0.319l64.213,-46.928c6.654,-2.923 34.67,-18.8 34.161,-24.468l0.53,-14.157Z" style="fill:#fff;"/><path d="M267.509,782.402c1.182,-7.404 -0.122,-11.709 -5.845,-5.591c-24.362,16.954 -44.591,37.025 -90.518,65.72c-3.644,1.325 -7.177,5.854 -7.649,14.211l-2.894,18.476c1.438,11.889 25.011,8.183 31.61,2.227l52.585,-44.957c10.768,-9.848 23.592,-23.064 23.11,-29.205l-0.399,-20.881Z" style="fill:#fff;"/></g></g><g><g><path d="M965.875,910.96c-6.137,-10.225 -1.403,-207.826 -1.606,-232.537c-0.203,-24.712 11.487,-21.732 20.309,-22.031c3.342,-0.114 87.297,-0.21 102.765,0.023c14.72,0.222 9.334,21.341 8.073,154.614c-0.484,51.166 2.405,95.688 -8.073,96.756c-6.992,0.713 -118.632,7.902 -121.468,3.175Z" style="fill:#f6d06d;"/><path d="M1081.59,681.587c-6.471,0.835 -44.778,1.712 -76.088,1.19c-3.791,-0.063 -13.022,-8.056 -21.404,-14.464c-6.519,-4.983 -13.418,-8.303 -11.083,-10.731c1.461,-1.52 32.778,-1.175 62.559,-1.062c22.974,0.086 45.035,-0.35 51.771,-0.248c7.55,0.114 4.77,5.593 1.978,11.966c-2.65,6.05 -5.062,13.004 -7.733,13.349Z" style="fill:#fee196;"/><path d="M965.875,910.96c-2.298,-3.829 6.795,-4.035 16.653,-7.41c6.322,-2.164 12.987,-7.173 20.53,-8.378c19.433,-3.103 45.2,-9.081 63.687,-9.722c4.844,-0.168 9.189,5.573 12.789,5.255c1.716,-0.152 2.837,4.67 4.87,8.956c2.032,4.287 4.975,8.038 2.939,8.124c-7.04,0.298 -118.632,7.902 -121.468,3.175Z" style="fill:#e2b642;"/><path d="M1002.57,894.852c-3.057,-0.062 -1.294,-9.241 -1.586,-20.564c-1.218,-47.145 1.159,-158.97 0.864,-175.831c-0.296,-16.944 -0.973,-15.876 4.977,-16.328c5.949,-0.453 64.143,-0.173 73.098,-0.525c4.568,-0.179 2.764,0.581 2.288,22.655c-0.475,22.074 3.459,166.634 1.767,176.251c-1.692,9.617 -2.043,10.073 -6.388,10.154c-17.671,0.332 -69.685,4.297 -75.02,4.188Z" style="fill:#ecbe4a;"/></g><g><path d="M833.105,918.479c-6.307,-10.51 -1.442,-213.601 -1.65,-238.998c-0.209,-25.398 11.806,-22.336 20.872,-22.644c3.436,-0.116 89.724,-0.215 105.621,0.024c15.129,0.229 9.593,21.934 8.297,158.91c-0.497,52.588 2.472,98.346 -8.297,99.444c-7.186,0.733 -121.927,8.122 -124.843,3.264Z" style="fill:#f6d06d;"/><path d="M952.033,682.732c-6.651,0.859 -46.021,1.76 -78.202,1.224c-3.896,-0.065 -13.384,-8.28 -21.998,-14.866c-6.7,-5.122 -13.791,-8.533 -11.392,-11.029c1.502,-1.562 33.689,-1.208 64.298,-1.092c23.612,0.089 46.286,-0.359 53.209,-0.255c7.76,0.117 4.902,5.749 2.033,12.298c-2.723,6.219 -5.203,13.366 -7.948,13.72Z" style="fill:#fee196;"/><path d="M833.105,918.479c-2.362,-3.935 6.984,-4.148 17.116,-7.616c6.497,-2.224 13.347,-7.373 21.1,-8.611c19.973,-3.189 46.456,-9.333 65.456,-9.992c4.979,-0.173 9.445,5.728 13.145,5.4c1.764,-0.156 2.916,4.8 5.005,9.206c2.089,4.406 5.114,8.261 3.021,8.349c-7.236,0.307 -121.927,8.122 -124.843,3.264Z" style="fill:#e2b642;"/><path d="M870.82,901.924c-3.142,-0.065 -1.33,-9.499 -1.631,-21.136c-1.251,-48.455 1.192,-163.387 0.889,-180.716c-0.304,-17.415 -1,-16.318 5.115,-16.783c6.115,-0.465 65.925,-0.177 75.129,-0.538c4.695,-0.184 2.84,0.597 2.352,23.284c-0.488,22.687 3.555,171.264 1.816,181.148c-1.739,9.884 -2.1,10.352 -6.566,10.436c-18.161,0.34 -71.621,4.416 -77.104,4.305Z" style="fill:#ecbe4a;"/></g><g><path d="M693.596,930.696c-6.506,-10.841 -1.488,-220.334 -1.703,-246.533c-0.215,-26.198 12.178,-23.039 21.531,-23.357c3.544,-0.12 92.552,-0.222 108.95,0.025c15.606,0.236 9.896,22.626 8.559,163.919c-0.513,54.246 2.55,101.447 -8.559,102.58c-7.413,0.755 -125.771,8.377 -128.778,3.366Z" style="fill:#f6d06d;"/><path d="M816.273,687.518c-6.861,0.885 -47.473,1.815 -80.668,1.262c-4.019,-0.067 -13.805,-8.541 -22.691,-15.335c-6.912,-5.283 -14.226,-8.802 -11.751,-11.377c1.549,-1.611 34.751,-1.245 66.324,-1.126c24.357,0.092 47.746,-0.37 54.887,-0.262c8.005,0.12 5.057,5.929 2.098,12.685c-2.81,6.415 -5.367,13.787 -8.199,14.153Z" style="fill:#fee196;"/><path d="M693.596,930.696c-2.437,-4.059 7.203,-4.278 17.655,-7.856c6.702,-2.294 13.768,-7.605 21.766,-8.882c20.602,-3.29 47.919,-9.628 67.519,-10.308c5.136,-0.178 9.742,5.909 13.559,5.571c1.819,-0.161 3.008,4.951 5.163,9.496c2.155,4.544 5.275,8.521 3.116,8.613c-7.464,0.316 -125.771,8.377 -128.778,3.366Z" style="fill:#e2b642;"/><path d="M732.499,913.619c-3.241,-0.066 -1.372,-9.798 -1.682,-21.802c-1.291,-49.983 1.23,-168.538 0.917,-186.413c-0.314,-17.965 -1.031,-16.832 5.276,-17.312c6.308,-0.479 68.004,-0.183 77.498,-0.555c4.843,-0.19 2.93,0.616 2.426,24.018c-0.504,23.402 3.667,176.662 1.873,186.858c-1.794,10.196 -2.166,10.679 -6.773,10.765c-18.734,0.352 -73.878,4.556 -79.535,4.441Z" style="fill:#ecbe4a;"/></g><g><path d="M549.652,933.866c-6.704,-11.172 -1.533,-227.067 -1.754,-254.067c-0.222,-26.999 12.55,-23.743 22.189,-24.07c3.652,-0.124 95.38,-0.23 112.279,0.025c16.084,0.243 10.199,23.317 8.821,168.929c-0.529,55.903 2.628,104.547 -8.821,105.714c-7.639,0.779 -129.614,8.634 -132.714,3.469Z" style="fill:#f6d06d;"/><path d="M676.079,683.256c-7.071,0.913 -48.923,1.871 -83.133,1.301c-4.142,-0.069 -14.227,-8.802 -23.385,-15.803c-7.123,-5.445 -14.661,-9.072 -12.11,-11.725c1.597,-1.66 35.813,-1.283 68.351,-1.161c25.102,0.095 49.205,-0.381 56.564,-0.27c8.25,0.124 5.212,6.111 2.162,13.073c-2.895,6.611 -5.531,14.209 -8.449,14.585Z" style="fill:#fee196;"/><path d="M549.652,933.866c-2.51,-4.183 7.424,-4.409 18.195,-8.096c6.908,-2.364 14.189,-7.837 22.431,-9.153c21.232,-3.391 49.385,-9.923 69.583,-10.623c5.293,-0.183 10.04,6.09 13.973,5.741c1.875,-0.166 3.101,5.103 5.321,9.786c2.221,4.684 5.437,8.782 3.211,8.876c-7.691,0.326 -129.614,8.634 -132.714,3.469Z" style="fill:#e2b642;"/><path d="M589.745,916.267c-3.34,-0.068 -1.414,-10.097 -1.733,-22.468c-1.331,-51.51 1.267,-173.689 0.945,-192.11c-0.324,-18.513 -1.064,-17.346 5.437,-17.841c6.5,-0.494 70.082,-0.189 79.866,-0.572c4.991,-0.196 3.019,0.634 2.5,24.752c-0.519,24.117 3.779,182.062 1.93,192.569c-1.848,10.507 -2.232,11.005 -6.979,11.094c-19.307,0.362 -76.137,4.695 -81.966,4.576Z" style="fill:#ecbe4a;"/></g><g><path d="M404.527,937.97c-6.904,-11.504 -1.579,-233.802 -1.807,-261.602c-0.228,-27.799 12.923,-24.448 22.847,-24.784c3.76,-0.128 98.209,-0.236 115.609,0.026c16.561,0.25 10.501,24.008 9.082,173.938c-0.544,57.562 2.706,107.647 -9.082,108.849c-7.865,0.802 -133.458,8.89 -136.649,3.573Z" style="fill:#f6d06d;"/><path d="M534.703,679.928c-7.281,0.94 -50.375,1.926 -85.599,1.339c-4.264,-0.071 -14.649,-9.063 -24.078,-16.272c-7.334,-5.606 -15.095,-9.34 -12.469,-12.072c1.644,-1.71 36.875,-1.322 70.378,-1.195c25.846,0.097 50.664,-0.393 58.241,-0.279c8.495,0.128 5.366,6.292 2.226,13.461c-2.981,6.807 -5.695,14.63 -8.699,15.018Z" style="fill:#fee196;"/><path d="M404.527,937.97c-2.585,-4.308 7.644,-4.54 18.734,-8.337c7.112,-2.434 14.61,-8.07 23.096,-9.425c21.862,-3.491 50.849,-10.216 71.647,-10.937c5.45,-0.189 10.338,6.27 14.387,5.911c1.931,-0.171 3.193,5.254 5.479,10.076c2.286,4.823 5.598,9.042 3.306,9.139c-7.919,0.336 -133.458,8.89 -136.649,3.573Z" style="fill:#e2b642;"/><path d="M445.808,919.848c-3.438,-0.07 -1.455,-10.396 -1.784,-23.134c-1.37,-53.037 1.304,-178.839 0.973,-197.807c-0.334,-19.062 -1.095,-17.861 5.598,-18.37c6.693,-0.509 72.161,-0.194 82.234,-0.589c5.14,-0.202 3.109,0.653 2.575,25.486c-0.535,24.833 3.891,187.461 1.987,198.28c-1.903,10.819 -2.298,11.331 -7.186,11.422c-19.879,0.373 -78.394,4.835 -84.397,4.712Z" style="fill:#ecbe4a;"/></g><g><path d="M255.139,947.588c-7.018,-11.694 -1.605,-237.668 -1.836,-265.927c-0.232,-28.26 13.136,-24.852 23.224,-25.195c3.823,-0.129 99.833,-0.239 117.521,0.027c16.834,0.254 10.674,24.405 9.232,176.814c-0.553,58.513 2.751,109.427 -9.232,110.649c-7.996,0.816 -135.665,9.037 -138.909,3.632Z" style="fill:#f6d06d;"/><path d="M387.467,685.279c-7.4,0.955 -51.207,1.958 -87.013,1.361c-4.335,-0.072 -14.892,-9.213 -24.477,-16.54c-7.455,-5.699 -15.345,-9.495 -12.675,-12.272c1.671,-1.738 37.484,-1.344 71.542,-1.215c26.273,0.099 51.501,-0.4 59.204,-0.283c8.635,0.13 5.455,6.396 2.263,13.683c-3.031,6.92 -5.789,14.872 -8.844,15.266Z" style="fill:#fee196;"/><path d="M255.139,947.588c-2.628,-4.379 7.771,-4.615 19.044,-8.475c7.23,-2.474 14.852,-8.203 23.478,-9.58c22.223,-3.549 51.69,-10.386 72.831,-11.119c5.541,-0.192 10.509,6.374 14.626,6.009c1.962,-0.173 3.245,5.341 5.569,10.243c2.324,4.902 5.69,9.192 3.361,9.29c-8.051,0.341 -135.665,9.037 -138.909,3.632Z" style="fill:#e2b642;"/><path d="M297.103,929.167c-3.495,-0.072 -1.479,-10.568 -1.814,-23.517c-1.392,-53.915 1.326,-181.796 0.989,-201.078c-0.339,-19.377 -1.113,-18.156 5.691,-18.673c6.804,-0.518 73.354,-0.198 83.594,-0.6c5.224,-0.205 3.161,0.665 2.617,25.908c-0.543,25.243 3.956,190.56 2.021,201.558c-1.935,10.998 -2.336,11.519 -7.306,11.612c-20.208,0.379 -79.69,4.914 -85.792,4.79Z" style="fill:#ecbe4a;"/></g><g><path d="M101.4,949.83c-7.215,-12.023 -1.65,-244.343 -1.889,-273.396c-0.238,-29.053 13.506,-25.55 23.877,-25.902c3.93,-0.134 102.637,-0.247 120.822,0.027c17.307,0.261 10.974,25.091 9.492,181.78c-0.57,60.157 2.828,112.501 -9.492,113.757c-8.22,0.839 -139.475,9.291 -142.81,3.734Z" style="fill:#f6d06d;"/><path d="M237.445,680.154c-7.609,0.982 -52.646,2.013 -89.458,1.399c-4.457,-0.074 -15.31,-9.472 -25.164,-17.005c-7.665,-5.859 -15.776,-9.762 -13.031,-12.617c1.717,-1.787 38.537,-1.381 73.551,-1.249c27.011,0.102 52.948,-0.41 60.867,-0.291c8.877,0.134 5.608,6.576 2.327,14.068c-3.116,7.114 -5.952,15.289 -9.092,15.695Z" style="fill:#fee196;"/><path d="M101.4,949.83c-2.702,-4.502 7.988,-4.745 19.579,-8.712c7.432,-2.545 15.268,-8.434 24.137,-9.85c22.847,-3.649 53.141,-10.677 74.877,-11.431c5.696,-0.197 10.804,6.553 15.036,6.178c2.018,-0.179 3.336,5.491 5.726,10.53c2.389,5.04 5.85,9.45 3.455,9.551c-8.277,0.351 -139.475,9.291 -142.81,3.734Z" style="fill:#e2b642;"/><path d="M144.542,930.892c-3.594,-0.074 -1.521,-10.866 -1.865,-24.178c-1.432,-55.429 1.363,-186.902 1.017,-206.726c-0.349,-19.921 -1.144,-18.665 5.851,-19.197c6.994,-0.532 75.414,-0.204 85.942,-0.617c5.371,-0.21 3.249,0.684 2.69,26.636c-0.558,25.952 4.067,195.912 2.077,207.219c-1.989,11.307 -2.401,11.842 -7.51,11.938c-20.776,0.39 -81.929,5.053 -88.202,4.925Z" style="fill:#ecbe4a;"/></g><g><path d="M-54.724,958.356c-7.334,-12.221 -1.677,-248.383 -1.919,-277.917c-0.242,-29.533 13.729,-25.972 24.272,-26.33c3.995,-0.136 104.334,-0.251 122.819,0.028c17.593,0.265 11.156,25.505 9.649,184.786c-0.579,61.151 2.874,114.361 -9.649,115.638c-8.356,0.852 -141.781,9.444 -145.172,3.795Z" style="fill:#f6d06d;"/><path d="M83.571,684.221c-7.735,0.998 -53.516,2.046 -90.937,1.422c-4.531,-0.075 -15.563,-9.628 -25.58,-17.286c-7.792,-5.956 -16.037,-9.923 -13.247,-12.826c1.746,-1.816 39.174,-1.404 74.767,-1.269c27.458,0.103 53.824,-0.418 61.874,-0.296c9.024,0.136 5.701,6.685 2.365,14.3c-3.167,7.232 -6.05,15.543 -9.242,15.955Z" style="fill:#fee196;"/><path d="M-54.724,958.356c-2.746,-4.576 8.121,-4.823 19.903,-8.856c7.556,-2.587 15.521,-8.574 24.536,-10.013c23.225,-3.709 54.021,-10.854 76.115,-11.62c5.79,-0.2 10.983,6.661 15.285,6.28c2.051,-0.181 3.392,5.582 5.821,10.705c2.429,5.123 5.946,9.606 3.512,9.709c-8.414,0.356 -141.781,9.444 -145.172,3.795Z" style="fill:#e2b642;"/><path d="M-10.868,939.104c-3.653,-0.074 -1.546,-11.044 -1.896,-24.577c-1.455,-56.345 1.386,-189.993 1.034,-210.144c-0.354,-20.251 -1.163,-18.974 5.947,-19.515c7.111,-0.54 76.661,-0.207 87.363,-0.626c5.46,-0.214 3.304,0.694 2.736,27.076c-0.568,26.381 4.133,199.152 2.111,210.645c-2.022,11.494 -2.441,12.038 -7.635,12.136c-21.119,0.396 -83.283,5.136 -89.66,5.005Z" style="fill:#ecbe4a;"/></g></g><g><path d="M696.802,-98.503c37.731,-2.103 81.613,-3.475 99.373,3.636c17.759,7.112 2.282,8.75 -25.387,11.241c-27.668,2.49 12.049,25.205 29.614,29.546c17.566,4.341 53.053,42.227 4.763,32.089c-91.875,-19.29 -26.845,9.041 -12.926,16.978c13.919,7.937 32.65,50.135 -16.272,27.382c-48.921,-22.753 -34.379,1.663 -22.006,11.378c12.372,9.716 3.222,30.584 -61.332,7.253c-64.554,-23.332 -26.688,8.547 -60.079,0.857c-33.392,-7.69 -32.808,24.566 -56.302,15.071c-23.494,-9.495 -42.139,18.536 -57.268,25.162c-15.128,6.625 -13.129,19.293 -22.395,22.168c-9.265,2.875 -19.102,-34.303 -21.128,-55.322c-2.025,-21.019 68.381,-97.214 115.468,-116.653c47.088,-19.439 66.495,-28.591 105.877,-30.786Z" style="fill:#433727;"/><path d="M433.158,297.42c6.81,-0.475 11.969,-10.859 6.044,-18.241c-5.925,-7.382 -3.251,3.568 -2.521,7.177c0.729,3.608 -1.03,8.026 -4.797,8.767c-3.766,0.74 -1.734,2.508 1.274,2.297Z" style="fill:#000616;"/><path d="M422.424,284.965c6.81,-0.476 11.969,-10.859 6.044,-18.241c-5.925,-7.382 -3.251,3.568 -2.522,7.176c0.73,3.609 -1.03,8.027 -4.796,8.768c-3.767,0.74 -1.734,2.507 1.274,2.297Z" style="fill:#000616;"/><path d="M401.969,283.849c-6.81,0.476 -15.996,-10.337 -11.155,-18.471c4.841,-8.134 3.715,3.081 3.495,6.756c-0.221,3.674 4.01,9.584 7.843,9.793c3.833,0.209 2.825,1.712 -0.183,1.922Z" style="fill:#000616;"/><path d="M310.606,292.195c3.484,-2.057 3.568,-7.753 1.557,-9.204c-2.01,-1.45 -5.86,-0.757 -4.459,4.104c0.736,2.556 -2.25,-0.32 -2.379,2.393c-0.128,2.714 3.753,3.61 5.281,2.707Z" style="fill:#000616;"/><path d="M293.458,299.148c3.484,-2.058 3.568,-7.754 1.558,-9.204c-2.011,-1.451 -5.86,-0.758 -4.46,4.103c0.737,2.557 1.374,6.003 2.902,5.101Z" style="fill:#000616;"/><path d="M286.944,286.264c-2.908,-1.208 -3.589,-5.588 -2.197,-6.923c1.392,-1.335 4.434,-1.218 3.881,2.679c-0.291,2.05 -0.41,4.774 -1.684,4.244Z" style="fill:#000616;"/><path d="M307.253,241.942c0.483,-3.113 -7.393,-1.074 -10.063,-0.569c-1.479,0.279 0.296,6.502 -3.231,12.953c-3.527,6.452 -10.639,20.79 -11.279,25.29c-0.64,4.499 1.072,8.516 4.11,4.167c3.037,-4.348 7.498,-15.638 8.033,-10.266c0.534,5.372 -5.662,12.328 -5.522,16.614c0.141,4.286 2.361,8.744 5.782,5.323c3.42,-3.421 6.358,-9.194 7.082,-17.041c0.725,-7.846 3.707,-6.145 3.067,-1.646c-0.64,4.5 0.789,9.014 3.672,9.289c2.883,0.276 5.32,-3.553 5.721,-6.922c0.401,-3.369 -3.536,-9.617 -4.011,-16.425c-0.476,-6.808 -3.909,-17.228 -3.361,-20.767Z" style="fill:#e5c14a;"/><path d="M464.368,105.395c-1.007,-14.407 1.853,-21.289 11.002,-25.827c9.15,-4.537 16.017,-17.824 17.266,-31.832c1.248,-14.009 38.903,-24.993 58.28,-66.439c19.378,-41.447 44.922,-26.527 73.079,-37.961c28.157,-11.434 70.501,-34.996 44.507,-40.418c-25.993,-5.423 -100.737,8.709 -117.939,25.503c-17.203,16.794 -108.207,53.222 -116.594,76.639c-8.387,23.417 6.781,17.345 -13.747,34.371c-20.527,17.026 -22.228,16.588 -43.866,9.748c-21.638,-6.841 -34.751,52.544 -48.81,58.538c-14.059,5.994 -65.579,25.742 -84.304,28.721c-18.725,2.979 -70.105,8.797 -61.096,18.191c9.01,9.393 -11.106,16.367 7.207,23.44c18.313,7.073 37.217,-9.282 29.679,2.381c-7.538,11.664 -25.824,12.942 -19.07,21.936c6.753,8.995 -0.695,13.97 11.922,19.213c12.617,5.244 27.463,2.536 36.895,-5.919c9.433,-8.455 7.281,0.605 8.893,7.732c1.612,7.126 20.375,4.701 28.931,-0.352c8.557,-5.052 39.845,-19.489 48.866,-17.892c9.021,1.597 29.805,-27.698 39.005,-39.477c9.2,-11.78 16.481,-11.175 28.479,-14.798c11.997,-3.622 43.181,-27.518 46.867,-30.56c3.685,-3.042 15.554,-0.53 14.548,-14.938Z" style="fill:#9f835e;"/><path d="M417.568,136.925c4.365,22.098 0.45,42.289 -9.987,60.281c-10.437,17.991 1.692,32.178 3.606,35.664c1.914,3.486 -9.633,11.771 -14.846,2.708c-5.388,-9.368 -8.332,-11.668 -12.224,-3.601c-1.457,3.023 -4.981,-3.549 -3.796,-14.491c1.184,-10.941 -4.569,-1.629 -7.404,1.631c-2.835,3.261 -6.76,-5.096 -2.502,-19.871c4.258,-14.776 -3.514,-18.409 -13.552,-14.645c-10.039,3.764 45.194,-126.221 60.705,-47.676Z" style="fill:#433727;"/><path d="M347.62,159.911c-2.027,13.512 -25.607,51.905 -33.236,58.285c-7.628,6.38 -0.533,12.288 -6.841,21.638c-6.307,9.35 -11.443,3.584 -14.498,-4.277c-3.055,-7.861 -2.919,-5.921 -6.244,-5.689c-3.325,0.232 -1.399,-4.079 -0.556,-11.933c0.844,-7.855 -2.764,-3.705 -5.781,-11.012c-3.016,-7.306 -6.123,-19.897 4.784,-35.137c10.907,-15.24 31.808,-30.9 42.744,-25.817c10.935,5.083 20.768,6.344 19.628,13.942Z" style="fill:#433727;"/><path d="M410.948,233.444c3.994,6.485 10.58,9.105 12.893,12.602c2.313,3.498 1.227,3.892 7.166,9.204c5.94,5.313 7.384,14.599 7.377,19.054c-0.006,4.455 3.3,8.52 -2.966,9.912c-6.267,1.393 -5.94,-5.312 -6.331,-8.626c-0.39,-3.314 -8.886,0.652 -9.128,-5.408c-0.424,-10.63 -10.682,-9.436 -11.935,-11.416c-1.252,-1.981 -1.866,0.607 -3.626,5.026c-1.759,4.419 -5.397,9.287 -10.048,4.202c-4.65,-5.084 -3.797,-8.803 0.618,-11.657c4.414,-2.854 11.697,-3.363 9.649,-9.902c-2.048,-6.539 -5.656,-7.324 -3.55,-7.548c6.884,-0.732 8.861,-7.101 9.881,-5.443Z" style="fill:#e5c14a;"/><path d="M193.133,-61.686c-4.742,-0.997 -9.243,-1.612 -13.42,-1.798c-18.447,-0.822 -24.987,8.985 -58.03,6.282c-33.042,-2.703 -77.243,18.205 -71.868,23.398c5.374,5.193 21.289,1.853 0.619,8.866c-20.67,7.013 -54.378,50.575 -51.116,65.381c3.262,14.807 14.819,-11.058 25.708,-14.603c15.758,-5.131 -15.423,18.34 -22.985,45.596c-7.562,27.257 65.221,1.011 74.538,-9.106c9.316,-10.117 21.57,-26.008 16.326,-13.391c-5.244,12.617 18.045,27.138 31.55,21.183c13.505,-5.956 26.983,-20.262 21.069,-9.268c-5.914,10.993 -5.488,17.088 14.101,18.504c19.588,1.415 20.401,13.052 37.478,26.337c17.077,13.285 23.25,13.967 28.97,0.203c3.168,-7.623 9.898,-11.535 22.321,-15.059c-3.418,6.743 -10.956,6.722 -5.297,11.642c8.892,7.731 23.157,-3.289 32.539,-4.501c9.382,-1.212 9.945,1.103 27.86,11.417c14.698,8.462 41.138,-23.142 46.32,-31.879c7.696,-12.976 -21.555,-45.905 -34.957,-62.892c-13.777,-17.464 -35.54,-35.183 -58.787,-49.325c-12.845,-13.372 -26.601,-23.98 -41.1,-26.238c-15.903,-2.476 -21.924,-2.497 -21.839,-0.749Z" style="fill:#433727;"/><path d="M568.589,-57.989c-17.202,16.793 -70.146,61.328 -67.741,79.814c1.815,13.947 29.763,3.582 49.141,-37.865c19.378,-41.447 52.576,-28.546 80.733,-39.98c28.157,-11.434 74.308,-43.503 27.514,-37.327c-25.412,3.354 -80.689,26.612 -89.647,35.358Z" style="fill:#665847;"/><path d="M254.54,168.371c12.328,-8.209 -18.613,2.185 -37.461,-5.201c-17.433,-6.831 -49.883,14.811 -20.846,16.4c15.768,0.864 51.887,-6.924 58.307,-11.199Z" style="fill:#665847;"/><path d="M464.445,106.504c-1.007,-14.408 1.853,-21.29 11.003,-25.827c9.149,-4.537 -8.357,-40.107 -13.636,-40.359c-11.425,-0.546 2.456,34.374 -11.584,46.019c-20.527,17.026 -54.939,-21.219 -76.577,-28.06c-21.639,-6.84 -35.545,-22.574 -58.539,-48.81c-22.993,-26.235 -20.666,1.625 -16.804,6.557c57.472,73.386 2.514,76.753 7.028,96.85c1.548,6.891 -19.278,1.718 -17.335,8.001c5.406,17.472 17.799,19.741 26.076,26.194c7.418,5.783 18.92,11.505 32.715,13.788c20.066,3.322 51.35,-7.38 56.238,-8.855c11.998,-3.623 43.182,-27.519 46.867,-30.561c3.686,-3.041 15.555,-0.53 14.548,-14.937Z" style="fill:#665847;"/><path d="M464.024,96.298c-3.196,-18.111 -8.455,-9.433 -12.511,-14.347c-4.056,-4.913 -6.589,3.988 -9.094,2.678c-2.504,-1.31 -12.316,-3.594 -18.256,-0.952c-5.941,2.643 -7.037,3.505 -8.295,6.148c-3.122,6.56 -5.945,3.091 -11.062,1.855c-12.621,-3.049 -1.734,10.931 -7.252,17.615c-1.919,2.324 -8.888,-0.275 -8.518,5.607c0.324,5.16 5.632,6.221 13.019,9.371c4.535,1.934 -3.387,8.77 7.637,9.974c7.054,0.771 21.904,5.338 28.241,11.02c6.336,5.683 23.597,10.973 28.194,15.663c4.597,4.691 23.094,3.769 23.153,-8.671c0.058,-12.44 -2.881,-22.629 -11.404,-30.386c-8.524,-7.757 -13.238,-22.092 -13.852,-25.575Z" style="fill:#eee3e1;"/><path d="M469.554,136.932c-1.988,0.139 -3.489,1.866 -3.35,3.854c0.139,1.988 1.866,3.489 3.854,3.35c1.988,-0.139 3.489,-1.866 3.35,-3.854c-0.139,-1.988 -1.866,-3.489 -3.854,-3.35Z" style="fill:#000616;"/><path d="M489.163,149.924c2.445,8.935 9.991,23.179 -4.314,31.902c-7.477,4.56 -8.65,1.718 -7.065,0.494c1.585,-1.224 1.459,-3.025 -0.407,-5.818c-1.865,-2.794 -3.525,-4.627 -4.756,-8.299c-1.231,-3.673 -6.57,-6.362 -8.129,-8.759c-1.56,-2.397 1.565,-1.502 -1.325,-7.008c-2.891,-5.505 -1.512,-7.69 4.072,-3.486c5.583,4.204 9.666,6.842 11.499,5.183c1.833,-1.66 9.49,-7.624 10.425,-4.209Z" style="fill:#e5c14a;"/></g></g></svg>