<?xml version="1.0" encoding="UTF-8" standalone="no"?>
<!DOCTYPE svg PUBLIC "-//W3C//DTD SVG 1.1//EN" "http://www.w3.org/Graphics/SVG/1.1/DTD/svg11.dtd">
<svg width="1634px" height="1900px" version="1.1" xmlns="http://www.w3.org/2000/svg" xmlns:xlink="http://www.w3.org/1999/xlink" xml:space="preserve" style="fill-rule:evenodd;clip-rule:evenodd;stroke-linejoin:round;stroke-miterlimit:1.41421;">
    <clipPath id="_clip1">
        <rect id="whitehousetrump" x="0" y="0" width="1634" height="1900"/>
    </clipPath>
    <g clip-path="url(#_clip1)">
        <path d="M0.204,612l210.469,-42.741l1423.53,252.006l0,1078.74l-1634,0l0,-1288Z" style="fill:#e34a47;"/>
        <g>
            <path d="M226.103,191.245l199.849,-7.79c7.426,-9.95 -0.317,-27.419 8.58,-26.47l9.374,0.623c9.078,1.274 12.049,12.872 10.572,29.275l99.668,35.836l0,107.105l-2.491,5.794l2.491,106.179c-4.763,8.675 -5.9,106.878 0,118.328l-20.981,133.9l-444.103,0l0,-458.063l111.317,-41.289l0,-26.394c-0.533,-8.318 2.12,-11.875 7.958,-10.671l9.612,0c2.484,1.291 4.498,9.155 3.485,14.53l4.669,19.107Z" style="fill:#e9e9e9;"/>
            <path d="M-0.23,227.51l0,-32.996c-2.13,-7.754 0.539,-12.005 10.223,-11.137l10.455,0c14.262,0.574 13.514,13.832 12.148,30.653c-0.869,10.697 16.363,17.042 16.458,13.19l103.074,-0.606c0.404,7.25 0.064,415.953 0.007,481.258c-0.004,5.662 -8.673,8.757 -8.673,8.757c-68.461,-3.459 -128.086,-0.684 -187.656,-0.639c-129.885,0.097 -241.575,2.615 -347.941,1.084c-10.613,-0.189 -14.018,-3.202 -15.121,-7.118c-1.201,-8.874 -1.859,-17.177 1.289,-21.49l9.49,-5.616l17.394,-2.165l35.564,-103.673l-21.941,-263.367c-6.736,0.116 -19.213,-41.705 -13.178,-40.428l20.904,-43.605l357.504,-2.102Z" style="fill:#e9e9e9;"/>
            <path d="M629.953,227.51l2.724,-17.026c0.574,-12.428 -5.208,-28.087 -14.893,-27.218l-12.011,0c-14.262,0.574 -10.011,13.943 -8.646,30.764c0.869,10.697 -16.362,17.042 -16.458,13.19l-103.073,-0.606c-0.405,7.25 -0.065,415.953 -0.008,481.258c0.005,5.662 8.674,8.757 8.674,8.757c68.46,-3.459 128.085,-0.684 187.656,-0.639c129.884,0.097 194.256,3.107 300.623,1.577c10.612,-0.189 55.11,-3.695 56.212,-7.611c1.202,-8.874 1.86,-17.177 -1.289,-21.49l-3.264,-5.616l-17.394,-2.165l-35.564,-103.673l21.941,-263.367c6.736,0.116 19.213,-41.705 13.179,-40.428l-20.905,-43.605l-357.504,-2.102Z" style="fill:#e9e9e9;"/>
            <path d="M184.466,697.142c-59.287,-28.429 -123.918,-53.271 -96.674,-139.782l6.63,-3.919c0,0 4.85,-6.102 4.985,-11.889c0.99,-42.229 4.794,-217.761 -0.218,-223.029c-0.677,-0.712 -4.109,-0.186 -5.246,0.403c-15.239,7.893 -21.792,-7.393 -21.314,-16.972c0.405,-8.107 -3.769,-10.569 -3.769,-10.569l-7.096,-4.143c-5.898,-2.902 -10.769,-13.772 -8.526,-19.278l3.424,-24.211c0,0 10.366,-13.385 39.812,-28.392c-4.986,-8.317 6.416,-15.355 10.814,-15.769c3.109,-0.292 10.965,-0.391 10.478,6.153c9.076,-3.633 19.353,-7.217 30.949,-10.59c0.764,-6.584 4.31,-12.755 19.542,-15.671c5.849,-1.12 12.12,0.258 19.23,6.366c17.139,-3.333 36.33,-6.135 57.778,-8.131c0.198,-6.566 2.928,-10.696 18.904,-10.728c10.557,-0.022 21.278,2.084 19.885,8.158c10.579,-0.436 21.616,-0.685 33.128,-0.725l0,-174.424l7.394,0l0,174.426c10.944,0.043 21.464,0.255 31.574,0.619c2.7,-6.088 12.422,-7.409 18.902,-7.258c14.877,0.346 19.336,2.243 19.899,9.526c21.376,1.758 40.561,4.231 57.743,7.177c5.741,-4.731 4.473,-8.961 12.531,-6.493c5.343,1.636 25.82,4.871 26.351,14.705c11.505,2.938 21.761,6.061 30.872,9.235c-0.863,-5.714 5.742,-4.182 11.844,-2.127c5.385,1.813 10.379,3.342 9.508,10.483c19.34,8.501 30.926,16.716 37.26,21.455c8.322,6.226 7.584,16.339 5.592,14.936l0,23.798l-4.903,10.353l-7.18,4.107c-3.533,2.634 -5.235,6.93 -4.26,13.655l0,15.596c-1.073,6.695 -4.167,10.31 -8.937,11.37c-2.584,5.13 -7.796,5.131 -13.164,-1.606c-1.324,-1.661 -7.3,-3.659 -8.034,3.292c-1.961,18.56 -0.103,61.022 0.566,103.211c0.872,54.902 -0.722,109.34 0.299,110.039c-0.423,6.56 0.651,11.544 5.021,13.064c6.261,-1.004 10.436,1.361 8.086,14.267l0,114.05c0.139,10.376 -52.549,18.561 -59.259,19.535l-26.943,-3.793c-11.077,-0.78 -15.272,-3.951 -13.765,-9.105l0.389,-44.264c0,-13.019 -10.949,-27.485 -23.956,-27.485c-13.006,0 -25.122,12.907 -25.123,25.927l1.09,38.111c-1.601,8.818 -3.798,16.802 -12.032,16.336l-44.056,0c-3.808,-1.868 -5.358,-7.17 -5.038,-15.318l0.549,-36.791c0,-13.02 -11.338,-28.265 -24.345,-28.265c-13.007,0 -23.566,10.57 -23.567,23.59l0,48.159c-0.803,4.816 -4.004,7.815 -10.098,8.625l-44.282,0c-11.416,0.381 -13.311,-3.234 -12.163,-8.126l-0.337,-53.332c0,-13.02 -10.171,-18.916 -23.178,-18.916c-13.006,0 -22.01,11.349 -22.01,24.369l-1.556,56.005ZM165.352,454.499c1.364,-9.189 -3.13,-17.73 -11.473,-16.346c-11.138,1.847 -21.901,0.897 -23.349,16.751l0,83.713c-1.414,12.126 2.345,18.52 12.347,17.995l0.608,19.658c-0.902,17.171 10.885,15.076 7.346,-0.051l0,-19.748c0,0 11.464,-1.93 11.485,-18.761c0.021,-16.649 -2.087,-48.715 3.036,-83.211ZM488.208,437.693c-10.659,-0.508 -13.374,7.542 -10.208,11.888l0,81.302c-2.615,14.919 -0.992,23.944 6.226,25.189c1.634,0.282 5.334,0.165 5.778,8.976l0.661,13.287c-1.019,8.763 -0.932,8.471 3.515,8.753c5.44,0.345 5.653,-1.56 5.308,-6.65l0,-16.4c-0.711,-10.865 12.328,-10.501 12.891,-25.608c0.952,-25.528 -0.335,-49.867 0.182,-89.553c0.116,-8.97 -14.285,-10.704 -24.353,-11.184ZM253.362,443.72c0,0 -0.669,-15.885 -5.845,-15.65c-9.437,0.428 -23.939,8.908 -33.281,2.918c-10.843,-6.952 -21.723,14.969 -16.512,24.038l0,95.277l13.547,5.397l0.677,20.542c1.405,10.601 4.675,19.492 26.825,11.067l0.388,-11.894c-0.909,-19.305 4.41,-26.685 14.201,-25.5l0,-106.195ZM354.424,427.995c-11.876,-0.189 -20.721,0.489 -34.381,0.489c-6.234,0 -14.069,4.289 -18.128,0.067c-5.581,-5.806 -16.289,3.642 -16.309,13.579c-0.117,55.844 2.144,107.006 2.144,107.006c6.284,-0.851 13.463,5.896 11.573,18.691c-2.509,16.988 1.631,19.219 13.413,21.466c11.068,2.11 29.701,0.292 31.101,-6.658l0.544,-13.167c0.301,-12.199 4.978,-17.772 11.645,-20.332c0,0 5.543,-1.404 5.698,-15.751c0.213,-19.674 1.483,-105.251 -7.3,-105.39ZM406.15,430.161c-8.263,-3.974 -19.108,15.033 -16.607,18.181l0,88.449c-2.025,10.35 0.287,16.119 7.834,16.359c5.064,0.972 7.386,4.739 5.7,12.588c-1.486,20.003 5.666,27.6 22.306,21.571c8.877,2.95 12.901,0.162 11.066,-9.551l0,-10.491c-1.717,-5.262 -0.681,-10.182 5.8,-14.428l5.281,-3.307c0,0 -0.181,-46.395 0.514,-105.171c0.107,-9.059 -3.133,-11.827 -5.59,-12.02c-10.622,-0.835 -23.994,3.741 -36.304,-2.18ZM486.266,298.09c-0.645,10.455 -6.087,12.743 -6.087,12.743c-2.167,1.531 -2.806,5.381 -2.179,11.151l0,78.972c-1.889,1.131 2.103,6.506 5.414,7.078c8.176,1.414 15.071,3.872 19.93,4.202c3.933,0.268 9.657,-1.648 9.597,-6.261c-0.596,-45.632 -0.104,-84.999 -2.373,-87.452c-4.735,-5.12 -0.659,-15.62 -14.332,-18.409c-3.158,-0.644 -6.469,-1.364 -9.97,-2.024ZM158.916,303.791c-1.059,-2.43 -5.714,-6.217 -7.41,-5.899c-3.144,0.589 -6.13,1.191 -8.965,1.802c-2.205,0.476 -3.463,3.65 -3.463,5.352c0,6.58 -2.935,10.59 -5.365,12.783c-1.717,1.549 -3.183,11.788 -3.183,11.788l0,69.472c0,0 -2.209,17.107 8.699,13.523c4.127,-1.356 16.942,-3.902 22.023,-4.815c3.985,-0.715 4.781,-9.495 4.807,-14.067c0.25,-44.014 -0.289,-80.791 -2.724,-83.192c-1.927,-1.902 -3.36,-4.316 -4.419,-6.747ZM404.342,288.51c0.37,0.589 -5.658,1.248 -5.658,1.985c0,11.686 -8.518,21.813 -8.518,21.813l-0.533,76.217c0,0 -2.172,11.879 12.958,13.267c14.343,1.316 35.218,1.791 39.284,1.946c4.687,0.18 8.269,-2.848 8.061,-8.736c-1.531,-43.281 6.169,-81.979 -2.406,-84.464c-7.96,-2.307 -6.464,-17.732 -6.464,-17.732c0,0 -19.145,-3.355 -36.724,-4.296ZM253.362,302.96c0,0 -6.868,-1.891 -8.676,-4.566c-2.868,-4.243 -1.97,-9.985 -8.743,-9.704c-8.01,0.332 -15.578,0.864 -22.732,1.461c-4.587,0.383 -7.354,5.347 -7.354,8.068c0,11.564 -8.133,13.86 -8.133,13.86l0,78.894c-2.056,0.851 1.59,12.861 9.786,12.629c9.769,-0.277 20.691,-2.284 30.016,-2.104c12.346,0.239 20.801,-14.573 15.836,-17.182l0,-81.356ZM356.026,304.518c-5.583,-5.709 -2.659,-18.71 -16.391,-17.81c-6.432,0.421 -13.085,-0.108 -19.924,-0.108c-6.728,0 -13.261,0.081 -19.603,0.098c-7.674,0.022 1.718,12.165 -12.358,14.704c-3.279,0.591 -2.793,38.27 -2.743,82.06c0.025,22.515 9.303,17.3 14.057,17.265c6.976,-0.051 14.182,-0.076 21.625,-0.076c8.889,0 17.48,-0.492 25.721,0.089c15.058,1.059 9.411,-20.298 9.966,-41.647c0.671,-25.816 0.946,-53.25 -0.35,-54.575ZM113.835,257.96c0,0 60.121,-35.047 206.031,-35.047c159.42,0 208.732,28.395 208.732,28.395l-0.676,-18.933c0,0 -57.418,-31.781 -207.381,-31.781c-149.963,0 -207.381,35.672 -207.381,35.672l0.675,21.694Z" style="fill:#fff;"/>
            <path d="M12.868,627.04l-12.31,3.561c-5.176,-0.823 -9.55,0.639 -8.311,18.095l-2.668,26.403c-0.642,5.837 -0.815,8.572 -6.312,8.686l-352.94,-3.673c-8.376,1.839 -11.195,-2.154 -9.41,-10.98l1.334,-53.518c2.716,-13.088 5.647,-15.207 8.628,-14.762c9.274,-1.554 2.348,-22.836 2.556,-55.015c0.382,-59.131 -3.292,-153.937 -2.239,-223.404c0.076,-5.021 -1.102,-12.817 4.452,-11.349c37.877,10.011 91.19,-6.487 161.833,0.589c76.952,7.709 164.432,-1.541 223.489,-2.305c42.029,-0.544 69.856,-0.955 69.856,-0.955l0,-38.173l-33.893,11.806c-2.444,-12.245 -155.773,-7.382 -276.999,-11.711c-55.902,-1.996 -145.337,2.571 -145.854,2.633c-11.505,2.15 -24.428,-2.119 -17.598,-15.06l3.405,-27.854c0.181,-8.338 2.86,-11.146 8.037,-8.426l6.379,-6.7c8.792,-9.423 19.344,-5.82 30.196,0c-2.058,8.902 14.126,2.22 34.331,6.97c15.288,3.595 49.211,1.804 49.409,-6.97c1.275,-9.402 30.654,-8.292 30.196,0c0.905,3.791 3.742,5.771 7.903,6.512l64.933,0.166c5.84,0.72 8.046,-2.087 8.414,-6.678c0.065,-11.085 25.32,-11.418 25.646,-1.752c0.324,9.633 55.936,11.629 77.658,8.721c7.624,-1.02 8.764,-6.969 8.764,-6.969c1.699,-7.754 9.173,-9.631 20.481,-7.867c8.269,1.29 7.386,7.197 9.716,7.867c-0.171,5.615 3.991,7.45 11.117,6.7l78.039,0l0,18.074l-16.991,8.396l16.991,7.886l0,399.701l-40.965,-28.645l-37.273,0ZM-203.169,672.473c-4.563,-0.531 -6.635,-1.196 -6.852,-4.766c-1.424,-3.168 -0.244,-4.851 2.121,-5.86l1.737,0.25c2.048,-0.237 2.63,-5.325 2.628,-10.006c-0.015,-31.577 -2.819,-36.265 5.814,-36.477l32.438,0.748c3.194,0.054 5.352,2.046 6.475,5.974c-1.153,11.207 0.662,19.039 0.264,33.636c-0.111,4.064 -0.503,6.45 4.312,6.374c2.173,-0.397 3.686,1.085 4.234,5.313c-0.334,3.01 -1.745,4.449 -4.234,4.316c-20.956,-0.605 -35.98,2.008 -48.937,0.498ZM-269.038,672.473c5.209,1.215 6.635,-1.196 6.852,-4.766c1.425,-3.168 0.244,-4.851 -2.12,-5.86c0,0 -4.169,-0.887 -4.167,-5.568c0.016,-31.576 -0.368,-40.453 -9.001,-40.665l-29.449,0.748c-3.195,0.054 -5.353,2.046 -6.475,5.974c1.152,11.207 -0.663,19.039 -0.265,33.636c0.111,4.064 0.503,6.45 -4.312,6.374c-2.173,-0.397 -3.686,1.085 -4.233,5.313c0.333,3.01 1.745,4.449 4.233,4.316c20.956,-0.605 35.929,-0.472 48.937,0.498ZM-49.932,671.277c6.109,-0.285 10.42,0 10.638,-3.57c1.424,-3.168 0.244,-4.851 -2.121,-5.86c0,0 -4.168,-0.887 -4.166,-5.568c0.016,-31.576 2.62,-40.453 -6.013,-40.665l-32.438,0.748c-3.194,0.054 -5.352,2.046 -6.475,5.974c1.153,11.207 -0.662,19.039 -0.264,33.636c0.111,4.064 0.503,6.45 -4.312,6.374c-2.174,-0.397 -3.687,1.085 -4.234,5.313c0.334,3.01 1.745,4.449 4.234,4.316c20.956,-0.605 31.744,-0.074 45.151,-0.698ZM-201.781,582.105c-5.209,1.215 -6.635,-1.197 -6.852,-4.767c-1.425,-3.167 0.2,-9.302 2.565,-10.311c0,0 3.724,0.449 3.721,-4.233c-0.01,-20.857 0.154,-54.76 -0.358,-76.009c-0.244,-10.092 4.206,-9.991 7.137,-10.063l31.672,0.748c3.194,0.055 5.353,2.046 6.475,5.974c-1.153,11.208 0.662,64.446 0.264,79.044c-0.11,4.063 -0.502,6.449 4.312,6.373c2.174,-0.397 3.687,4.201 4.234,8.429c-0.334,3.011 -1.745,4.449 -4.234,4.316c-21.756,4.058 -36.536,3.069 -48.936,0.499ZM66.584,582.105c5.209,1.215 6.635,-1.197 6.852,-4.767c1.425,-3.167 -0.201,-6.186 -2.565,-7.195c0,0 -4.959,-1.799 -5.302,-13.405c-0.617,-20.848 -0.513,-38.664 0,-59.912c0.243,-10.092 0.846,-20.724 -5.198,-20.104l-33.056,-0.637c-3.194,0.055 -3.969,3.431 -5.092,7.359c1.153,11.208 -0.316,58.697 0.082,73.294c0.111,4.064 0.157,15.315 -4.658,15.239c-2.173,-0.397 -3.686,1.085 -4.233,5.313c0.333,3.011 1.745,4.449 4.233,4.316c23.066,0.237 37.473,0.336 48.937,0.499ZM-314.739,582.105c-5.209,1.215 -6.635,-1.197 -6.852,-4.767c-1.425,-3.167 -0.244,-4.851 2.12,-5.859c0,0 4.169,-0.887 4.166,-5.568c-0.01,-20.857 0.154,-57.877 -0.358,-79.126c-0.243,-10.092 6.43,-9.991 9.36,-10.063l29.449,0.748c3.195,0.055 5.353,2.046 6.475,5.974c-1.152,11.208 0.663,67.562 0.265,82.16c-0.111,4.063 -0.503,6.449 4.312,6.373c2.173,-0.397 3.686,1.085 4.233,5.313c-0.334,3.011 -1.745,4.449 -4.233,4.316c-20.956,-0.604 -35.929,-0.472 -48.937,0.499ZM-44.903,578.544c5.209,1.214 6.209,-6.057 3.844,-7.065c0,0 -4.169,2.229 -4.166,-2.452c0.01,-20.857 2.959,-64.11 3.471,-85.358c0.244,-10.092 -6.429,-6.875 -9.36,-6.947l-33.007,0.303c-3.194,0.055 -2.684,10.059 -3.807,13.987c1.153,11.208 0.672,51.129 1.07,65.726c0.111,4.064 0.059,15.315 -4.756,15.239c-2.174,-0.397 -3.687,1.085 -4.234,5.313c0.334,3.011 1.745,4.449 4.234,4.316c20.955,-0.604 33.702,-4.033 46.711,-3.062ZM-273.37,463.442c5.405,-0.434 9.518,-0.935 7.195,-7.259c-3.896,-10.602 -8.706,-22.044 -23.344,-22.449c-15.881,-0.439 -28.114,11.163 -30.548,24.682c-0.287,1.594 3.242,5.026 3.242,5.026l43.455,0ZM-43.744,463.442c0,0 3.528,-3.432 3.242,-5.026c-2.434,-13.519 -11.554,-21.115 -27.436,-20.676c-14.637,0.405 -22.561,7.841 -26.456,18.443c-2.324,6.324 1.79,6.825 7.195,7.259l43.455,0ZM17.797,462.217l-0.598,-3.942l11.866,-10.468c4.257,-6.795 14.972,-14.594 18.805,-10.006l22.166,20.524c0.371,3.092 -1.738,4.344 -5.544,4.338c-17.383,0.514 -29.429,0.581 -46.695,-0.446ZM-154.212,462.217l0.598,-3.942l-18.537,-17.163c-4.257,-6.795 -8.302,-7.899 -12.134,-3.311l-22.166,20.524c-0.371,3.092 1.738,4.344 5.544,4.338c17.383,0.514 29.429,0.581 46.695,-0.446ZM70.319,415.108c5.209,1.103 6.635,-1.086 6.853,-4.329c1.424,-2.876 -0.201,-5.618 -2.565,-6.534c0,0 -4.959,-1.633 -5.303,-12.173c-0.617,-18.933 -0.512,-12.473 0,-31.769c0.244,-9.165 0.847,-18.82 -5.197,-18.257l-33.056,-0.579c-3.195,0.05 -3.97,3.116 -5.092,6.683c1.153,10.178 -0.316,27.549 0.082,40.806c0.111,3.69 0.157,13.908 -4.658,13.839c-2.174,-0.361 -3.687,0.985 -4.234,4.825c0.334,2.733 1.745,4.04 4.234,3.919c23.066,0.215 37.473,3.421 48.936,3.569ZM-88.779,414.487c-5.209,1.094 -6.635,-1.077 -6.852,-4.292c-1.425,-2.852 0.201,-5.571 2.565,-6.479c0,0 4.959,-1.62 5.302,-12.071c0.617,-18.773 -0.294,-12.363 0,-31.501c0.202,-13.094 2.712,-19.235 8.756,-18.677l29.498,0c3.194,0.05 3.969,3.09 5.092,6.627c-1.153,10.092 0.316,30.406 -0.082,43.551c-0.111,3.659 -0.157,13.791 4.658,13.723c2.173,-0.358 3.686,0.977 4.233,4.784c-0.333,2.711 -1.745,4.006 -4.233,3.886c-23.066,0.214 -37.473,0.303 -48.937,0.449ZM-268.376,409.521c5.209,1.02 6.635,-1.004 6.852,-4.001c1.425,-2.658 -0.2,-5.191 -2.565,-6.038c0,0 -4.959,-1.509 -5.302,-11.249c-0.617,-17.497 -0.513,-11.527 0,-29.359c0.243,-8.47 0.846,-17.393 -5.198,-16.872l-29.943,-0.535c-3.194,0.046 -3.969,2.88 -5.091,6.176c1.152,9.406 -3.43,28.339 -3.032,40.59c0.111,3.41 -2.956,9.736 -7.771,9.672c-2.173,-0.333 -0.573,4.027 -1.12,7.575c0.333,2.527 1.745,3.734 4.233,3.622c23.066,0.199 37.473,0.282 48.937,0.419ZM-154.541,408.267c5.209,1.048 6.635,-4.148 6.852,-7.226c1.424,-2.731 -0.201,-5.334 -2.565,-6.203c0,0 -4.959,-1.551 -5.302,-11.558c-0.618,-17.975 -0.513,-8.726 0,-27.046c0.243,-8.701 2.18,-18.314 -9.645,-20.004l-23.717,2.121c-3.195,0.047 -9.751,-0.27 -10.873,3.116c1.153,9.664 1.462,26.556 1.861,39.142c0.11,3.503 -0.733,15.876 -5.548,15.81c-2.173,-0.342 -0.573,4.052 -1.12,7.697c0.333,2.596 1.745,3.836 4.233,3.721c23.066,0.205 34.36,0.29 45.824,0.43ZM74.115,248.098l-12.745,-5.915c-0.587,5.267 -1.455,10.313 -5.858,12.585c0.148,0.742 0.3,1.507 0.46,2.295l18.143,-8.965ZM55.512,254.768c-2.781,-14.012 -3.528,-19.722 -9.997,-15.066c-118.543,-4.976 -239.573,-3.877 -361.56,-0.446c-23.33,-0.953 -37.704,0.562 -40.469,5.275l0,4.83c-1.188,5.419 1.319,7.249 6.354,6.623l398.148,0c3.269,0.192 5.7,-0.274 7.524,-1.216Z" style="fill:#fff;"/>
            <path d="M616.856,627.04l12.309,3.561c5.176,-0.823 9.551,0.639 8.311,18.095l2.668,26.403c0.642,5.837 0.816,8.572 6.313,8.686l352.94,-3.673c8.375,1.839 11.194,-2.154 9.409,-10.98l-1.334,-53.518c-2.716,-13.088 -5.646,-15.207 -8.627,-14.762c-9.275,-1.554 -2.349,-22.836 -2.557,-55.015c-0.382,-59.131 3.293,-153.937 2.24,-223.404c-0.076,-5.021 -3.819,-10.947 -9.512,-10.181c-42.545,5.727 -66.434,6.145 -137.317,2.148c-84.346,-4.756 -183.888,-4.268 -242.945,-5.032c-42.029,-0.544 -69.857,-0.955 -69.857,-0.955l0,-38.173l33.893,11.806c2.444,-12.245 155.773,1.966 277,-2.362c55.901,-1.997 141.834,-4.051 142.351,-3.989c11.505,2.15 27.931,-4.846 21.101,-17.787l1.264,-16.947c1.764,-9.896 -7.919,-27.117 -13.095,-24.397l-5.991,-1.636c-1.787,-10.202 -22.846,-10.105 -27.861,-2.726c2.058,8.901 -10.577,4.02 -31.218,6.191c-23.071,2.425 -54.659,5.309 -54.857,-3.465c-1.274,-9.402 -26.762,-12.966 -26.305,-4.674c-0.904,3.791 -8.022,12.004 -12.182,12.744l-64.545,-1.392c-5.839,0.72 -8.045,-2.087 -8.414,-6.678c-0.064,-11.085 -25.709,-7.523 -26.034,2.143c-0.325,9.633 -55.548,7.734 -77.27,4.826c-7.624,-1.02 -8.764,-6.969 -8.764,-6.969c-1.698,-7.754 -8.006,-13.526 -19.313,-11.762c-8.269,1.29 -8.554,11.092 -10.883,11.762c0.17,5.615 -3.992,7.45 -11.118,6.7l-78.039,0l0,18.074l16.992,8.396l-16.992,7.886l0,399.701l40.966,-28.645l37.273,0ZM832.892,672.473c4.563,-0.531 6.635,-1.196 6.852,-4.766c1.425,-3.168 0.244,-4.851 -2.12,-5.86l-1.738,0.25c-2.048,-0.237 -2.63,-5.325 -2.628,-10.006c0.016,-31.577 2.819,-36.265 -5.814,-36.477l-32.437,0.748c-3.195,0.054 -5.353,2.046 -6.475,5.974c1.152,11.207 -0.663,19.039 -0.265,33.636c0.111,4.064 0.503,6.45 -4.312,6.374c-2.173,-0.397 -3.686,1.085 -4.233,5.313c0.334,3.01 1.745,4.449 4.233,4.316c20.956,-0.605 35.98,2.008 48.937,0.498ZM898.761,672.473c-5.209,1.215 -6.635,-1.196 -6.852,-4.766c-1.424,-3.168 -0.244,-4.851 2.121,-5.86c0,0 4.168,-0.887 4.166,-5.568c-0.016,-31.576 0.369,-40.453 9.002,-40.665l29.449,-2.368c3.194,0.054 5.352,2.046 6.475,5.973c-1.153,11.208 0.662,22.156 0.264,36.753c-0.111,4.064 -0.503,6.45 4.312,6.374c2.174,-0.397 3.686,1.085 4.234,5.313c-0.334,3.01 -1.745,4.449 -4.234,4.316c-20.956,-0.605 -35.928,-0.472 -48.937,0.498ZM679.655,671.277c-6.108,-0.285 -10.42,0 -10.637,-3.57c-1.425,-3.168 -0.244,-4.851 2.12,-5.86c0,0 4.169,-0.887 4.166,-5.568c-0.015,-31.576 -2.619,-40.453 6.014,-40.665l32.437,0.748c3.194,0.054 5.353,2.046 6.475,5.974c-1.153,11.207 0.662,19.039 0.264,33.636c-0.11,4.064 -0.502,6.45 4.312,6.374c2.174,-0.397 3.687,1.085 4.234,5.313c-0.334,3.01 -1.745,4.449 -4.234,4.316c-20.955,-0.605 -31.744,-0.074 -45.151,-0.698ZM831.504,578.989c5.209,1.215 6.635,-1.197 6.853,-4.767c1.424,-3.168 -0.201,-9.303 -2.565,-10.311c0,0 -3.724,0.449 -3.722,-4.233c0.01,-20.857 -0.154,-51.644 0.359,-72.893c0.243,-10.092 -4.207,-9.991 -7.137,-10.063l-31.673,0.748c-3.194,0.055 -5.353,2.046 -6.475,5.974c1.153,11.208 -0.662,61.33 -0.264,75.928c0.111,4.063 0.503,6.449 -4.312,6.373c-2.174,-0.397 -3.687,4.201 -4.234,8.429c0.334,3.01 1.745,4.449 4.234,4.316c21.756,4.058 36.536,3.068 48.936,0.499ZM563.139,582.105c-5.208,1.215 -6.635,-1.197 -6.852,-4.767c-1.424,-3.167 0.201,-6.186 2.565,-7.195c0,0 4.959,-1.799 5.303,-13.405c0.617,-20.848 0.512,-38.664 0,-59.912c-0.244,-10.092 -0.847,-20.724 5.197,-20.104l33.056,-0.637c3.195,0.055 3.969,3.431 5.092,7.359c-1.153,11.208 0.316,55.58 -0.082,70.178c-0.111,4.063 -0.157,15.315 4.658,15.239c2.174,-0.397 3.686,1.085 4.234,5.313c-0.334,3.01 -1.745,4.449 -4.234,4.316c-23.066,0.237 -37.473,3.452 -48.937,3.615ZM944.462,582.105c5.209,1.215 6.635,-1.197 6.852,-4.767c1.425,-3.167 0.245,-4.851 -2.12,-5.859c0,0 -4.168,-0.887 -4.166,-5.568c0.01,-20.857 -0.154,-57.877 0.358,-79.126c0.244,-10.092 -6.429,-9.991 -9.36,-10.063l-29.449,0.748c-3.194,0.055 -5.353,2.046 -6.475,5.974c1.153,11.208 -0.662,67.562 -0.264,82.16c0.111,4.063 0.503,6.449 -4.312,6.373c-2.174,-0.397 -3.687,1.085 -4.234,5.313c0.334,3.011 1.745,4.449 4.234,4.316c20.955,-0.604 35.928,-0.472 48.936,0.499ZM674.627,578.544c-5.209,1.214 -6.209,-6.057 -3.845,-7.065c0,0 4.169,2.229 4.167,-2.452c-0.011,-20.857 -2.96,-64.11 -3.472,-85.358c-0.243,-10.092 6.43,-6.875 9.36,-6.947l33.007,0.303c3.194,0.055 2.684,10.059 3.807,13.987c-1.153,11.208 -0.672,48.012 -1.07,62.61c-0.111,4.063 -0.058,15.315 4.757,15.239c2.173,-0.397 3.686,1.085 4.233,5.313c-0.334,3.01 -1.745,4.449 -4.233,4.316c-20.956,-0.604 -33.703,-0.917 -46.711,0.054ZM903.093,463.442c-5.404,-0.434 -9.518,-0.935 -7.194,-7.259c3.895,-10.602 14.309,-20.174 28.947,-20.579c15.881,-0.44 22.511,9.293 24.944,22.812c0.287,1.594 -3.242,5.026 -3.242,5.026l-43.455,0ZM673.468,463.442c0,0 -3.529,-3.432 -3.242,-5.026c2.433,-13.519 11.554,-21.115 27.435,-20.676c14.638,0.405 22.561,7.841 26.457,18.443c2.323,6.324 -1.791,6.825 -7.195,7.259l-43.455,0ZM611.926,462.217l0.598,-3.942l-11.865,-10.468c-4.257,-6.795 -14.973,-14.594 -18.806,-10.006l-22.166,20.524c-0.37,3.092 1.739,4.344 5.544,4.338c17.383,0.514 29.429,0.581 46.695,-0.446ZM783.936,462.217l-0.599,-3.942l18.537,-14.047c4.257,-6.795 8.302,-7.898 12.135,-3.311l22.166,17.408c0.37,3.092 -1.739,4.344 -5.544,4.338c-17.383,0.514 -29.43,0.581 -46.695,-0.446ZM559.404,411.992c-5.209,1.103 -6.635,-1.087 -6.852,-4.329c-1.425,-2.876 0.2,-5.618 2.565,-6.534c0,0 4.958,-1.633 5.302,-12.173c0.617,-18.933 0.512,-9.357 0,-28.653c-0.243,-9.165 -0.846,-18.82 5.198,-18.257l33.056,-0.579c3.194,0.05 3.969,3.116 5.091,6.683c-1.153,10.178 0.317,30.665 -0.081,43.922c-0.111,3.69 -0.157,13.908 4.657,13.839c2.174,-0.36 3.687,0.985 4.234,4.825c-0.334,2.734 -1.745,4.04 -4.234,3.919c-23.065,0.215 -37.472,-2.811 -48.936,-2.663ZM718.502,414.487c5.209,1.094 6.635,-1.077 6.852,-4.292c1.425,-2.852 -0.2,-5.571 -2.565,-6.479c0,0 -4.958,-1.62 -5.302,-12.071c-0.617,-18.773 0.294,-12.363 0,-31.501c-0.201,-13.094 -2.712,-19.235 -8.755,-18.677l-29.499,0c-3.194,0.05 -3.969,3.09 -5.091,6.627c1.153,10.092 -0.317,33.523 0.082,46.667c0.11,3.659 0.157,13.791 -4.658,13.723c-2.174,-0.358 -3.687,0.977 -4.234,4.784c0.334,2.711 1.745,4.006 4.234,3.886c23.065,0.214 37.472,-2.813 48.936,-2.667ZM898.099,409.521c-5.209,1.02 -6.635,-1.004 -6.852,-4.001c-1.424,-2.658 0.201,-5.191 2.565,-6.038c0,0 4.959,-1.509 5.303,-11.249c0.617,-17.497 0.512,-11.527 0,-29.359c-0.244,-8.47 -0.847,-17.393 5.197,-16.872l31.111,-1.703c3.194,0.046 2.801,4.048 3.924,7.344c-1.153,9.406 0.316,23.353 -0.082,35.604c-0.111,3.41 6.069,14.722 10.884,14.658c2.174,-0.333 0.573,4.027 1.121,7.575c-0.334,2.527 -1.745,3.734 -4.234,3.622c-23.066,0.199 -37.473,0.282 -48.937,0.419ZM784.265,408.267c-5.209,1.048 -6.635,-4.148 -6.853,-7.226c-1.424,-2.731 0.201,-5.334 2.565,-6.203c0,0 4.959,-1.551 5.303,-11.558c0.617,-17.975 0.512,-5.61 0,-23.93c-0.244,-8.701 -2.181,-18.313 9.644,-20.004l23.718,-4.111c3.194,0.047 9.75,2.846 10.872,6.232c-1.152,9.664 1.651,26.556 1.253,39.142c-0.111,3.503 0.732,15.876 5.547,15.81c2.174,-0.342 0.574,4.052 1.121,7.697c-0.334,2.596 -1.745,3.836 -4.234,3.721c-23.066,0.205 -37.473,0.29 -48.936,0.43ZM555.609,248.098l12.744,-5.915c0.587,5.267 1.456,10.313 5.858,12.585c-0.147,0.742 -0.3,1.507 -0.46,2.295l-18.142,-8.965ZM574.211,254.768c2.781,-14.012 3.528,-19.722 9.998,-15.066c118.529,2.923 239.561,3.284 361.559,-0.446c23.331,-0.953 45.876,-7.618 43.193,13.066c0,0 -5.21,7.793 -10.245,7.167c-132.905,6.614 -264.492,4.448 -396.981,-3.505c-3.269,0.192 -5.7,-0.274 -7.524,-1.216Z" style="fill:#fff;"/>
            <g>
                <path d="M219.16,694.025c0,0 0.458,5.842 -5.798,6.319c-19.162,1.462 -58.135,3.869 -61.131,-0.709l-86.662,-82.117l23.493,-24.756c9.028,-7.794 20.241,-7.784 24.026,-6.437l36.705,-0.574l-35.627,32.979l104.994,75.295Z" style="fill:#d1d1d1;"/>
                <path d="M151.658,579.316c-0.39,6.286 -2.799,10.81 -6.591,14.13l-28.652,27.535l-6.29,-12.584c-1.22,-5.888 0.059,-9.826 3.837,-11.814l28.406,-36.887c5.378,-4.761 8.181,-3.344 9.682,1.198l-0.392,18.422Z" style="fill:#e9e9e9;"/>
                <path d="M102.126,582.432c-0.459,6.286 -3.297,7.694 -7.763,11.014l-33.748,27.535l-7.408,-12.584c-1.437,-5.888 -1.863,-13.289 2.587,-15.276l35.39,-30.309c6.334,-4.761 9.636,-3.344 11.403,1.199l-0.461,18.421Z" style="fill:#e9e9e9;"/>
                <path d="M110.141,608.84c-1.243,-6.83 0.129,-10.801 6.15,-5.157c25.482,19.195 46.765,37.711 95.237,60.626c3.834,1.222 7.551,5.4 8.048,13.109l0.493,16.607c2.132,9.051 -4.237,5.815 -11.18,0.32l-89.016,-58.476c-6.642,-2.922 -9.71,-7.215 -9.202,-12.88l-0.53,-14.149Z" style="fill:#fff;"/>
                <path d="M51.093,601.263c-1.18,-7.4 0.123,-11.702 5.836,-5.587c24.181,20.796 44.378,40.856 90.375,65.682c3.638,1.324 7.166,5.85 7.637,14.202l2.889,18.465c-1.435,11.883 -11.63,5.954 -18.218,0l-79.629,-58.285c-6.304,-3.166 -9.769,-7.471 -9.288,-13.608l0.398,-20.869Z" style="fill:#fff;"/>
            </g>
            <g>
                <path d="M425.245,694.025c0,0 -0.457,5.842 5.798,6.319c19.163,1.462 59.47,4.76 62.466,0.181l79.102,-83.007l-23.493,-24.756c-9.028,-7.794 -37.14,-8.229 -40.925,-6.882l-8.056,-0.053l3.815,9.272l20.061,23.631l-98.768,75.295Z" style="fill:#ffb800;"/>
                <path d="M486.522,579.316c0.389,6.286 2.799,10.81 6.591,14.13l28.652,27.535l6.29,-12.584c1.219,-5.888 -0.06,-9.826 -3.838,-11.814l-33.297,-41.784c-5.378,-4.761 -3.289,1.553 -4.79,6.095l0.392,18.422Z" style="fill:#e9e9e9;"/>
                <path d="M535.165,583.323c0.458,6.285 4.185,6.803 8.652,10.123l33.748,27.535l7.408,-12.584c1.437,-5.888 1.863,-13.289 -2.587,-15.276l-35.391,-30.309c-6.333,-4.761 -9.635,-3.344 -11.403,1.199l-0.427,19.312Z" style="fill:#e9e9e9;"/>
                <path d="M528.038,608.84c1.244,-6.83 -0.129,-10.801 -6.15,-5.157c-26.685,13.983 -46.246,26.174 -92.568,58.4c-3.834,1.222 -10.22,7.626 -10.717,15.335l-0.493,16.607c-2.132,9.051 4.237,5.815 11.18,0.32l64.112,-46.902c6.643,-2.921 34.615,-18.789 34.107,-24.454l0.529,-14.149Z" style="fill:#fff;"/>
                <path d="M587.086,601.263c1.18,-7.4 -0.122,-11.702 -5.836,-5.587c-24.323,16.943 -44.52,37.003 -90.374,65.682c-3.638,1.324 -7.166,5.85 -7.638,14.202l-2.889,18.465c1.436,11.883 24.972,8.179 31.56,2.226l52.502,-44.931c10.751,-9.842 23.555,-23.051 23.073,-29.188l-0.398,-20.869Z" style="fill:#fff;"/>
            </g>
        </g>
    </g>
</svg>
